<?xml version="1.0" encoding="UTF-8" standalone="no"?>
<!DOCTYPE svg PUBLIC "-//W3C//DTD SVG 1.1//EN"
 "http://www.w3.org/Graphics/SVG/1.1/DTD/svg11.dtd">
<!-- Generated by graphviz version 6.0.2 (20221011.1828)
 -->
<!-- Title: CBlock.h Pages: 1 -->
<svg width="145pt" height="140pt"
 viewBox="0.00 0.00 145.00 140.00" xmlns="http://www.w3.org/2000/svg" xmlns:xlink="http://www.w3.org/1999/xlink">
<g id="graph0" class="graph" transform="scale(1 1) rotate(0) translate(4 136)">
<title>CBlock.h</title>
<!-- Node1 -->
<g id="node1" class="node">
<title>Node1</title>
<g id="a_node1"><a xlink:title="General header for CBlock.">
<polygon fill="#999999" stroke="#666666" points="43,-112.5 43,-131.5 99,-131.5 99,-112.5 43,-112.5"/>
<text text-anchor="middle" x="71" y="-119.5" font-family="Helvetica,sans-Serif" font-size="10.00">CBlock.h</text>
</a>
</g>
</g>
<!-- Node2 -->
<g id="node2" class="node">
<title>Node2</title>
<g id="a_node2"><a xlink:href="_c_stack_8h.html" target="_top" xlink:title="CStack class header.">
<polygon fill="white" stroke="#666666" points="5.5,-56.5 5.5,-75.5 62.5,-75.5 62.5,-56.5 5.5,-56.5"/>
<text text-anchor="middle" x="34" y="-63.5" font-family="Helvetica,sans-Serif" font-size="10.00">CStack.h</text>
</a>
</g>
</g>
<!-- Node1&#45;&gt;Node2 -->
<g id="edge1" class="edge">
<title>Node1&#45;&gt;Node2</title>
<path fill="none" stroke="#63b8ff" d="M59.05,-103.57C52.69,-94.27 45.13,-83.25 40,-75.75"/>
<polygon fill="#63b8ff" stroke="#63b8ff" points="56.35,-105.81 64.89,-112.08 62.13,-101.86 56.35,-105.81"/>
</g>
<!-- Node4 -->
<g id="node4" class="node">
<title>Node4</title>
<g id="a_node4"><a xlink:href="main_8cpp.html" target="_top" xlink:title="Main source.">
<polygon fill="white" stroke="#666666" points="81,-56.5 81,-75.5 137,-75.5 137,-56.5 81,-56.5"/>
<text text-anchor="middle" x="109" y="-63.5" font-family="Helvetica,sans-Serif" font-size="10.00">main.cpp</text>
</a>
</g>
</g>
<!-- Node1&#45;&gt;Node4 -->
<g id="edge3" class="edge">
<title>Node1&#45;&gt;Node4</title>
<path fill="none" stroke="#63b8ff" d="M83.06,-103.86C89.64,-94.5 97.51,-83.33 102.84,-75.75"/>
<polygon fill="#63b8ff" stroke="#63b8ff" points="80.17,-101.89 77.27,-112.08 85.89,-105.92 80.17,-101.89"/>
</g>
<!-- Node3 -->
<g id="node3" class="node">
<title>Node3</title>
<g id="a_node3"><a xlink:href="_c_stack_8cpp.html" target="_top" xlink:title="CStack class implementation.">
<polygon fill="white" stroke="#666666" points="0,-0.5 0,-19.5 68,-19.5 68,-0.5 0,-0.5"/>
<text text-anchor="middle" x="34" y="-7.5" font-family="Helvetica,sans-Serif" font-size="10.00">CStack.cpp</text>
</a>
</g>
</g>
<!-- Node2&#45;&gt;Node3 -->
<g id="edge2" class="edge">
<title>Node2&#45;&gt;Node3</title>
<path fill="none" stroke="#63b8ff" d="M34,-45.8C34,-36.91 34,-26.78 34,-19.75"/>
<polygon fill="#63b8ff" stroke="#63b8ff" points="30.5,-46.08 34,-56.08 37.5,-46.08 30.5,-46.08"/>
</g>
</g>
</svg>
