<?xml version="1.0" encoding="UTF-8" standalone="no"?>
<!DOCTYPE svg PUBLIC "-//W3C//DTD SVG 1.1//EN"
 "http://www.w3.org/Graphics/SVG/1.1/DTD/svg11.dtd">
<!-- Generated by graphviz version 6.0.2 (20221011.1828)
 -->
<!-- Title: CBlock.h Pages: 1 -->
<!--zoomable 196 -->
<svg id="main" version="1.1" xmlns="http://www.w3.org/2000/svg" xmlns:xlink="http://www.w3.org/1999/xlink" xml:space="preserve" onload="init(evt)">
<style type="text/css"><![CDATA[
.edge:hover path { stroke: red; }
.edge:hover polygon { stroke: red; fill: red; }
]]></style>
<script type="text/javascript"><![CDATA[
var edges = document.getElementsByTagName('g');
if (edges && edges.length) {
  for (var i=0;i<edges.length;i++) {
    if (edges[i].id.substr(0,4)=='edge') {
      edges[i].setAttribute('class','edge');
    }
  }
}
]]></script>
        <defs>
                <circle id="rim" cx="0" cy="0" r="7"/>
                <circle id="rim2" cx="0" cy="0" r="3.5"/>
                <g id="zoomPlus">
                        <use xlink:href="#rim" fill="#404040">
                                <set attributeName="fill" to="#808080" begin="zoomplus.mouseover" end="zoomplus.mouseout"/>
                        </use>
                        <path d="M-4,0h8M0,-4v8" fill="none" stroke="white" stroke-width="1.5" pointer-events="none"/>
                </g>
                <g id="zoomMin">
                        <use xlink:href="#rim" fill="#404040">
                                <set attributeName="fill" to="#808080" begin="zoomminus.mouseover" end="zoomminus.mouseout"/>
                        </use>
                        <path d="M-4,0h8" fill="none" stroke="white" stroke-width="1.5" pointer-events="none"/>
                </g>
                <g id="dirArrow">
                        <path fill="none" stroke="white" stroke-width="1.5" d="M0,-3.0v7 M-2.5,-0.5L0,-3.0L2.5,-0.5"/>
                </g>
               <g id="resetDef">
                       <use xlink:href="#rim2" fill="#404040">
                               <set attributeName="fill" to="#808080" begin="reset.mouseover" end="reset.mouseout"/>
                       </use>
               </g>
        </defs>

<script type="text/javascript">
var viewWidth = 605;
var viewHeight = 196;
var sectionId = 'dynsection-0';
</script>
<script xlink:href="svgpan.js"/>
<svg id="graph" class="graph">
<g id="viewport">
<title>CBlock.h</title>
<!-- Node1 -->
<g id="node1" class="node">
<title>Node1</title>
<g id="a_node1"><a xlink:title="General header for CBlock.">
<polygon fill="#999999" stroke="#666666" points="166.24,-168.5 166.24,-187.5 222.24,-187.5 222.24,-168.5 166.24,-168.5"/>
<text text-anchor="middle" x="194.24" y="-175.5" font-family="Helvetica,sans-Serif" font-size="10.00">CBlock.h</text>
</a>
</g>
</g>
<!-- Node2 -->
<g id="node2" class="node">
<title>Node2</title>
<g id="a_node2"><a xlink:href="_c_block__bool_8h.html" target="_top" xlink:title="CBlock_bool class header.">
<polygon fill="white" stroke="#666666" points="98.24,-112.5 98.24,-131.5 178.24,-131.5 178.24,-112.5 98.24,-112.5"/>
<text text-anchor="middle" x="138.24" y="-119.5" font-family="Helvetica,sans-Serif" font-size="10.00">CBlock_bool.h</text>
</a>
</g>
</g>
<!-- Node1&#45;&gt;Node2 -->
<g id="edge1" class="edge">
<title>Node1&#45;&gt;Node2</title>
<path fill="none" stroke="#63b8ff" d="M185.24,-168.32C177.04,-160.42 164.73,-148.55 154.77,-138.94"/>
<polygon fill="#63b8ff" stroke="#63b8ff" points="157.03,-136.26 147.4,-131.83 152.17,-141.29 157.03,-136.26"/>
</g>
<!-- Node14 -->
<g id="node14" class="node">
<title>Node14</title>
<g id="a_node14"><a xlink:href="_c_block___t_week_day_8h.html" target="_top" xlink:title="CBlock_TWeekDay class header.">
<polygon fill="white" stroke="#666666" points="199.24,-112.5 199.24,-131.5 309.24,-131.5 309.24,-112.5 199.24,-112.5"/>
<text text-anchor="middle" x="254.24" y="-119.5" font-family="Helvetica,sans-Serif" font-size="10.00">CBlock_TWeekDay.h</text>
</a>
</g>
</g>
<!-- Node1&#45;&gt;Node14 -->
<g id="edge19" class="edge">
<title>Node1&#45;&gt;Node14</title>
<path fill="none" stroke="#63b8ff" d="M203.88,-168.32C212.75,-160.34 226.11,-148.31 236.84,-138.65"/>
<polygon fill="#63b8ff" stroke="#63b8ff" points="239.33,-141.13 244.42,-131.83 234.65,-135.92 239.33,-141.13"/>
</g>
<!-- Node3 -->
<g id="node3" class="node">
<title>Node3</title>
<g id="a_node3"><a xlink:title=" ">
<polygon fill="#e0e0e0" stroke="#999999" points="23.24,-0.5 23.24,-19.5 77.24,-19.5 77.24,-0.5 23.24,-0.5"/>
<text text-anchor="middle" x="50.24" y="-7.5" font-family="Helvetica,sans-Serif" font-size="10.00">iostream</text>
</a>
</g>
</g>
<!-- Node2&#45;&gt;Node3 -->
<g id="edge2" class="edge">
<title>Node2&#45;&gt;Node3</title>
<path fill="none" stroke="#63b8ff" d="M98.13,-119.48C66.91,-115.92 25.44,-105.49 4.24,-76 -8.18,-58.73 10.94,-38.75 28.17,-25.55"/>
<polygon fill="#63b8ff" stroke="#63b8ff" points="30.28,-28.34 36.33,-19.65 26.18,-22.67 30.28,-28.34"/>
</g>
<!-- Node4 -->
<g id="node4" class="node">
<title>Node4</title>
<g id="a_node4"><a xlink:title=" ">
<polygon fill="#e0e0e0" stroke="#999999" points="163.24,-0.5 163.24,-19.5 215.24,-19.5 215.24,-0.5 163.24,-0.5"/>
<text text-anchor="middle" x="189.24" y="-7.5" font-family="Helvetica,sans-Serif" font-size="10.00">sstream</text>
</a>
</g>
</g>
<!-- Node2&#45;&gt;Node4 -->
<g id="edge3" class="edge">
<title>Node2&#45;&gt;Node4</title>
<path fill="none" stroke="#63b8ff" d="M104.62,-112.47C70.3,-102.09 24.64,-82.6 44.24,-56 47.59,-51.45 111.43,-32.83 153.27,-21.01"/>
<polygon fill="#63b8ff" stroke="#63b8ff" points="154.45,-24.32 163.13,-18.24 152.55,-17.58 154.45,-24.32"/>
</g>
<!-- Node5 -->
<g id="node5" class="node">
<title>Node5</title>
<g id="a_node5"><a xlink:title=" ">
<polygon fill="#e0e0e0" stroke="#999999" points="53.74,-56.5 53.74,-75.5 94.74,-75.5 94.74,-56.5 53.74,-56.5"/>
<text text-anchor="middle" x="74.24" y="-63.5" font-family="Helvetica,sans-Serif" font-size="10.00">string</text>
</a>
</g>
</g>
<!-- Node2&#45;&gt;Node5 -->
<g id="edge4" class="edge">
<title>Node2&#45;&gt;Node5</title>
<path fill="none" stroke="#63b8ff" d="M127.95,-112.32C118.4,-104.26 103.96,-92.08 92.45,-82.37"/>
<polygon fill="#63b8ff" stroke="#63b8ff" points="94.61,-79.61 84.71,-75.83 90.09,-84.96 94.61,-79.61"/>
</g>
<!-- Node6 -->
<g id="node6" class="node">
<title>Node6</title>
<g id="a_node6"><a xlink:title=" ">
<polygon fill="#e0e0e0" stroke="#999999" points="385.74,-0.5 385.74,-19.5 444.74,-19.5 444.74,-0.5 385.74,-0.5"/>
<text text-anchor="middle" x="415.24" y="-7.5" font-family="Helvetica,sans-Serif" font-size="10.00">stdexcept</text>
</a>
</g>
</g>
<!-- Node2&#45;&gt;Node6 -->
<g id="edge5" class="edge">
<title>Node2&#45;&gt;Node6</title>
<path fill="none" stroke="#63b8ff" d="M178.31,-113.74C244.35,-101.72 369.19,-78.73 373.24,-76 390.07,-64.65 401.67,-44.05 408.34,-29.07"/>
<polygon fill="#63b8ff" stroke="#63b8ff" points="411.6,-30.37 412.18,-19.79 405.13,-27.69 411.6,-30.37"/>
</g>
<!-- Node7 -->
<g id="node7" class="node">
<title>Node7</title>
<g id="a_node7"><a xlink:title=" ">
<polygon fill="#e0e0e0" stroke="#999999" points="95.24,-0.5 95.24,-19.5 145.24,-19.5 145.24,-0.5 95.24,-0.5"/>
<text text-anchor="middle" x="120.24" y="-7.5" font-family="Helvetica,sans-Serif" font-size="10.00">typeinfo</text>
</a>
</g>
</g>
<!-- Node2&#45;&gt;Node7 -->
<g id="edge6" class="edge">
<title>Node2&#45;&gt;Node7</title>
<path fill="none" stroke="#63b8ff" d="M98.05,-118.54C68.69,-114.38 30.74,-103.61 11.24,-76 6.11,-68.74 6.29,-63.39 11.24,-56 19.92,-43.02 56.94,-29.54 85.46,-20.75"/>
<polygon fill="#63b8ff" stroke="#63b8ff" points="86.56,-24.08 95.13,-17.85 84.55,-17.37 86.56,-24.08"/>
</g>
<!-- Node8 -->
<g id="node8" class="node">
<title>Node8</title>
<g id="a_node8"><a xlink:title=" ">
<polygon fill="#e0e0e0" stroke="#999999" points="113.24,-56.5 113.24,-75.5 153.24,-75.5 153.24,-56.5 113.24,-56.5"/>
<text text-anchor="middle" x="133.24" y="-63.5" font-family="Helvetica,sans-Serif" font-size="10.00">utility</text>
</a>
</g>
</g>
<!-- Node2&#45;&gt;Node8 -->
<g id="edge7" class="edge">
<title>Node2&#45;&gt;Node8</title>
<path fill="none" stroke="#63b8ff" d="M137.41,-112.08C136.76,-105.01 135.82,-94.86 135,-85.99"/>
<polygon fill="#63b8ff" stroke="#63b8ff" points="138.45,-85.39 134.05,-75.75 131.48,-86.03 138.45,-85.39"/>
</g>
<!-- Node9 -->
<g id="node9" class="node">
<title>Node9</title>
<g id="a_node9"><a xlink:title=" ">
<polygon fill="#e0e0e0" stroke="#999999" points="462.74,-0.5 462.74,-19.5 527.74,-19.5 527.74,-0.5 462.74,-0.5"/>
<text text-anchor="middle" x="495.24" y="-7.5" font-family="Helvetica,sans-Serif" font-size="10.00">ClassInfo.h</text>
</a>
</g>
</g>
<!-- Node2&#45;&gt;Node9 -->
<g id="edge8" class="edge">
<title>Node2&#45;&gt;Node9</title>
<path fill="none" stroke="#63b8ff" d="M178.3,-114.07C250.85,-101.5 396.6,-76.25 397.24,-76 427.86,-63.81 458.83,-41.15 477.53,-26.07"/>
<polygon fill="#63b8ff" stroke="#63b8ff" points="479.96,-28.6 485.45,-19.54 475.5,-23.2 479.96,-28.6"/>
</g>
<!-- Node10 -->
<g id="node10" class="node">
<title>Node10</title>
<g id="a_node10"><a xlink:href="_c_block_base_8h.html" target="_top" xlink:title="CBlockBase class header.">
<polygon fill="white" stroke="#666666" points="285.74,-56.5 285.74,-75.5 364.74,-75.5 364.74,-56.5 285.74,-56.5"/>
<text text-anchor="middle" x="325.24" y="-63.5" font-family="Helvetica,sans-Serif" font-size="10.00">CBlockBase.h</text>
</a>
</g>
</g>
<!-- Node2&#45;&gt;Node10 -->
<g id="edge9" class="edge">
<title>Node2&#45;&gt;Node10</title>
<path fill="none" stroke="#63b8ff" d="M167.87,-112.44C199.74,-103.24 250.57,-88.56 285.8,-78.39"/>
<polygon fill="#63b8ff" stroke="#63b8ff" points="287.11,-81.65 295.74,-75.52 285.17,-74.93 287.11,-81.65"/>
</g>
<!-- Node13 -->
<g id="node13" class="node">
<title>Node13</title>
<g id="a_node13"><a xlink:title=" ">
<polygon fill="#e0e0e0" stroke="#999999" points="545.74,-0.5 545.74,-19.5 596.74,-19.5 596.74,-0.5 545.74,-0.5"/>
<text text-anchor="middle" x="571.24" y="-7.5" font-family="Helvetica,sans-Serif" font-size="10.00">check.h</text>
</a>
</g>
</g>
<!-- Node2&#45;&gt;Node13 -->
<g id="edge18" class="edge">
<title>Node2&#45;&gt;Node13</title>
<path fill="none" stroke="#63b8ff" d="M178.25,-113.98C182.3,-113.3 186.35,-112.63 190.24,-112 296.72,-94.8 326.89,-106.89 430.24,-76 473.21,-63.16 519.88,-39.55 547.3,-24.6"/>
<polygon fill="#63b8ff" stroke="#63b8ff" points="549.09,-27.6 556.15,-19.7 545.71,-21.48 549.09,-27.6"/>
</g>
<!-- Node10&#45;&gt;Node3 -->
<g id="edge11" class="edge">
<title>Node10&#45;&gt;Node3</title>
<path fill="none" stroke="#63b8ff" d="M285.34,-58.23C239.82,-50.34 162.91,-36.51 87.47,-20.17"/>
<polygon fill="#63b8ff" stroke="#63b8ff" points="87.84,-16.67 77.32,-17.95 86.35,-23.51 87.84,-16.67"/>
</g>
<!-- Node10&#45;&gt;Node4 -->
<g id="edge12" class="edge">
<title>Node10&#45;&gt;Node4</title>
<path fill="none" stroke="#63b8ff" d="M303.69,-56.44C281.21,-47.52 245.75,-33.44 220.26,-23.32"/>
<polygon fill="#63b8ff" stroke="#63b8ff" points="221.27,-19.95 210.69,-19.52 218.69,-26.46 221.27,-19.95"/>
</g>
<!-- Node10&#45;&gt;Node6 -->
<g id="edge13" class="edge">
<title>Node10&#45;&gt;Node6</title>
<path fill="none" stroke="#63b8ff" d="M339.7,-56.32C353.74,-47.9 375.29,-34.97 391.78,-25.07"/>
<polygon fill="#63b8ff" stroke="#63b8ff" points="394.04,-27.8 400.81,-19.65 390.44,-21.8 394.04,-27.8"/>
</g>
<!-- Node10&#45;&gt;Node7 -->
<g id="edge14" class="edge">
<title>Node10&#45;&gt;Node7</title>
<path fill="none" stroke="#63b8ff" d="M292.77,-56.47C260.39,-47.96 208.95,-34.43 155.49,-20.33"/>
<polygon fill="#63b8ff" stroke="#63b8ff" points="156.05,-16.86 145.49,-17.69 154.26,-23.62 156.05,-16.86"/>
</g>
<!-- Node10&#45;&gt;Node9 -->
<g id="edge15" class="edge">
<title>Node10&#45;&gt;Node9</title>
<path fill="none" stroke="#63b8ff" d="M352.17,-56.44C380.9,-47.32 426.57,-32.81 458.56,-22.65"/>
<polygon fill="#63b8ff" stroke="#63b8ff" points="459.95,-25.88 468.43,-19.52 457.84,-19.21 459.95,-25.88"/>
</g>
<!-- Node11 -->
<g id="node11" class="node">
<title>Node11</title>
<g id="a_node11"><a xlink:title=" ">
<polygon fill="#e0e0e0" stroke="#999999" points="233.24,-0.5 233.24,-19.5 287.24,-19.5 287.24,-0.5 233.24,-0.5"/>
<text text-anchor="middle" x="260.24" y="-7.5" font-family="Helvetica,sans-Serif" font-size="10.00">compare</text>
</a>
</g>
</g>
<!-- Node10&#45;&gt;Node11 -->
<g id="edge10" class="edge">
<title>Node10&#45;&gt;Node11</title>
<path fill="none" stroke="#63b8ff" d="M314.79,-56.32C305.09,-48.26 290.42,-36.08 278.74,-26.37"/>
<polygon fill="#63b8ff" stroke="#63b8ff" points="280.8,-23.53 270.87,-19.83 276.33,-28.92 280.8,-23.53"/>
</g>
<!-- Node12 -->
<g id="node12" class="node">
<title>Node12</title>
<g id="a_node12"><a xlink:title=" ">
<polygon fill="#e0e0e0" stroke="#999999" points="305.24,-0.5 305.24,-19.5 367.24,-19.5 367.24,-0.5 305.24,-0.5"/>
<text text-anchor="middle" x="336.24" y="-7.5" font-family="Helvetica,sans-Serif" font-size="10.00">demagle.h</text>
</a>
</g>
</g>
<!-- Node10&#45;&gt;Node12 -->
<g id="edge16" class="edge">
<title>Node10&#45;&gt;Node12</title>
<path fill="none" stroke="#63b8ff" d="M327.05,-56.08C328.51,-48.93 330.61,-38.64 332.43,-29.69"/>
<polygon fill="#63b8ff" stroke="#63b8ff" points="335.89,-30.25 334.45,-19.75 329.03,-28.85 335.89,-30.25"/>
</g>
<!-- Node10&#45;&gt;Node13 -->
<g id="edge17" class="edge">
<title>Node10&#45;&gt;Node13</title>
<path fill="none" stroke="#63b8ff" d="M364.83,-57.21C405.43,-49.08 470.64,-35.65 535.64,-20.3"/>
<polygon fill="#63b8ff" stroke="#63b8ff" points="536.73,-23.64 545.65,-17.92 535.11,-16.83 536.73,-23.64"/>
</g>
<!-- Node14&#45;&gt;Node3 -->
<g id="edge20" class="edge">
<title>Node14&#45;&gt;Node3</title>
<path fill="none" stroke="#63b8ff" d="M243.73,-112.33C227.18,-98.97 193.67,-73.11 162.24,-56 137.71,-42.65 108.36,-31 85.86,-22.9"/>
<polygon fill="#63b8ff" stroke="#63b8ff" points="86.96,-19.58 76.36,-19.55 84.63,-26.18 86.96,-19.58"/>
</g>
<!-- Node14&#45;&gt;Node4 -->
<g id="edge21" class="edge">
<title>Node14&#45;&gt;Node4</title>
<path fill="none" stroke="#63b8ff" d="M252.78,-112.48C250.3,-99.53 244.4,-74.48 233.24,-56 226.49,-44.83 216.46,-34.29 207.68,-26.22"/>
<polygon fill="#63b8ff" stroke="#63b8ff" points="209.92,-23.53 200.1,-19.56 205.3,-28.79 209.92,-23.53"/>
</g>
<!-- Node14&#45;&gt;Node5 -->
<g id="edge22" class="edge">
<title>Node14&#45;&gt;Node5</title>
<path fill="none" stroke="#63b8ff" d="M225.72,-112.44C192.66,-102.53 138.39,-86.25 104.58,-76.1"/>
<polygon fill="#63b8ff" stroke="#63b8ff" points="105.37,-72.69 94.79,-73.16 103.36,-79.39 105.37,-72.69"/>
</g>
<!-- Node14&#45;&gt;Node6 -->
<g id="edge23" class="edge">
<title>Node14&#45;&gt;Node6</title>
<path fill="none" stroke="#63b8ff" d="M309.38,-119.31C342.74,-115.21 383.32,-104.18 407.24,-76 417.92,-63.41 419.06,-44.2 418.04,-29.92"/>
<polygon fill="#63b8ff" stroke="#63b8ff" points="421.49,-29.3 416.91,-19.75 414.54,-30.07 421.49,-29.3"/>
</g>
<!-- Node14&#45;&gt;Node7 -->
<g id="edge24" class="edge">
<title>Node14&#45;&gt;Node7</title>
<path fill="none" stroke="#63b8ff" d="M247.67,-112.26C237.45,-99.02 216.68,-73.59 195.24,-56 180.31,-43.75 161.71,-32.57 146.77,-24.42"/>
<polygon fill="#63b8ff" stroke="#63b8ff" points="148.02,-21.12 137.55,-19.52 144.74,-27.3 148.02,-21.12"/>
</g>
<!-- Node14&#45;&gt;Node8 -->
<g id="edge25" class="edge">
<title>Node14&#45;&gt;Node8</title>
<path fill="none" stroke="#63b8ff" d="M235.06,-112.44C215.33,-103.64 184.35,-89.81 161.74,-79.72"/>
<polygon fill="#63b8ff" stroke="#63b8ff" points="162.88,-76.4 152.32,-75.52 160.03,-82.79 162.88,-76.4"/>
</g>
<!-- Node14&#45;&gt;Node9 -->
<g id="edge26" class="edge">
<title>Node14&#45;&gt;Node9</title>
<path fill="none" stroke="#63b8ff" d="M309.54,-113.73C344.62,-107.43 390.05,-96.04 426.24,-76 448.62,-63.6 469.27,-42.29 482.03,-27.46"/>
<polygon fill="#63b8ff" stroke="#63b8ff" points="484.87,-29.52 488.59,-19.6 479.5,-25.04 484.87,-29.52"/>
</g>
<!-- Node14&#45;&gt;Node10 -->
<g id="edge27" class="edge">
<title>Node14&#45;&gt;Node10</title>
<path fill="none" stroke="#63b8ff" d="M265.64,-112.32C276.35,-104.18 292.58,-91.84 305.4,-82.09"/>
<polygon fill="#63b8ff" stroke="#63b8ff" points="307.78,-84.67 313.62,-75.83 303.54,-79.1 307.78,-84.67"/>
</g>
<!-- Node14&#45;&gt;Node13 -->
<g id="edge28" class="edge">
<title>Node14&#45;&gt;Node13</title>
<path fill="none" stroke="#63b8ff" d="M309.37,-112.96C350.25,-105.96 406.85,-94.07 454.24,-76 489.54,-62.54 527.2,-39.96 549.98,-25.27"/>
<polygon fill="#63b8ff" stroke="#63b8ff" points="552.05,-28.1 558.5,-19.69 548.22,-22.24 552.05,-28.1"/>
</g>
</g>
</svg>
        <g id="navigator" transform="translate(0 0)" fill="#404254">
                <rect fill="#f2f5e9" fill-opacity="0.5" stroke="#606060" stroke-width=".5" x="0" y="0" width="60" height="60"/>
                <use id="zoomplus" xlink:href="#zoomPlus" x="17" y="9" onmousedown="handleZoom(evt,'in')"/>
                <use id="zoomminus" xlink:href="#zoomMin" x="42" y="9" onmousedown="handleZoom(evt,'out')"/>
                <use id="reset" xlink:href="#resetDef" x="30" y="36" onmousedown="handleReset()"/>
                <g id="arrowUp" xlink:href="#dirArrow" transform="translate(30 24)" onmousedown="handlePan(0,-1)">
                  <use xlink:href="#rim" fill="#404040">
                        <set attributeName="fill" to="#808080" begin="arrowUp.mouseover" end="arrowUp.mouseout"/>
                  </use>
                  <path fill="none" stroke="white" stroke-width="1.5" d="M0,-3.0v7 M-2.5,-0.5L0,-3.0L2.5,-0.5"/>
                </g>
                <g id="arrowRight" xlink:href="#dirArrow" transform="rotate(90) translate(36 -43)" onmousedown="handlePan(1,0)">
                  <use xlink:href="#rim" fill="#404040">
                        <set attributeName="fill" to="#808080" begin="arrowRight.mouseover" end="arrowRight.mouseout"/>
                  </use>
                  <path fill="none" stroke="white" stroke-width="1.5" d="M0,-3.0v7 M-2.5,-0.5L0,-3.0L2.5,-0.5"/>
                </g>
                <g id="arrowDown" xlink:href="#dirArrow" transform="rotate(180) translate(-30 -48)" onmousedown="handlePan(0,1)">
                  <use xlink:href="#rim" fill="#404040">
                        <set attributeName="fill" to="#808080" begin="arrowDown.mouseover" end="arrowDown.mouseout"/>
                  </use>
                  <path fill="none" stroke="white" stroke-width="1.5" d="M0,-3.0v7 M-2.5,-0.5L0,-3.0L2.5,-0.5"/>
                </g>
                <g id="arrowLeft" xlink:href="#dirArrow" transform="rotate(270) translate(-36 17)" onmousedown="handlePan(-1,0)">
                  <use xlink:href="#rim" fill="#404040">
                        <set attributeName="fill" to="#808080" begin="arrowLeft.mouseover" end="arrowLeft.mouseout"/>
                  </use>
                  <path fill="none" stroke="white" stroke-width="1.5" d="M0,-3.0v7 M-2.5,-0.5L0,-3.0L2.5,-0.5"/>
                </g>
        </g>
        <svg viewBox="0 0 15 15" width="100%" height="30px" preserveAspectRatio="xMaxYMin meet">
         <g id="arrow_out" transform="scale(0.3 0.3)">
          <a xlink:href="_c_block_8h__incl_org.svg" target="_base">
           <rect id="button" ry="5" rx="5" y="6" x="6" height="38" width="38"
                fill="#f2f5e9" fill-opacity="0.5" stroke="#606060" stroke-width="1.0"/>
           <path id="arrow"
             d="M 11.500037,31.436501 C 11.940474,20.09759 22.043105,11.32322 32.158766,21.979434 L 37.068811,17.246167 C 37.068811,17.246167 37.088388,32 37.088388,32 L 22.160133,31.978069 C 22.160133,31.978069 26.997745,27.140456 26.997745,27.140456 C 18.528582,18.264221 13.291696,25.230495 11.500037,31.436501 z"
             style="fill:#404040;"/>
          </a>
         </g>
        </svg>
</svg>
