<?xml version="1.0" encoding="UTF-8" standalone="no"?>
<!DOCTYPE svg PUBLIC "-//W3C//DTD SVG 1.1//EN"
 "http://www.w3.org/Graphics/SVG/1.1/DTD/svg11.dtd">
<!-- Generated by graphviz version 6.0.2 (20221011.1828)
 -->
<!-- Title: CBlockBase.h Pages: 1 -->
<svg width="248pt" height="252pt"
 viewBox="0.00 0.00 248.00 252.00" xmlns="http://www.w3.org/2000/svg" xmlns:xlink="http://www.w3.org/1999/xlink">
<g id="graph0" class="graph" transform="scale(1 1) rotate(0) translate(4 248)">
<title>CBlockBase.h</title>
<!-- Node1 -->
<g id="node1" class="node">
<title>Node1</title>
<g id="a_node1"><a xlink:title="CBlockBase class header.">
<polygon fill="#999999" stroke="#666666" points="83.5,-224.5 83.5,-243.5 162.5,-243.5 162.5,-224.5 83.5,-224.5"/>
<text text-anchor="middle" x="123" y="-231.5" font-family="Helvetica,sans-Serif" font-size="10.00">CBlockBase.h</text>
</a>
</g>
</g>
<!-- Node2 -->
<g id="node2" class="node">
<title>Node2</title>
<g id="a_node2"><a xlink:href="_c_block___t_week_day_8h.html" target="_top" xlink:title="CBlock_TWeekDay class header.">
<polygon fill="white" stroke="#666666" points="125,-168.5 125,-187.5 235,-187.5 235,-168.5 125,-168.5"/>
<text text-anchor="middle" x="180" y="-175.5" font-family="Helvetica,sans-Serif" font-size="10.00">CBlock_TWeekDay.h</text>
</a>
</g>
</g>
<!-- Node1&#45;&gt;Node2 -->
<g id="edge1" class="edge">
<title>Node1&#45;&gt;Node2</title>
<path fill="none" stroke="#63b8ff" d="M139.62,-217.25C149.73,-207.67 162.28,-195.79 170.68,-187.83"/>
<polygon fill="#63b8ff" stroke="#63b8ff" points="137.01,-214.91 132.16,-224.32 141.82,-219.99 137.01,-214.91"/>
</g>
<!-- Node8 -->
<g id="node8" class="node">
<title>Node8</title>
<g id="a_node8"><a xlink:href="_c_block__bool_8h.html" target="_top" xlink:title="CBlock_bool class header.">
<polygon fill="white" stroke="#666666" points="27,-168.5 27,-187.5 107,-187.5 107,-168.5 27,-168.5"/>
<text text-anchor="middle" x="67" y="-175.5" font-family="Helvetica,sans-Serif" font-size="10.00">CBlock_bool.h</text>
</a>
</g>
</g>
<!-- Node1&#45;&gt;Node8 -->
<g id="edge7" class="edge">
<title>Node1&#45;&gt;Node8</title>
<path fill="none" stroke="#63b8ff" d="M106.67,-217.25C96.74,-207.67 84.41,-195.79 76.16,-187.83"/>
<polygon fill="#63b8ff" stroke="#63b8ff" points="104.37,-219.9 114,-224.32 109.23,-214.86 104.37,-219.9"/>
</g>
<!-- Node3 -->
<g id="node3" class="node">
<title>Node3</title>
<g id="a_node3"><a xlink:href="_c_block_8h.html" target="_top" xlink:title="General header for CBlock.">
<polygon fill="white" stroke="#666666" points="43,-112.5 43,-131.5 99,-131.5 99,-112.5 43,-112.5"/>
<text text-anchor="middle" x="71" y="-119.5" font-family="Helvetica,sans-Serif" font-size="10.00">CBlock.h</text>
</a>
</g>
</g>
<!-- Node2&#45;&gt;Node3 -->
<g id="edge2" class="edge">
<title>Node2&#45;&gt;Node3</title>
<path fill="none" stroke="#63b8ff" d="M153.48,-163.86C133.27,-153.85 106.01,-140.35 88.47,-131.65"/>
<polygon fill="#63b8ff" stroke="#63b8ff" points="151.97,-167.02 162.49,-168.32 155.08,-160.75 151.97,-167.02"/>
</g>
<!-- Node7 -->
<g id="node7" class="node">
<title>Node7</title>
<g id="a_node7"><a xlink:href="_c_block___t_week_day_8cpp.html" target="_top" xlink:title="CBlock_TWeekDay class source.">
<polygon fill="white" stroke="#666666" points="120,-112.5 120,-131.5 240,-131.5 240,-112.5 120,-112.5"/>
<text text-anchor="middle" x="180" y="-119.5" font-family="Helvetica,sans-Serif" font-size="10.00">CBlock_TWeekDay.cpp</text>
</a>
</g>
</g>
<!-- Node2&#45;&gt;Node7 -->
<g id="edge6" class="edge">
<title>Node2&#45;&gt;Node7</title>
<path fill="none" stroke="#63b8ff" d="M180,-157.8C180,-148.91 180,-138.78 180,-131.75"/>
<polygon fill="#63b8ff" stroke="#63b8ff" points="176.5,-158.08 180,-168.08 183.5,-158.08 176.5,-158.08"/>
</g>
<!-- Node4 -->
<g id="node4" class="node">
<title>Node4</title>
<g id="a_node4"><a xlink:href="_c_stack_8h.html" target="_top" xlink:title="CStack class header.">
<polygon fill="white" stroke="#666666" points="5.5,-56.5 5.5,-75.5 62.5,-75.5 62.5,-56.5 5.5,-56.5"/>
<text text-anchor="middle" x="34" y="-63.5" font-family="Helvetica,sans-Serif" font-size="10.00">CStack.h</text>
</a>
</g>
</g>
<!-- Node3&#45;&gt;Node4 -->
<g id="edge3" class="edge">
<title>Node3&#45;&gt;Node4</title>
<path fill="none" stroke="#63b8ff" d="M59.05,-103.57C52.69,-94.27 45.13,-83.25 40,-75.75"/>
<polygon fill="#63b8ff" stroke="#63b8ff" points="56.35,-105.81 64.89,-112.08 62.13,-101.86 56.35,-105.81"/>
</g>
<!-- Node6 -->
<g id="node6" class="node">
<title>Node6</title>
<g id="a_node6"><a xlink:href="main_8cpp.html" target="_top" xlink:title="Main source.">
<polygon fill="white" stroke="#666666" points="81,-56.5 81,-75.5 137,-75.5 137,-56.5 81,-56.5"/>
<text text-anchor="middle" x="109" y="-63.5" font-family="Helvetica,sans-Serif" font-size="10.00">main.cpp</text>
</a>
</g>
</g>
<!-- Node3&#45;&gt;Node6 -->
<g id="edge5" class="edge">
<title>Node3&#45;&gt;Node6</title>
<path fill="none" stroke="#63b8ff" d="M83.06,-103.86C89.64,-94.5 97.51,-83.33 102.84,-75.75"/>
<polygon fill="#63b8ff" stroke="#63b8ff" points="80.17,-101.89 77.27,-112.08 85.89,-105.92 80.17,-101.89"/>
</g>
<!-- Node5 -->
<g id="node5" class="node">
<title>Node5</title>
<g id="a_node5"><a xlink:href="_c_stack_8cpp.html" target="_top" xlink:title="CStack class implementation.">
<polygon fill="white" stroke="#666666" points="0,-0.5 0,-19.5 68,-19.5 68,-0.5 0,-0.5"/>
<text text-anchor="middle" x="34" y="-7.5" font-family="Helvetica,sans-Serif" font-size="10.00">CStack.cpp</text>
</a>
</g>
</g>
<!-- Node4&#45;&gt;Node5 -->
<g id="edge4" class="edge">
<title>Node4&#45;&gt;Node5</title>
<path fill="none" stroke="#63b8ff" d="M34,-45.8C34,-36.91 34,-26.78 34,-19.75"/>
<polygon fill="#63b8ff" stroke="#63b8ff" points="30.5,-46.08 34,-56.08 37.5,-46.08 30.5,-46.08"/>
</g>
<!-- Node8&#45;&gt;Node3 -->
<g id="edge8" class="edge">
<title>Node8&#45;&gt;Node3</title>
<path fill="none" stroke="#63b8ff" d="M68.4,-158.1C69.06,-149.14 69.83,-138.86 70.35,-131.75"/>
<polygon fill="#63b8ff" stroke="#63b8ff" points="64.91,-157.85 67.66,-168.08 71.89,-158.37 64.91,-157.85"/>
</g>
</g>
</svg>
