<?xml version="1.0" encoding="UTF-8" standalone="no"?>
<!DOCTYPE svg PUBLIC "-//W3C//DTD SVG 1.1//EN"
 "http://www.w3.org/Graphics/SVG/1.1/DTD/svg11.dtd">
<!-- Generated by graphviz version 6.0.2 (20221011.1828)
 -->
<!-- Title: CStack.cpp Pages: 1 -->
<!--zoomable 308 -->
<svg id="main" version="1.1" xmlns="http://www.w3.org/2000/svg" xmlns:xlink="http://www.w3.org/1999/xlink" xml:space="preserve" onload="init(evt)">
<style type="text/css"><![CDATA[
.edge:hover path { stroke: red; }
.edge:hover polygon { stroke: red; fill: red; }
]]></style>
<script type="text/javascript"><![CDATA[
var edges = document.getElementsByTagName('g');
if (edges && edges.length) {
  for (var i=0;i<edges.length;i++) {
    if (edges[i].id.substr(0,4)=='edge') {
      edges[i].setAttribute('class','edge');
    }
  }
}
]]></script>
        <defs>
                <circle id="rim" cx="0" cy="0" r="7"/>
                <circle id="rim2" cx="0" cy="0" r="3.5"/>
                <g id="zoomPlus">
                        <use xlink:href="#rim" fill="#404040">
                                <set attributeName="fill" to="#808080" begin="zoomplus.mouseover" end="zoomplus.mouseout"/>
                        </use>
                        <path d="M-4,0h8M0,-4v8" fill="none" stroke="white" stroke-width="1.5" pointer-events="none"/>
                </g>
                <g id="zoomMin">
                        <use xlink:href="#rim" fill="#404040">
                                <set attributeName="fill" to="#808080" begin="zoomminus.mouseover" end="zoomminus.mouseout"/>
                        </use>
                        <path d="M-4,0h8" fill="none" stroke="white" stroke-width="1.5" pointer-events="none"/>
                </g>
                <g id="dirArrow">
                        <path fill="none" stroke="white" stroke-width="1.5" d="M0,-3.0v7 M-2.5,-0.5L0,-3.0L2.5,-0.5"/>
                </g>
               <g id="resetDef">
                       <use xlink:href="#rim2" fill="#404040">
                               <set attributeName="fill" to="#808080" begin="reset.mouseover" end="reset.mouseout"/>
                       </use>
               </g>
        </defs>

<script type="text/javascript">
var viewWidth = 770;
var viewHeight = 308;
var sectionId = 'dynsection-0';
</script>
<script xlink:href="svgpan.js"/>
<svg id="graph" class="graph">
<g id="viewport">
<title>CStack.cpp</title>
<!-- Node1 -->
<g id="node1" class="node">
<title>Node1</title>
<g id="a_node1"><a xlink:title="CStack class implementation.">
<polygon fill="#999999" stroke="#666666" points="626,-280.5 626,-299.5 694,-299.5 694,-280.5 626,-280.5"/>
<text text-anchor="middle" x="660" y="-287.5" font-family="Helvetica,sans-Serif" font-size="10.00">CStack.cpp</text>
</a>
</g>
</g>
<!-- Node2 -->
<g id="node2" class="node">
<title>Node2</title>
<g id="a_node2"><a xlink:href="_c_stack_8h.html" target="_top" xlink:title="CStack class header.">
<polygon fill="white" stroke="#666666" points="631.5,-224.5 631.5,-243.5 688.5,-243.5 688.5,-224.5 631.5,-224.5"/>
<text text-anchor="middle" x="660" y="-231.5" font-family="Helvetica,sans-Serif" font-size="10.00">CStack.h</text>
</a>
</g>
</g>
<!-- Node1&#45;&gt;Node2 -->
<g id="edge1" class="edge">
<title>Node1&#45;&gt;Node2</title>
<path fill="none" stroke="#63b8ff" d="M660,-280.08C660,-273.01 660,-262.86 660,-253.99"/>
<polygon fill="#63b8ff" stroke="#63b8ff" points="663.5,-253.75 660,-243.75 656.5,-253.75 663.5,-253.75"/>
</g>
<!-- Node3 -->
<g id="node3" class="node">
<title>Node3</title>
<g id="a_node3"><a xlink:href="_c_block_8h.html" target="_top" xlink:title="General header for CBlock.">
<polygon fill="white" stroke="#666666" points="295,-168.5 295,-187.5 351,-187.5 351,-168.5 295,-168.5"/>
<text text-anchor="middle" x="323" y="-175.5" font-family="Helvetica,sans-Serif" font-size="10.00">CBlock.h</text>
</a>
</g>
</g>
<!-- Node2&#45;&gt;Node3 -->
<g id="edge2" class="edge">
<title>Node2&#45;&gt;Node3</title>
<path fill="none" stroke="#63b8ff" d="M631.27,-228.4C570.56,-218.67 429.22,-196.02 361.08,-185.1"/>
<polygon fill="#63b8ff" stroke="#63b8ff" points="361.61,-181.64 351.18,-183.52 360.5,-188.55 361.61,-181.64"/>
</g>
<!-- Node15 -->
<g id="node15" class="node">
<title>Node15</title>
<g id="a_node15"><a xlink:title=" ">
<polygon fill="#e0e0e0" stroke="#999999" points="589.5,-0.5 589.5,-19.5 640.5,-19.5 640.5,-0.5 589.5,-0.5"/>
<text text-anchor="middle" x="615" y="-7.5" font-family="Helvetica,sans-Serif" font-size="10.00">check.h</text>
</a>
</g>
</g>
<!-- Node2&#45;&gt;Node15 -->
<g id="edge32" class="edge">
<title>Node2&#45;&gt;Node15</title>
<path fill="none" stroke="#63b8ff" d="M658.24,-224.3C651.61,-191.63 628.15,-75.87 618.84,-29.96"/>
<polygon fill="#63b8ff" stroke="#63b8ff" points="622.22,-28.99 616.8,-19.88 615.36,-30.38 622.22,-28.99"/>
</g>
<!-- Node17 -->
<g id="node17" class="node">
<title>Node17</title>
<g id="a_node17"><a xlink:title=" ">
<polygon fill="#e0e0e0" stroke="#999999" points="688.5,-168.5 688.5,-187.5 761.5,-187.5 761.5,-168.5 688.5,-168.5"/>
<text text-anchor="middle" x="725" y="-175.5" font-family="Helvetica,sans-Serif" font-size="10.00">initializer_list</text>
</a>
</g>
</g>
<!-- Node2&#45;&gt;Node17 -->
<g id="edge31" class="edge">
<title>Node2&#45;&gt;Node17</title>
<path fill="none" stroke="#63b8ff" d="M670.44,-224.32C680.15,-216.26 694.82,-204.08 706.5,-194.37"/>
<polygon fill="#63b8ff" stroke="#63b8ff" points="708.91,-196.92 714.37,-187.83 704.44,-191.53 708.91,-196.92"/>
</g>
<!-- Node4 -->
<g id="node4" class="node">
<title>Node4</title>
<g id="a_node4"><a xlink:href="_c_block__bool_8h.html" target="_top" xlink:title="CBlock_bool class header.">
<polygon fill="white" stroke="#666666" points="170,-112.5 170,-131.5 250,-131.5 250,-112.5 170,-112.5"/>
<text text-anchor="middle" x="210" y="-119.5" font-family="Helvetica,sans-Serif" font-size="10.00">CBlock_bool.h</text>
</a>
</g>
</g>
<!-- Node3&#45;&gt;Node4 -->
<g id="edge3" class="edge">
<title>Node3&#45;&gt;Node4</title>
<path fill="none" stroke="#63b8ff" d="M305.09,-168.44C286.75,-159.68 257.99,-145.94 236.91,-135.86"/>
<polygon fill="#63b8ff" stroke="#63b8ff" points="238.35,-132.67 227.82,-131.52 235.33,-138.99 238.35,-132.67"/>
</g>
<!-- Node16 -->
<g id="node16" class="node">
<title>Node16</title>
<g id="a_node16"><a xlink:href="_c_block___t_week_day_8h.html" target="_top" xlink:title="CBlock_TWeekDay class header.">
<polygon fill="white" stroke="#666666" points="268,-112.5 268,-131.5 378,-131.5 378,-112.5 268,-112.5"/>
<text text-anchor="middle" x="323" y="-119.5" font-family="Helvetica,sans-Serif" font-size="10.00">CBlock_TWeekDay.h</text>
</a>
</g>
</g>
<!-- Node3&#45;&gt;Node16 -->
<g id="edge21" class="edge">
<title>Node3&#45;&gt;Node16</title>
<path fill="none" stroke="#63b8ff" d="M323,-168.08C323,-161.01 323,-150.86 323,-141.99"/>
<polygon fill="#63b8ff" stroke="#63b8ff" points="326.5,-141.75 323,-131.75 319.5,-141.75 326.5,-141.75"/>
</g>
<!-- Node5 -->
<g id="node5" class="node">
<title>Node5</title>
<g id="a_node5"><a xlink:title=" ">
<polygon fill="#e0e0e0" stroke="#999999" points="504,-0.5 504,-19.5 558,-19.5 558,-0.5 504,-0.5"/>
<text text-anchor="middle" x="531" y="-7.5" font-family="Helvetica,sans-Serif" font-size="10.00">iostream</text>
</a>
</g>
</g>
<!-- Node4&#45;&gt;Node5 -->
<g id="edge4" class="edge">
<title>Node4&#45;&gt;Node5</title>
<path fill="none" stroke="#63b8ff" d="M250.03,-113.46C312.63,-101.61 427.45,-79.6 436,-76 465.44,-63.61 495.16,-41.35 513.32,-26.38"/>
<polygon fill="#63b8ff" stroke="#63b8ff" points="515.87,-28.81 521.26,-19.69 511.36,-23.46 515.87,-28.81"/>
</g>
<!-- Node6 -->
<g id="node6" class="node">
<title>Node6</title>
<g id="a_node6"><a xlink:title=" ">
<polygon fill="#e0e0e0" stroke="#999999" points="0,-0.5 0,-19.5 52,-19.5 52,-0.5 0,-0.5"/>
<text text-anchor="middle" x="26" y="-7.5" font-family="Helvetica,sans-Serif" font-size="10.00">sstream</text>
</a>
</g>
</g>
<!-- Node4&#45;&gt;Node6 -->
<g id="edge5" class="edge">
<title>Node4&#45;&gt;Node6</title>
<path fill="none" stroke="#63b8ff" d="M169.75,-117.67C117.68,-112.42 31.35,-100.24 12,-76 1.23,-62.51 7.82,-42.61 15.16,-28.39"/>
<polygon fill="#63b8ff" stroke="#63b8ff" points="18.26,-30.02 20.16,-19.59 12.17,-26.56 18.26,-30.02"/>
</g>
<!-- Node7 -->
<g id="node7" class="node">
<title>Node7</title>
<g id="a_node7"><a xlink:title=" ">
<polygon fill="#e0e0e0" stroke="#999999" points="130.5,-56.5 130.5,-75.5 171.5,-75.5 171.5,-56.5 130.5,-56.5"/>
<text text-anchor="middle" x="151" y="-63.5" font-family="Helvetica,sans-Serif" font-size="10.00">string</text>
</a>
</g>
</g>
<!-- Node4&#45;&gt;Node7 -->
<g id="edge6" class="edge">
<title>Node4&#45;&gt;Node7</title>
<path fill="none" stroke="#63b8ff" d="M200.52,-112.32C191.8,-104.34 178.66,-92.31 168.1,-82.65"/>
<polygon fill="#63b8ff" stroke="#63b8ff" points="170.39,-80 160.65,-75.83 165.67,-85.17 170.39,-80"/>
</g>
<!-- Node8 -->
<g id="node8" class="node">
<title>Node8</title>
<g id="a_node8"><a xlink:title=" ">
<polygon fill="#e0e0e0" stroke="#999999" points="122.5,-0.5 122.5,-19.5 181.5,-19.5 181.5,-0.5 122.5,-0.5"/>
<text text-anchor="middle" x="152" y="-7.5" font-family="Helvetica,sans-Serif" font-size="10.00">stdexcept</text>
</a>
</g>
</g>
<!-- Node4&#45;&gt;Node8 -->
<g id="edge7" class="edge">
<title>Node4&#45;&gt;Node8</title>
<path fill="none" stroke="#63b8ff" d="M169.6,-113.07C148.91,-106.75 125.49,-95.56 113,-76 102.24,-59.15 117.98,-39.42 132.55,-26.15"/>
<polygon fill="#63b8ff" stroke="#63b8ff" points="135.01,-28.65 140.36,-19.51 130.48,-23.32 135.01,-28.65"/>
</g>
<!-- Node9 -->
<g id="node9" class="node">
<title>Node9</title>
<g id="a_node9"><a xlink:title=" ">
<polygon fill="#e0e0e0" stroke="#999999" points="200,-0.5 200,-19.5 250,-19.5 250,-0.5 200,-0.5"/>
<text text-anchor="middle" x="225" y="-7.5" font-family="Helvetica,sans-Serif" font-size="10.00">typeinfo</text>
</a>
</g>
</g>
<!-- Node4&#45;&gt;Node9 -->
<g id="edge8" class="edge">
<title>Node4&#45;&gt;Node9</title>
<path fill="none" stroke="#63b8ff" d="M178.9,-112.42C147.12,-102 104.68,-82.46 122,-56 129.91,-43.91 163.13,-30.75 189.74,-21.8"/>
<polygon fill="#63b8ff" stroke="#63b8ff" points="191.13,-25.03 199.54,-18.59 188.95,-18.38 191.13,-25.03"/>
</g>
<!-- Node10 -->
<g id="node10" class="node">
<title>Node10</title>
<g id="a_node10"><a xlink:title=" ">
<polygon fill="#e0e0e0" stroke="#999999" points="190,-56.5 190,-75.5 230,-75.5 230,-56.5 190,-56.5"/>
<text text-anchor="middle" x="210" y="-63.5" font-family="Helvetica,sans-Serif" font-size="10.00">utility</text>
</a>
</g>
</g>
<!-- Node4&#45;&gt;Node10 -->
<g id="edge9" class="edge">
<title>Node4&#45;&gt;Node10</title>
<path fill="none" stroke="#63b8ff" d="M210,-112.08C210,-105.01 210,-94.86 210,-85.99"/>
<polygon fill="#63b8ff" stroke="#63b8ff" points="213.5,-85.75 210,-75.75 206.5,-85.75 213.5,-85.75"/>
</g>
<!-- Node11 -->
<g id="node11" class="node">
<title>Node11</title>
<g id="a_node11"><a xlink:title=" ">
<polygon fill="#e0e0e0" stroke="#999999" points="420.5,-0.5 420.5,-19.5 485.5,-19.5 485.5,-0.5 420.5,-0.5"/>
<text text-anchor="middle" x="453" y="-7.5" font-family="Helvetica,sans-Serif" font-size="10.00">ClassInfo.h</text>
</a>
</g>
</g>
<!-- Node4&#45;&gt;Node11 -->
<g id="edge10" class="edge">
<title>Node4&#45;&gt;Node11</title>
<path fill="none" stroke="#63b8ff" d="M250.35,-112.9C307.62,-101.27 406.35,-80.74 413,-76 429.16,-64.5 440.09,-44.23 446.39,-29.37"/>
<polygon fill="#63b8ff" stroke="#63b8ff" points="449.79,-30.3 450.17,-19.72 443.27,-27.76 449.79,-30.3"/>
</g>
<!-- Node12 -->
<g id="node12" class="node">
<title>Node12</title>
<g id="a_node12"><a xlink:href="_c_block_base_8h.html" target="_top" xlink:title="CBlockBase class header.">
<polygon fill="white" stroke="#666666" points="324.5,-56.5 324.5,-75.5 403.5,-75.5 403.5,-56.5 324.5,-56.5"/>
<text text-anchor="middle" x="364" y="-63.5" font-family="Helvetica,sans-Serif" font-size="10.00">CBlockBase.h</text>
</a>
</g>
</g>
<!-- Node4&#45;&gt;Node12 -->
<g id="edge11" class="edge">
<title>Node4&#45;&gt;Node12</title>
<path fill="none" stroke="#63b8ff" d="M234.4,-112.44C260.2,-103.4 301.08,-89.06 330.02,-78.92"/>
<polygon fill="#63b8ff" stroke="#63b8ff" points="331.43,-82.13 339.71,-75.52 329.12,-75.52 331.43,-82.13"/>
</g>
<!-- Node4&#45;&gt;Node15 -->
<g id="edge20" class="edge">
<title>Node4&#45;&gt;Node15</title>
<path fill="none" stroke="#63b8ff" d="M250.1,-113.6C253.11,-113.05 256.1,-112.52 259,-112 351.8,-95.49 377.77,-103.26 468,-76 512.64,-62.51 561.64,-38.94 590.28,-24.19"/>
<polygon fill="#63b8ff" stroke="#63b8ff" points="591.93,-27.28 599.18,-19.55 588.7,-21.07 591.93,-27.28"/>
</g>
<!-- Node12&#45;&gt;Node5 -->
<g id="edge13" class="edge">
<title>Node12&#45;&gt;Node5</title>
<path fill="none" stroke="#63b8ff" d="M390.46,-56.44C418.68,-47.32 463.54,-32.81 494.97,-22.65"/>
<polygon fill="#63b8ff" stroke="#63b8ff" points="496.22,-25.92 504.66,-19.52 494.07,-19.26 496.22,-25.92"/>
</g>
<!-- Node12&#45;&gt;Node6 -->
<g id="edge14" class="edge">
<title>Node12&#45;&gt;Node6</title>
<path fill="none" stroke="#63b8ff" d="M324.23,-58.65C257.95,-48.06 125.86,-26.95 62.1,-16.77"/>
<polygon fill="#63b8ff" stroke="#63b8ff" points="62.53,-13.29 52.11,-15.17 61.43,-20.2 62.53,-13.29"/>
</g>
<!-- Node12&#45;&gt;Node8 -->
<g id="edge15" class="edge">
<title>Node12&#45;&gt;Node8</title>
<path fill="none" stroke="#63b8ff" d="M330.41,-56.44C292.71,-46.84 231.6,-31.28 191.61,-21.09"/>
<polygon fill="#63b8ff" stroke="#63b8ff" points="192.23,-17.63 181.67,-18.56 190.5,-24.42 192.23,-17.63"/>
</g>
<!-- Node12&#45;&gt;Node9 -->
<g id="edge16" class="edge">
<title>Node12&#45;&gt;Node9</title>
<path fill="none" stroke="#63b8ff" d="M341.98,-56.44C318.9,-47.48 282.44,-33.31 256.36,-23.18"/>
<polygon fill="#63b8ff" stroke="#63b8ff" points="257.51,-19.88 246.92,-19.52 254.98,-26.4 257.51,-19.88"/>
</g>
<!-- Node12&#45;&gt;Node11 -->
<g id="edge17" class="edge">
<title>Node12&#45;&gt;Node11</title>
<path fill="none" stroke="#63b8ff" d="M378.3,-56.32C392.18,-47.9 413.49,-34.97 429.8,-25.07"/>
<polygon fill="#63b8ff" stroke="#63b8ff" points="432,-27.83 438.74,-19.65 428.37,-21.85 432,-27.83"/>
</g>
<!-- Node13 -->
<g id="node13" class="node">
<title>Node13</title>
<g id="a_node13"><a xlink:title=" ">
<polygon fill="#e0e0e0" stroke="#999999" points="268,-0.5 268,-19.5 322,-19.5 322,-0.5 268,-0.5"/>
<text text-anchor="middle" x="295" y="-7.5" font-family="Helvetica,sans-Serif" font-size="10.00">compare</text>
</a>
</g>
</g>
<!-- Node12&#45;&gt;Node13 -->
<g id="edge12" class="edge">
<title>Node12&#45;&gt;Node13</title>
<path fill="none" stroke="#63b8ff" d="M352.91,-56.32C342.51,-48.18 326.74,-35.84 314.28,-26.09"/>
<polygon fill="#63b8ff" stroke="#63b8ff" points="316.32,-23.24 306.29,-19.83 312.01,-28.75 316.32,-23.24"/>
</g>
<!-- Node14 -->
<g id="node14" class="node">
<title>Node14</title>
<g id="a_node14"><a xlink:title=" ">
<polygon fill="#e0e0e0" stroke="#999999" points="340,-0.5 340,-19.5 402,-19.5 402,-0.5 340,-0.5"/>
<text text-anchor="middle" x="371" y="-7.5" font-family="Helvetica,sans-Serif" font-size="10.00">demagle.h</text>
</a>
</g>
</g>
<!-- Node12&#45;&gt;Node14 -->
<g id="edge18" class="edge">
<title>Node12&#45;&gt;Node14</title>
<path fill="none" stroke="#63b8ff" d="M365.16,-56.08C366.08,-48.93 367.42,-38.64 368.58,-29.69"/>
<polygon fill="#63b8ff" stroke="#63b8ff" points="372.05,-30.12 369.87,-19.75 365.11,-29.22 372.05,-30.12"/>
</g>
<!-- Node12&#45;&gt;Node15 -->
<g id="edge19" class="edge">
<title>Node12&#45;&gt;Node15</title>
<path fill="none" stroke="#63b8ff" d="M403.77,-56.44C452.09,-46.05 532.89,-28.66 579.3,-18.68"/>
<polygon fill="#63b8ff" stroke="#63b8ff" points="580.17,-22.07 589.21,-16.55 578.7,-15.23 580.17,-22.07"/>
</g>
<!-- Node16&#45;&gt;Node5 -->
<g id="edge22" class="edge">
<title>Node16&#45;&gt;Node5</title>
<path fill="none" stroke="#63b8ff" d="M378.37,-115.51C430.34,-109.15 502.89,-96.8 522,-76 533.19,-63.82 534.58,-44.55 533.69,-30.15"/>
<polygon fill="#63b8ff" stroke="#63b8ff" points="537.14,-29.46 532.63,-19.87 530.18,-30.18 537.14,-29.46"/>
</g>
<!-- Node16&#45;&gt;Node6 -->
<g id="edge23" class="edge">
<title>Node16&#45;&gt;Node6</title>
<path fill="none" stroke="#63b8ff" d="M275.13,-112.42C224.75,-103.01 149.08,-87.7 122,-76 92.46,-63.24 62.39,-41.08 43.96,-26.22"/>
<polygon fill="#63b8ff" stroke="#63b8ff" points="45.84,-23.24 35.9,-19.59 41.4,-28.65 45.84,-23.24"/>
</g>
<!-- Node16&#45;&gt;Node7 -->
<g id="edge24" class="edge">
<title>Node16&#45;&gt;Node7</title>
<path fill="none" stroke="#63b8ff" d="M295.75,-112.44C264.63,-102.68 213.87,-86.74 181.47,-76.57"/>
<polygon fill="#63b8ff" stroke="#63b8ff" points="182.24,-73.14 171.65,-73.48 180.14,-79.82 182.24,-73.14"/>
</g>
<!-- Node16&#45;&gt;Node8 -->
<g id="edge25" class="edge">
<title>Node16&#45;&gt;Node8</title>
<path fill="none" stroke="#63b8ff" d="M313.09,-112.37C297.81,-99.29 267.29,-74.05 239,-56 220.01,-43.88 197.38,-32.26 179.96,-23.86"/>
<polygon fill="#63b8ff" stroke="#63b8ff" points="181.41,-20.67 170.87,-19.54 178.4,-26.99 181.41,-20.67"/>
</g>
<!-- Node16&#45;&gt;Node9 -->
<g id="edge26" class="edge">
<title>Node16&#45;&gt;Node9</title>
<path fill="none" stroke="#63b8ff" d="M316.77,-112.27C307.51,-99.49 289.34,-75.13 272,-56 262.61,-45.64 251.32,-34.78 242.15,-26.33"/>
<polygon fill="#63b8ff" stroke="#63b8ff" points="244.5,-23.73 234.75,-19.59 239.79,-28.91 244.5,-23.73"/>
</g>
<!-- Node16&#45;&gt;Node10 -->
<g id="edge27" class="edge">
<title>Node16&#45;&gt;Node10</title>
<path fill="none" stroke="#63b8ff" d="M305.09,-112.44C286.75,-103.68 257.99,-89.94 236.91,-79.86"/>
<polygon fill="#63b8ff" stroke="#63b8ff" points="238.35,-76.67 227.82,-75.52 235.33,-82.99 238.35,-76.67"/>
</g>
<!-- Node16&#45;&gt;Node11 -->
<g id="edge28" class="edge">
<title>Node16&#45;&gt;Node11</title>
<path fill="none" stroke="#63b8ff" d="M378.23,-114.06C402.74,-108.06 429.68,-96.87 446,-76 456.15,-63.02 457.04,-43.86 455.91,-29.7"/>
<polygon fill="#63b8ff" stroke="#63b8ff" points="459.37,-29.14 454.7,-19.63 452.42,-29.97 459.37,-29.14"/>
</g>
<!-- Node16&#45;&gt;Node12 -->
<g id="edge29" class="edge">
<title>Node16&#45;&gt;Node12</title>
<path fill="none" stroke="#63b8ff" d="M329.77,-112.08C335.56,-104.46 344.06,-93.26 351.14,-83.94"/>
<polygon fill="#63b8ff" stroke="#63b8ff" points="354.1,-85.83 357.36,-75.75 348.52,-81.6 354.1,-85.83"/>
</g>
<!-- Node16&#45;&gt;Node15 -->
<g id="edge30" class="edge">
<title>Node16&#45;&gt;Node15</title>
<path fill="none" stroke="#63b8ff" d="M378.16,-118.93C449.02,-115.12 566.61,-104.58 598,-76 610.78,-64.36 614.46,-44.41 615.3,-29.67"/>
<polygon fill="#63b8ff" stroke="#63b8ff" points="618.8,-29.71 615.48,-19.65 611.8,-29.58 618.8,-29.71"/>
</g>
</g>
</svg>
        <g id="navigator" transform="translate(0 0)" fill="#404254">
                <rect fill="#f2f5e9" fill-opacity="0.5" stroke="#606060" stroke-width=".5" x="0" y="0" width="60" height="60"/>
                <use id="zoomplus" xlink:href="#zoomPlus" x="17" y="9" onmousedown="handleZoom(evt,'in')"/>
                <use id="zoomminus" xlink:href="#zoomMin" x="42" y="9" onmousedown="handleZoom(evt,'out')"/>
                <use id="reset" xlink:href="#resetDef" x="30" y="36" onmousedown="handleReset()"/>
                <g id="arrowUp" xlink:href="#dirArrow" transform="translate(30 24)" onmousedown="handlePan(0,-1)">
                  <use xlink:href="#rim" fill="#404040">
                        <set attributeName="fill" to="#808080" begin="arrowUp.mouseover" end="arrowUp.mouseout"/>
                  </use>
                  <path fill="none" stroke="white" stroke-width="1.5" d="M0,-3.0v7 M-2.5,-0.5L0,-3.0L2.5,-0.5"/>
                </g>
                <g id="arrowRight" xlink:href="#dirArrow" transform="rotate(90) translate(36 -43)" onmousedown="handlePan(1,0)">
                  <use xlink:href="#rim" fill="#404040">
                        <set attributeName="fill" to="#808080" begin="arrowRight.mouseover" end="arrowRight.mouseout"/>
                  </use>
                  <path fill="none" stroke="white" stroke-width="1.5" d="M0,-3.0v7 M-2.5,-0.5L0,-3.0L2.5,-0.5"/>
                </g>
                <g id="arrowDown" xlink:href="#dirArrow" transform="rotate(180) translate(-30 -48)" onmousedown="handlePan(0,1)">
                  <use xlink:href="#rim" fill="#404040">
                        <set attributeName="fill" to="#808080" begin="arrowDown.mouseover" end="arrowDown.mouseout"/>
                  </use>
                  <path fill="none" stroke="white" stroke-width="1.5" d="M0,-3.0v7 M-2.5,-0.5L0,-3.0L2.5,-0.5"/>
                </g>
                <g id="arrowLeft" xlink:href="#dirArrow" transform="rotate(270) translate(-36 17)" onmousedown="handlePan(-1,0)">
                  <use xlink:href="#rim" fill="#404040">
                        <set attributeName="fill" to="#808080" begin="arrowLeft.mouseover" end="arrowLeft.mouseout"/>
                  </use>
                  <path fill="none" stroke="white" stroke-width="1.5" d="M0,-3.0v7 M-2.5,-0.5L0,-3.0L2.5,-0.5"/>
                </g>
        </g>
        <svg viewBox="0 0 15 15" width="100%" height="30px" preserveAspectRatio="xMaxYMin meet">
         <g id="arrow_out" transform="scale(0.3 0.3)">
          <a xlink:href="_c_stack_8cpp__incl_org.svg" target="_base">
           <rect id="button" ry="5" rx="5" y="6" x="6" height="38" width="38"
                fill="#f2f5e9" fill-opacity="0.5" stroke="#606060" stroke-width="1.0"/>
           <path id="arrow"
             d="M 11.500037,31.436501 C 11.940474,20.09759 22.043105,11.32322 32.158766,21.979434 L 37.068811,17.246167 C 37.068811,17.246167 37.088388,32 37.088388,32 L 22.160133,31.978069 C 22.160133,31.978069 26.997745,27.140456 26.997745,27.140456 C 18.528582,18.264221 13.291696,25.230495 11.500037,31.436501 z"
             style="fill:#404040;"/>
          </a>
         </g>
        </svg>
</svg>
