<?xml version="1.0" encoding="UTF-8" standalone="no"?>
<!DOCTYPE svg PUBLIC "-//W3C//DTD SVG 1.1//EN"
 "http://www.w3.org/Graphics/SVG/1.1/DTD/svg11.dtd">
<!-- Generated by graphviz version 6.0.2 (20221011.1828)
 -->
<!-- Title: ProjectHierarchy Pages: 1 -->
<!--zoomable 342 -->
<svg id="main" version="1.1" xmlns="http://www.w3.org/2000/svg" xmlns:xlink="http://www.w3.org/1999/xlink" xml:space="preserve" onload="init(evt)">
<style type="text/css"><![CDATA[
.edge:hover path { stroke: red; }
.edge:hover polygon { stroke: red; fill: red; }
]]></style>
<script type="text/javascript"><![CDATA[
var edges = document.getElementsByTagName('g');
if (edges && edges.length) {
  for (var i=0;i<edges.length;i++) {
    if (edges[i].id.substr(0,4)=='edge') {
      edges[i].setAttribute('class','edge');
    }
  }
}
]]></script>
        <defs>
                <circle id="rim" cx="0" cy="0" r="7"/>
                <circle id="rim2" cx="0" cy="0" r="3.5"/>
                <g id="zoomPlus">
                        <use xlink:href="#rim" fill="#404040">
                                <set attributeName="fill" to="#808080" begin="zoomplus.mouseover" end="zoomplus.mouseout"/>
                        </use>
                        <path d="M-4,0h8M0,-4v8" fill="none" stroke="white" stroke-width="1.5" pointer-events="none"/>
                </g>
                <g id="zoomMin">
                        <use xlink:href="#rim" fill="#404040">
                                <set attributeName="fill" to="#808080" begin="zoomminus.mouseover" end="zoomminus.mouseout"/>
                        </use>
                        <path d="M-4,0h8" fill="none" stroke="white" stroke-width="1.5" pointer-events="none"/>
                </g>
                <g id="dirArrow">
                        <path fill="none" stroke="white" stroke-width="1.5" d="M0,-3.0v7 M-2.5,-0.5L0,-3.0L2.5,-0.5"/>
                </g>
               <g id="resetDef">
                       <use xlink:href="#rim2" fill="#404040">
                               <set attributeName="fill" to="#808080" begin="reset.mouseover" end="reset.mouseout"/>
                       </use>
               </g>
        </defs>

<script type="text/javascript">
var viewWidth = 792;
var viewHeight = 342;
</script>
<script xlink:href="svgpan.js"/>
<svg id="graph" class="graph">
<g id="viewport">
<title>ProjectHierarchy</title>
<polygon fill="white" stroke="none" points="-4,4 -4,-438.53 1020,-438.53 1020,4 -4,4"/>
<!-- top -->
<g id="node1" class="node">
<title>top</title>
<g id="a_node1"><a xlink:href="index.html" target="_top" xlink:title="BPC&#45;PPC project 2022">
<path fill="none" stroke="#404040" d="M12,-369.03C12,-369.03 153,-369.03 153,-369.03 159,-369.03 165,-375.03 165,-381.03 165,-381.03 165,-393.03 165,-393.03 165,-399.03 159,-405.03 153,-405.03 153,-405.03 12,-405.03 12,-405.03 6,-405.03 0,-399.03 0,-393.03 0,-393.03 0,-381.03 0,-381.03 0,-375.03 6,-369.03 12,-369.03"/>
<text text-anchor="middle" x="82.5" y="-383.33" font-family="Helvetica,sans-Serif" font-size="14.00">BPC&#45;PPC project 2022</text>
</a>
</g>
</g>
<!-- ClassInfo -->
<g id="node2" class="node">
<title>ClassInfo</title>
<g id="a_node2"><a xlink:title="ClassInfo class template">
<path fill="none" stroke="#b2dfee" d="M790,-227.03C790,-227.03 855,-227.03 855,-227.03 861,-227.03 867,-233.03 867,-239.03 867,-239.03 867,-251.03 867,-251.03 867,-257.03 861,-263.03 855,-263.03 855,-263.03 790,-263.03 790,-263.03 784,-263.03 778,-257.03 778,-251.03 778,-251.03 778,-239.03 778,-239.03 778,-233.03 784,-227.03 790,-227.03"/>
<text text-anchor="middle" x="822.5" y="-241.33" font-family="Helvetica,sans-Serif" font-size="14.00">ClassInfo.h</text>
</a>
</g>
</g>
<!-- CBlock_long -->
<g id="node6" class="node">
<title>CBlock_long</title>
<g id="a_node6"><a xlink:href="" target="_top" xlink:title="CBlock_long class">
<path fill="none" stroke="#eeb422" stroke-dasharray="1,5" d="M584,-85.03C584,-85.03 696,-85.03 696,-85.03 702,-85.03 708,-91.03 708,-97.03 708,-97.03 708,-111.03 708,-111.03 708,-117.03 702,-123.03 696,-123.03 696,-123.03 584,-123.03 584,-123.03 578,-123.03 572,-117.03 572,-111.03 572,-111.03 572,-97.03 572,-97.03 572,-91.03 578,-85.03 584,-85.03"/>
<text text-anchor="start" x="580" y="-107.83" font-family="Helvetica,sans-Serif" font-weight="bold" font-size="14.00">CBlock_long.h</text>
<text text-anchor="middle" x="640" y="-92.83" font-family="Helvetica,sans-Serif" font-weight="bold" font-size="14.00">CBlock_long.cpp</text>
</a>
</g>
</g>
<!-- ClassInfo&#45;&gt;CBlock_long -->
<g id="edge21" class="edge">
<title>ClassInfo&#45;&gt;CBlock_long</title>
<path fill="none" stroke="#9ac0cd" stroke-dasharray="5,2" d="M798.52,-226.78C786.57,-216.67 772.17,-203.45 761,-190.03 741.59,-166.71 748.81,-150.83 725,-132.03 722.55,-130.09 719.95,-128.28 717.25,-126.6"/>
<polygon fill="#9ac0cd" stroke="#9ac0cd" points="718.78,-123.44 708.34,-121.63 715.37,-129.55 718.78,-123.44"/>
</g>
<!-- CBlock_TInterval -->
<g id="node7" class="node">
<title>CBlock_TInterval</title>
<g id="a_node7"><a xlink:href="" target="_top" xlink:title="CBlock_TInterval class">
<path fill="none" stroke="#eeb422" stroke-dasharray="1,5" d="M568.5,-254.03C568.5,-254.03 711.5,-254.03 711.5,-254.03 717.5,-254.03 723.5,-260.03 723.5,-266.03 723.5,-266.03 723.5,-280.03 723.5,-280.03 723.5,-286.03 717.5,-292.03 711.5,-292.03 711.5,-292.03 568.5,-292.03 568.5,-292.03 562.5,-292.03 556.5,-286.03 556.5,-280.03 556.5,-280.03 556.5,-266.03 556.5,-266.03 556.5,-260.03 562.5,-254.03 568.5,-254.03"/>
<text text-anchor="start" x="564.5" y="-276.83" font-family="Helvetica,sans-Serif" font-weight="bold" font-size="14.00">CBlock_TInterval.h</text>
<text text-anchor="middle" x="640" y="-261.83" font-family="Helvetica,sans-Serif" font-weight="bold" font-size="14.00">CBlock_TInterval.cpp</text>
</a>
</g>
</g>
<!-- ClassInfo&#45;&gt;CBlock_TInterval -->
<g id="edge22" class="edge">
<title>ClassInfo&#45;&gt;CBlock_TInterval</title>
<path fill="none" stroke="#9ac0cd" stroke-dasharray="5,2" d="M777.81,-251.81C764.45,-253.88 749.23,-256.24 733.9,-258.62"/>
<polygon fill="#9ac0cd" stroke="#9ac0cd" points="733.18,-255.19 723.84,-260.18 734.26,-262.1 733.18,-255.19"/>
</g>
<!-- main -->
<g id="node8" class="node">
<title>main</title>
<g id="a_node8"><a xlink:href="main_8cpp.html" target="_top" xlink:title="main.cpp">
<path fill="none" stroke="#eeb422" stroke-dasharray="5,2" d="M231,-341.03C231,-341.03 281,-341.03 281,-341.03 287,-341.03 293,-347.03 293,-353.03 293,-353.03 293,-365.03 293,-365.03 293,-371.03 287,-377.03 281,-377.03 281,-377.03 231,-377.03 231,-377.03 225,-377.03 219,-371.03 219,-365.03 219,-365.03 219,-353.03 219,-353.03 219,-347.03 225,-341.03 231,-341.03"/>
<text text-anchor="middle" x="256" y="-355.33" font-family="Helvetica,sans-Serif" font-size="14.00">main.cpp</text>
</a>
</g>
</g>
<!-- ClassInfo&#45;&gt;main -->
<g id="edge17" class="edge">
<title>ClassInfo&#45;&gt;main</title>
<path fill="none" stroke="#9ac0cd" stroke-dasharray="5,2" d="M805.41,-263.05C787.73,-281.49 757.49,-309.19 725,-322.03 579.68,-379.43 389.56,-371.61 303.23,-364.06"/>
<polygon fill="#9ac0cd" stroke="#9ac0cd" points="303.5,-360.57 293.23,-363.15 302.87,-367.54 303.5,-360.57"/>
</g>
<!-- CBlock_bool -->
<g id="node10" class="node">
<title>CBlock_bool</title>
<g id="a_node10"><a xlink:href="_c_block__bool_8h.html" target="_top" xlink:title="CBlock_bool class">
<path fill="none" stroke="#eeb422" d="M597,-199.03C597,-199.03 683,-199.03 683,-199.03 689,-199.03 695,-205.03 695,-211.03 695,-211.03 695,-223.03 695,-223.03 695,-229.03 689,-235.03 683,-235.03 683,-235.03 597,-235.03 597,-235.03 591,-235.03 585,-229.03 585,-223.03 585,-223.03 585,-211.03 585,-211.03 585,-205.03 591,-199.03 597,-199.03"/>
<text text-anchor="middle" x="640" y="-213.33" font-family="Helvetica,sans-Serif" font-size="14.00">CBlock_bool.h</text>
</a>
</g>
</g>
<!-- ClassInfo&#45;&gt;CBlock_bool -->
<g id="edge19" class="edge">
<title>ClassInfo&#45;&gt;CBlock_bool</title>
<path fill="none" stroke="#9ac0cd" stroke-dasharray="5,2" d="M777.81,-238.25C756.08,-234.88 729.39,-230.74 705.38,-227.02"/>
<polygon fill="#9ac0cd" stroke="#9ac0cd" points="705.69,-223.52 695.27,-225.45 704.62,-230.44 705.69,-223.52"/>
</g>
<!-- CBlock_TWeekDay -->
<g id="node11" class="node">
<title>CBlock_TWeekDay</title>
<g id="a_node11"><a xlink:href="_c_block___t_week_day_8h.html" target="_top" xlink:title="CBlock_TWeekDay class">
<path fill="none" stroke="#eeb422" d="M567,-142.03C567,-142.03 713,-142.03 713,-142.03 719,-142.03 725,-148.03 725,-154.03 725,-154.03 725,-168.03 725,-168.03 725,-174.03 719,-180.03 713,-180.03 713,-180.03 567,-180.03 567,-180.03 561,-180.03 555,-174.03 555,-168.03 555,-168.03 555,-154.03 555,-154.03 555,-148.03 561,-142.03 567,-142.03"/>
<text text-anchor="start" x="563" y="-164.83" font-family="Helvetica,sans-Serif" font-size="14.00">CBlock_TWeekDay.h </text>
<text text-anchor="middle" x="640" y="-149.83" font-family="Helvetica,sans-Serif" font-size="14.00">CBlock_TWeekDay.cpp</text>
</a>
</g>
</g>
<!-- ClassInfo&#45;&gt;CBlock_TWeekDay -->
<g id="edge20" class="edge">
<title>ClassInfo&#45;&gt;CBlock_TWeekDay</title>
<path fill="none" stroke="#9ac0cd" stroke-dasharray="5,2" d="M793.1,-226.98C774.25,-215.48 748.71,-200.77 725,-190.03 720.29,-187.9 715.37,-185.82 710.38,-183.83"/>
<polygon fill="#9ac0cd" stroke="#9ac0cd" points="711.33,-180.45 700.74,-180.11 708.81,-186.98 711.33,-180.45"/>
</g>
<!-- CStack -->
<g id="node13" class="node">
<title>CStack</title>
<path fill="none" stroke="#eeb422" d="M359,-219.03C359,-219.03 397,-219.03 397,-219.03 403,-219.03 409,-225.03 409,-231.03 409,-231.03 409,-243.03 409,-243.03 409,-249.03 403,-255.03 397,-255.03 397,-255.03 359,-255.03 359,-255.03 353,-255.03 347,-249.03 347,-243.03 347,-243.03 347,-231.03 347,-231.03 347,-225.03 353,-219.03 359,-219.03"/>
<text text-anchor="middle" x="378" y="-233.33" font-family="Helvetica,sans-Serif" font-size="14.00">CStack</text>
</g>
<!-- ClassInfo&#45;&gt;CStack -->
<g id="edge18" class="edge">
<title>ClassInfo&#45;&gt;CStack</title>
<path fill="none" stroke="#9ac0cd" stroke-dasharray="5,2" d="M798.92,-263.13C780.31,-276.81 752.59,-294.49 725,-302.03 652.12,-321.95 629.38,-315.32 555,-302.03 506.35,-293.33 453.54,-272.11 418.59,-256.26"/>
<polygon fill="#9ac0cd" stroke="#9ac0cd" points="419.78,-252.96 409.23,-251.95 416.85,-259.31 419.78,-252.96"/>
</g>
<!-- check -->
<g id="node3" class="node">
<title>check</title>
<g id="a_node3"><a xlink:title="Checker tool">
<path fill="none" stroke="#b2dfee" d="M939,-89.03C939,-89.03 997,-89.03 997,-89.03 1003,-89.03 1009,-95.03 1009,-101.03 1009,-101.03 1009,-115.03 1009,-115.03 1009,-121.03 1003,-127.03 997,-127.03 997,-127.03 939,-127.03 939,-127.03 933,-127.03 927,-121.03 927,-115.03 927,-115.03 927,-101.03 927,-101.03 927,-95.03 933,-89.03 939,-89.03"/>
<text text-anchor="start" x="935" y="-111.83" font-family="Helvetica,sans-Serif" font-size="14.00">check.h</text>
<text text-anchor="middle" x="968" y="-96.83" font-family="Helvetica,sans-Serif" font-size="14.00">check.cpp</text>
</a>
</g>
</g>
<!-- check&#45;&gt;main -->
<g id="edge13" class="edge">
<title>check&#45;&gt;main</title>
<path fill="none" stroke="#9ac0cd" stroke-dasharray="5,2" d="M928.41,-127.33C925.28,-129.95 922.4,-132.84 920,-136.03 882.14,-186.33 923.38,-223.91 884,-273.03 808.16,-367.63 762.25,-397.03 641,-397.03 641,-397.03 641,-397.03 481,-397.03 421.07,-397.03 405.95,-392.81 347,-382.03 332.57,-379.39 317.04,-375.73 303.01,-372.1"/>
<polygon fill="#9ac0cd" stroke="#9ac0cd" points="303.66,-368.65 293.09,-369.47 301.87,-375.41 303.66,-368.65"/>
</g>
<!-- CBlock -->
<g id="node9" class="node">
<title>CBlock</title>
<g id="a_node9"><a xlink:href="_c_block_8h.html" target="_top" xlink:title="CBlock.h">
<path fill="none" stroke="#eeb422" stroke-dasharray="5,2" d="M457,-171.03C457,-171.03 507,-171.03 507,-171.03 513,-171.03 519,-177.03 519,-183.03 519,-183.03 519,-195.03 519,-195.03 519,-201.03 513,-207.03 507,-207.03 507,-207.03 457,-207.03 457,-207.03 451,-207.03 445,-201.03 445,-195.03 445,-195.03 445,-183.03 445,-183.03 445,-177.03 451,-171.03 457,-171.03"/>
<text text-anchor="middle" x="482" y="-185.33" font-family="Helvetica,sans-Serif" font-size="14.00">CBlock.h</text>
</a>
</g>
</g>
<!-- check&#45;&gt;CBlock -->
<g id="edge15" class="edge">
<title>check&#45;&gt;CBlock</title>
<path fill="none" stroke="#9ac0cd" stroke-dasharray="5,2" d="M926.76,-90.99C849.31,-61.02 676.44,-8.09 555,-75.03 521.95,-93.24 501.98,-133.72 491.71,-161.2"/>
<polygon fill="#9ac0cd" stroke="#9ac0cd" points="488.4,-160.08 488.36,-170.67 495,-162.41 488.4,-160.08"/>
</g>
<!-- CBlockBase -->
<g id="node12" class="node">
<title>CBlockBase</title>
<g id="a_node12"><a xlink:href="_c_block_base_8h.html" target="_top" xlink:title="CBlockBase class">
<path fill="none" stroke="#eeb422" d="M773,-142.03C773,-142.03 872,-142.03 872,-142.03 878,-142.03 884,-148.03 884,-154.03 884,-154.03 884,-168.03 884,-168.03 884,-174.03 878,-180.03 872,-180.03 872,-180.03 773,-180.03 773,-180.03 767,-180.03 761,-174.03 761,-168.03 761,-168.03 761,-154.03 761,-154.03 761,-148.03 767,-142.03 773,-142.03"/>
<text text-anchor="start" x="769" y="-164.83" font-family="Helvetica,sans-Serif" font-size="14.00">CBlockBase.h </text>
<text text-anchor="middle" x="822.5" y="-149.83" font-family="Helvetica,sans-Serif" font-size="14.00">CBlockBase.cpp</text>
</a>
</g>
</g>
<!-- check&#45;&gt;CBlockBase -->
<g id="edge16" class="edge">
<title>check&#45;&gt;CBlockBase</title>
<path fill="none" stroke="#9ac0cd" stroke-dasharray="5,2" d="M926.65,-122.93C913.65,-127.73 898.93,-133.17 884.78,-138.4"/>
<polygon fill="#9ac0cd" stroke="#9ac0cd" points="883.26,-135.23 875.09,-141.97 885.69,-141.79 883.26,-135.23"/>
</g>
<!-- check&#45;&gt;CStack -->
<g id="edge14" class="edge">
<title>check&#45;&gt;CStack</title>
<path fill="none" stroke="#9ac0cd" stroke-dasharray="5,2" d="M949.31,-88.93C933.77,-73.63 909.69,-53.24 884,-44.03 746.34,5.31 688.5,20.68 555,-39.03 476.22,-74.27 418.36,-164.23 393.09,-209.76"/>
<polygon fill="#9ac0cd" stroke="#9ac0cd" points="389.9,-208.31 388.2,-218.76 396.05,-211.65 389.9,-208.31"/>
</g>
<!-- Doxygen -->
<g id="node4" class="node">
<title>Doxygen</title>
<g id="a_node4"><a xlink:href="md__documentation.html#doc" target="_top" xlink:title="Doxygen documentation">
<path fill="none" stroke="green" stroke-dasharray="5,2" d="M213,-396.03C213,-396.03 299,-396.03 299,-396.03 305,-396.03 311,-402.03 311,-408.03 311,-408.03 311,-422.03 311,-422.03 311,-428.03 305,-434.03 299,-434.03 299,-434.03 213,-434.03 213,-434.03 207,-434.03 201,-428.03 201,-422.03 201,-422.03 201,-408.03 201,-408.03 201,-402.03 207,-396.03 213,-396.03"/>
<text text-anchor="middle" x="256" y="-418.83" font-family="Helvetica,sans-Serif" font-size="14.00">Doxygen</text>
<text text-anchor="middle" x="256" y="-403.83" font-family="Helvetica,sans-Serif" font-size="14.00">documentation</text>
</a>
</g>
</g>
<!-- Doxygen&#45;&gt;top -->
<g id="edge1" class="edge">
<title>Doxygen&#45;&gt;top</title>
<path fill="none" stroke="green" d="M200.74,-406.17C192.63,-404.85 184.08,-403.45 175.45,-402.04"/>
<polygon fill="green" stroke="green" points="175.73,-398.54 165.29,-400.38 174.6,-405.45 175.73,-398.54"/>
</g>
<!-- CContainer -->
<g id="node5" class="node">
<title>CContainer</title>
<g id="a_node5"><a xlink:href="_c_stack_8h.html" target="_top" xlink:title="CStack class">
<path fill="none" stroke="#7f7f7f" stroke-dasharray="1,5" d="M932,-146.03C932,-146.03 1004,-146.03 1004,-146.03 1010,-146.03 1016,-152.03 1016,-158.03 1016,-158.03 1016,-172.03 1016,-172.03 1016,-178.03 1010,-184.03 1004,-184.03 1004,-184.03 932,-184.03 932,-184.03 926,-184.03 920,-178.03 920,-172.03 920,-172.03 920,-158.03 920,-158.03 920,-152.03 926,-146.03 932,-146.03"/>
<text text-anchor="start" x="928" y="-168.83" font-family="Helvetica,sans-Serif" font-weight="bold" font-size="14.00">CStack.h</text>
<text text-anchor="middle" x="968" y="-153.83" font-family="Helvetica,sans-Serif" font-weight="bold" font-size="14.00">CStack.cpp</text>
</a>
</g>
</g>
<!-- CBlock_long&#45;&gt;CBlock -->
<g id="edge7" class="edge">
<title>CBlock_long&#45;&gt;CBlock</title>
<path fill="none" stroke="#eeb422" d="M574.28,-123.03C567.63,-125.74 561.08,-128.74 555,-132.03 538.86,-140.76 522.67,-153.16 509.75,-164.17"/>
<polygon fill="#eeb422" stroke="#eeb422" points="507.39,-161.59 502.16,-170.8 511.99,-166.86 507.39,-161.59"/>
</g>
<!-- CBlock_TInterval&#45;&gt;CBlock -->
<g id="edge8" class="edge">
<title>CBlock_TInterval&#45;&gt;CBlock</title>
<path fill="none" stroke="#eeb422" d="M574.3,-253.97C567.65,-251.27 561.1,-248.29 555,-245.03 539.19,-236.57 523.29,-224.64 510.46,-213.97"/>
<polygon fill="#eeb422" stroke="#eeb422" points="512.39,-211.01 502.51,-207.18 507.84,-216.33 512.39,-211.01"/>
</g>
<!-- main&#45;&gt;top -->
<g id="edge2" class="edge">
<title>main&#45;&gt;top</title>
<path fill="none" stroke="#eeb422" d="M218.63,-364.97C205.8,-367.06 190.75,-369.52 175.42,-372.02"/>
<polygon fill="#eeb422" stroke="#eeb422" points="174.64,-368.6 165.33,-373.67 175.77,-375.51 174.64,-368.6"/>
</g>
<!-- CBlock&#45;&gt;CStack -->
<g id="edge4" class="edge">
<title>CBlock&#45;&gt;CStack</title>
<path fill="none" stroke="#eeb422" d="M444.75,-206.09C436.17,-210.12 426.99,-214.45 418.28,-218.54"/>
<polygon fill="#eeb422" stroke="#eeb422" points="416.63,-215.45 409.07,-222.88 419.61,-221.79 416.63,-215.45"/>
</g>
<!-- CBlock_bool&#45;&gt;CBlock -->
<g id="edge5" class="edge">
<title>CBlock_bool&#45;&gt;CBlock</title>
<path fill="none" stroke="#eeb422" d="M584.88,-207.31C566.78,-204.07 546.79,-200.48 529.34,-197.35"/>
<polygon fill="#eeb422" stroke="#eeb422" points="529.85,-193.88 519.39,-195.56 528.62,-200.77 529.85,-193.88"/>
</g>
<!-- CBlock_TWeekDay&#45;&gt;CBlock -->
<g id="edge6" class="edge">
<title>CBlock_TWeekDay&#45;&gt;CBlock</title>
<path fill="none" stroke="#eeb422" d="M554.61,-176.18C545.82,-177.75 537.15,-179.31 529.03,-180.77"/>
<polygon fill="#eeb422" stroke="#eeb422" points="528.31,-177.34 519.09,-182.55 529.55,-184.23 528.31,-177.34"/>
</g>
<!-- CBlockBase&#45;&gt;CBlock_long -->
<g id="edge11" class="edge">
<title>CBlockBase&#45;&gt;CBlock_long</title>
<path fill="none" stroke="#eeb422" d="M761.15,-141.97C745.04,-136.88 727.5,-131.34 710.93,-126.11"/>
<polygon fill="#eeb422" stroke="#eeb422" points="711.89,-122.74 701.3,-123.07 709.78,-129.42 711.89,-122.74"/>
</g>
<!-- CBlockBase&#45;&gt;CBlock_TInterval -->
<g id="edge12" class="edge">
<title>CBlockBase&#45;&gt;CBlock_TInterval</title>
<path fill="none" stroke="#eeb422" d="M801.29,-180.31C778.13,-202.09 741.3,-235.72 725,-245.03 722.13,-246.67 719.15,-248.23 716.1,-249.71"/>
<polygon fill="#eeb422" stroke="#eeb422" points="714.43,-246.63 706.77,-253.94 717.32,-253 714.43,-246.63"/>
</g>
<!-- CBlockBase&#45;&gt;CBlock_bool -->
<g id="edge9" class="edge">
<title>CBlockBase&#45;&gt;CBlock_bool</title>
<path fill="none" stroke="#eeb422" d="M760.89,-179.83C742.84,-185.43 723,-191.59 704.75,-197.25"/>
<polygon fill="#eeb422" stroke="#eeb422" points="703.59,-193.94 695.08,-200.25 705.67,-200.63 703.59,-193.94"/>
</g>
<!-- CBlockBase&#45;&gt;CBlock_TWeekDay -->
<g id="edge10" class="edge">
<title>CBlockBase&#45;&gt;CBlock_TWeekDay</title>
<path fill="none" stroke="#eeb422" d="M760.89,-161.03C752.65,-161.03 744.03,-161.03 735.37,-161.03"/>
<polygon fill="#eeb422" stroke="#eeb422" points="735.19,-157.53 725.19,-161.03 735.19,-164.53 735.19,-157.53"/>
</g>
<!-- CStack&#45;&gt;main -->
<g id="edge3" class="edge">
<title>CStack&#45;&gt;main</title>
<path fill="none" stroke="#eeb422" d="M359.29,-255.03C338.82,-275.84 304.98,-310.25 281.87,-333.74"/>
<polygon fill="#eeb422" stroke="#eeb422" points="279.3,-331.37 274.78,-340.95 284.29,-336.28 279.3,-331.37"/>
</g>
</g>
</svg>
        <g id="navigator" transform="translate(0 0)" fill="#404254">
                <rect fill="#f2f5e9" fill-opacity="0.5" stroke="#606060" stroke-width=".5" x="0" y="0" width="60" height="60"/>
                <use id="zoomplus" xlink:href="#zoomPlus" x="17" y="9" onmousedown="handleZoom(evt,'in')"/>
                <use id="zoomminus" xlink:href="#zoomMin" x="42" y="9" onmousedown="handleZoom(evt,'out')"/>
                <use id="reset" xlink:href="#resetDef" x="30" y="36" onmousedown="handleReset()"/>
                <g id="arrowUp" xlink:href="#dirArrow" transform="translate(30 24)" onmousedown="handlePan(0,-1)">
                  <use xlink:href="#rim" fill="#404040">
                        <set attributeName="fill" to="#808080" begin="arrowUp.mouseover" end="arrowUp.mouseout"/>
                  </use>
                  <path fill="none" stroke="white" stroke-width="1.5" d="M0,-3.0v7 M-2.5,-0.5L0,-3.0L2.5,-0.5"/>
                </g>
                <g id="arrowRight" xlink:href="#dirArrow" transform="rotate(90) translate(36 -43)" onmousedown="handlePan(1,0)">
                  <use xlink:href="#rim" fill="#404040">
                        <set attributeName="fill" to="#808080" begin="arrowRight.mouseover" end="arrowRight.mouseout"/>
                  </use>
                  <path fill="none" stroke="white" stroke-width="1.5" d="M0,-3.0v7 M-2.5,-0.5L0,-3.0L2.5,-0.5"/>
                </g>
                <g id="arrowDown" xlink:href="#dirArrow" transform="rotate(180) translate(-30 -48)" onmousedown="handlePan(0,1)">
                  <use xlink:href="#rim" fill="#404040">
                        <set attributeName="fill" to="#808080" begin="arrowDown.mouseover" end="arrowDown.mouseout"/>
                  </use>
                  <path fill="none" stroke="white" stroke-width="1.5" d="M0,-3.0v7 M-2.5,-0.5L0,-3.0L2.5,-0.5"/>
                </g>
                <g id="arrowLeft" xlink:href="#dirArrow" transform="rotate(270) translate(-36 17)" onmousedown="handlePan(-1,0)">
                  <use xlink:href="#rim" fill="#404040">
                        <set attributeName="fill" to="#808080" begin="arrowLeft.mouseover" end="arrowLeft.mouseout"/>
                  </use>
                  <path fill="none" stroke="white" stroke-width="1.5" d="M0,-3.0v7 M-2.5,-0.5L0,-3.0L2.5,-0.5"/>
                </g>
        </g>
        <svg viewBox="0 0 15 15" width="100%" height="30px" preserveAspectRatio="xMaxYMin meet">
         <g id="arrow_out" transform="scale(0.3 0.3)">
          <a xlink:href="dot_project_hierarchy_org.svg" target="_base">
           <rect id="button" ry="5" rx="5" y="6" x="6" height="38" width="38"
                fill="#f2f5e9" fill-opacity="0.5" stroke="#606060" stroke-width="1.0"/>
           <path id="arrow"
             d="M 11.500037,31.436501 C 11.940474,20.09759 22.043105,11.32322 32.158766,21.979434 L 37.068811,17.246167 C 37.068811,17.246167 37.088388,32 37.088388,32 L 22.160133,31.978069 C 22.160133,31.978069 26.997745,27.140456 26.997745,27.140456 C 18.528582,18.264221 13.291696,25.230495 11.500037,31.436501 z"
             style="fill:#404040;"/>
          </a>
         </g>
        </svg>
</svg>
