<?xml version="1.0" encoding="UTF-8" standalone="no"?>
<!DOCTYPE svg PUBLIC "-//W3C//DTD SVG 1.1//EN"
 "http://www.w3.org/Graphics/SVG/1.1/DTD/svg11.dtd">
<!-- Generated by graphviz version 6.0.2 (20221011.1828)
 -->
<!-- Title: Graphical Class Hierarchy Pages: 1 -->
<svg width="254pt" height="66pt"
 viewBox="0.00 0.00 254.00 66.00" xmlns="http://www.w3.org/2000/svg" xmlns:xlink="http://www.w3.org/1999/xlink">
<g id="graph0" class="graph" transform="scale(1 1) rotate(0) translate(4 62)">
<title>Graphical Class Hierarchy</title>
<!-- Node0 -->
<g id="node1" class="node">
<title>Node0</title>
<g id="a_node1"><a xlink:href="class_c_block_base.html" target="_top" xlink:title="CBlockBase class.">
<polygon fill="white" stroke="#666666" points="0,-19.5 0,-38.5 71,-38.5 71,-19.5 0,-19.5"/>
<text text-anchor="middle" x="35.5" y="-26.5" font-family="Helvetica,sans-Serif" font-size="10.00">CBlockBase</text>
</a>
</g>
</g>
<!-- Node1 -->
<g id="node2" class="node">
<title>Node1</title>
<g id="a_node2"><a xlink:href="class_c_block___t_week_day_1_1_c_block.html" target="_top" xlink:title="CBlock class (TWeekDay variant)">
<polygon fill="white" stroke="#666666" points="107,-38.5 107,-57.5 246,-57.5 246,-38.5 107,-38.5"/>
<text text-anchor="middle" x="176.5" y="-45.5" font-family="Helvetica,sans-Serif" font-size="10.00">CBlock_TWeekDay::CBlock</text>
</a>
</g>
</g>
<!-- Node0&#45;&gt;Node1 -->
<g id="edge1" class="edge">
<title>Node0&#45;&gt;Node1</title>
<path fill="none" stroke="#63b8ff" d="M81.25,-35.12C89.42,-36.23 98.12,-37.42 106.8,-38.61"/>
<polygon fill="#63b8ff" stroke="#63b8ff" points="81.6,-31.63 71.22,-33.75 80.65,-38.57 81.6,-31.63"/>
</g>
<!-- Node2 -->
<g id="node3" class="node">
<title>Node2</title>
<g id="a_node3"><a xlink:href="class_c_block__bool_1_1_c_block.html" target="_top" xlink:title="CBlock class (bool variant)">
<polygon fill="white" stroke="#666666" points="122,-0.5 122,-19.5 231,-19.5 231,-0.5 122,-0.5"/>
<text text-anchor="middle" x="176.5" y="-7.5" font-family="Helvetica,sans-Serif" font-size="10.00">CBlock_bool::CBlock</text>
</a>
</g>
</g>
<!-- Node0&#45;&gt;Node2 -->
<g id="edge2" class="edge">
<title>Node0&#45;&gt;Node2</title>
<path fill="none" stroke="#63b8ff" d="M81.25,-22.88C94.16,-21.12 108.38,-19.18 121.77,-17.34"/>
<polygon fill="#63b8ff" stroke="#63b8ff" points="80.65,-19.43 71.22,-24.25 81.6,-26.37 80.65,-19.43"/>
</g>
</g>
</svg>
