<?xml version="1.0" encoding="UTF-8" standalone="no"?>
<!DOCTYPE svg PUBLIC "-//W3C//DTD SVG 1.1//EN"
 "http://www.w3.org/Graphics/SVG/1.1/DTD/svg11.dtd">
<!-- Generated by graphviz version 6.0.2 (20221011.1828)
 -->
<!-- Title: main.cpp Pages: 1 -->
<!--zoomable 252 -->
<svg id="main" version="1.1" xmlns="http://www.w3.org/2000/svg" xmlns:xlink="http://www.w3.org/1999/xlink" xml:space="preserve" onload="init(evt)">
<style type="text/css"><![CDATA[
.edge:hover path { stroke: red; }
.edge:hover polygon { stroke: red; fill: red; }
]]></style>
<script type="text/javascript"><![CDATA[
var edges = document.getElementsByTagName('g');
if (edges && edges.length) {
  for (var i=0;i<edges.length;i++) {
    if (edges[i].id.substr(0,4)=='edge') {
      edges[i].setAttribute('class','edge');
    }
  }
}
]]></script>
        <defs>
                <circle id="rim" cx="0" cy="0" r="7"/>
                <circle id="rim2" cx="0" cy="0" r="3.5"/>
                <g id="zoomPlus">
                        <use xlink:href="#rim" fill="#404040">
                                <set attributeName="fill" to="#808080" begin="zoomplus.mouseover" end="zoomplus.mouseout"/>
                        </use>
                        <path d="M-4,0h8M0,-4v8" fill="none" stroke="white" stroke-width="1.5" pointer-events="none"/>
                </g>
                <g id="zoomMin">
                        <use xlink:href="#rim" fill="#404040">
                                <set attributeName="fill" to="#808080" begin="zoomminus.mouseover" end="zoomminus.mouseout"/>
                        </use>
                        <path d="M-4,0h8" fill="none" stroke="white" stroke-width="1.5" pointer-events="none"/>
                </g>
                <g id="dirArrow">
                        <path fill="none" stroke="white" stroke-width="1.5" d="M0,-3.0v7 M-2.5,-0.5L0,-3.0L2.5,-0.5"/>
                </g>
               <g id="resetDef">
                       <use xlink:href="#rim2" fill="#404040">
                               <set attributeName="fill" to="#808080" begin="reset.mouseover" end="reset.mouseout"/>
                       </use>
               </g>
        </defs>

<script type="text/javascript">
var viewWidth = 992;
var viewHeight = 252;
var sectionId = 'dynsection-0';
</script>
<script xlink:href="svgpan.js"/>
<svg id="graph" class="graph">
<g id="viewport">
<title>main.cpp</title>
<!-- Node1 -->
<g id="node1" class="node">
<title>Node1</title>
<g id="a_node1"><a xlink:title="Main source.">
<polygon fill="#999999" stroke="#666666" points="212.5,-224.5 212.5,-243.5 268.5,-243.5 268.5,-224.5 212.5,-224.5"/>
<text text-anchor="middle" x="240.5" y="-231.5" font-family="Helvetica,sans-Serif" font-size="10.00">main.cpp</text>
</a>
</g>
</g>
<!-- Node2 -->
<g id="node2" class="node">
<title>Node2</title>
<g id="a_node2"><a xlink:title=" ">
<polygon fill="#e0e0e0" stroke="#999999" points="0,-168.5 0,-187.5 41,-187.5 41,-168.5 0,-168.5"/>
<text text-anchor="middle" x="20.5" y="-175.5" font-family="Helvetica,sans-Serif" font-size="10.00">ctime</text>
</a>
</g>
</g>
<!-- Node1&#45;&gt;Node2 -->
<g id="edge1" class="edge">
<title>Node1&#45;&gt;Node2</title>
<path fill="none" stroke="#63b8ff" d="M212.26,-226.25C175.96,-217.55 110.97,-201.88 55.5,-188 54.05,-187.64 52.58,-187.27 51.08,-186.89"/>
<polygon fill="#63b8ff" stroke="#63b8ff" points="51.77,-183.45 41.22,-184.37 50.04,-190.24 51.77,-183.45"/>
</g>
<!-- Node3 -->
<g id="node3" class="node">
<title>Node3</title>
<g id="a_node3"><a xlink:title=" ">
<polygon fill="#e0e0e0" stroke="#999999" points="180.5,-0.5 180.5,-19.5 234.5,-19.5 234.5,-0.5 180.5,-0.5"/>
<text text-anchor="middle" x="207.5" y="-7.5" font-family="Helvetica,sans-Serif" font-size="10.00">iostream</text>
</a>
</g>
</g>
<!-- Node1&#45;&gt;Node3 -->
<g id="edge2" class="edge">
<title>Node1&#45;&gt;Node3</title>
<path fill="none" stroke="#63b8ff" d="M212.22,-233.57C177.77,-232.53 120.8,-224.91 93.5,-188 58.61,-140.83 60.5,-104.51 93.5,-56 110.56,-30.92 143.98,-19.82 170.24,-14.9"/>
<polygon fill="#63b8ff" stroke="#63b8ff" points="170.97,-18.33 180.27,-13.25 169.83,-11.42 170.97,-18.33"/>
</g>
<!-- Node4 -->
<g id="node4" class="node">
<title>Node4</title>
<g id="a_node4"><a xlink:title=" ">
<polygon fill="#e0e0e0" stroke="#999999" points="463,-0.5 463,-19.5 522,-19.5 522,-0.5 463,-0.5"/>
<text text-anchor="middle" x="492.5" y="-7.5" font-family="Helvetica,sans-Serif" font-size="10.00">stdexcept</text>
</a>
</g>
</g>
<!-- Node1&#45;&gt;Node4 -->
<g id="edge3" class="edge">
<title>Node1&#45;&gt;Node4</title>
<path fill="none" stroke="#63b8ff" d="M234.24,-224.32C226.12,-211.99 213.55,-188.62 218.5,-168 231.53,-113.69 231.11,-89.9 275.5,-56 302.86,-35.1 398.02,-21.43 452.81,-15.1"/>
<polygon fill="#63b8ff" stroke="#63b8ff" points="453.33,-18.56 462.87,-13.96 452.54,-11.6 453.33,-18.56"/>
</g>
<!-- Node5 -->
<g id="node5" class="node">
<title>Node5</title>
<g id="a_node5"><a xlink:title=" ">
<polygon fill="#e0e0e0" stroke="#999999" points="347.5,-0.5 347.5,-19.5 397.5,-19.5 397.5,-0.5 347.5,-0.5"/>
<text text-anchor="middle" x="372.5" y="-7.5" font-family="Helvetica,sans-Serif" font-size="10.00">typeinfo</text>
</a>
</g>
</g>
<!-- Node1&#45;&gt;Node5 -->
<g id="edge4" class="edge">
<title>Node1&#45;&gt;Node5</title>
<path fill="none" stroke="#63b8ff" d="M237.03,-224.19C226.72,-196.37 199.22,-109.11 237.5,-56 260.02,-24.76 305.17,-14.88 337.04,-11.93"/>
<polygon fill="#63b8ff" stroke="#63b8ff" points="337.57,-15.4 347.28,-11.17 337.05,-8.42 337.57,-15.4"/>
</g>
<!-- Node6 -->
<g id="node6" class="node">
<title>Node6</title>
<g id="a_node6"><a xlink:title=" ">
<polygon fill="#e0e0e0" stroke="#999999" points="921.5,-168.5 921.5,-187.5 983.5,-187.5 983.5,-168.5 921.5,-168.5"/>
<text text-anchor="middle" x="952.5" y="-175.5" font-family="Helvetica,sans-Serif" font-size="10.00">type_traits</text>
</a>
</g>
</g>
<!-- Node1&#45;&gt;Node6 -->
<g id="edge5" class="edge">
<title>Node1&#45;&gt;Node6</title>
<path fill="none" stroke="#63b8ff" d="M268.59,-232.41C360.62,-230.2 661.3,-220.78 907.5,-188 908.61,-187.85 909.72,-187.69 910.85,-187.53"/>
<polygon fill="#63b8ff" stroke="#63b8ff" points="911.83,-190.91 921.12,-185.82 910.68,-184.01 911.83,-190.91"/>
</g>
<!-- Node7 -->
<g id="node7" class="node">
<title>Node7</title>
<g id="a_node7"><a xlink:title=" ">
<polygon fill="#e0e0e0" stroke="#999999" points="861.5,-0.5 861.5,-19.5 923.5,-19.5 923.5,-0.5 861.5,-0.5"/>
<text text-anchor="middle" x="892.5" y="-7.5" font-family="Helvetica,sans-Serif" font-size="10.00">demagle.h</text>
</a>
</g>
</g>
<!-- Node1&#45;&gt;Node7 -->
<g id="edge6" class="edge">
<title>Node1&#45;&gt;Node7</title>
<path fill="none" stroke="#63b8ff" d="M268.77,-232.46C331.23,-230.65 485.21,-222.71 608.5,-188 666.32,-171.72 679.85,-162.67 731.5,-132 786.81,-99.16 845.77,-51.03 874.57,-26.55"/>
<polygon fill="#63b8ff" stroke="#63b8ff" points="877.19,-28.92 882.5,-19.75 872.63,-23.6 877.19,-28.92"/>
</g>
<!-- Node8 -->
<g id="node8" class="node">
<title>Node8</title>
<g id="a_node8"><a xlink:href="_c_block_8h.html" target="_top" xlink:title="General header for CBlock.">
<polygon fill="white" stroke="#666666" points="307.5,-168.5 307.5,-187.5 363.5,-187.5 363.5,-168.5 307.5,-168.5"/>
<text text-anchor="middle" x="335.5" y="-175.5" font-family="Helvetica,sans-Serif" font-size="10.00">CBlock.h</text>
</a>
</g>
</g>
<!-- Node1&#45;&gt;Node8 -->
<g id="edge7" class="edge">
<title>Node1&#45;&gt;Node8</title>
<path fill="none" stroke="#63b8ff" d="M255.76,-224.32C270.72,-215.82 293.75,-202.73 311.23,-192.8"/>
<polygon fill="#63b8ff" stroke="#63b8ff" points="313.31,-195.64 320.27,-187.65 309.85,-189.55 313.31,-195.64"/>
</g>
<!-- Node16 -->
<g id="node16" class="node">
<title>Node16</title>
<g id="a_node16"><a xlink:title=" ">
<polygon fill="#e0e0e0" stroke="#999999" points="791,-0.5 791,-19.5 842,-19.5 842,-0.5 791,-0.5"/>
<text text-anchor="middle" x="816.5" y="-7.5" font-family="Helvetica,sans-Serif" font-size="10.00">check.h</text>
</a>
</g>
</g>
<!-- Node1&#45;&gt;Node16 -->
<g id="edge36" class="edge">
<title>Node1&#45;&gt;Node16</title>
<path fill="none" stroke="#63b8ff" d="M268.54,-232.83C355.71,-230.83 625.47,-213.28 781.5,-76 795.61,-63.59 805.04,-44.07 810.52,-29.66"/>
<polygon fill="#63b8ff" stroke="#63b8ff" points="813.96,-30.43 813.95,-19.84 807.35,-28.12 813.96,-30.43"/>
</g>
<!-- Node9 -->
<g id="node9" class="node">
<title>Node9</title>
<g id="a_node9"><a xlink:href="_c_block__bool_8h.html" target="_top" xlink:title="CBlock_bool class header.">
<polygon fill="white" stroke="#666666" points="546.5,-112.5 546.5,-131.5 626.5,-131.5 626.5,-112.5 546.5,-112.5"/>
<text text-anchor="middle" x="586.5" y="-119.5" font-family="Helvetica,sans-Serif" font-size="10.00">CBlock_bool.h</text>
</a>
</g>
</g>
<!-- Node8&#45;&gt;Node9 -->
<g id="edge8" class="edge">
<title>Node8&#45;&gt;Node9</title>
<path fill="none" stroke="#63b8ff" d="M363.8,-170.91C405.75,-161.89 485.03,-144.83 536.8,-133.69"/>
<polygon fill="#63b8ff" stroke="#63b8ff" points="537.72,-137.07 546.76,-131.55 536.25,-130.23 537.72,-137.07"/>
</g>
<!-- Node17 -->
<g id="node17" class="node">
<title>Node17</title>
<g id="a_node17"><a xlink:href="_c_block___t_week_day_8h.html" target="_top" xlink:title="CBlock_TWeekDay class header.">
<polygon fill="white" stroke="#666666" points="280.5,-112.5 280.5,-131.5 390.5,-131.5 390.5,-112.5 280.5,-112.5"/>
<text text-anchor="middle" x="335.5" y="-119.5" font-family="Helvetica,sans-Serif" font-size="10.00">CBlock_TWeekDay.h</text>
</a>
</g>
</g>
<!-- Node8&#45;&gt;Node17 -->
<g id="edge26" class="edge">
<title>Node8&#45;&gt;Node17</title>
<path fill="none" stroke="#63b8ff" d="M335.5,-168.08C335.5,-161.01 335.5,-150.86 335.5,-141.99"/>
<polygon fill="#63b8ff" stroke="#63b8ff" points="339,-141.75 335.5,-131.75 332,-141.75 339,-141.75"/>
</g>
<!-- Node9&#45;&gt;Node3 -->
<g id="edge9" class="edge">
<title>Node9&#45;&gt;Node3</title>
<path fill="none" stroke="#63b8ff" d="M579.15,-112.08C566.69,-97.63 539.89,-69.39 510.5,-56 463.78,-34.71 315.16,-19.94 244.94,-13.96"/>
<polygon fill="#63b8ff" stroke="#63b8ff" points="245.02,-10.46 234.77,-13.11 244.44,-17.43 245.02,-10.46"/>
</g>
<!-- Node9&#45;&gt;Node4 -->
<g id="edge12" class="edge">
<title>Node9&#45;&gt;Node4</title>
<path fill="none" stroke="#63b8ff" d="M588.36,-112.14C590.65,-98.75 592.96,-73.12 581.5,-56 569.99,-38.8 549.83,-27.85 531.6,-21.07"/>
<polygon fill="#63b8ff" stroke="#63b8ff" points="532.62,-17.72 522.02,-17.8 530.36,-24.34 532.62,-17.72"/>
</g>
<!-- Node9&#45;&gt;Node5 -->
<g id="edge13" class="edge">
<title>Node9&#45;&gt;Node5</title>
<path fill="none" stroke="#63b8ff" d="M583.2,-112.37C577.39,-98.33 563.96,-70.66 543.5,-56 521.84,-40.48 450.94,-25.32 407.52,-17.16"/>
<polygon fill="#63b8ff" stroke="#63b8ff" points="408.12,-13.71 397.65,-15.34 406.85,-20.6 408.12,-13.71"/>
</g>
<!-- Node10 -->
<g id="node10" class="node">
<title>Node10</title>
<g id="a_node10"><a xlink:title=" ">
<polygon fill="#e0e0e0" stroke="#999999" points="647.5,-0.5 647.5,-19.5 699.5,-19.5 699.5,-0.5 647.5,-0.5"/>
<text text-anchor="middle" x="673.5" y="-7.5" font-family="Helvetica,sans-Serif" font-size="10.00">sstream</text>
</a>
</g>
</g>
<!-- Node9&#45;&gt;Node10 -->
<g id="edge10" class="edge">
<title>Node9&#45;&gt;Node10</title>
<path fill="none" stroke="#63b8ff" d="M626.63,-121.39C662.15,-119.32 712.16,-109.99 737.5,-76 752.21,-56.27 725.49,-36.55 702.21,-24.09"/>
<polygon fill="#63b8ff" stroke="#63b8ff" points="703.73,-20.93 693.22,-19.53 700.56,-27.18 703.73,-20.93"/>
</g>
<!-- Node11 -->
<g id="node11" class="node">
<title>Node11</title>
<g id="a_node11"><a xlink:title=" ">
<polygon fill="#e0e0e0" stroke="#999999" points="402,-56.5 402,-75.5 443,-75.5 443,-56.5 402,-56.5"/>
<text text-anchor="middle" x="422.5" y="-63.5" font-family="Helvetica,sans-Serif" font-size="10.00">string</text>
</a>
</g>
</g>
<!-- Node9&#45;&gt;Node11 -->
<g id="edge11" class="edge">
<title>Node9&#45;&gt;Node11</title>
<path fill="none" stroke="#63b8ff" d="M560.51,-112.44C531.3,-102.82 483.92,-87.22 452.98,-77.04"/>
<polygon fill="#63b8ff" stroke="#63b8ff" points="453.77,-73.61 443.17,-73.81 451.58,-80.26 453.77,-73.61"/>
</g>
<!-- Node12 -->
<g id="node12" class="node">
<title>Node12</title>
<g id="a_node12"><a xlink:title=" ">
<polygon fill="#e0e0e0" stroke="#999999" points="461.5,-56.5 461.5,-75.5 501.5,-75.5 501.5,-56.5 461.5,-56.5"/>
<text text-anchor="middle" x="481.5" y="-63.5" font-family="Helvetica,sans-Serif" font-size="10.00">utility</text>
</a>
</g>
</g>
<!-- Node9&#45;&gt;Node12 -->
<g id="edge14" class="edge">
<title>Node9&#45;&gt;Node12</title>
<path fill="none" stroke="#63b8ff" d="M569.63,-112.32C552.79,-103.66 526.69,-90.24 507.26,-80.25"/>
<polygon fill="#63b8ff" stroke="#63b8ff" points="508.82,-77.12 498.33,-75.65 505.62,-83.34 508.82,-77.12"/>
</g>
<!-- Node13 -->
<g id="node13" class="node">
<title>Node13</title>
<g id="a_node13"><a xlink:title=" ">
<polygon fill="#e0e0e0" stroke="#999999" points="564,-0.5 564,-19.5 629,-19.5 629,-0.5 564,-0.5"/>
<text text-anchor="middle" x="596.5" y="-7.5" font-family="Helvetica,sans-Serif" font-size="10.00">ClassInfo.h</text>
</a>
</g>
</g>
<!-- Node9&#45;&gt;Node13 -->
<g id="edge15" class="edge">
<title>Node9&#45;&gt;Node13</title>
<path fill="none" stroke="#63b8ff" d="M626.57,-119.6C658.06,-116.14 700.05,-105.76 721.5,-76 726.7,-68.79 726.61,-63.27 721.5,-56 711.64,-41.98 671.1,-29.07 638.82,-20.71"/>
<polygon fill="#63b8ff" stroke="#63b8ff" points="639.67,-17.31 629.11,-18.26 637.96,-24.1 639.67,-17.31"/>
</g>
<!-- Node14 -->
<g id="node14" class="node">
<title>Node14</title>
<g id="a_node14"><a xlink:href="_c_block_base_8h.html" target="_top" xlink:title="CBlockBase class header.">
<polygon fill="white" stroke="#666666" points="634,-56.5 634,-75.5 713,-75.5 713,-56.5 634,-56.5"/>
<text text-anchor="middle" x="673.5" y="-63.5" font-family="Helvetica,sans-Serif" font-size="10.00">CBlockBase.h</text>
</a>
</g>
</g>
<!-- Node9&#45;&gt;Node14 -->
<g id="edge16" class="edge">
<title>Node9&#45;&gt;Node14</title>
<path fill="none" stroke="#63b8ff" d="M600.48,-112.32C614.05,-103.9 634.88,-90.97 650.82,-81.07"/>
<polygon fill="#63b8ff" stroke="#63b8ff" points="652.91,-83.9 659.56,-75.65 649.21,-77.95 652.91,-83.9"/>
</g>
<!-- Node9&#45;&gt;Node16 -->
<g id="edge25" class="edge">
<title>Node9&#45;&gt;Node16</title>
<path fill="none" stroke="#63b8ff" d="M626.56,-116.51C662.18,-111.11 714.64,-99.65 754.5,-76 775.16,-63.75 793.4,-42.71 804.66,-27.89"/>
<polygon fill="#63b8ff" stroke="#63b8ff" points="807.64,-29.74 810.72,-19.6 801.99,-25.61 807.64,-29.74"/>
</g>
<!-- Node14&#45;&gt;Node3 -->
<g id="edge18" class="edge">
<title>Node14&#45;&gt;Node3</title>
<path fill="none" stroke="#63b8ff" d="M633.77,-60.4C544.92,-50.1 331.21,-25.34 244.74,-15.32"/>
<polygon fill="#63b8ff" stroke="#63b8ff" points="244.94,-11.82 234.61,-14.14 244.14,-18.77 244.94,-11.82"/>
</g>
<!-- Node14&#45;&gt;Node4 -->
<g id="edge20" class="edge">
<title>Node14&#45;&gt;Node4</title>
<path fill="none" stroke="#63b8ff" d="M644.82,-56.44C613.97,-47.24 564.77,-32.56 530.67,-22.39"/>
<polygon fill="#63b8ff" stroke="#63b8ff" points="531.63,-19.02 521.05,-19.52 529.63,-25.73 531.63,-19.02"/>
</g>
<!-- Node14&#45;&gt;Node5 -->
<g id="edge21" class="edge">
<title>Node14&#45;&gt;Node5</title>
<path fill="none" stroke="#63b8ff" d="M633.84,-57.88C574.63,-47.26 464.05,-27.42 407.61,-17.3"/>
<polygon fill="#63b8ff" stroke="#63b8ff" points="408.18,-13.85 397.72,-15.53 406.95,-20.74 408.18,-13.85"/>
</g>
<!-- Node14&#45;&gt;Node7 -->
<g id="edge23" class="edge">
<title>Node14&#45;&gt;Node7</title>
<path fill="none" stroke="#63b8ff" d="M708.2,-56.44C747.09,-46.86 810.08,-31.32 851.4,-21.13"/>
<polygon fill="#63b8ff" stroke="#63b8ff" points="852.28,-24.52 861.15,-18.73 850.61,-17.72 852.28,-24.52"/>
</g>
<!-- Node14&#45;&gt;Node10 -->
<g id="edge19" class="edge">
<title>Node14&#45;&gt;Node10</title>
<path fill="none" stroke="#63b8ff" d="M673.5,-56.08C673.5,-49.01 673.5,-38.86 673.5,-29.99"/>
<polygon fill="#63b8ff" stroke="#63b8ff" points="677,-29.75 673.5,-19.75 670,-29.75 677,-29.75"/>
</g>
<!-- Node14&#45;&gt;Node13 -->
<g id="edge22" class="edge">
<title>Node14&#45;&gt;Node13</title>
<path fill="none" stroke="#63b8ff" d="M661.13,-56.32C649.34,-48.06 631.37,-35.45 617.36,-25.63"/>
<polygon fill="#63b8ff" stroke="#63b8ff" points="619.04,-22.53 608.84,-19.65 615.02,-28.26 619.04,-22.53"/>
</g>
<!-- Node15 -->
<g id="node15" class="node">
<title>Node15</title>
<g id="a_node15"><a xlink:title=" ">
<polygon fill="#e0e0e0" stroke="#999999" points="717.5,-0.5 717.5,-19.5 771.5,-19.5 771.5,-0.5 717.5,-0.5"/>
<text text-anchor="middle" x="744.5" y="-7.5" font-family="Helvetica,sans-Serif" font-size="10.00">compare</text>
</a>
</g>
</g>
<!-- Node14&#45;&gt;Node15 -->
<g id="edge17" class="edge">
<title>Node14&#45;&gt;Node15</title>
<path fill="none" stroke="#63b8ff" d="M684.91,-56.32C695.61,-48.18 711.84,-35.84 724.66,-26.09"/>
<polygon fill="#63b8ff" stroke="#63b8ff" points="727.04,-28.67 732.89,-19.83 722.81,-23.1 727.04,-28.67"/>
</g>
<!-- Node14&#45;&gt;Node16 -->
<g id="edge24" class="edge">
<title>Node14&#45;&gt;Node16</title>
<path fill="none" stroke="#63b8ff" d="M696.16,-56.44C719.9,-47.48 757.41,-33.31 784.24,-23.18"/>
<polygon fill="#63b8ff" stroke="#63b8ff" points="785.83,-26.32 793.95,-19.52 783.36,-19.77 785.83,-26.32"/>
</g>
<!-- Node17&#45;&gt;Node3 -->
<g id="edge27" class="edge">
<title>Node17&#45;&gt;Node3</title>
<path fill="none" stroke="#63b8ff" d="M302.97,-112.46C282.05,-105.56 255.52,-93.99 237.5,-76 224.6,-63.13 216.64,-43.68 212.19,-29.41"/>
<polygon fill="#63b8ff" stroke="#63b8ff" points="215.53,-28.37 209.44,-19.7 208.79,-30.27 215.53,-28.37"/>
</g>
<!-- Node17&#45;&gt;Node4 -->
<g id="edge30" class="edge">
<title>Node17&#45;&gt;Node4</title>
<path fill="none" stroke="#63b8ff" d="M319.81,-112.36C299.15,-99.89 267.25,-76.12 283.5,-56 294.09,-42.88 394.93,-25.72 452.57,-16.86"/>
<polygon fill="#63b8ff" stroke="#63b8ff" points="453.44,-20.27 462.8,-15.3 452.39,-13.35 453.44,-20.27"/>
</g>
<!-- Node17&#45;&gt;Node5 -->
<g id="edge31" class="edge">
<title>Node17&#45;&gt;Node5</title>
<path fill="none" stroke="#63b8ff" d="M303.7,-112.43C270.88,-101.94 226.93,-82.29 245.5,-56 266.15,-26.78 307.46,-16.41 337.38,-12.8"/>
<polygon fill="#63b8ff" stroke="#63b8ff" points="337.83,-16.27 347.43,-11.78 337.13,-9.31 337.83,-16.27"/>
</g>
<!-- Node17&#45;&gt;Node10 -->
<g id="edge28" class="edge">
<title>Node17&#45;&gt;Node10</title>
<path fill="none" stroke="#63b8ff" d="M335.98,-112.21C337.26,-97.94 342,-69.95 359.5,-56 406.02,-18.92 561.43,-30.39 637.1,-19.62"/>
<polygon fill="#63b8ff" stroke="#63b8ff" points="637.94,-23.03 647.23,-17.94 636.79,-16.12 637.94,-23.03"/>
</g>
<!-- Node17&#45;&gt;Node11 -->
<g id="edge29" class="edge">
<title>Node17&#45;&gt;Node11</title>
<path fill="none" stroke="#63b8ff" d="M349.48,-112.32C363.05,-103.9 383.88,-90.97 399.82,-81.07"/>
<polygon fill="#63b8ff" stroke="#63b8ff" points="401.91,-83.9 408.56,-75.65 398.21,-77.95 401.91,-83.9"/>
</g>
<!-- Node17&#45;&gt;Node12 -->
<g id="edge32" class="edge">
<title>Node17&#45;&gt;Node12</title>
<path fill="none" stroke="#63b8ff" d="M358.63,-112.44C383.84,-103.12 424.24,-88.18 451.78,-77.99"/>
<polygon fill="#63b8ff" stroke="#63b8ff" points="453.13,-81.22 461.3,-74.47 450.7,-74.66 453.13,-81.22"/>
</g>
<!-- Node17&#45;&gt;Node13 -->
<g id="edge33" class="edge">
<title>Node17&#45;&gt;Node13</title>
<path fill="none" stroke="#63b8ff" d="M329.54,-112.31C321,-98.68 307.75,-72.19 321.5,-56 325.25,-51.59 477.26,-28.6 553.63,-17.29"/>
<polygon fill="#63b8ff" stroke="#63b8ff" points="554.5,-20.7 563.88,-15.78 553.48,-13.78 554.5,-20.7"/>
</g>
<!-- Node17&#45;&gt;Node14 -->
<g id="edge34" class="edge">
<title>Node17&#45;&gt;Node14</title>
<path fill="none" stroke="#63b8ff" d="M389.06,-112.44C453.59,-102.13 561.15,-84.95 623.88,-74.93"/>
<polygon fill="#63b8ff" stroke="#63b8ff" points="624.6,-78.36 633.92,-73.32 623.5,-71.44 624.6,-78.36"/>
</g>
<!-- Node17&#45;&gt;Node16 -->
<g id="edge35" class="edge">
<title>Node17&#45;&gt;Node16</title>
<path fill="none" stroke="#63b8ff" d="M340.11,-112.39C348.41,-97.87 367.36,-68.82 392.5,-56 469.64,-16.65 695.14,-34.54 780.5,-20 780.6,-19.98 780.71,-19.96 780.81,-19.95"/>
<polygon fill="#63b8ff" stroke="#63b8ff" points="781.53,-23.37 790.64,-17.97 780.15,-16.51 781.53,-23.37"/>
</g>
</g>
</svg>
        <g id="navigator" transform="translate(0 0)" fill="#404254">
                <rect fill="#f2f5e9" fill-opacity="0.5" stroke="#606060" stroke-width=".5" x="0" y="0" width="60" height="60"/>
                <use id="zoomplus" xlink:href="#zoomPlus" x="17" y="9" onmousedown="handleZoom(evt,'in')"/>
                <use id="zoomminus" xlink:href="#zoomMin" x="42" y="9" onmousedown="handleZoom(evt,'out')"/>
                <use id="reset" xlink:href="#resetDef" x="30" y="36" onmousedown="handleReset()"/>
                <g id="arrowUp" xlink:href="#dirArrow" transform="translate(30 24)" onmousedown="handlePan(0,-1)">
                  <use xlink:href="#rim" fill="#404040">
                        <set attributeName="fill" to="#808080" begin="arrowUp.mouseover" end="arrowUp.mouseout"/>
                  </use>
                  <path fill="none" stroke="white" stroke-width="1.5" d="M0,-3.0v7 M-2.5,-0.5L0,-3.0L2.5,-0.5"/>
                </g>
                <g id="arrowRight" xlink:href="#dirArrow" transform="rotate(90) translate(36 -43)" onmousedown="handlePan(1,0)">
                  <use xlink:href="#rim" fill="#404040">
                        <set attributeName="fill" to="#808080" begin="arrowRight.mouseover" end="arrowRight.mouseout"/>
                  </use>
                  <path fill="none" stroke="white" stroke-width="1.5" d="M0,-3.0v7 M-2.5,-0.5L0,-3.0L2.5,-0.5"/>
                </g>
                <g id="arrowDown" xlink:href="#dirArrow" transform="rotate(180) translate(-30 -48)" onmousedown="handlePan(0,1)">
                  <use xlink:href="#rim" fill="#404040">
                        <set attributeName="fill" to="#808080" begin="arrowDown.mouseover" end="arrowDown.mouseout"/>
                  </use>
                  <path fill="none" stroke="white" stroke-width="1.5" d="M0,-3.0v7 M-2.5,-0.5L0,-3.0L2.5,-0.5"/>
                </g>
                <g id="arrowLeft" xlink:href="#dirArrow" transform="rotate(270) translate(-36 17)" onmousedown="handlePan(-1,0)">
                  <use xlink:href="#rim" fill="#404040">
                        <set attributeName="fill" to="#808080" begin="arrowLeft.mouseover" end="arrowLeft.mouseout"/>
                  </use>
                  <path fill="none" stroke="white" stroke-width="1.5" d="M0,-3.0v7 M-2.5,-0.5L0,-3.0L2.5,-0.5"/>
                </g>
        </g>
        <svg viewBox="0 0 15 15" width="100%" height="30px" preserveAspectRatio="xMaxYMin meet">
         <g id="arrow_out" transform="scale(0.3 0.3)">
          <a xlink:href="main_8cpp__incl_org.svg" target="_base">
           <rect id="button" ry="5" rx="5" y="6" x="6" height="38" width="38"
                fill="#f2f5e9" fill-opacity="0.5" stroke="#606060" stroke-width="1.0"/>
           <path id="arrow"
             d="M 11.500037,31.436501 C 11.940474,20.09759 22.043105,11.32322 32.158766,21.979434 L 37.068811,17.246167 C 37.068811,17.246167 37.088388,32 37.088388,32 L 22.160133,31.978069 C 22.160133,31.978069 26.997745,27.140456 26.997745,27.140456 C 18.528582,18.264221 13.291696,25.230495 11.500037,31.436501 z"
             style="fill:#404040;"/>
          </a>
         </g>
        </svg>
</svg>
