<?xml version="1.0" encoding="UTF-8" standalone="no"?>
<!DOCTYPE svg PUBLIC "-//W3C//DTD SVG 1.1//EN"
 "http://www.w3.org/Graphics/SVG/1.1/DTD/svg11.dtd">
<!-- Generated by graphviz version 6.0.2 (20221011.1828)
 -->
<!-- Title: CBlock_bool.h Pages: 1 -->
<svg width="583pt" height="140pt"
 viewBox="0.00 0.00 582.50 140.00" xmlns="http://www.w3.org/2000/svg" xmlns:xlink="http://www.w3.org/1999/xlink">
<g id="graph0" class="graph" transform="scale(1 1) rotate(0) translate(4 136)">
<title>CBlock_bool.h</title>
<!-- Node1 -->
<g id="node1" class="node">
<title>Node1</title>
<g id="a_node1"><a xlink:title="CBlock_bool class header.">
<polygon fill="#999999" stroke="#666666" points="264,-112.5 264,-131.5 344,-131.5 344,-112.5 264,-112.5"/>
<text text-anchor="middle" x="304" y="-119.5" font-family="Helvetica,sans-Serif" font-size="10.00">CBlock_bool.h</text>
</a>
</g>
</g>
<!-- Node2 -->
<g id="node2" class="node">
<title>Node2</title>
<g id="a_node2"><a xlink:title=" ">
<polygon fill="#e0e0e0" stroke="#999999" points="0,-0.5 0,-19.5 54,-19.5 54,-0.5 0,-0.5"/>
<text text-anchor="middle" x="27" y="-7.5" font-family="Helvetica,sans-Serif" font-size="10.00">iostream</text>
</a>
</g>
</g>
<!-- Node1&#45;&gt;Node2 -->
<g id="edge1" class="edge">
<title>Node1&#45;&gt;Node2</title>
<path fill="none" stroke="#63b8ff" d="M278.94,-112.46C253.58,-103.71 213.34,-89.51 179,-76 135.38,-58.84 85.55,-37.12 55.19,-23.64"/>
<polygon fill="#63b8ff" stroke="#63b8ff" points="56.61,-20.44 46.05,-19.57 53.76,-26.84 56.61,-20.44"/>
</g>
<!-- Node3 -->
<g id="node3" class="node">
<title>Node3</title>
<g id="a_node3"><a xlink:title=" ">
<polygon fill="#e0e0e0" stroke="#999999" points="72,-0.5 72,-19.5 124,-19.5 124,-0.5 72,-0.5"/>
<text text-anchor="middle" x="98" y="-7.5" font-family="Helvetica,sans-Serif" font-size="10.00">sstream</text>
</a>
</g>
</g>
<!-- Node1&#45;&gt;Node3 -->
<g id="edge2" class="edge">
<title>Node1&#45;&gt;Node3</title>
<path fill="none" stroke="#63b8ff" d="M287.69,-112.4C270.57,-103.37 242.87,-88.73 219,-76 185.75,-58.27 147.44,-37.66 122.99,-24.48"/>
<polygon fill="#63b8ff" stroke="#63b8ff" points="124.5,-21.32 114.03,-19.65 121.17,-27.48 124.5,-21.32"/>
</g>
<!-- Node4 -->
<g id="node4" class="node">
<title>Node4</title>
<g id="a_node4"><a xlink:title=" ">
<polygon fill="#e0e0e0" stroke="#999999" points="438.5,-56.5 438.5,-75.5 479.5,-75.5 479.5,-56.5 438.5,-56.5"/>
<text text-anchor="middle" x="459" y="-63.5" font-family="Helvetica,sans-Serif" font-size="10.00">string</text>
</a>
</g>
</g>
<!-- Node1&#45;&gt;Node4 -->
<g id="edge3" class="edge">
<title>Node1&#45;&gt;Node4</title>
<path fill="none" stroke="#63b8ff" d="M328.56,-112.44C355.59,-103.03 399.08,-87.87 428.33,-77.68"/>
<polygon fill="#63b8ff" stroke="#63b8ff" points="429.74,-80.9 438.03,-74.3 427.44,-74.29 429.74,-80.9"/>
</g>
<!-- Node5 -->
<g id="node5" class="node">
<title>Node5</title>
<g id="a_node5"><a xlink:title=" ">
<polygon fill="#e0e0e0" stroke="#999999" points="142.5,-0.5 142.5,-19.5 201.5,-19.5 201.5,-0.5 142.5,-0.5"/>
<text text-anchor="middle" x="172" y="-7.5" font-family="Helvetica,sans-Serif" font-size="10.00">stdexcept</text>
</a>
</g>
</g>
<!-- Node1&#45;&gt;Node5 -->
<g id="edge4" class="edge">
<title>Node1&#45;&gt;Node5</title>
<path fill="none" stroke="#63b8ff" d="M292.04,-112.29C279.97,-103.41 260.9,-89.11 245,-76 225.3,-59.76 203.54,-40.15 188.94,-26.75"/>
<polygon fill="#63b8ff" stroke="#63b8ff" points="190.97,-23.86 181.25,-19.65 186.22,-29 190.97,-23.86"/>
</g>
<!-- Node6 -->
<g id="node6" class="node">
<title>Node6</title>
<g id="a_node6"><a xlink:title=" ">
<polygon fill="#e0e0e0" stroke="#999999" points="220,-0.5 220,-19.5 270,-19.5 270,-0.5 220,-0.5"/>
<text text-anchor="middle" x="245" y="-7.5" font-family="Helvetica,sans-Serif" font-size="10.00">typeinfo</text>
</a>
</g>
</g>
<!-- Node1&#45;&gt;Node6 -->
<g id="edge5" class="edge">
<title>Node1&#45;&gt;Node6</title>
<path fill="none" stroke="#63b8ff" d="M290.4,-112.42C278.99,-104.45 263.27,-91.49 255,-76 247.36,-61.68 245.12,-43.21 244.64,-29.63"/>
<polygon fill="#63b8ff" stroke="#63b8ff" points="248.14,-29.53 244.57,-19.56 241.14,-29.58 248.14,-29.53"/>
</g>
<!-- Node7 -->
<g id="node7" class="node">
<title>Node7</title>
<g id="a_node7"><a xlink:title=" ">
<polygon fill="#e0e0e0" stroke="#999999" points="498,-56.5 498,-75.5 538,-75.5 538,-56.5 498,-56.5"/>
<text text-anchor="middle" x="518" y="-63.5" font-family="Helvetica,sans-Serif" font-size="10.00">utility</text>
</a>
</g>
</g>
<!-- Node1&#45;&gt;Node7 -->
<g id="edge6" class="edge">
<title>Node1&#45;&gt;Node7</title>
<path fill="none" stroke="#63b8ff" d="M342.09,-112.47C377.57,-104.35 432.13,-91.47 488.05,-76.14"/>
<polygon fill="#63b8ff" stroke="#63b8ff" points="489.06,-79.49 497.77,-73.46 487.19,-72.75 489.06,-79.49"/>
</g>
<!-- Node8 -->
<g id="node8" class="node">
<title>Node8</title>
<g id="a_node8"><a xlink:title=" ">
<polygon fill="#e0e0e0" stroke="#999999" points="440.5,-0.5 440.5,-19.5 505.5,-19.5 505.5,-0.5 440.5,-0.5"/>
<text text-anchor="middle" x="473" y="-7.5" font-family="Helvetica,sans-Serif" font-size="10.00">ClassInfo.h</text>
</a>
</g>
</g>
<!-- Node1&#45;&gt;Node8 -->
<g id="edge7" class="edge">
<title>Node1&#45;&gt;Node8</title>
<path fill="none" stroke="#63b8ff" d="M315.4,-112.47C332.57,-99.72 366.24,-75.16 396,-56 413.25,-44.89 433.27,-33.23 448.57,-24.56"/>
<polygon fill="#63b8ff" stroke="#63b8ff" points="450.43,-27.53 457.42,-19.58 446.99,-21.43 450.43,-27.53"/>
</g>
<!-- Node9 -->
<g id="node9" class="node">
<title>Node9</title>
<g id="a_node9"><a xlink:href="_c_block_base_8h.html" target="_top" xlink:title="CBlockBase class header.">
<polygon fill="white" stroke="#666666" points="264.5,-56.5 264.5,-75.5 343.5,-75.5 343.5,-56.5 264.5,-56.5"/>
<text text-anchor="middle" x="304" y="-63.5" font-family="Helvetica,sans-Serif" font-size="10.00">CBlockBase.h</text>
</a>
</g>
</g>
<!-- Node1&#45;&gt;Node9 -->
<g id="edge8" class="edge">
<title>Node1&#45;&gt;Node9</title>
<path fill="none" stroke="#63b8ff" d="M304,-112.08C304,-105.01 304,-94.86 304,-85.99"/>
<polygon fill="#63b8ff" stroke="#63b8ff" points="307.5,-85.75 304,-75.75 300.5,-85.75 307.5,-85.75"/>
</g>
<!-- Node12 -->
<g id="node12" class="node">
<title>Node12</title>
<g id="a_node12"><a xlink:title=" ">
<polygon fill="#e0e0e0" stroke="#999999" points="523.5,-0.5 523.5,-19.5 574.5,-19.5 574.5,-0.5 523.5,-0.5"/>
<text text-anchor="middle" x="549" y="-7.5" font-family="Helvetica,sans-Serif" font-size="10.00">check.h</text>
</a>
</g>
</g>
<!-- Node1&#45;&gt;Node12 -->
<g id="edge17" class="edge">
<title>Node1&#45;&gt;Node12</title>
<path fill="none" stroke="#63b8ff" d="M322.29,-112.35C340.78,-103.52 370.11,-89.25 395,-76 410.81,-67.58 413.79,-63.64 430,-56 457.45,-43.07 489.71,-31.06 513.71,-22.7"/>
<polygon fill="#63b8ff" stroke="#63b8ff" points="515.13,-25.91 523.45,-19.35 512.85,-19.29 515.13,-25.91"/>
</g>
<!-- Node9&#45;&gt;Node2 -->
<g id="edge10" class="edge">
<title>Node9&#45;&gt;Node2</title>
<path fill="none" stroke="#63b8ff" d="M264.19,-58.33C218.25,-50.46 140.22,-36.58 63.87,-20.09"/>
<polygon fill="#63b8ff" stroke="#63b8ff" points="64.6,-16.66 54.09,-17.96 63.11,-23.5 64.6,-16.66"/>
</g>
<!-- Node9&#45;&gt;Node3 -->
<g id="edge11" class="edge">
<title>Node9&#45;&gt;Node3</title>
<path fill="none" stroke="#63b8ff" d="M271.36,-56.44C233.97,-46.64 172.89,-30.63 134.11,-20.47"/>
<polygon fill="#63b8ff" stroke="#63b8ff" points="134.84,-17.04 124.28,-17.89 133.06,-23.81 134.84,-17.04"/>
</g>
<!-- Node9&#45;&gt;Node5 -->
<g id="edge12" class="edge">
<title>Node9&#45;&gt;Node5</title>
<path fill="none" stroke="#63b8ff" d="M283.08,-56.44C261.26,-47.52 226.85,-33.44 202.11,-23.32"/>
<polygon fill="#63b8ff" stroke="#63b8ff" points="203.4,-20.06 192.82,-19.52 200.75,-26.54 203.4,-20.06"/>
</g>
<!-- Node9&#45;&gt;Node6 -->
<g id="edge13" class="edge">
<title>Node9&#45;&gt;Node6</title>
<path fill="none" stroke="#63b8ff" d="M294.52,-56.32C285.8,-48.34 272.66,-36.31 262.1,-26.65"/>
<polygon fill="#63b8ff" stroke="#63b8ff" points="264.39,-24 254.65,-19.83 259.67,-29.17 264.39,-24"/>
</g>
<!-- Node9&#45;&gt;Node8 -->
<g id="edge14" class="edge">
<title>Node9&#45;&gt;Node8</title>
<path fill="none" stroke="#63b8ff" d="M330.78,-56.44C359.33,-47.32 404.73,-32.81 436.54,-22.65"/>
<polygon fill="#63b8ff" stroke="#63b8ff" points="437.89,-25.89 446.35,-19.52 435.76,-19.23 437.89,-25.89"/>
</g>
<!-- Node10 -->
<g id="node10" class="node">
<title>Node10</title>
<g id="a_node10"><a xlink:title=" ">
<polygon fill="#e0e0e0" stroke="#999999" points="288,-0.5 288,-19.5 342,-19.5 342,-0.5 288,-0.5"/>
<text text-anchor="middle" x="315" y="-7.5" font-family="Helvetica,sans-Serif" font-size="10.00">compare</text>
</a>
</g>
</g>
<!-- Node9&#45;&gt;Node10 -->
<g id="edge9" class="edge">
<title>Node9&#45;&gt;Node10</title>
<path fill="none" stroke="#63b8ff" d="M305.82,-56.08C307.27,-48.93 309.37,-38.64 311.19,-29.69"/>
<polygon fill="#63b8ff" stroke="#63b8ff" points="314.65,-30.25 313.22,-19.75 307.79,-28.85 314.65,-30.25"/>
</g>
<!-- Node11 -->
<g id="node11" class="node">
<title>Node11</title>
<g id="a_node11"><a xlink:title=" ">
<polygon fill="#e0e0e0" stroke="#999999" points="360,-0.5 360,-19.5 422,-19.5 422,-0.5 360,-0.5"/>
<text text-anchor="middle" x="391" y="-7.5" font-family="Helvetica,sans-Serif" font-size="10.00">demagle.h</text>
</a>
</g>
</g>
<!-- Node9&#45;&gt;Node11 -->
<g id="edge15" class="edge">
<title>Node9&#45;&gt;Node11</title>
<path fill="none" stroke="#63b8ff" d="M317.98,-56.32C331.55,-47.9 352.38,-34.97 368.32,-25.07"/>
<polygon fill="#63b8ff" stroke="#63b8ff" points="370.41,-27.9 377.06,-19.65 366.71,-21.95 370.41,-27.9"/>
</g>
<!-- Node9&#45;&gt;Node12 -->
<g id="edge16" class="edge">
<title>Node9&#45;&gt;Node12</title>
<path fill="none" stroke="#63b8ff" d="M343.8,-57.11C384.24,-48.97 448.91,-35.57 513.48,-20.28"/>
<polygon fill="#63b8ff" stroke="#63b8ff" points="514.5,-23.64 523.41,-17.92 512.87,-16.83 514.5,-23.64"/>
</g>
</g>
</svg>
