<?xml version="1.0" encoding="UTF-8" standalone="no"?>
<!DOCTYPE svg PUBLIC "-//W3C//DTD SVG 1.1//EN"
 "http://www.w3.org/Graphics/SVG/1.1/DTD/svg11.dtd">
<!-- Generated by graphviz version 6.0.2 (20221011.1828)
 -->
<!-- Title: CStack.h Pages: 1 -->
<svg width="348pt" height="184pt"
 viewBox="0.00 0.00 347.50 184.00" xmlns="http://www.w3.org/2000/svg" xmlns:xlink="http://www.w3.org/1999/xlink">
<g id="graph0" class="graph" transform="scale(1 1) rotate(0) translate(4 180)">
<title>CStack.h</title>
<!-- Node1 -->
<g id="node1" class="node">
<title>Node1</title>
<g id="a_node1"><a xlink:title="CStack class header.">
<polygon fill="#999999" stroke="#666666" points="203,-156.5 203,-175.5 260,-175.5 260,-156.5 203,-156.5"/>
<text text-anchor="middle" x="231.5" y="-163.5" font-family="Helvetica,sans-Serif" font-size="10.00">CStack.h</text>
</a>
</g>
</g>
<!-- Node2 -->
<g id="node2" class="node">
<title>Node2</title>
<g id="a_node2"><a xlink:href="_c_block_unit_tests_8h.html" target="_top" xlink:title="Unit tests parameters and headers include for class CBlock.">
<polygon fill="white" stroke="#666666" points="0,-78.5 0,-119.5 179,-119.5 179,-78.5 0,-78.5"/>
<text text-anchor="start" x="8" y="-107.5" font-family="Helvetica,sans-Serif" font-size="10.00">C:/Users/danie/Desktop</text>
<text text-anchor="start" x="8" y="-96.5" font-family="Helvetica,sans-Serif" font-size="10.00">/ppc_projekt_2022/trunk</text>
<text text-anchor="middle" x="89.5" y="-85.5" font-family="Helvetica,sans-Serif" font-size="10.00">/Project/UnitTests/CBlockUnitTests.h</text>
</a>
</g>
</g>
<!-- Node1&#45;&gt;Node2 -->
<g id="edge1" class="edge">
<title>Node1&#45;&gt;Node2</title>
<path fill="none" stroke="#63b8ff" d="M203.35,-152.11C183.08,-142.84 155.38,-130.16 132.37,-119.63"/>
<polygon fill="#63b8ff" stroke="#63b8ff" points="202.09,-155.39 212.64,-156.37 205.01,-149.02 202.09,-155.39"/>
</g>
<!-- Node4 -->
<g id="node4" class="node">
<title>Node4</title>
<g id="a_node4"><a xlink:href="_c_stack_8cpp.html" target="_top" xlink:title="CStack class source.">
<polygon fill="white" stroke="#666666" points="197.5,-89.5 197.5,-108.5 265.5,-108.5 265.5,-89.5 197.5,-89.5"/>
<text text-anchor="middle" x="231.5" y="-96.5" font-family="Helvetica,sans-Serif" font-size="10.00">CStack.cpp</text>
</a>
</g>
</g>
<!-- Node1&#45;&gt;Node4 -->
<g id="edge3" class="edge">
<title>Node1&#45;&gt;Node4</title>
<path fill="none" stroke="#63b8ff" d="M231.5,-146.04C231.5,-133.67 231.5,-118.12 231.5,-108.63"/>
<polygon fill="#63b8ff" stroke="#63b8ff" points="228,-146.23 231.5,-156.23 235,-146.23 228,-146.23"/>
</g>
<!-- Node5 -->
<g id="node5" class="node">
<title>Node5</title>
<g id="a_node5"><a xlink:href="main_8cpp.html" target="_top" xlink:title="Main source.">
<polygon fill="white" stroke="#666666" points="283.5,-89.5 283.5,-108.5 339.5,-108.5 339.5,-89.5 283.5,-89.5"/>
<text text-anchor="middle" x="311.5" y="-96.5" font-family="Helvetica,sans-Serif" font-size="10.00">main.cpp</text>
</a>
</g>
</g>
<!-- Node1&#45;&gt;Node5 -->
<g id="edge4" class="edge">
<title>Node1&#45;&gt;Node5</title>
<path fill="none" stroke="#63b8ff" d="M250.31,-149.71C266.08,-136.91 288.01,-119.09 300.88,-108.63"/>
<polygon fill="#63b8ff" stroke="#63b8ff" points="247.84,-147.21 242.29,-156.23 252.26,-152.64 247.84,-147.21"/>
</g>
<!-- Node3 -->
<g id="node3" class="node">
<title>Node3</title>
<g id="a_node3"><a xlink:href="_unit_tests_8cpp.html" target="_top" xlink:title=" ">
<polygon fill="white" stroke="#666666" points="10.5,-0.5 10.5,-41.5 168.5,-41.5 168.5,-0.5 10.5,-0.5"/>
<text text-anchor="start" x="18.5" y="-29.5" font-family="Helvetica,sans-Serif" font-size="10.00">C:/Users/danie/Desktop</text>
<text text-anchor="start" x="18.5" y="-18.5" font-family="Helvetica,sans-Serif" font-size="10.00">/ppc_projekt_2022/trunk</text>
<text text-anchor="middle" x="89.5" y="-7.5" font-family="Helvetica,sans-Serif" font-size="10.00">/Project/UnitTests/UnitTests.cpp</text>
</a>
</g>
</g>
<!-- Node2&#45;&gt;Node3 -->
<g id="edge2" class="edge">
<title>Node2&#45;&gt;Node3</title>
<path fill="none" stroke="#63b8ff" d="M89.5,-68.3C89.5,-59.3 89.5,-49.65 89.5,-41.51"/>
<polygon fill="#63b8ff" stroke="#63b8ff" points="86,-68.43 89.5,-78.43 93,-68.43 86,-68.43"/>
</g>
</g>
</svg>
