<?xml version="1.0" encoding="UTF-8" standalone="no"?>
<!DOCTYPE svg PUBLIC "-//W3C//DTD SVG 1.1//EN"
 "http://www.w3.org/Graphics/SVG/1.1/DTD/svg11.dtd">
<!-- Generated by graphviz version 6.0.2 (20221011.1828)
 -->
<!-- Title: CBlockBase.h Pages: 1 -->
<svg width="584pt" height="84pt"
 viewBox="0.00 0.00 583.50 84.00" xmlns="http://www.w3.org/2000/svg" xmlns:xlink="http://www.w3.org/1999/xlink">
<g id="graph0" class="graph" transform="scale(1 1) rotate(0) translate(4 80)">
<title>CBlockBase.h</title>
<!-- Node1 -->
<g id="node1" class="node">
<title>Node1</title>
<g id="a_node1"><a xlink:title="CBlockBase class header.">
<polygon fill="#999999" stroke="#666666" points="240.5,-56.5 240.5,-75.5 319.5,-75.5 319.5,-56.5 240.5,-56.5"/>
<text text-anchor="middle" x="280" y="-63.5" font-family="Helvetica,sans-Serif" font-size="10.00">CBlockBase.h</text>
</a>
</g>
</g>
<!-- Node2 -->
<g id="node2" class="node">
<title>Node2</title>
<g id="a_node2"><a xlink:title=" ">
<polygon fill="#e0e0e0" stroke="#999999" points="0,-0.5 0,-19.5 54,-19.5 54,-0.5 0,-0.5"/>
<text text-anchor="middle" x="27" y="-7.5" font-family="Helvetica,sans-Serif" font-size="10.00">compare</text>
</a>
</g>
</g>
<!-- Node1&#45;&gt;Node2 -->
<g id="edge1" class="edge">
<title>Node1&#45;&gt;Node2</title>
<path fill="none" stroke="#63b8ff" d="M240.3,-57.27C198.75,-49.07 131.39,-35.46 64.03,-20.17"/>
<polygon fill="#63b8ff" stroke="#63b8ff" points="64.63,-16.71 54.1,-17.9 63.07,-23.54 64.63,-16.71"/>
</g>
<!-- Node3 -->
<g id="node3" class="node">
<title>Node3</title>
<g id="a_node3"><a xlink:title=" ">
<polygon fill="#e0e0e0" stroke="#999999" points="72,-0.5 72,-19.5 126,-19.5 126,-0.5 72,-0.5"/>
<text text-anchor="middle" x="99" y="-7.5" font-family="Helvetica,sans-Serif" font-size="10.00">iostream</text>
</a>
</g>
</g>
<!-- Node1&#45;&gt;Node3 -->
<g id="edge2" class="edge">
<title>Node1&#45;&gt;Node3</title>
<path fill="none" stroke="#63b8ff" d="M251.32,-56.44C220.02,-47.11 169.82,-32.13 135.68,-21.94"/>
<polygon fill="#63b8ff" stroke="#63b8ff" points="136.65,-18.58 126.07,-19.08 134.65,-25.29 136.65,-18.58"/>
</g>
<!-- Node4 -->
<g id="node4" class="node">
<title>Node4</title>
<g id="a_node4"><a xlink:title=" ">
<polygon fill="#e0e0e0" stroke="#999999" points="144,-0.5 144,-19.5 196,-19.5 196,-0.5 144,-0.5"/>
<text text-anchor="middle" x="170" y="-7.5" font-family="Helvetica,sans-Serif" font-size="10.00">sstream</text>
</a>
</g>
</g>
<!-- Node1&#45;&gt;Node4 -->
<g id="edge3" class="edge">
<title>Node1&#45;&gt;Node4</title>
<path fill="none" stroke="#63b8ff" d="M262.33,-56.32C244.61,-47.62 217.1,-34.12 196.71,-24.11"/>
<polygon fill="#63b8ff" stroke="#63b8ff" points="198.15,-20.92 187.63,-19.65 195.06,-27.2 198.15,-20.92"/>
</g>
<!-- Node5 -->
<g id="node5" class="node">
<title>Node5</title>
<g id="a_node5"><a xlink:title=" ">
<polygon fill="#e0e0e0" stroke="#999999" points="214.5,-0.5 214.5,-19.5 273.5,-19.5 273.5,-0.5 214.5,-0.5"/>
<text text-anchor="middle" x="244" y="-7.5" font-family="Helvetica,sans-Serif" font-size="10.00">stdexcept</text>
</a>
</g>
</g>
<!-- Node1&#45;&gt;Node5 -->
<g id="edge4" class="edge">
<title>Node1&#45;&gt;Node5</title>
<path fill="none" stroke="#63b8ff" d="M274.06,-56.08C269.02,-48.53 261.66,-37.49 255.49,-28.23"/>
<polygon fill="#63b8ff" stroke="#63b8ff" points="258.29,-26.13 249.83,-19.75 252.47,-30.01 258.29,-26.13"/>
</g>
<!-- Node6 -->
<g id="node6" class="node">
<title>Node6</title>
<g id="a_node6"><a xlink:title=" ">
<polygon fill="#e0e0e0" stroke="#999999" points="292,-0.5 292,-19.5 342,-19.5 342,-0.5 292,-0.5"/>
<text text-anchor="middle" x="317" y="-7.5" font-family="Helvetica,sans-Serif" font-size="10.00">typeinfo</text>
</a>
</g>
</g>
<!-- Node1&#45;&gt;Node6 -->
<g id="edge5" class="edge">
<title>Node1&#45;&gt;Node6</title>
<path fill="none" stroke="#63b8ff" d="M286.11,-56.08C291.28,-48.53 298.85,-37.49 305.19,-28.23"/>
<polygon fill="#63b8ff" stroke="#63b8ff" points="308.24,-29.98 311,-19.75 302.46,-26.02 308.24,-29.98"/>
</g>
<!-- Node7 -->
<g id="node7" class="node">
<title>Node7</title>
<g id="a_node7"><a xlink:title=" ">
<polygon fill="#e0e0e0" stroke="#999999" points="360.5,-0.5 360.5,-19.5 425.5,-19.5 425.5,-0.5 360.5,-0.5"/>
<text text-anchor="middle" x="393" y="-7.5" font-family="Helvetica,sans-Serif" font-size="10.00">ClassInfo.h</text>
</a>
</g>
</g>
<!-- Node1&#45;&gt;Node7 -->
<g id="edge6" class="edge">
<title>Node1&#45;&gt;Node7</title>
<path fill="none" stroke="#63b8ff" d="M297.91,-56.44C316.25,-47.68 345.01,-33.94 366.09,-23.86"/>
<polygon fill="#63b8ff" stroke="#63b8ff" points="367.67,-26.99 375.18,-19.52 364.65,-20.67 367.67,-26.99"/>
</g>
<!-- Node8 -->
<g id="node8" class="node">
<title>Node8</title>
<g id="a_node8"><a xlink:title=" ">
<polygon fill="#e0e0e0" stroke="#999999" points="444,-0.5 444,-19.5 506,-19.5 506,-0.5 444,-0.5"/>
<text text-anchor="middle" x="475" y="-7.5" font-family="Helvetica,sans-Serif" font-size="10.00">demagle.h</text>
</a>
</g>
</g>
<!-- Node1&#45;&gt;Node8 -->
<g id="edge7" class="edge">
<title>Node1&#45;&gt;Node8</title>
<path fill="none" stroke="#63b8ff" d="M310.9,-56.44C344.27,-47.2 397.59,-32.44 434.35,-22.26"/>
<polygon fill="#63b8ff" stroke="#63b8ff" points="435.54,-25.56 444.25,-19.52 433.67,-18.81 435.54,-25.56"/>
</g>
<!-- Node9 -->
<g id="node9" class="node">
<title>Node9</title>
<g id="a_node9"><a xlink:title=" ">
<polygon fill="#e0e0e0" stroke="#999999" points="524.5,-0.5 524.5,-19.5 575.5,-19.5 575.5,-0.5 524.5,-0.5"/>
<text text-anchor="middle" x="550" y="-7.5" font-family="Helvetica,sans-Serif" font-size="10.00">check.h</text>
</a>
</g>
</g>
<!-- Node1&#45;&gt;Node9 -->
<g id="edge8" class="edge">
<title>Node1&#45;&gt;Node9</title>
<path fill="none" stroke="#63b8ff" d="M319.66,-58.19C364.49,-50.31 439.87,-36.55 514.4,-20.02"/>
<polygon fill="#63b8ff" stroke="#63b8ff" points="515.44,-23.37 524.43,-17.77 513.91,-16.54 515.44,-23.37"/>
</g>
</g>
</svg>
