<?xml version="1.0" encoding="UTF-8" standalone="no"?>
<!DOCTYPE svg PUBLIC "-//W3C//DTD SVG 1.1//EN"
 "http://www.w3.org/Graphics/SVG/1.1/DTD/svg11.dtd">
<!-- Generated by graphviz version 6.0.2 (20221011.1828)
 -->
<!-- Title: CBlockBase.h Pages: 1 -->
<svg width="435pt" height="374pt"
 viewBox="0.00 0.00 434.50 374.00" xmlns="http://www.w3.org/2000/svg" xmlns:xlink="http://www.w3.org/1999/xlink">
<g id="graph0" class="graph" transform="scale(1 1) rotate(0) translate(4 370)">
<title>CBlockBase.h</title>
<!-- Node1 -->
<g id="node1" class="node">
<title>Node1</title>
<g id="a_node1"><a xlink:title="CBlockBase class header.">
<polygon fill="#999999" stroke="#666666" points="165,-346.5 165,-365.5 244,-365.5 244,-346.5 165,-346.5"/>
<text text-anchor="middle" x="204.5" y="-353.5" font-family="Helvetica,sans-Serif" font-size="10.00">CBlockBase.h</text>
</a>
</g>
</g>
<!-- Node2 -->
<g id="node2" class="node">
<title>Node2</title>
<g id="a_node2"><a xlink:href="_c_block___t_interval_8h.html" target="_top" xlink:title="CBlock_TInterval class header.">
<polygon fill="white" stroke="#666666" points="0,-290.5 0,-309.5 97,-309.5 97,-290.5 0,-290.5"/>
<text text-anchor="middle" x="48.5" y="-297.5" font-family="Helvetica,sans-Serif" font-size="10.00">CBlock_TInterval.h</text>
</a>
</g>
</g>
<!-- Node1&#45;&gt;Node2 -->
<g id="edge1" class="edge">
<title>Node1&#45;&gt;Node2</title>
<path fill="none" stroke="#63b8ff" d="M170.33,-343.17C140.96,-333 99.3,-318.59 73.1,-309.52"/>
<polygon fill="#63b8ff" stroke="#63b8ff" points="169.19,-346.48 179.78,-346.44 171.48,-339.86 169.19,-346.48"/>
</g>
<!-- Node9 -->
<g id="node9" class="node">
<title>Node9</title>
<g id="a_node9"><a xlink:href="_c_block___t_week_day_8h.html" target="_top" xlink:title="CBlock_TWeekDay class header.">
<polygon fill="white" stroke="#666666" points="311.5,-290.5 311.5,-309.5 421.5,-309.5 421.5,-290.5 311.5,-290.5"/>
<text text-anchor="middle" x="366.5" y="-297.5" font-family="Helvetica,sans-Serif" font-size="10.00">CBlock_TWeekDay.h</text>
</a>
</g>
</g>
<!-- Node1&#45;&gt;Node9 -->
<g id="edge10" class="edge">
<title>Node1&#45;&gt;Node9</title>
<path fill="none" stroke="#63b8ff" d="M239.98,-343.17C270.49,-333 313.74,-318.59 340.95,-309.52"/>
<polygon fill="#63b8ff" stroke="#63b8ff" points="238.55,-339.96 230.17,-346.44 240.76,-346.6 238.55,-339.96"/>
</g>
<!-- Node11 -->
<g id="node11" class="node">
<title>Node11</title>
<g id="a_node11"><a xlink:href="_c_block__bool_8h.html" target="_top" xlink:title="CBlock_bool class header.">
<polygon fill="white" stroke="#666666" points="115.5,-290.5 115.5,-309.5 195.5,-309.5 195.5,-290.5 115.5,-290.5"/>
<text text-anchor="middle" x="155.5" y="-297.5" font-family="Helvetica,sans-Serif" font-size="10.00">CBlock_bool.h</text>
</a>
</g>
</g>
<!-- Node1&#45;&gt;Node11 -->
<g id="edge13" class="edge">
<title>Node1&#45;&gt;Node11</title>
<path fill="none" stroke="#63b8ff" d="M189.47,-338.43C180.88,-328.97 170.46,-317.48 163.44,-309.75"/>
<polygon fill="#63b8ff" stroke="#63b8ff" points="187.1,-341.03 196.41,-346.08 192.28,-336.33 187.1,-341.03"/>
</g>
<!-- Node12 -->
<g id="node12" class="node">
<title>Node12</title>
<g id="a_node12"><a xlink:href="_c_block__long_8h.html" target="_top" xlink:title="CBlock_long class header.">
<polygon fill="white" stroke="#666666" points="213.5,-290.5 213.5,-309.5 293.5,-309.5 293.5,-290.5 213.5,-290.5"/>
<text text-anchor="middle" x="253.5" y="-297.5" font-family="Helvetica,sans-Serif" font-size="10.00">CBlock_long.h</text>
</a>
</g>
</g>
<!-- Node1&#45;&gt;Node12 -->
<g id="edge15" class="edge">
<title>Node1&#45;&gt;Node12</title>
<path fill="none" stroke="#63b8ff" d="M219.53,-338.43C228.12,-328.97 238.54,-317.48 245.56,-309.75"/>
<polygon fill="#63b8ff" stroke="#63b8ff" points="216.72,-336.33 212.59,-346.08 221.9,-341.03 216.72,-336.33"/>
</g>
<!-- Node3 -->
<g id="node3" class="node">
<title>Node3</title>
<g id="a_node3"><a xlink:href="_c_block_8h.html" target="_top" xlink:title="General header for CBlock.">
<polygon fill="white" stroke="#666666" points="176.5,-234.5 176.5,-253.5 232.5,-253.5 232.5,-234.5 176.5,-234.5"/>
<text text-anchor="middle" x="204.5" y="-241.5" font-family="Helvetica,sans-Serif" font-size="10.00">CBlock.h</text>
</a>
</g>
</g>
<!-- Node2&#45;&gt;Node3 -->
<g id="edge2" class="edge">
<title>Node2&#45;&gt;Node3</title>
<path fill="none" stroke="#63b8ff" d="M82.67,-287.17C112.04,-277 153.7,-262.59 179.9,-253.52"/>
<polygon fill="#63b8ff" stroke="#63b8ff" points="81.52,-283.86 73.22,-290.44 83.81,-290.48 81.52,-283.86"/>
</g>
<!-- Node4 -->
<g id="node4" class="node">
<title>Node4</title>
<g id="a_node4"><a xlink:href="_c_block_unit_tests_8h.html" target="_top" xlink:title="Unit tests parameters and headers include for class CBlock.">
<polygon fill="white" stroke="#666666" points="32.5,-89.5 32.5,-141.5 152.5,-141.5 152.5,-89.5 32.5,-89.5"/>
<text text-anchor="start" x="40.5" y="-129.5" font-family="Helvetica,sans-Serif" font-size="10.00">C:/Users/danie/Desktop</text>
<text text-anchor="start" x="40.5" y="-118.5" font-family="Helvetica,sans-Serif" font-size="10.00">/ppc_projekt_2022/tags</text>
<text text-anchor="start" x="40.5" y="-107.5" font-family="Helvetica,sans-Serif" font-size="10.00">/final/Project/UnitTests</text>
<text text-anchor="middle" x="92.5" y="-96.5" font-family="Helvetica,sans-Serif" font-size="10.00">/CBlockUnitTests.h</text>
</a>
</g>
</g>
<!-- Node3&#45;&gt;Node4 -->
<g id="edge3" class="edge">
<title>Node3&#45;&gt;Node4</title>
<path fill="none" stroke="#63b8ff" d="M190.03,-226.65C170.9,-205.05 137.02,-166.79 114.66,-141.53"/>
<polygon fill="#63b8ff" stroke="#63b8ff" points="187.55,-229.14 196.8,-234.31 192.79,-224.5 187.55,-229.14"/>
</g>
<!-- Node6 -->
<g id="node6" class="node">
<title>Node6</title>
<g id="a_node6"><a xlink:href="_c_stack_8h.html" target="_top" xlink:title="CStack class header.">
<polygon fill="white" stroke="#666666" points="176,-178.5 176,-197.5 233,-197.5 233,-178.5 176,-178.5"/>
<text text-anchor="middle" x="204.5" y="-185.5" font-family="Helvetica,sans-Serif" font-size="10.00">CStack.h</text>
</a>
</g>
</g>
<!-- Node3&#45;&gt;Node6 -->
<g id="edge5" class="edge">
<title>Node3&#45;&gt;Node6</title>
<path fill="none" stroke="#63b8ff" d="M204.5,-223.8C204.5,-214.91 204.5,-204.78 204.5,-197.75"/>
<polygon fill="#63b8ff" stroke="#63b8ff" points="201,-224.08 204.5,-234.08 208,-224.08 201,-224.08"/>
</g>
<!-- Node8 -->
<g id="node8" class="node">
<title>Node8</title>
<g id="a_node8"><a xlink:href="main_8cpp.html" target="_top" xlink:title="Main source.">
<polygon fill="white" stroke="#666666" points="256.5,-106 256.5,-125 312.5,-125 312.5,-106 256.5,-106"/>
<text text-anchor="middle" x="284.5" y="-113" font-family="Helvetica,sans-Serif" font-size="10.00">main.cpp</text>
</a>
</g>
</g>
<!-- Node3&#45;&gt;Node8 -->
<g id="edge9" class="edge">
<title>Node3&#45;&gt;Node8</title>
<path fill="none" stroke="#63b8ff" d="M219.27,-226.69C226.41,-218.41 234.85,-208 241.5,-198 258.15,-172.96 273.54,-140.74 280.54,-125.4"/>
<polygon fill="#63b8ff" stroke="#63b8ff" points="216.42,-224.63 212.43,-234.45 221.67,-229.26 216.42,-224.63"/>
</g>
<!-- Node5 -->
<g id="node5" class="node">
<title>Node5</title>
<g id="a_node5"><a xlink:href="_unit_tests_8cpp.html" target="_top" xlink:title=" ">
<polygon fill="white" stroke="#666666" points="32.5,-0.5 32.5,-52.5 152.5,-52.5 152.5,-0.5 32.5,-0.5"/>
<text text-anchor="start" x="40.5" y="-40.5" font-family="Helvetica,sans-Serif" font-size="10.00">C:/Users/danie/Desktop</text>
<text text-anchor="start" x="40.5" y="-29.5" font-family="Helvetica,sans-Serif" font-size="10.00">/ppc_projekt_2022/tags</text>
<text text-anchor="start" x="40.5" y="-18.5" font-family="Helvetica,sans-Serif" font-size="10.00">/final/Project/UnitTests</text>
<text text-anchor="middle" x="92.5" y="-7.5" font-family="Helvetica,sans-Serif" font-size="10.00">/UnitTests.cpp</text>
</a>
</g>
</g>
<!-- Node4&#45;&gt;Node5 -->
<g id="edge4" class="edge">
<title>Node4&#45;&gt;Node5</title>
<path fill="none" stroke="#63b8ff" d="M92.5,-79.19C92.5,-70.28 92.5,-60.9 92.5,-52.61"/>
<polygon fill="#63b8ff" stroke="#63b8ff" points="89,-79.34 92.5,-89.34 96,-79.34 89,-79.34"/>
</g>
<!-- Node6&#45;&gt;Node4 -->
<g id="edge6" class="edge">
<title>Node6&#45;&gt;Node4</title>
<path fill="none" stroke="#63b8ff" d="M182.15,-172.93C167.93,-163.98 149.11,-152.13 132.38,-141.6"/>
<polygon fill="#63b8ff" stroke="#63b8ff" points="180.44,-175.99 190.77,-178.36 184.17,-170.07 180.44,-175.99"/>
</g>
<!-- Node7 -->
<g id="node7" class="node">
<title>Node7</title>
<g id="a_node7"><a xlink:href="_c_stack_8cpp.html" target="_top" xlink:title="CStack class source.">
<polygon fill="white" stroke="#666666" points="170.5,-106 170.5,-125 238.5,-125 238.5,-106 170.5,-106"/>
<text text-anchor="middle" x="204.5" y="-113" font-family="Helvetica,sans-Serif" font-size="10.00">CStack.cpp</text>
</a>
</g>
</g>
<!-- Node6&#45;&gt;Node7 -->
<g id="edge7" class="edge">
<title>Node6&#45;&gt;Node7</title>
<path fill="none" stroke="#63b8ff" d="M204.5,-167.94C204.5,-154.03 204.5,-135.82 204.5,-125.22"/>
<polygon fill="#63b8ff" stroke="#63b8ff" points="201,-168.36 204.5,-178.36 208,-168.36 201,-168.36"/>
</g>
<!-- Node6&#45;&gt;Node8 -->
<g id="edge8" class="edge">
<title>Node6&#45;&gt;Node8</title>
<path fill="none" stroke="#63b8ff" d="M221.99,-171.58C238.12,-157.37 261.49,-136.77 274.61,-125.22"/>
<polygon fill="#63b8ff" stroke="#63b8ff" points="219.5,-169.12 214.31,-178.36 224.13,-174.37 219.5,-169.12"/>
</g>
<!-- Node9&#45;&gt;Node3 -->
<g id="edge11" class="edge">
<title>Node9&#45;&gt;Node3</title>
<path fill="none" stroke="#63b8ff" d="M331.02,-287.17C300.51,-277 257.26,-262.59 230.05,-253.52"/>
<polygon fill="#63b8ff" stroke="#63b8ff" points="330.24,-290.6 340.83,-290.44 332.45,-283.96 330.24,-290.6"/>
</g>
<!-- Node10 -->
<g id="node10" class="node">
<title>Node10</title>
<g id="a_node10"><a xlink:href="_c_block___t_week_day_8cpp.html" target="_top" xlink:title="CBlock_TWeekDay class source.">
<polygon fill="white" stroke="#666666" points="306.5,-234.5 306.5,-253.5 426.5,-253.5 426.5,-234.5 306.5,-234.5"/>
<text text-anchor="middle" x="366.5" y="-241.5" font-family="Helvetica,sans-Serif" font-size="10.00">CBlock_TWeekDay.cpp</text>
</a>
</g>
</g>
<!-- Node9&#45;&gt;Node10 -->
<g id="edge12" class="edge">
<title>Node9&#45;&gt;Node10</title>
<path fill="none" stroke="#63b8ff" d="M366.5,-279.8C366.5,-270.91 366.5,-260.78 366.5,-253.75"/>
<polygon fill="#63b8ff" stroke="#63b8ff" points="363,-280.08 366.5,-290.08 370,-280.08 363,-280.08"/>
</g>
<!-- Node11&#45;&gt;Node3 -->
<g id="edge14" class="edge">
<title>Node11&#45;&gt;Node3</title>
<path fill="none" stroke="#63b8ff" d="M170.53,-282.43C179.12,-272.97 189.54,-261.48 196.56,-253.75"/>
<polygon fill="#63b8ff" stroke="#63b8ff" points="167.72,-280.33 163.59,-290.08 172.9,-285.03 167.72,-280.33"/>
</g>
<!-- Node12&#45;&gt;Node3 -->
<g id="edge16" class="edge">
<title>Node12&#45;&gt;Node3</title>
<path fill="none" stroke="#63b8ff" d="M238.47,-282.43C229.88,-272.97 219.46,-261.48 212.44,-253.75"/>
<polygon fill="#63b8ff" stroke="#63b8ff" points="236.1,-285.03 245.41,-290.08 241.28,-280.33 236.1,-285.03"/>
</g>
</g>
</svg>
