<?xml version="1.0" encoding="UTF-8" standalone="no"?>
<!DOCTYPE svg PUBLIC "-//W3C//DTD SVG 1.1//EN"
 "http://www.w3.org/Graphics/SVG/1.1/DTD/svg11.dtd">
<!-- Generated by graphviz version 6.0.2 (20221011.1828)
 -->
<!-- Title: CStack.h Pages: 1 -->
<svg width="288pt" height="206pt"
 viewBox="0.00 0.00 288.00 206.00" xmlns="http://www.w3.org/2000/svg" xmlns:xlink="http://www.w3.org/1999/xlink">
<g id="graph0" class="graph" transform="scale(1 1) rotate(0) translate(4 202)">
<title>CStack.h</title>
<!-- Node1 -->
<g id="node1" class="node">
<title>Node1</title>
<g id="a_node1"><a xlink:title="CStack class header.">
<polygon fill="#999999" stroke="#666666" points="143.5,-178.5 143.5,-197.5 200.5,-197.5 200.5,-178.5 143.5,-178.5"/>
<text text-anchor="middle" x="172" y="-185.5" font-family="Helvetica,sans-Serif" font-size="10.00">CStack.h</text>
</a>
</g>
</g>
<!-- Node2 -->
<g id="node2" class="node">
<title>Node2</title>
<g id="a_node2"><a xlink:href="_c_block_unit_tests_8h.html" target="_top" xlink:title="Unit tests parameters and headers include for class CBlock.">
<polygon fill="white" stroke="#666666" points="0,-89.5 0,-141.5 120,-141.5 120,-89.5 0,-89.5"/>
<text text-anchor="start" x="8" y="-129.5" font-family="Helvetica,sans-Serif" font-size="10.00">C:/Users/danie/Desktop</text>
<text text-anchor="start" x="8" y="-118.5" font-family="Helvetica,sans-Serif" font-size="10.00">/ppc_projekt_2022/tags</text>
<text text-anchor="start" x="8" y="-107.5" font-family="Helvetica,sans-Serif" font-size="10.00">/final/Project/UnitTests</text>
<text text-anchor="middle" x="60" y="-96.5" font-family="Helvetica,sans-Serif" font-size="10.00">/CBlockUnitTests.h</text>
</a>
</g>
</g>
<!-- Node1&#45;&gt;Node2 -->
<g id="edge1" class="edge">
<title>Node1&#45;&gt;Node2</title>
<path fill="none" stroke="#63b8ff" d="M149.65,-172.93C135.43,-163.98 116.61,-152.13 99.88,-141.6"/>
<polygon fill="#63b8ff" stroke="#63b8ff" points="147.94,-175.99 158.27,-178.36 151.67,-170.07 147.94,-175.99"/>
</g>
<!-- Node4 -->
<g id="node4" class="node">
<title>Node4</title>
<g id="a_node4"><a xlink:href="_c_stack_8cpp.html" target="_top" xlink:title="CStack class source.">
<polygon fill="white" stroke="#666666" points="138,-106 138,-125 206,-125 206,-106 138,-106"/>
<text text-anchor="middle" x="172" y="-113" font-family="Helvetica,sans-Serif" font-size="10.00">CStack.cpp</text>
</a>
</g>
</g>
<!-- Node1&#45;&gt;Node4 -->
<g id="edge3" class="edge">
<title>Node1&#45;&gt;Node4</title>
<path fill="none" stroke="#63b8ff" d="M172,-167.94C172,-154.03 172,-135.82 172,-125.22"/>
<polygon fill="#63b8ff" stroke="#63b8ff" points="168.5,-168.36 172,-178.36 175.5,-168.36 168.5,-168.36"/>
</g>
<!-- Node5 -->
<g id="node5" class="node">
<title>Node5</title>
<g id="a_node5"><a xlink:href="main_8cpp.html" target="_top" xlink:title="Main source.">
<polygon fill="white" stroke="#666666" points="224,-106 224,-125 280,-125 280,-106 224,-106"/>
<text text-anchor="middle" x="252" y="-113" font-family="Helvetica,sans-Serif" font-size="10.00">main.cpp</text>
</a>
</g>
</g>
<!-- Node1&#45;&gt;Node5 -->
<g id="edge4" class="edge">
<title>Node1&#45;&gt;Node5</title>
<path fill="none" stroke="#63b8ff" d="M189.49,-171.58C205.62,-157.37 228.99,-136.77 242.11,-125.22"/>
<polygon fill="#63b8ff" stroke="#63b8ff" points="187,-169.12 181.81,-178.36 191.63,-174.37 187,-169.12"/>
</g>
<!-- Node3 -->
<g id="node3" class="node">
<title>Node3</title>
<g id="a_node3"><a xlink:href="_unit_tests_8cpp.html" target="_top" xlink:title=" ">
<polygon fill="white" stroke="#666666" points="0,-0.5 0,-52.5 120,-52.5 120,-0.5 0,-0.5"/>
<text text-anchor="start" x="8" y="-40.5" font-family="Helvetica,sans-Serif" font-size="10.00">C:/Users/danie/Desktop</text>
<text text-anchor="start" x="8" y="-29.5" font-family="Helvetica,sans-Serif" font-size="10.00">/ppc_projekt_2022/tags</text>
<text text-anchor="start" x="8" y="-18.5" font-family="Helvetica,sans-Serif" font-size="10.00">/final/Project/UnitTests</text>
<text text-anchor="middle" x="60" y="-7.5" font-family="Helvetica,sans-Serif" font-size="10.00">/UnitTests.cpp</text>
</a>
</g>
</g>
<!-- Node2&#45;&gt;Node3 -->
<g id="edge2" class="edge">
<title>Node2&#45;&gt;Node3</title>
<path fill="none" stroke="#63b8ff" d="M60,-79.19C60,-70.28 60,-60.9 60,-52.61"/>
<polygon fill="#63b8ff" stroke="#63b8ff" points="56.5,-79.34 60,-89.34 63.5,-79.34 56.5,-79.34"/>
</g>
</g>
</svg>
