<?xml version="1.0" encoding="UTF-8" standalone="no"?>
<!DOCTYPE svg PUBLIC "-//W3C//DTD SVG 1.1//EN"
 "http://www.w3.org/Graphics/SVG/1.1/DTD/svg11.dtd">
<!-- Generated by graphviz version 6.0.2 (20221011.1828)
 -->
<!-- Title: Graph Legend Pages: 1 -->
<svg width="507pt" height="162pt"
 viewBox="0.00 0.00 506.50 162.00" xmlns="http://www.w3.org/2000/svg" xmlns:xlink="http://www.w3.org/1999/xlink">
<g id="graph0" class="graph" transform="scale(1 1) rotate(0) translate(4 158)">
<title>Graph Legend</title>
<!-- Node9 -->
<g id="node1" class="node">
<title>Node9</title>
<g id="a_node1"><a xlink:title=" ">
<polygon fill="#999999" stroke="#666666" points="237.5,-0.5 237.5,-19.5 290.5,-19.5 290.5,-0.5 237.5,-0.5"/>
<text text-anchor="middle" x="264" y="-7.5" font-family="Helvetica,sans-Serif" font-size="10.00">Inherited</text>
</a>
</g>
</g>
<!-- Node10 -->
<g id="node2" class="node">
<title>Node10</title>
<g id="a_node2"><a xlink:href="url.html" xlink:title=" ">
<polygon fill="white" stroke="#666666" points="0,-67.5 0,-86.5 66,-86.5 66,-67.5 0,-67.5"/>
<text text-anchor="middle" x="33" y="-74.5" font-family="Helvetica,sans-Serif" font-size="10.00">PublicBase</text>
</a>
</g>
</g>
<!-- Node10&#45;&gt;Node9 -->
<g id="edge1" class="edge">
<title>Node10&#45;&gt;Node9</title>
<path fill="none" stroke="#63b8ff" d="M73.56,-64.59C120.76,-51.3 197.34,-29.76 237.5,-18.46"/>
<polygon fill="#63b8ff" stroke="#63b8ff" points="72.35,-61.29 63.68,-67.37 74.25,-68.03 72.35,-61.29"/>
</g>
<!-- Node11 -->
<g id="node3" class="node">
<title>Node11</title>
<g id="a_node3"><a xlink:href="url.html" xlink:title=" ">
<polygon fill="#fff0f0" stroke="red" points="3.5,-134.5 3.5,-153.5 62.5,-153.5 62.5,-134.5 3.5,-134.5"/>
<text text-anchor="middle" x="33" y="-141.5" font-family="Helvetica,sans-Serif" font-size="10.00">Truncated</text>
</a>
</g>
</g>
<!-- Node11&#45;&gt;Node10 -->
<g id="edge2" class="edge">
<title>Node11&#45;&gt;Node10</title>
<path fill="none" stroke="#63b8ff" d="M33,-124.04C33,-111.67 33,-96.12 33,-86.63"/>
<polygon fill="#63b8ff" stroke="#63b8ff" points="29.5,-124.23 33,-134.23 36.5,-124.23 29.5,-124.23"/>
</g>
<!-- Node13 -->
<g id="node4" class="node">
<title>Node13</title>
<polygon fill="white" stroke="#666666" points="84.5,-67.5 84.5,-86.5 165.5,-86.5 165.5,-67.5 84.5,-67.5"/>
<text text-anchor="middle" x="125" y="-74.5" font-family="Helvetica,sans-Serif" font-size="10.00">ProtectedBase</text>
</g>
<!-- Node13&#45;&gt;Node9 -->
<g id="edge3" class="edge">
<title>Node13&#45;&gt;Node9</title>
<path fill="none" stroke="darkgreen" d="M152.56,-63.11C180.09,-50.24 221.65,-30.81 245.47,-19.67"/>
<polygon fill="darkgreen" stroke="darkgreen" points="151.03,-59.96 143.46,-67.37 154,-66.3 151.03,-59.96"/>
</g>
<!-- Node14 -->
<g id="node5" class="node">
<title>Node14</title>
<polygon fill="white" stroke="#666666" points="184,-67.5 184,-86.5 252,-86.5 252,-67.5 184,-67.5"/>
<text text-anchor="middle" x="218" y="-74.5" font-family="Helvetica,sans-Serif" font-size="10.00">PrivateBase</text>
</g>
<!-- Node14&#45;&gt;Node9 -->
<g id="edge4" class="edge">
<title>Node14&#45;&gt;Node9</title>
<path fill="none" stroke="#8b1a1a" d="M230.1,-58.9C239.04,-46.27 250.83,-29.6 257.89,-19.63"/>
<polygon fill="#8b1a1a" stroke="#8b1a1a" points="227.12,-57.05 224.2,-67.23 232.84,-61.09 227.12,-57.05"/>
</g>
<!-- Node15 -->
<g id="node6" class="node">
<title>Node15</title>
<g id="a_node6"><a xlink:title=" ">
<polygon fill="#e0e0e0" stroke="#999999" points="270,-67.5 270,-86.5 352,-86.5 352,-67.5 270,-67.5"/>
<text text-anchor="middle" x="311" y="-74.5" font-family="Helvetica,sans-Serif" font-size="10.00">Undocumented</text>
</a>
</g>
</g>
<!-- Node15&#45;&gt;Node9 -->
<g id="edge5" class="edge">
<title>Node15&#45;&gt;Node9</title>
<path fill="none" stroke="#63b8ff" d="M298.64,-58.9C289.51,-46.27 277.45,-29.6 270.24,-19.63"/>
<polygon fill="#63b8ff" stroke="#63b8ff" points="295.97,-61.18 304.66,-67.23 301.64,-57.08 295.97,-61.18"/>
</g>
<!-- Node16 -->
<g id="node7" class="node">
<title>Node16</title>
<polygon fill="white" stroke="#666666" points="370.5,-67.5 370.5,-86.5 441.5,-86.5 441.5,-67.5 370.5,-67.5"/>
<text text-anchor="middle" x="406" y="-74.5" font-family="Helvetica,sans-Serif" font-size="10.00">Templ&lt; int &gt;</text>
</g>
<!-- Node16&#45;&gt;Node9 -->
<g id="edge6" class="edge">
<title>Node16&#45;&gt;Node9</title>
<path fill="none" stroke="#63b8ff" d="M377.85,-63.11C349.72,-50.24 307.27,-30.81 282.93,-19.67"/>
<polygon fill="#63b8ff" stroke="#63b8ff" points="376.59,-66.39 387.14,-67.37 379.51,-60.02 376.59,-66.39"/>
</g>
<!-- Node17 -->
<g id="node8" class="node">
<title>Node17</title>
<polygon fill="white" stroke="#666666" points="373,-134.5 373,-153.5 439,-153.5 439,-134.5 373,-134.5"/>
<text text-anchor="middle" x="406" y="-141.5" font-family="Helvetica,sans-Serif" font-size="10.00">Templ&lt; T &gt;</text>
</g>
<!-- Node17&#45;&gt;Node16 -->
<g id="edge7" class="edge">
<title>Node17&#45;&gt;Node16</title>
<path fill="none" stroke="orange" stroke-dasharray="5,2" d="M406,-124.04C406,-111.67 406,-96.12 406,-86.63"/>
<polygon fill="orange" stroke="orange" points="402.5,-124.23 406,-134.23 409.5,-124.23 402.5,-124.23"/>
<text text-anchor="middle" x="420.5" y="-108" font-family="Helvetica,sans-Serif" font-size="10.00">&lt; int &gt;</text>
</g>
<!-- Node18 -->
<g id="node9" class="node">
<title>Node18</title>
<polygon fill="white" stroke="#666666" points="459.5,-67.5 459.5,-86.5 498.5,-86.5 498.5,-67.5 459.5,-67.5"/>
<text text-anchor="middle" x="479" y="-74.5" font-family="Helvetica,sans-Serif" font-size="10.00">Used</text>
</g>
<!-- Node18&#45;&gt;Node9 -->
<g id="edge8" class="edge">
<title>Node18&#45;&gt;Node9</title>
<path fill="none" stroke="#9a32cd" stroke-dasharray="5,2" d="M449.85,-66.68C387.56,-47.4 325.24,-28.96 290.68,-18.81"/>
<polygon fill="#9a32cd" stroke="#9a32cd" points="448.85,-70.04 459.43,-69.66 450.92,-63.35 448.85,-70.04"/>
<text text-anchor="middle" x="419" y="-41" font-family="Helvetica,sans-Serif" font-size="10.00">m_usedClass</text>
</g>
</g>
</svg>
