<?xml version="1.0" encoding="UTF-8" standalone="no"?>
<!DOCTYPE svg PUBLIC "-//W3C//DTD SVG 1.1//EN"
 "http://www.w3.org/Graphics/SVG/1.1/DTD/svg11.dtd">
<!-- Generated by graphviz version 6.0.2 (20221011.1828)
 -->
<!-- Title: Graphical Class Hierarchy Pages: 1 -->
<svg width="254pt" height="142pt"
 viewBox="0.00 0.00 254.00 142.00" xmlns="http://www.w3.org/2000/svg" xmlns:xlink="http://www.w3.org/1999/xlink">
<g id="graph0" class="graph" transform="scale(1 1) rotate(0) translate(4 138)">
<title>Graphical Class Hierarchy</title>
<!-- Node0 -->
<g id="node1" class="node">
<title>Node0</title>
<g id="a_node1"><a xlink:href="class_c_block_base.html" target="_top" xlink:title="CBlockBase class.">
<polygon fill="white" stroke="#666666" points="0,-57.5 0,-76.5 71,-76.5 71,-57.5 0,-57.5"/>
<text text-anchor="middle" x="35.5" y="-64.5" font-family="Helvetica,sans-Serif" font-size="10.00">CBlockBase</text>
</a>
</g>
</g>
<!-- Node1 -->
<g id="node2" class="node">
<title>Node1</title>
<g id="a_node2"><a xlink:href="class_c_block___t_interval_1_1_c_block.html" target="_top" xlink:title="CBlock class (TInterval variant)">
<polygon fill="white" stroke="#666666" points="113.5,-114.5 113.5,-133.5 239.5,-133.5 239.5,-114.5 113.5,-114.5"/>
<text text-anchor="middle" x="176.5" y="-121.5" font-family="Helvetica,sans-Serif" font-size="10.00">CBlock_TInterval::CBlock</text>
</a>
</g>
</g>
<!-- Node0&#45;&gt;Node1 -->
<g id="edge1" class="edge">
<title>Node0&#45;&gt;Node1</title>
<path fill="none" stroke="#63b8ff" d="M60.93,-81.92C74.21,-89.58 91.12,-98.61 107,-105 115.93,-108.59 125.78,-111.76 135.16,-114.43"/>
<polygon fill="#63b8ff" stroke="#63b8ff" points="62.36,-78.71 51.97,-76.65 58.81,-84.74 62.36,-78.71"/>
</g>
<!-- Node2 -->
<g id="node3" class="node">
<title>Node2</title>
<g id="a_node3"><a xlink:href="class_c_block___t_week_day_1_1_c_block.html" target="_top" xlink:title="CBlock class (TWeekDay variant)">
<polygon fill="white" stroke="#666666" points="107,-76.5 107,-95.5 246,-95.5 246,-76.5 107,-76.5"/>
<text text-anchor="middle" x="176.5" y="-83.5" font-family="Helvetica,sans-Serif" font-size="10.00">CBlock_TWeekDay::CBlock</text>
</a>
</g>
</g>
<!-- Node0&#45;&gt;Node2 -->
<g id="edge2" class="edge">
<title>Node0&#45;&gt;Node2</title>
<path fill="none" stroke="#63b8ff" d="M81.25,-73.12C89.42,-74.23 98.12,-75.42 106.8,-76.61"/>
<polygon fill="#63b8ff" stroke="#63b8ff" points="81.6,-69.63 71.22,-71.75 80.65,-76.57 81.6,-69.63"/>
</g>
<!-- Node3 -->
<g id="node4" class="node">
<title>Node3</title>
<g id="a_node4"><a xlink:href="class_c_block__bool_1_1_c_block.html" target="_top" xlink:title="CBlock class (bool variant)">
<polygon fill="white" stroke="#666666" points="122,-38.5 122,-57.5 231,-57.5 231,-38.5 122,-38.5"/>
<text text-anchor="middle" x="176.5" y="-45.5" font-family="Helvetica,sans-Serif" font-size="10.00">CBlock_bool::CBlock</text>
</a>
</g>
</g>
<!-- Node0&#45;&gt;Node3 -->
<g id="edge3" class="edge">
<title>Node0&#45;&gt;Node3</title>
<path fill="none" stroke="#63b8ff" d="M81.25,-60.88C94.16,-59.12 108.38,-57.18 121.77,-55.34"/>
<polygon fill="#63b8ff" stroke="#63b8ff" points="80.65,-57.43 71.22,-62.25 81.6,-64.37 80.65,-57.43"/>
</g>
<!-- Node4 -->
<g id="node5" class="node">
<title>Node4</title>
<g id="a_node5"><a xlink:href="class_c_block__long_1_1_c_block.html" target="_top" xlink:title="CBlock class (long variant)">
<polygon fill="white" stroke="#666666" points="122,-0.5 122,-19.5 231,-19.5 231,-0.5 122,-0.5"/>
<text text-anchor="middle" x="176.5" y="-7.5" font-family="Helvetica,sans-Serif" font-size="10.00">CBlock_long::CBlock</text>
</a>
</g>
</g>
<!-- Node0&#45;&gt;Node4 -->
<g id="edge4" class="edge">
<title>Node0&#45;&gt;Node4</title>
<path fill="none" stroke="#63b8ff" d="M60.93,-52.08C74.21,-44.42 91.12,-35.39 107,-29 115.93,-25.41 125.78,-22.24 135.16,-19.57"/>
<polygon fill="#63b8ff" stroke="#63b8ff" points="58.81,-49.26 51.97,-57.35 62.36,-55.29 58.81,-49.26"/>
</g>
</g>
</svg>
