<?xml version="1.0" encoding="UTF-8" standalone="no"?>
<!DOCTYPE svg PUBLIC "-//W3C//DTD SVG 1.1//EN"
 "http://www.w3.org/Graphics/SVG/1.1/DTD/svg11.dtd">
<!-- Generated by graphviz version 6.0.2 (20221011.1828)
 -->
<!-- Title: CBlock_TInterval.h Pages: 1 -->
<svg width="210pt" height="262pt"
 viewBox="0.00 0.00 209.50 262.00" xmlns="http://www.w3.org/2000/svg" xmlns:xlink="http://www.w3.org/1999/xlink">
<g id="graph0" class="graph" transform="scale(1 1) rotate(0) translate(4 258)">
<title>CBlock_TInterval.h</title>
<!-- Node1 -->
<g id="node1" class="node">
<title>Node1</title>
<g id="a_node1"><a xlink:title="CBlock_TInterval class header.">
<polygon fill="#999999" stroke="#666666" points="70,-234.5 70,-253.5 167,-253.5 167,-234.5 70,-234.5"/>
<text text-anchor="middle" x="118.5" y="-241.5" font-family="Helvetica,sans-Serif" font-size="10.00">CBlock_TInterval.h</text>
</a>
</g>
</g>
<!-- Node2 -->
<g id="node2" class="node">
<title>Node2</title>
<g id="a_node2"><a xlink:href="_c_block_8h.html" target="_top" xlink:title="General header for CBlock.">
<polygon fill="white" stroke="#666666" points="90.5,-178.5 90.5,-197.5 146.5,-197.5 146.5,-178.5 90.5,-178.5"/>
<text text-anchor="middle" x="118.5" y="-185.5" font-family="Helvetica,sans-Serif" font-size="10.00">CBlock.h</text>
</a>
</g>
</g>
<!-- Node1&#45;&gt;Node2 -->
<g id="edge1" class="edge">
<title>Node1&#45;&gt;Node2</title>
<path fill="none" stroke="#63b8ff" d="M118.5,-223.8C118.5,-214.91 118.5,-204.78 118.5,-197.75"/>
<polygon fill="#63b8ff" stroke="#63b8ff" points="115,-224.08 118.5,-234.08 122,-224.08 115,-224.08"/>
</g>
<!-- Node3 -->
<g id="node3" class="node">
<title>Node3</title>
<g id="a_node3"><a xlink:href="_c_block_unit_tests_8h.html" target="_top" xlink:title="Unit tests parameters and headers include for class CBlock.">
<polygon fill="white" stroke="#666666" points="0,-89.5 0,-141.5 127,-141.5 127,-89.5 0,-89.5"/>
<text text-anchor="start" x="8" y="-129.5" font-family="Helvetica,sans-Serif" font-size="10.00">C:/Users/danie/Desktop</text>
<text text-anchor="start" x="8" y="-118.5" font-family="Helvetica,sans-Serif" font-size="10.00">/ppc_projekt_2022/trunk</text>
<text text-anchor="start" x="8" y="-107.5" font-family="Helvetica,sans-Serif" font-size="10.00">/CBlock/CBlockUnitTests</text>
<text text-anchor="middle" x="63.5" y="-96.5" font-family="Helvetica,sans-Serif" font-size="10.00">/CBlockUnitTests.h</text>
</a>
</g>
</g>
<!-- Node2&#45;&gt;Node3 -->
<g id="edge2" class="edge">
<title>Node2&#45;&gt;Node3</title>
<path fill="none" stroke="#63b8ff" d="M105.47,-170.3C98.79,-161.74 90.52,-151.13 83.08,-141.6"/>
<polygon fill="#63b8ff" stroke="#63b8ff" points="102.85,-172.62 111.76,-178.36 108.36,-168.32 102.85,-172.62"/>
</g>
<!-- Node5 -->
<g id="node5" class="node">
<title>Node5</title>
<g id="a_node5"><a xlink:href="main_8cpp.html" target="_top" xlink:title="Main source.">
<polygon fill="white" stroke="#666666" points="145.5,-106 145.5,-125 201.5,-125 201.5,-106 145.5,-106"/>
<text text-anchor="middle" x="173.5" y="-113" font-family="Helvetica,sans-Serif" font-size="10.00">main.cpp</text>
</a>
</g>
</g>
<!-- Node2&#45;&gt;Node5 -->
<g id="edge4" class="edge">
<title>Node2&#45;&gt;Node5</title>
<path fill="none" stroke="#63b8ff" d="M131.45,-170.4C142.49,-156.24 157.93,-136.46 166.7,-125.22"/>
<polygon fill="#63b8ff" stroke="#63b8ff" points="128.64,-168.32 125.24,-178.36 134.15,-172.62 128.64,-168.32"/>
</g>
<!-- Node4 -->
<g id="node4" class="node">
<title>Node4</title>
<g id="a_node4"><a xlink:href="_c_block_unit_tests_8cpp.html" target="_top" xlink:title="Functionality unit tests for class CBlock.">
<polygon fill="white" stroke="#666666" points="0,-0.5 0,-52.5 127,-52.5 127,-0.5 0,-0.5"/>
<text text-anchor="start" x="8" y="-40.5" font-family="Helvetica,sans-Serif" font-size="10.00">C:/Users/danie/Desktop</text>
<text text-anchor="start" x="8" y="-29.5" font-family="Helvetica,sans-Serif" font-size="10.00">/ppc_projekt_2022/trunk</text>
<text text-anchor="start" x="8" y="-18.5" font-family="Helvetica,sans-Serif" font-size="10.00">/CBlock/CBlockUnitTests</text>
<text text-anchor="middle" x="63.5" y="-7.5" font-family="Helvetica,sans-Serif" font-size="10.00">/CBlockUnitTests.cpp</text>
</a>
</g>
</g>
<!-- Node3&#45;&gt;Node4 -->
<g id="edge3" class="edge">
<title>Node3&#45;&gt;Node4</title>
<path fill="none" stroke="#63b8ff" d="M63.5,-79.19C63.5,-70.28 63.5,-60.9 63.5,-52.61"/>
<polygon fill="#63b8ff" stroke="#63b8ff" points="60,-79.34 63.5,-89.34 67,-79.34 60,-79.34"/>
</g>
</g>
</svg>
