<?xml version="1.0" encoding="UTF-8" standalone="no"?>
<!DOCTYPE svg PUBLIC "-//W3C//DTD SVG 1.1//EN"
 "http://www.w3.org/Graphics/SVG/1.1/DTD/svg11.dtd">
<!-- Generated by graphviz version 6.0.2 (20221011.1828)
 -->
<!-- Title: TStack.cpp Pages: 1 -->
<svg width="1016pt" height="308pt"
 viewBox="0.00 0.00 1015.50 308.00" xmlns="http://www.w3.org/2000/svg" xmlns:xlink="http://www.w3.org/1999/xlink">
<g id="graph0" class="graph" transform="scale(1 1) rotate(0) translate(4 304)">
<title>TStack.cpp</title>
<!-- Node1 -->
<g id="node1" class="node">
<title>Node1</title>
<g id="a_node1"><a xlink:title=" ">
<polygon fill="#999999" stroke="#666666" points="873,-280.5 873,-299.5 939,-299.5 939,-280.5 873,-280.5"/>
<text text-anchor="middle" x="906" y="-287.5" font-family="Helvetica,sans-Serif" font-size="10.00">TStack.cpp</text>
</a>
</g>
</g>
<!-- Node2 -->
<g id="node2" class="node">
<title>Node2</title>
<g id="a_node2"><a xlink:href="_c_stack_8h.html" target="_top" xlink:title="CStack class header.">
<polygon fill="white" stroke="#666666" points="877.5,-224.5 877.5,-243.5 934.5,-243.5 934.5,-224.5 877.5,-224.5"/>
<text text-anchor="middle" x="906" y="-231.5" font-family="Helvetica,sans-Serif" font-size="10.00">CStack.h</text>
</a>
</g>
</g>
<!-- Node1&#45;&gt;Node2 -->
<g id="edge1" class="edge">
<title>Node1&#45;&gt;Node2</title>
<path fill="none" stroke="#63b8ff" d="M906,-280.08C906,-273.01 906,-262.86 906,-253.99"/>
<polygon fill="#63b8ff" stroke="#63b8ff" points="909.5,-253.75 906,-243.75 902.5,-253.75 909.5,-253.75"/>
</g>
<!-- Node3 -->
<g id="node3" class="node">
<title>Node3</title>
<g id="a_node3"><a xlink:href="_c_block_8h.html" target="_top" xlink:title="General header for CBlock.">
<polygon fill="white" stroke="#666666" points="521,-168.5 521,-187.5 577,-187.5 577,-168.5 521,-168.5"/>
<text text-anchor="middle" x="549" y="-175.5" font-family="Helvetica,sans-Serif" font-size="10.00">CBlock.h</text>
</a>
</g>
</g>
<!-- Node2&#45;&gt;Node3 -->
<g id="edge2" class="edge">
<title>Node2&#45;&gt;Node3</title>
<path fill="none" stroke="#63b8ff" d="M877.39,-228.67C813.52,-219.01 659.29,-195.68 587.26,-184.79"/>
<polygon fill="#63b8ff" stroke="#63b8ff" points="587.66,-181.31 577.25,-183.27 586.62,-188.23 587.66,-181.31"/>
</g>
<!-- Node15 -->
<g id="node15" class="node">
<title>Node15</title>
<g id="a_node15"><a xlink:title=" ">
<polygon fill="#e0e0e0" stroke="#999999" points="766.5,-0.5 766.5,-19.5 817.5,-19.5 817.5,-0.5 766.5,-0.5"/>
<text text-anchor="middle" x="792" y="-7.5" font-family="Helvetica,sans-Serif" font-size="10.00">check.h</text>
</a>
</g>
</g>
<!-- Node2&#45;&gt;Node15 -->
<g id="edge42" class="edge">
<title>Node2&#45;&gt;Node15</title>
<path fill="none" stroke="#63b8ff" d="M901.53,-224.3C884.62,-191.36 824.3,-73.9 801.14,-28.81"/>
<polygon fill="#63b8ff" stroke="#63b8ff" points="804.24,-27.18 796.56,-19.88 798.02,-30.38 804.24,-27.18"/>
</g>
<!-- Node18 -->
<g id="node18" class="node">
<title>Node18</title>
<g id="a_node18"><a xlink:title=" ">
<polygon fill="#e0e0e0" stroke="#999999" points="934.5,-168.5 934.5,-187.5 1007.5,-187.5 1007.5,-168.5 934.5,-168.5"/>
<text text-anchor="middle" x="971" y="-175.5" font-family="Helvetica,sans-Serif" font-size="10.00">initializer_list</text>
</a>
</g>
</g>
<!-- Node2&#45;&gt;Node18 -->
<g id="edge41" class="edge">
<title>Node2&#45;&gt;Node18</title>
<path fill="none" stroke="#63b8ff" d="M916.44,-224.32C926.15,-216.26 940.82,-204.08 952.5,-194.37"/>
<polygon fill="#63b8ff" stroke="#63b8ff" points="954.91,-196.92 960.37,-187.83 950.44,-191.53 954.91,-196.92"/>
</g>
<!-- Node4 -->
<g id="node4" class="node">
<title>Node4</title>
<g id="a_node4"><a xlink:href="_c_block__bool_8h.html" target="_top" xlink:title="CBlock_bool class header.">
<polygon fill="white" stroke="#666666" points="443,-112.5 443,-131.5 523,-131.5 523,-112.5 443,-112.5"/>
<text text-anchor="middle" x="483" y="-119.5" font-family="Helvetica,sans-Serif" font-size="10.00">CBlock_bool.h</text>
</a>
</g>
</g>
<!-- Node3&#45;&gt;Node4 -->
<g id="edge3" class="edge">
<title>Node3&#45;&gt;Node4</title>
<path fill="none" stroke="#63b8ff" d="M538.4,-168.32C528.54,-160.26 513.65,-148.08 501.78,-138.37"/>
<polygon fill="#63b8ff" stroke="#63b8ff" points="503.75,-135.46 493.8,-131.83 499.32,-140.88 503.75,-135.46"/>
</g>
<!-- Node16 -->
<g id="node16" class="node">
<title>Node16</title>
<g id="a_node16"><a xlink:href="_c_block__long_8h.html" target="_top" xlink:title="CBlock_long class header.">
<polygon fill="white" stroke="#666666" points="581,-112.5 581,-131.5 661,-131.5 661,-112.5 581,-112.5"/>
<text text-anchor="middle" x="621" y="-119.5" font-family="Helvetica,sans-Serif" font-size="10.00">CBlock_long.h</text>
</a>
</g>
</g>
<!-- Node3&#45;&gt;Node16 -->
<g id="edge21" class="edge">
<title>Node3&#45;&gt;Node16</title>
<path fill="none" stroke="#63b8ff" d="M560.57,-168.32C571.42,-160.18 587.88,-147.84 600.88,-138.09"/>
<polygon fill="#63b8ff" stroke="#63b8ff" points="603.32,-140.63 609.22,-131.83 599.12,-135.03 603.32,-140.63"/>
</g>
<!-- Node17 -->
<g id="node17" class="node">
<title>Node17</title>
<g id="a_node17"><a xlink:href="_c_block___t_week_day_8h.html" target="_top" xlink:title="CBlock_TWeekDay class header.">
<polygon fill="white" stroke="#666666" points="290,-112.5 290,-131.5 400,-131.5 400,-112.5 290,-112.5"/>
<text text-anchor="middle" x="345" y="-119.5" font-family="Helvetica,sans-Serif" font-size="10.00">CBlock_TWeekDay.h</text>
</a>
</g>
</g>
<!-- Node3&#45;&gt;Node17 -->
<g id="edge31" class="edge">
<title>Node3&#45;&gt;Node17</title>
<path fill="none" stroke="#63b8ff" d="M520.63,-169.49C485.92,-160.3 426.83,-144.66 386.87,-134.08"/>
<polygon fill="#63b8ff" stroke="#63b8ff" points="387.72,-130.69 377.16,-131.51 385.93,-137.45 387.72,-130.69"/>
</g>
<!-- Node5 -->
<g id="node5" class="node">
<title>Node5</title>
<g id="a_node5"><a xlink:title=" ">
<polygon fill="#e0e0e0" stroke="#999999" points="368,-0.5 368,-19.5 422,-19.5 422,-0.5 368,-0.5"/>
<text text-anchor="middle" x="395" y="-7.5" font-family="Helvetica,sans-Serif" font-size="10.00">iostream</text>
</a>
</g>
</g>
<!-- Node4&#45;&gt;Node5 -->
<g id="edge4" class="edge">
<title>Node4&#45;&gt;Node5</title>
<path fill="none" stroke="#63b8ff" d="M476.09,-112.37C461.51,-94.14 427.34,-51.43 408.34,-27.68"/>
<polygon fill="#63b8ff" stroke="#63b8ff" points="410.85,-25.21 401.87,-19.59 405.39,-29.59 410.85,-25.21"/>
</g>
<!-- Node6 -->
<g id="node6" class="node">
<title>Node6</title>
<g id="a_node6"><a xlink:title=" ">
<polygon fill="#e0e0e0" stroke="#999999" points="0,-0.5 0,-19.5 52,-19.5 52,-0.5 0,-0.5"/>
<text text-anchor="middle" x="26" y="-7.5" font-family="Helvetica,sans-Serif" font-size="10.00">sstream</text>
</a>
</g>
</g>
<!-- Node4&#45;&gt;Node6 -->
<g id="edge5" class="edge">
<title>Node4&#45;&gt;Node6</title>
<path fill="none" stroke="#63b8ff" d="M442.69,-116.07C355.71,-105.39 157.1,-80.66 143,-76 106.74,-64.01 68.81,-40.62 46.31,-25.42"/>
<polygon fill="#63b8ff" stroke="#63b8ff" points="48.15,-22.43 37.93,-19.65 44.18,-28.2 48.15,-22.43"/>
</g>
<!-- Node7 -->
<g id="node7" class="node">
<title>Node7</title>
<g id="a_node7"><a xlink:title=" ">
<polygon fill="#e0e0e0" stroke="#999999" points="474.5,-56.5 474.5,-75.5 515.5,-75.5 515.5,-56.5 474.5,-56.5"/>
<text text-anchor="middle" x="495" y="-63.5" font-family="Helvetica,sans-Serif" font-size="10.00">string</text>
</a>
</g>
</g>
<!-- Node4&#45;&gt;Node7 -->
<g id="edge6" class="edge">
<title>Node4&#45;&gt;Node7</title>
<path fill="none" stroke="#63b8ff" d="M484.98,-112.08C486.57,-104.93 488.86,-94.64 490.85,-85.69"/>
<polygon fill="#63b8ff" stroke="#63b8ff" points="494.3,-86.27 493.06,-75.75 487.47,-84.75 494.3,-86.27"/>
</g>
<!-- Node8 -->
<g id="node8" class="node">
<title>Node8</title>
<g id="a_node8"><a xlink:title=" ">
<polygon fill="#e0e0e0" stroke="#999999" points="70.5,-0.5 70.5,-19.5 129.5,-19.5 129.5,-0.5 70.5,-0.5"/>
<text text-anchor="middle" x="100" y="-7.5" font-family="Helvetica,sans-Serif" font-size="10.00">stdexcept</text>
</a>
</g>
</g>
<!-- Node4&#45;&gt;Node8 -->
<g id="edge7" class="edge">
<title>Node4&#45;&gt;Node8</title>
<path fill="none" stroke="#63b8ff" d="M442.74,-115.67C362.43,-104.97 189.01,-81.41 177,-76 151.97,-64.72 128.69,-42.84 114.42,-27.6"/>
<polygon fill="#63b8ff" stroke="#63b8ff" points="116.78,-24.98 107.47,-19.92 111.59,-29.68 116.78,-24.98"/>
</g>
<!-- Node9 -->
<g id="node9" class="node">
<title>Node9</title>
<g id="a_node9"><a xlink:title=" ">
<polygon fill="#e0e0e0" stroke="#999999" points="300,-0.5 300,-19.5 350,-19.5 350,-0.5 300,-0.5"/>
<text text-anchor="middle" x="325" y="-7.5" font-family="Helvetica,sans-Serif" font-size="10.00">typeinfo</text>
</a>
</g>
</g>
<!-- Node4&#45;&gt;Node9 -->
<g id="edge8" class="edge">
<title>Node4&#45;&gt;Node9</title>
<path fill="none" stroke="#63b8ff" d="M470.6,-112.37C443.6,-93.57 379.25,-48.77 345.88,-25.53"/>
<polygon fill="#63b8ff" stroke="#63b8ff" points="347.55,-22.43 337.34,-19.59 343.55,-28.18 347.55,-22.43"/>
</g>
<!-- Node10 -->
<g id="node10" class="node">
<title>Node10</title>
<g id="a_node10"><a xlink:title=" ">
<polygon fill="#e0e0e0" stroke="#999999" points="534,-56.5 534,-75.5 574,-75.5 574,-56.5 534,-56.5"/>
<text text-anchor="middle" x="554" y="-63.5" font-family="Helvetica,sans-Serif" font-size="10.00">utility</text>
</a>
</g>
</g>
<!-- Node4&#45;&gt;Node10 -->
<g id="edge9" class="edge">
<title>Node4&#45;&gt;Node10</title>
<path fill="none" stroke="#63b8ff" d="M494.41,-112.32C505.11,-104.18 521.34,-91.84 534.16,-82.09"/>
<polygon fill="#63b8ff" stroke="#63b8ff" points="536.54,-84.67 542.39,-75.83 532.31,-79.1 536.54,-84.67"/>
</g>
<!-- Node11 -->
<g id="node11" class="node">
<title>Node11</title>
<g id="a_node11"><a xlink:title=" ">
<polygon fill="#e0e0e0" stroke="#999999" points="562.5,-0.5 562.5,-19.5 627.5,-19.5 627.5,-0.5 562.5,-0.5"/>
<text text-anchor="middle" x="595" y="-7.5" font-family="Helvetica,sans-Serif" font-size="10.00">ClassInfo.h</text>
</a>
</g>
</g>
<!-- Node4&#45;&gt;Node11 -->
<g id="edge10" class="edge">
<title>Node4&#45;&gt;Node11</title>
<path fill="none" stroke="#63b8ff" d="M522.97,-112.5C543.93,-105.98 568.25,-94.8 583,-76 593.28,-62.89 595.76,-43.74 595.98,-29.63"/>
<polygon fill="#63b8ff" stroke="#63b8ff" points="599.48,-29.52 595.78,-19.59 592.48,-29.66 599.48,-29.52"/>
</g>
<!-- Node12 -->
<g id="node12" class="node">
<title>Node12</title>
<g id="a_node12"><a xlink:href="_c_block_base_8h.html" target="_top" xlink:title="CBlockBase class header.">
<polygon fill="white" stroke="#666666" points="186.5,-56.5 186.5,-75.5 265.5,-75.5 265.5,-56.5 186.5,-56.5"/>
<text text-anchor="middle" x="226" y="-63.5" font-family="Helvetica,sans-Serif" font-size="10.00">CBlockBase.h</text>
</a>
</g>
</g>
<!-- Node4&#45;&gt;Node12 -->
<g id="edge11" class="edge">
<title>Node4&#45;&gt;Node12</title>
<path fill="none" stroke="#63b8ff" d="M442.84,-112.56C397.77,-103.09 324.58,-87.71 275.88,-77.48"/>
<polygon fill="#63b8ff" stroke="#63b8ff" points="276.38,-74.01 265.87,-75.38 274.94,-80.86 276.38,-74.01"/>
</g>
<!-- Node4&#45;&gt;Node15 -->
<g id="edge20" class="edge">
<title>Node4&#45;&gt;Node15</title>
<path fill="none" stroke="#63b8ff" d="M506.99,-112.46C561.64,-93.01 695.49,-45.36 758.36,-22.98"/>
<polygon fill="#63b8ff" stroke="#63b8ff" points="759.57,-26.26 767.81,-19.61 757.22,-19.67 759.57,-26.26"/>
</g>
<!-- Node12&#45;&gt;Node5 -->
<g id="edge13" class="edge">
<title>Node12&#45;&gt;Node5</title>
<path fill="none" stroke="#63b8ff" d="M252.78,-56.44C281.33,-47.32 326.73,-32.81 358.54,-22.65"/>
<polygon fill="#63b8ff" stroke="#63b8ff" points="359.89,-25.89 368.35,-19.52 357.76,-19.23 359.89,-25.89"/>
</g>
<!-- Node12&#45;&gt;Node6 -->
<g id="edge14" class="edge">
<title>Node12&#45;&gt;Node6</title>
<path fill="none" stroke="#63b8ff" d="M194.31,-56.44C158.37,-46.74 99.87,-30.95 62.17,-20.77"/>
<polygon fill="#63b8ff" stroke="#63b8ff" points="62.69,-17.28 52.12,-18.05 60.87,-24.04 62.69,-17.28"/>
</g>
<!-- Node12&#45;&gt;Node8 -->
<g id="edge15" class="edge">
<title>Node12&#45;&gt;Node8</title>
<path fill="none" stroke="#63b8ff" d="M206.03,-56.44C185.39,-47.6 152.94,-33.69 129.37,-23.59"/>
<polygon fill="#63b8ff" stroke="#63b8ff" points="130.44,-20.24 119.87,-19.52 127.68,-26.67 130.44,-20.24"/>
</g>
<!-- Node12&#45;&gt;Node9 -->
<g id="edge16" class="edge">
<title>Node12&#45;&gt;Node9</title>
<path fill="none" stroke="#63b8ff" d="M241.91,-56.32C257.64,-47.74 281.94,-34.49 300.21,-24.52"/>
<polygon fill="#63b8ff" stroke="#63b8ff" points="302.03,-27.52 309.13,-19.65 298.68,-21.37 302.03,-27.52"/>
</g>
<!-- Node12&#45;&gt;Node11 -->
<g id="edge17" class="edge">
<title>Node12&#45;&gt;Node11</title>
<path fill="none" stroke="#63b8ff" d="M265.84,-59.17C335.82,-48.93 480.22,-27.8 552.23,-17.26"/>
<polygon fill="#63b8ff" stroke="#63b8ff" points="552.92,-20.7 562.31,-15.78 551.91,-13.77 552.92,-20.7"/>
</g>
<!-- Node13 -->
<g id="node13" class="node">
<title>Node13</title>
<g id="a_node13"><a xlink:title=" ">
<polygon fill="#e0e0e0" stroke="#999999" points="148,-0.5 148,-19.5 202,-19.5 202,-0.5 148,-0.5"/>
<text text-anchor="middle" x="175" y="-7.5" font-family="Helvetica,sans-Serif" font-size="10.00">compare</text>
</a>
</g>
</g>
<!-- Node12&#45;&gt;Node13 -->
<g id="edge12" class="edge">
<title>Node12&#45;&gt;Node13</title>
<path fill="none" stroke="#63b8ff" d="M217.58,-56.08C210.15,-48.22 199.15,-36.57 190.19,-27.08"/>
<polygon fill="#63b8ff" stroke="#63b8ff" points="192.68,-24.62 183.26,-19.75 187.59,-29.42 192.68,-24.62"/>
</g>
<!-- Node14 -->
<g id="node14" class="node">
<title>Node14</title>
<g id="a_node14"><a xlink:title=" ">
<polygon fill="#e0e0e0" stroke="#999999" points="220,-0.5 220,-19.5 282,-19.5 282,-0.5 220,-0.5"/>
<text text-anchor="middle" x="251" y="-7.5" font-family="Helvetica,sans-Serif" font-size="10.00">demagle.h</text>
</a>
</g>
</g>
<!-- Node12&#45;&gt;Node14 -->
<g id="edge18" class="edge">
<title>Node12&#45;&gt;Node14</title>
<path fill="none" stroke="#63b8ff" d="M230.13,-56.08C233.51,-48.77 238.42,-38.18 242.62,-29.1"/>
<polygon fill="#63b8ff" stroke="#63b8ff" points="245.92,-30.3 246.95,-19.75 239.57,-27.36 245.92,-30.3"/>
</g>
<!-- Node12&#45;&gt;Node15 -->
<g id="edge19" class="edge">
<title>Node12&#45;&gt;Node15</title>
<path fill="none" stroke="#63b8ff" d="M265.8,-61.2C371.05,-51.16 655.5,-24.02 756.13,-14.42"/>
<polygon fill="#63b8ff" stroke="#63b8ff" points="756.75,-17.88 766.38,-13.44 756.09,-10.91 756.75,-17.88"/>
</g>
<!-- Node16&#45;&gt;Node5 -->
<g id="edge22" class="edge">
<title>Node16&#45;&gt;Node5</title>
<path fill="none" stroke="#63b8ff" d="M643.09,-112.46C670.43,-100.66 711.18,-78.3 692,-56 675.23,-36.5 508.03,-20.34 432.13,-13.94"/>
<polygon fill="#63b8ff" stroke="#63b8ff" points="432.3,-10.45 422.05,-13.11 431.73,-17.42 432.3,-10.45"/>
</g>
<!-- Node16&#45;&gt;Node6 -->
<g id="edge23" class="edge">
<title>Node16&#45;&gt;Node6</title>
<path fill="none" stroke="#63b8ff" d="M618.8,-112.42C614.59,-97.94 603.88,-68.96 583,-56 486.8,3.69 191.9,-36.32 62.41,-19.77"/>
<polygon fill="#63b8ff" stroke="#63b8ff" points="62.66,-16.27 52.26,-18.3 61.66,-23.2 62.66,-16.27"/>
</g>
<!-- Node16&#45;&gt;Node7 -->
<g id="edge24" class="edge">
<title>Node16&#45;&gt;Node7</title>
<path fill="none" stroke="#63b8ff" d="M601.03,-112.44C580.39,-103.6 547.94,-89.69 524.37,-79.59"/>
<polygon fill="#63b8ff" stroke="#63b8ff" points="525.44,-76.24 514.87,-75.52 522.68,-82.67 525.44,-76.24"/>
</g>
<!-- Node16&#45;&gt;Node8 -->
<g id="edge25" class="edge">
<title>Node16&#45;&gt;Node8</title>
<path fill="none" stroke="#63b8ff" d="M623.42,-112.41C626.79,-98.45 630.9,-70.87 616,-56 580.04,-20.09 224.87,-27.25 139.7,-19.51"/>
<polygon fill="#63b8ff" stroke="#63b8ff" points="140.06,-16.03 129.72,-18.35 139.25,-22.99 140.06,-16.03"/>
</g>
<!-- Node16&#45;&gt;Node9 -->
<g id="edge26" class="edge">
<title>Node16&#45;&gt;Node9</title>
<path fill="none" stroke="#63b8ff" d="M631.51,-112.17C646.15,-98.82 669.27,-73.25 654,-56 612.1,-8.68 439.6,-30.39 360.27,-19.72"/>
<polygon fill="#63b8ff" stroke="#63b8ff" points="360.59,-16.22 350.16,-18.07 359.47,-23.13 360.59,-16.22"/>
</g>
<!-- Node16&#45;&gt;Node10 -->
<g id="edge27" class="edge">
<title>Node16&#45;&gt;Node10</title>
<path fill="none" stroke="#63b8ff" d="M610.24,-112.32C600.23,-104.26 585.11,-92.08 573.07,-82.37"/>
<polygon fill="#63b8ff" stroke="#63b8ff" points="574.94,-79.38 564.96,-75.83 570.55,-84.83 574.94,-79.38"/>
</g>
<!-- Node16&#45;&gt;Node11 -->
<g id="edge28" class="edge">
<title>Node16&#45;&gt;Node11</title>
<path fill="none" stroke="#63b8ff" d="M661.19,-117.62C714.51,-111.55 798.55,-95.52 768,-56 752.16,-35.51 683.46,-22.61 637.54,-16.12"/>
<polygon fill="#63b8ff" stroke="#63b8ff" points="637.93,-12.64 627.55,-14.75 636.98,-19.57 637.93,-12.64"/>
</g>
<!-- Node16&#45;&gt;Node12 -->
<g id="edge29" class="edge">
<title>Node16&#45;&gt;Node12</title>
<path fill="none" stroke="#63b8ff" d="M580.95,-115.53C508.31,-105.59 355.02,-84.64 275.78,-73.81"/>
<polygon fill="#63b8ff" stroke="#63b8ff" points="275.95,-70.3 265.57,-72.41 275,-77.23 275.95,-70.3"/>
</g>
<!-- Node16&#45;&gt;Node15 -->
<g id="edge30" class="edge">
<title>Node16&#45;&gt;Node15</title>
<path fill="none" stroke="#63b8ff" d="M661.18,-115.35C704.7,-108.35 770.06,-94.99 786,-76 796.58,-63.4 797.09,-44.18 795.55,-29.91"/>
<polygon fill="#63b8ff" stroke="#63b8ff" points="798.97,-29.11 794.02,-19.74 792.04,-30.15 798.97,-29.11"/>
</g>
<!-- Node17&#45;&gt;Node5 -->
<g id="edge32" class="edge">
<title>Node17&#45;&gt;Node5</title>
<path fill="none" stroke="#63b8ff" d="M345.01,-112.14C345.34,-99.2 347.21,-74.63 356,-56 361.16,-45.06 369.75,-34.72 377.56,-26.72"/>
<polygon fill="#63b8ff" stroke="#63b8ff" points="380.2,-29.03 384.95,-19.56 375.33,-24 380.2,-29.03"/>
</g>
<!-- Node17&#45;&gt;Node6 -->
<g id="edge33" class="edge">
<title>Node17&#45;&gt;Node6</title>
<path fill="none" stroke="#63b8ff" d="M289.98,-120.18C237.1,-117.37 156.26,-107.64 94,-76 71.36,-64.5 51.14,-42.99 38.75,-27.87"/>
<polygon fill="#63b8ff" stroke="#63b8ff" points="41.34,-25.51 32.4,-19.84 35.85,-29.85 41.34,-25.51"/>
</g>
<!-- Node17&#45;&gt;Node7 -->
<g id="edge34" class="edge">
<title>Node17&#45;&gt;Node7</title>
<path fill="none" stroke="#63b8ff" d="M368.77,-112.44C394.67,-103.12 436.18,-88.18 464.47,-77.99"/>
<polygon fill="#63b8ff" stroke="#63b8ff" points="466.02,-81.15 474.24,-74.47 463.65,-74.57 466.02,-81.15"/>
</g>
<!-- Node17&#45;&gt;Node8 -->
<g id="edge35" class="edge">
<title>Node17&#45;&gt;Node8</title>
<path fill="none" stroke="#63b8ff" d="M289.83,-118.12C227.05,-113.61 130.09,-102.46 106,-76 94.93,-63.83 94.48,-44.56 96.17,-30.15"/>
<polygon fill="#63b8ff" stroke="#63b8ff" points="99.7,-30.3 97.83,-19.87 92.78,-29.19 99.7,-30.3"/>
</g>
<!-- Node17&#45;&gt;Node9 -->
<g id="edge36" class="edge">
<title>Node17&#45;&gt;Node9</title>
<path fill="none" stroke="#63b8ff" d="M289.97,-113.56C246.46,-106.41 190.83,-94.03 177,-76 171.59,-68.95 171.71,-63.14 177,-56 180.47,-51.32 247.28,-32.3 289.94,-20.53"/>
<polygon fill="#63b8ff" stroke="#63b8ff" points="290.97,-23.88 299.69,-17.86 289.12,-17.13 290.97,-23.88"/>
</g>
<!-- Node17&#45;&gt;Node10 -->
<g id="edge37" class="edge">
<title>Node17&#45;&gt;Node10</title>
<path fill="none" stroke="#63b8ff" d="M381.12,-112.43C417.37,-103.7 474.73,-89.58 524,-76 524.1,-75.97 524.2,-75.95 524.3,-75.92"/>
<polygon fill="#63b8ff" stroke="#63b8ff" points="525.05,-79.34 533.7,-73.22 523.13,-72.61 525.05,-79.34"/>
</g>
<!-- Node17&#45;&gt;Node11 -->
<g id="edge38" class="edge">
<title>Node17&#45;&gt;Node11</title>
<path fill="none" stroke="#63b8ff" d="M354.38,-112.09C369.53,-98.16 400.85,-71.26 432,-56 470.71,-37.04 518.63,-25.03 552.46,-18.23"/>
<polygon fill="#63b8ff" stroke="#63b8ff" points="553.33,-21.62 562.48,-16.28 552,-14.75 553.33,-21.62"/>
</g>
<!-- Node17&#45;&gt;Node12 -->
<g id="edge39" class="edge">
<title>Node17&#45;&gt;Node12</title>
<path fill="none" stroke="#63b8ff" d="M326.14,-112.44C306.73,-103.64 276.27,-89.81 254.04,-79.72"/>
<polygon fill="#63b8ff" stroke="#63b8ff" points="255.32,-76.46 244.77,-75.52 252.43,-82.84 255.32,-76.46"/>
</g>
<!-- Node17&#45;&gt;Node15 -->
<g id="edge40" class="edge">
<title>Node17&#45;&gt;Node15</title>
<path fill="none" stroke="#63b8ff" d="M361.7,-112.36C378.9,-103.42 406.45,-88.96 430,-76 445.7,-67.36 448.04,-61.77 465,-56 566.59,-21.44 694.52,-13.36 755.9,-11.51"/>
<polygon fill="#63b8ff" stroke="#63b8ff" points="756.31,-15.01 766.22,-11.25 756.13,-8.01 756.31,-15.01"/>
</g>
</g>
</svg>
