<?xml version="1.0" encoding="UTF-8" standalone="no"?>
<!DOCTYPE svg PUBLIC "-//W3C//DTD SVG 1.1//EN"
 "http://www.w3.org/Graphics/SVG/1.1/DTD/svg11.dtd">
<!-- Generated by graphviz version 6.0.2 (20221011.1828)
 -->
<!-- Title: main.cpp Pages: 1 -->
<!--zoomable 252 -->
<svg id="main" version="1.1" xmlns="http://www.w3.org/2000/svg" xmlns:xlink="http://www.w3.org/1999/xlink" xml:space="preserve" onload="init(evt)">
<style type="text/css"><![CDATA[
.edge:hover path { stroke: red; }
.edge:hover polygon { stroke: red; fill: red; }
]]></style>
<script type="text/javascript"><![CDATA[
var edges = document.getElementsByTagName('g');
if (edges && edges.length) {
  for (var i=0;i<edges.length;i++) {
    if (edges[i].id.substr(0,4)=='edge') {
      edges[i].setAttribute('class','edge');
    }
  }
}
]]></script>
        <defs>
                <circle id="rim" cx="0" cy="0" r="7"/>
                <circle id="rim2" cx="0" cy="0" r="3.5"/>
                <g id="zoomPlus">
                        <use xlink:href="#rim" fill="#404040">
                                <set attributeName="fill" to="#808080" begin="zoomplus.mouseover" end="zoomplus.mouseout"/>
                        </use>
                        <path d="M-4,0h8M0,-4v8" fill="none" stroke="white" stroke-width="1.5" pointer-events="none"/>
                </g>
                <g id="zoomMin">
                        <use xlink:href="#rim" fill="#404040">
                                <set attributeName="fill" to="#808080" begin="zoomminus.mouseover" end="zoomminus.mouseout"/>
                        </use>
                        <path d="M-4,0h8" fill="none" stroke="white" stroke-width="1.5" pointer-events="none"/>
                </g>
                <g id="dirArrow">
                        <path fill="none" stroke="white" stroke-width="1.5" d="M0,-3.0v7 M-2.5,-0.5L0,-3.0L2.5,-0.5"/>
                </g>
               <g id="resetDef">
                       <use xlink:href="#rim2" fill="#404040">
                               <set attributeName="fill" to="#808080" begin="reset.mouseover" end="reset.mouseout"/>
                       </use>
               </g>
        </defs>

<script type="text/javascript">
var viewWidth = 1448;
var viewHeight = 252;
var sectionId = 'dynsection-0';
</script>
<script xlink:href="svgpan.js"/>
<svg id="graph" class="graph">
<g id="viewport">
<title>main.cpp</title>
<!-- Node1 -->
<g id="node1" class="node">
<title>Node1</title>
<g id="a_node1"><a xlink:title="Main source.">
<polygon fill="#999999" stroke="#666666" points="326.5,-224.5 326.5,-243.5 382.5,-243.5 382.5,-224.5 326.5,-224.5"/>
<text text-anchor="middle" x="354.5" y="-231.5" font-family="Helvetica,sans-Serif" font-size="10.00">main.cpp</text>
</a>
</g>
</g>
<!-- Node2 -->
<g id="node2" class="node">
<title>Node2</title>
<g id="a_node2"><a xlink:title=" ">
<polygon fill="#e0e0e0" stroke="#999999" points="0,-168.5 0,-187.5 41,-187.5 41,-168.5 0,-168.5"/>
<text text-anchor="middle" x="20.5" y="-175.5" font-family="Helvetica,sans-Serif" font-size="10.00">ctime</text>
</a>
</g>
</g>
<!-- Node1&#45;&gt;Node2 -->
<g id="edge1" class="edge">
<title>Node1&#45;&gt;Node2</title>
<path fill="none" stroke="#63b8ff" d="M326.3,-229.73C273.07,-223.35 154.27,-208.08 55.5,-188 54.04,-187.7 52.55,-187.38 51.05,-187.05"/>
<polygon fill="#63b8ff" stroke="#63b8ff" points="51.69,-183.6 41.15,-184.68 50.06,-190.41 51.69,-183.6"/>
</g>
<!-- Node3 -->
<g id="node3" class="node">
<title>Node3</title>
<g id="a_node3"><a xlink:title=" ">
<polygon fill="#e0e0e0" stroke="#999999" points="694.5,-0.5 694.5,-19.5 748.5,-19.5 748.5,-0.5 694.5,-0.5"/>
<text text-anchor="middle" x="721.5" y="-7.5" font-family="Helvetica,sans-Serif" font-size="10.00">iostream</text>
</a>
</g>
</g>
<!-- Node1&#45;&gt;Node3 -->
<g id="edge2" class="edge">
<title>Node1&#45;&gt;Node3</title>
<path fill="none" stroke="#63b8ff" d="M326.23,-227.02C305.46,-220.98 278.65,-209.39 265.5,-188 246.31,-156.8 179.41,-152.88 274.5,-56 302.89,-27.07 597.18,-24.16 637.5,-20 652.76,-18.43 669.58,-16.64 684.13,-15.07"/>
<polygon fill="#63b8ff" stroke="#63b8ff" points="684.7,-18.53 694.27,-13.97 683.95,-11.57 684.7,-18.53"/>
</g>
<!-- Node4 -->
<g id="node4" class="node">
<title>Node4</title>
<g id="a_node4"><a xlink:title=" ">
<polygon fill="#e0e0e0" stroke="#999999" points="406,-0.5 406,-19.5 465,-19.5 465,-0.5 406,-0.5"/>
<text text-anchor="middle" x="435.5" y="-7.5" font-family="Helvetica,sans-Serif" font-size="10.00">stdexcept</text>
</a>
</g>
</g>
<!-- Node1&#45;&gt;Node4 -->
<g id="edge3" class="edge">
<title>Node1&#45;&gt;Node4</title>
<path fill="none" stroke="#63b8ff" d="M326.29,-232.52C265.05,-230.81 123.05,-223.08 93.5,-188 55.7,-143.13 54.82,-100.11 93.5,-56 113.19,-33.55 309.76,-18.77 395.67,-13.33"/>
<polygon fill="#63b8ff" stroke="#63b8ff" points="396.05,-16.82 405.82,-12.7 395.62,-9.83 396.05,-16.82"/>
</g>
<!-- Node5 -->
<g id="node5" class="node">
<title>Node5</title>
<g id="a_node5"><a xlink:title=" ">
<polygon fill="#e0e0e0" stroke="#999999" points="578.5,-0.5 578.5,-19.5 628.5,-19.5 628.5,-0.5 578.5,-0.5"/>
<text text-anchor="middle" x="603.5" y="-7.5" font-family="Helvetica,sans-Serif" font-size="10.00">typeinfo</text>
</a>
</g>
</g>
<!-- Node1&#45;&gt;Node5 -->
<g id="edge4" class="edge">
<title>Node1&#45;&gt;Node5</title>
<path fill="none" stroke="#63b8ff" d="M340.55,-224.32C299.22,-197.59 183.47,-114.78 235.5,-56 246.49,-43.58 478.28,-21.99 568.24,-14.05"/>
<polygon fill="#63b8ff" stroke="#63b8ff" points="568.59,-17.53 578.24,-13.17 567.97,-10.56 568.59,-17.53"/>
</g>
<!-- Node6 -->
<g id="node6" class="node">
<title>Node6</title>
<g id="a_node6"><a xlink:title=" ">
<polygon fill="#e0e0e0" stroke="#999999" points="1377.5,-168.5 1377.5,-187.5 1439.5,-187.5 1439.5,-168.5 1377.5,-168.5"/>
<text text-anchor="middle" x="1408.5" y="-175.5" font-family="Helvetica,sans-Serif" font-size="10.00">type_traits</text>
</a>
</g>
</g>
<!-- Node1&#45;&gt;Node6 -->
<g id="edge5" class="edge">
<title>Node1&#45;&gt;Node6</title>
<path fill="none" stroke="#63b8ff" d="M382.72,-233.32C502.07,-234.32 977.07,-234.98 1363.5,-188 1364.61,-187.87 1365.73,-187.72 1366.86,-187.56"/>
<polygon fill="#63b8ff" stroke="#63b8ff" points="1367.81,-190.95 1377.13,-185.91 1366.7,-184.04 1367.81,-190.95"/>
</g>
<!-- Node7 -->
<g id="node7" class="node">
<title>Node7</title>
<g id="a_node7"><a xlink:title=" ">
<polygon fill="#e0e0e0" stroke="#999999" points="1202.5,-0.5 1202.5,-19.5 1264.5,-19.5 1264.5,-0.5 1202.5,-0.5"/>
<text text-anchor="middle" x="1233.5" y="-7.5" font-family="Helvetica,sans-Serif" font-size="10.00">demagle.h</text>
</a>
</g>
</g>
<!-- Node1&#45;&gt;Node7 -->
<g id="edge6" class="edge">
<title>Node1&#45;&gt;Node7</title>
<path fill="none" stroke="#63b8ff" d="M382.8,-232.27C498.85,-229.14 938.57,-215.63 1074.5,-188 1177.77,-167.01 1245.94,-174.46 1283.5,-76 1286.67,-67.69 1287.12,-64.12 1283.5,-56 1277.93,-43.5 1266.98,-33.01 1256.75,-25.32"/>
<polygon fill="#63b8ff" stroke="#63b8ff" points="1258.66,-22.38 1248.45,-19.53 1254.65,-28.12 1258.66,-22.38"/>
</g>
<!-- Node8 -->
<g id="node8" class="node">
<title>Node8</title>
<g id="a_node8"><a xlink:href="_c_block_8h.html" target="_top" xlink:title="General header for CBlock.">
<polygon fill="white" stroke="#666666" points="535.5,-168.5 535.5,-187.5 591.5,-187.5 591.5,-168.5 535.5,-168.5"/>
<text text-anchor="middle" x="563.5" y="-175.5" font-family="Helvetica,sans-Serif" font-size="10.00">CBlock.h</text>
</a>
</g>
</g>
<!-- Node1&#45;&gt;Node8 -->
<g id="edge7" class="edge">
<title>Node1&#45;&gt;Node8</title>
<path fill="none" stroke="#63b8ff" d="M382.69,-225.72C419.56,-216.19 484.31,-199.46 525.5,-188.82"/>
<polygon fill="#63b8ff" stroke="#63b8ff" points="526.62,-192.14 535.43,-186.25 524.87,-185.37 526.62,-192.14"/>
</g>
<!-- Node16 -->
<g id="node16" class="node">
<title>Node16</title>
<g id="a_node16"><a xlink:title=" ">
<polygon fill="#e0e0e0" stroke="#999999" points="1018,-0.5 1018,-19.5 1069,-19.5 1069,-0.5 1018,-0.5"/>
<text text-anchor="middle" x="1043.5" y="-7.5" font-family="Helvetica,sans-Serif" font-size="10.00">check.h</text>
</a>
</g>
</g>
<!-- Node1&#45;&gt;Node16 -->
<g id="edge56" class="edge">
<title>Node1&#45;&gt;Node16</title>
<path fill="none" stroke="#63b8ff" d="M382.87,-233.41C526.73,-234.79 1172.57,-232.16 1267.5,-76 1272.12,-68.4 1273.13,-62.88 1267.5,-56 1244.13,-27.47 1136.55,-16.65 1079.41,-12.86"/>
<polygon fill="#63b8ff" stroke="#63b8ff" points="1079.56,-9.36 1069.36,-12.23 1079.12,-16.35 1079.56,-9.36"/>
</g>
<!-- Node9 -->
<g id="node9" class="node">
<title>Node9</title>
<g id="a_node9"><a xlink:href="_c_block__bool_8h.html" target="_top" xlink:title="CBlock_bool class header.">
<polygon fill="white" stroke="#666666" points="314.5,-112.5 314.5,-131.5 394.5,-131.5 394.5,-112.5 314.5,-112.5"/>
<text text-anchor="middle" x="354.5" y="-119.5" font-family="Helvetica,sans-Serif" font-size="10.00">CBlock_bool.h</text>
</a>
</g>
</g>
<!-- Node8&#45;&gt;Node9 -->
<g id="edge8" class="edge">
<title>Node8&#45;&gt;Node9</title>
<path fill="none" stroke="#63b8ff" d="M535.31,-169.72C499.9,-160.57 438.79,-144.78 397.52,-134.12"/>
<polygon fill="#63b8ff" stroke="#63b8ff" points="398.3,-130.7 387.75,-131.59 396.55,-137.48 398.3,-130.7"/>
</g>
<!-- Node17 -->
<g id="node17" class="node">
<title>Node17</title>
<g id="a_node17"><a xlink:href="_c_block__long_8h.html" target="_top" xlink:title="CBlock_long class header.">
<polygon fill="white" stroke="#666666" points="523.5,-112.5 523.5,-131.5 603.5,-131.5 603.5,-112.5 523.5,-112.5"/>
<text text-anchor="middle" x="563.5" y="-119.5" font-family="Helvetica,sans-Serif" font-size="10.00">CBlock_long.h</text>
</a>
</g>
</g>
<!-- Node8&#45;&gt;Node17 -->
<g id="edge26" class="edge">
<title>Node8&#45;&gt;Node17</title>
<path fill="none" stroke="#63b8ff" d="M563.5,-168.08C563.5,-161.01 563.5,-150.86 563.5,-141.99"/>
<polygon fill="#63b8ff" stroke="#63b8ff" points="567,-141.75 563.5,-131.75 560,-141.75 567,-141.75"/>
</g>
<!-- Node18 -->
<g id="node18" class="node">
<title>Node18</title>
<g id="a_node18"><a xlink:href="_c_block___t_week_day_8h.html" target="_top" xlink:title="CBlock_TWeekDay class header.">
<polygon fill="white" stroke="#666666" points="759.5,-112.5 759.5,-131.5 869.5,-131.5 869.5,-112.5 759.5,-112.5"/>
<text text-anchor="middle" x="814.5" y="-119.5" font-family="Helvetica,sans-Serif" font-size="10.00">CBlock_TWeekDay.h</text>
</a>
</g>
</g>
<!-- Node8&#45;&gt;Node18 -->
<g id="edge36" class="edge">
<title>Node8&#45;&gt;Node18</title>
<path fill="none" stroke="#63b8ff" d="M591.8,-170.91C633.75,-161.89 713.03,-144.83 764.8,-133.69"/>
<polygon fill="#63b8ff" stroke="#63b8ff" points="765.72,-137.07 774.76,-131.55 764.25,-130.23 765.72,-137.07"/>
</g>
<!-- Node19 -->
<g id="node19" class="node">
<title>Node19</title>
<g id="a_node19"><a xlink:href="_c_block___t_interval_8h.html" target="_top" xlink:title="CBlock_TInterval class header.">
<polygon fill="white" stroke="#666666" points="1054,-112.5 1054,-131.5 1151,-131.5 1151,-112.5 1054,-112.5"/>
<text text-anchor="middle" x="1102.5" y="-119.5" font-family="Helvetica,sans-Serif" font-size="10.00">CBlock_TInterval.h</text>
</a>
</g>
</g>
<!-- Node8&#45;&gt;Node19 -->
<g id="edge46" class="edge">
<title>Node8&#45;&gt;Node19</title>
<path fill="none" stroke="#63b8ff" d="M591.72,-174.17C676.25,-165.7 928.63,-140.42 1043.9,-128.87"/>
<polygon fill="#63b8ff" stroke="#63b8ff" points="1044.36,-132.34 1053.96,-127.86 1043.66,-125.38 1044.36,-132.34"/>
</g>
<!-- Node9&#45;&gt;Node3 -->
<g id="edge9" class="edge">
<title>Node9&#45;&gt;Node3</title>
<path fill="none" stroke="#63b8ff" d="M332.26,-112.32C304.73,-100.36 263.78,-77.82 283.5,-56 310,-26.66 598.18,-24.11 637.5,-20 652.76,-18.41 669.57,-16.61 684.13,-15.05"/>
<polygon fill="#63b8ff" stroke="#63b8ff" points="684.7,-18.51 694.27,-13.96 683.95,-11.55 684.7,-18.51"/>
</g>
<!-- Node9&#45;&gt;Node4 -->
<g id="edge12" class="edge">
<title>Node9&#45;&gt;Node4</title>
<path fill="none" stroke="#63b8ff" d="M314.44,-117.42C260.76,-111.08 175.7,-94.7 207.5,-56 230.88,-27.55 336.84,-16.79 395.73,-12.96"/>
<polygon fill="#63b8ff" stroke="#63b8ff" points="396.03,-16.45 405.8,-12.34 395.6,-9.46 396.03,-16.45"/>
</g>
<!-- Node9&#45;&gt;Node5 -->
<g id="edge13" class="edge">
<title>Node9&#45;&gt;Node5</title>
<path fill="none" stroke="#63b8ff" d="M314.22,-112.63C274,-102.5 221.38,-83.34 245.5,-56 256.14,-43.94 480.17,-22.26 568.32,-14.17"/>
<polygon fill="#63b8ff" stroke="#63b8ff" points="568.73,-17.64 578.37,-13.25 568.09,-10.67 568.73,-17.64"/>
</g>
<!-- Node10 -->
<g id="node10" class="node">
<title>Node10</title>
<g id="a_node10"><a xlink:title=" ">
<polygon fill="#e0e0e0" stroke="#999999" points="946.5,-0.5 946.5,-19.5 998.5,-19.5 998.5,-0.5 946.5,-0.5"/>
<text text-anchor="middle" x="972.5" y="-7.5" font-family="Helvetica,sans-Serif" font-size="10.00">sstream</text>
</a>
</g>
</g>
<!-- Node9&#45;&gt;Node10 -->
<g id="edge10" class="edge">
<title>Node9&#45;&gt;Node10</title>
<path fill="none" stroke="#63b8ff" d="M352.05,-112.39C348.66,-98.39 344.51,-70.78 359.5,-56 403.58,-12.55 838.86,-28.69 936.3,-19.53"/>
<polygon fill="#63b8ff" stroke="#63b8ff" points="936.74,-23.01 946.24,-18.32 935.89,-16.06 936.74,-23.01"/>
</g>
<!-- Node11 -->
<g id="node11" class="node">
<title>Node11</title>
<g id="a_node11"><a xlink:title=" ">
<polygon fill="#e0e0e0" stroke="#999999" points="630,-56.5 630,-75.5 671,-75.5 671,-56.5 630,-56.5"/>
<text text-anchor="middle" x="650.5" y="-63.5" font-family="Helvetica,sans-Serif" font-size="10.00">string</text>
</a>
</g>
</g>
<!-- Node9&#45;&gt;Node11 -->
<g id="edge11" class="edge">
<title>Node9&#45;&gt;Node11</title>
<path fill="none" stroke="#63b8ff" d="M394.73,-113.66C454.6,-102.74 565.85,-82.44 619.71,-72.62"/>
<polygon fill="#63b8ff" stroke="#63b8ff" points="620.47,-76.04 629.68,-70.8 619.22,-69.15 620.47,-76.04"/>
</g>
<!-- Node12 -->
<g id="node12" class="node">
<title>Node12</title>
<g id="a_node12"><a xlink:title=" ">
<polygon fill="#e0e0e0" stroke="#999999" points="689.5,-56.5 689.5,-75.5 729.5,-75.5 729.5,-56.5 689.5,-56.5"/>
<text text-anchor="middle" x="709.5" y="-63.5" font-family="Helvetica,sans-Serif" font-size="10.00">utility</text>
</a>
</g>
</g>
<!-- Node9&#45;&gt;Node12 -->
<g id="edge14" class="edge">
<title>Node9&#45;&gt;Node12</title>
<path fill="none" stroke="#63b8ff" d="M394.62,-117.45C456.34,-111.54 578.07,-98.1 679.5,-76 679.6,-75.98 679.7,-75.96 679.8,-75.93"/>
<polygon fill="#63b8ff" stroke="#63b8ff" points="680.45,-79.38 689.28,-73.53 678.72,-72.6 680.45,-79.38"/>
</g>
<!-- Node13 -->
<g id="node13" class="node">
<title>Node13</title>
<g id="a_node13"><a xlink:title=" ">
<polygon fill="#e0e0e0" stroke="#999999" points="791,-0.5 791,-19.5 856,-19.5 856,-0.5 791,-0.5"/>
<text text-anchor="middle" x="823.5" y="-7.5" font-family="Helvetica,sans-Serif" font-size="10.00">ClassInfo.h</text>
</a>
</g>
</g>
<!-- Node9&#45;&gt;Node13 -->
<g id="edge15" class="edge">
<title>Node9&#45;&gt;Node13</title>
<path fill="none" stroke="#63b8ff" d="M343.91,-112.09C329.16,-98.65 305.9,-72.94 321.5,-56 354.43,-20.24 709.18,-25.29 757.5,-20 765.09,-19.17 773.16,-18.17 780.96,-17.14"/>
<polygon fill="#63b8ff" stroke="#63b8ff" points="781.54,-20.59 790.98,-15.78 780.6,-13.66 781.54,-20.59"/>
</g>
<!-- Node14 -->
<g id="node14" class="node">
<title>Node14</title>
<g id="a_node14"><a xlink:href="_c_block_base_8h.html" target="_top" xlink:title="CBlockBase class header.">
<polygon fill="white" stroke="#666666" points="862,-56.5 862,-75.5 941,-75.5 941,-56.5 862,-56.5"/>
<text text-anchor="middle" x="901.5" y="-63.5" font-family="Helvetica,sans-Serif" font-size="10.00">CBlockBase.h</text>
</a>
</g>
</g>
<!-- Node9&#45;&gt;Node14 -->
<g id="edge16" class="edge">
<title>Node9&#45;&gt;Node14</title>
<path fill="none" stroke="#63b8ff" d="M394.72,-117.03C492.86,-107.34 744.37,-82.51 851.72,-71.91"/>
<polygon fill="#63b8ff" stroke="#63b8ff" points="852.35,-75.37 861.96,-70.9 851.66,-68.4 852.35,-75.37"/>
</g>
<!-- Node9&#45;&gt;Node16 -->
<g id="edge25" class="edge">
<title>Node9&#45;&gt;Node16</title>
<path fill="none" stroke="#63b8ff" d="M379.86,-112.45C423,-98.27 513.65,-70.07 592.5,-56 774.76,-23.48 824.9,-50.55 1007.5,-20 1007.6,-19.98 1007.71,-19.97 1007.81,-19.95"/>
<polygon fill="#63b8ff" stroke="#63b8ff" points="1008.53,-23.37 1017.65,-17.98 1007.16,-16.51 1008.53,-23.37"/>
</g>
<!-- Node14&#45;&gt;Node3 -->
<g id="edge18" class="edge">
<title>Node14&#45;&gt;Node3</title>
<path fill="none" stroke="#63b8ff" d="M872.98,-56.44C842.07,-47.17 792.64,-32.34 758.71,-22.16"/>
<polygon fill="#63b8ff" stroke="#63b8ff" points="759.29,-18.68 748.71,-19.16 757.28,-25.39 759.29,-18.68"/>
</g>
<!-- Node14&#45;&gt;Node4 -->
<g id="edge20" class="edge">
<title>Node14&#45;&gt;Node4</title>
<path fill="none" stroke="#63b8ff" d="M861.77,-60.4C773.78,-50.2 563.34,-25.81 475.3,-15.61"/>
<polygon fill="#63b8ff" stroke="#63b8ff" points="475.52,-12.11 465.18,-14.44 474.71,-19.07 475.52,-12.11"/>
</g>
<!-- Node14&#45;&gt;Node5 -->
<g id="edge21" class="edge">
<title>Node14&#45;&gt;Node5</title>
<path fill="none" stroke="#63b8ff" d="M861.93,-57.83C803.47,-47.24 694.94,-27.57 638.95,-17.42"/>
<polygon fill="#63b8ff" stroke="#63b8ff" points="639.27,-13.93 628.81,-15.59 638.02,-20.81 639.27,-13.93"/>
</g>
<!-- Node14&#45;&gt;Node7 -->
<g id="edge23" class="edge">
<title>Node14&#45;&gt;Node7</title>
<path fill="none" stroke="#63b8ff" d="M941.22,-58.54C1004.48,-48.25 1127.53,-28.24 1191.93,-17.76"/>
<polygon fill="#63b8ff" stroke="#63b8ff" points="1192.82,-21.16 1202.12,-16.1 1191.69,-14.25 1192.82,-21.16"/>
</g>
<!-- Node14&#45;&gt;Node10 -->
<g id="edge19" class="edge">
<title>Node14&#45;&gt;Node10</title>
<path fill="none" stroke="#63b8ff" d="M912.91,-56.32C923.61,-48.18 939.84,-35.84 952.66,-26.09"/>
<polygon fill="#63b8ff" stroke="#63b8ff" points="955.04,-28.67 960.89,-19.83 950.81,-23.1 955.04,-28.67"/>
</g>
<!-- Node14&#45;&gt;Node13 -->
<g id="edge22" class="edge">
<title>Node14&#45;&gt;Node13</title>
<path fill="none" stroke="#63b8ff" d="M888.97,-56.32C876.91,-47.98 858.47,-35.21 844.23,-25.35"/>
<polygon fill="#63b8ff" stroke="#63b8ff" points="846.22,-22.47 836,-19.65 842.23,-28.22 846.22,-22.47"/>
</g>
<!-- Node15 -->
<g id="node15" class="node">
<title>Node15</title>
<g id="a_node15"><a xlink:title=" ">
<polygon fill="#e0e0e0" stroke="#999999" points="874.5,-0.5 874.5,-19.5 928.5,-19.5 928.5,-0.5 874.5,-0.5"/>
<text text-anchor="middle" x="901.5" y="-7.5" font-family="Helvetica,sans-Serif" font-size="10.00">compare</text>
</a>
</g>
</g>
<!-- Node14&#45;&gt;Node15 -->
<g id="edge17" class="edge">
<title>Node14&#45;&gt;Node15</title>
<path fill="none" stroke="#63b8ff" d="M901.5,-56.08C901.5,-49.01 901.5,-38.86 901.5,-29.99"/>
<polygon fill="#63b8ff" stroke="#63b8ff" points="905,-29.75 901.5,-19.75 898,-29.75 905,-29.75"/>
</g>
<!-- Node14&#45;&gt;Node16 -->
<g id="edge24" class="edge">
<title>Node14&#45;&gt;Node16</title>
<path fill="none" stroke="#63b8ff" d="M924,-56.44C947.58,-47.48 984.82,-33.31 1011.46,-23.18"/>
<polygon fill="#63b8ff" stroke="#63b8ff" points="1013,-26.34 1021.1,-19.52 1010.51,-19.8 1013,-26.34"/>
</g>
<!-- Node17&#45;&gt;Node3 -->
<g id="edge27" class="edge">
<title>Node17&#45;&gt;Node3</title>
<path fill="none" stroke="#63b8ff" d="M547.8,-112.36C527.14,-99.88 495.24,-76.12 511.5,-56 522.31,-42.62 626.63,-25.15 684.05,-16.44"/>
<polygon fill="#63b8ff" stroke="#63b8ff" points="684.82,-19.86 694.19,-14.92 683.78,-12.94 684.82,-19.86"/>
</g>
<!-- Node17&#45;&gt;Node4 -->
<g id="edge30" class="edge">
<title>Node17&#45;&gt;Node4</title>
<path fill="none" stroke="#63b8ff" d="M530.97,-112.46C510.05,-105.56 483.52,-93.99 465.5,-76 452.6,-63.13 444.64,-43.68 440.19,-29.41"/>
<polygon fill="#63b8ff" stroke="#63b8ff" points="443.53,-28.37 437.44,-19.7 436.79,-30.27 443.53,-28.37"/>
</g>
<!-- Node17&#45;&gt;Node5 -->
<g id="edge31" class="edge">
<title>Node17&#45;&gt;Node5</title>
<path fill="none" stroke="#63b8ff" d="M531.96,-112.5C499.08,-102.01 454.77,-82.3 473.5,-56 494.81,-26.07 537.47,-15.86 568.11,-12.48"/>
<polygon fill="#63b8ff" stroke="#63b8ff" points="568.75,-15.94 578.39,-11.55 568.12,-8.96 568.75,-15.94"/>
</g>
<!-- Node17&#45;&gt;Node10 -->
<g id="edge28" class="edge">
<title>Node17&#45;&gt;Node10</title>
<path fill="none" stroke="#63b8ff" d="M563.94,-112.15C565.16,-97.81 569.82,-69.71 587.5,-56 646.99,-9.85 845.06,-31.97 936.18,-19.77"/>
<polygon fill="#63b8ff" stroke="#63b8ff" points="936.88,-23.21 946.22,-18.21 935.8,-16.29 936.88,-23.21"/>
</g>
<!-- Node17&#45;&gt;Node11 -->
<g id="edge29" class="edge">
<title>Node17&#45;&gt;Node11</title>
<path fill="none" stroke="#63b8ff" d="M577.48,-112.32C591.05,-103.9 611.88,-90.97 627.82,-81.07"/>
<polygon fill="#63b8ff" stroke="#63b8ff" points="629.91,-83.9 636.56,-75.65 626.21,-77.95 629.91,-83.9"/>
</g>
<!-- Node17&#45;&gt;Node12 -->
<g id="edge32" class="edge">
<title>Node17&#45;&gt;Node12</title>
<path fill="none" stroke="#63b8ff" d="M586.63,-112.44C611.84,-103.12 652.24,-88.18 679.78,-77.99"/>
<polygon fill="#63b8ff" stroke="#63b8ff" points="681.13,-81.22 689.3,-74.47 678.7,-74.66 681.13,-81.22"/>
</g>
<!-- Node17&#45;&gt;Node13 -->
<g id="edge33" class="edge">
<title>Node17&#45;&gt;Node13</title>
<path fill="none" stroke="#63b8ff" d="M557.54,-112.31C549,-98.69 535.75,-72.19 549.5,-56 553.23,-51.61 704.32,-28.66 780.5,-17.34"/>
<polygon fill="#63b8ff" stroke="#63b8ff" points="781.35,-20.75 790.73,-15.82 780.33,-13.82 781.35,-20.75"/>
</g>
<!-- Node17&#45;&gt;Node14 -->
<g id="edge34" class="edge">
<title>Node17&#45;&gt;Node14</title>
<path fill="none" stroke="#63b8ff" d="M603.6,-114.59C665.64,-104.68 784.74,-85.65 852.04,-74.9"/>
<polygon fill="#63b8ff" stroke="#63b8ff" points="852.65,-78.35 861.97,-73.31 851.55,-71.44 852.65,-78.35"/>
</g>
<!-- Node17&#45;&gt;Node16 -->
<g id="edge35" class="edge">
<title>Node17&#45;&gt;Node16</title>
<path fill="none" stroke="#63b8ff" d="M568.11,-112.39C576.41,-97.87 595.37,-68.82 620.5,-56 697.43,-16.74 922.36,-34.52 1007.5,-20 1007.6,-19.98 1007.71,-19.96 1007.81,-19.95"/>
<polygon fill="#63b8ff" stroke="#63b8ff" points="1008.53,-23.37 1017.64,-17.96 1007.15,-16.51 1008.53,-23.37"/>
</g>
<!-- Node18&#45;&gt;Node3 -->
<g id="edge37" class="edge">
<title>Node18&#45;&gt;Node3</title>
<path fill="none" stroke="#63b8ff" d="M816.35,-112.14C818.63,-98.77 820.92,-73.15 809.5,-56 797.73,-38.32 776.77,-27.22 758.26,-20.47"/>
<polygon fill="#63b8ff" stroke="#63b8ff" points="759.18,-17.08 748.59,-17.23 756.96,-23.72 759.18,-17.08"/>
</g>
<!-- Node18&#45;&gt;Node4 -->
<g id="edge40" class="edge">
<title>Node18&#45;&gt;Node4</title>
<path fill="none" stroke="#63b8ff" d="M807.15,-112.08C794.69,-97.63 767.89,-69.39 738.5,-56 692.35,-34.98 546.81,-20.3 475.57,-14.19"/>
<polygon fill="#63b8ff" stroke="#63b8ff" points="475.47,-10.66 465.21,-13.31 474.88,-17.64 475.47,-10.66"/>
</g>
<!-- Node18&#45;&gt;Node5 -->
<g id="edge41" class="edge">
<title>Node18&#45;&gt;Node5</title>
<path fill="none" stroke="#63b8ff" d="M811.19,-112.38C805.37,-98.35 791.92,-70.71 771.5,-56 731.8,-27.42 675.07,-16.99 638.76,-13.18"/>
<polygon fill="#63b8ff" stroke="#63b8ff" points="638.92,-9.68 628.64,-12.24 638.27,-16.65 638.92,-9.68"/>
</g>
<!-- Node18&#45;&gt;Node10 -->
<g id="edge38" class="edge">
<title>Node18&#45;&gt;Node10</title>
<path fill="none" stroke="#63b8ff" d="M869.83,-119.13C902.68,-114.93 942.31,-103.86 965.5,-76 976.04,-63.34 976.88,-44.13 975.63,-29.87"/>
<polygon fill="#63b8ff" stroke="#63b8ff" points="979.07,-29.2 974.32,-19.72 972.13,-30.09 979.07,-29.2"/>
</g>
<!-- Node18&#45;&gt;Node11 -->
<g id="edge39" class="edge">
<title>Node18&#45;&gt;Node11</title>
<path fill="none" stroke="#63b8ff" d="M788.51,-112.44C759.3,-102.82 711.92,-87.22 680.98,-77.04"/>
<polygon fill="#63b8ff" stroke="#63b8ff" points="681.77,-73.61 671.17,-73.81 679.58,-80.26 681.77,-73.61"/>
</g>
<!-- Node18&#45;&gt;Node12 -->
<g id="edge42" class="edge">
<title>Node18&#45;&gt;Node12</title>
<path fill="none" stroke="#63b8ff" d="M797.63,-112.32C780.79,-103.66 754.69,-90.24 735.26,-80.25"/>
<polygon fill="#63b8ff" stroke="#63b8ff" points="736.82,-77.12 726.33,-75.65 733.62,-83.34 736.82,-77.12"/>
</g>
<!-- Node18&#45;&gt;Node13 -->
<g id="edge43" class="edge">
<title>Node18&#45;&gt;Node13</title>
<path fill="none" stroke="#63b8ff" d="M869.5,-117.51C898.31,-112.55 931.3,-101.25 949.5,-76 954.7,-68.79 954.62,-63.27 949.5,-56 939.53,-41.85 898.44,-28.92 865.86,-20.59"/>
<polygon fill="#63b8ff" stroke="#63b8ff" points="866.61,-17.17 856.07,-18.15 864.93,-23.96 866.61,-17.17"/>
</g>
<!-- Node18&#45;&gt;Node14 -->
<g id="edge44" class="edge">
<title>Node18&#45;&gt;Node14</title>
<path fill="none" stroke="#63b8ff" d="M828.48,-112.32C842.05,-103.9 862.88,-90.97 878.82,-81.07"/>
<polygon fill="#63b8ff" stroke="#63b8ff" points="880.91,-83.9 887.56,-75.65 877.21,-77.95 880.91,-83.9"/>
</g>
<!-- Node18&#45;&gt;Node16 -->
<g id="edge45" class="edge">
<title>Node18&#45;&gt;Node16</title>
<path fill="none" stroke="#63b8ff" d="M869.71,-114.56C904.6,-108.59 949.54,-97.25 984.5,-76 1004.56,-63.81 1021.84,-42.75 1032.42,-27.92"/>
<polygon fill="#63b8ff" stroke="#63b8ff" points="1035.34,-29.85 1038.11,-19.62 1029.57,-25.89 1035.34,-29.85"/>
</g>
<!-- Node19&#45;&gt;Node3 -->
<g id="edge47" class="edge">
<title>Node19&#45;&gt;Node3</title>
<path fill="none" stroke="#63b8ff" d="M1113.05,-112.13C1127.75,-98.73 1150.94,-73.09 1135.5,-56 1109,-26.66 820.73,-24.93 781.5,-20 774.1,-19.07 766.2,-17.96 758.65,-16.85"/>
<polygon fill="#63b8ff" stroke="#63b8ff" points="759.05,-13.38 748.64,-15.35 758.01,-20.3 759.05,-13.38"/>
</g>
<!-- Node19&#45;&gt;Node4 -->
<g id="edge50" class="edge">
<title>Node19&#45;&gt;Node4</title>
<path fill="none" stroke="#63b8ff" d="M1086.99,-112.46C1059.98,-98.03 1002.14,-69.14 949.5,-56 903.93,-44.63 588.03,-21.69 475.33,-13.76"/>
<polygon fill="#63b8ff" stroke="#63b8ff" points="475.3,-10.25 465.08,-13.05 474.81,-17.24 475.3,-10.25"/>
</g>
<!-- Node19&#45;&gt;Node5 -->
<g id="edge51" class="edge">
<title>Node19&#45;&gt;Node5</title>
<path fill="none" stroke="#63b8ff" d="M1104.9,-112.43C1108.24,-98.5 1112.31,-70.96 1097.5,-56 1065.18,-23.34 731.23,-24.51 685.5,-20 670.13,-18.49 653.16,-16.65 638.67,-15.03"/>
<polygon fill="#63b8ff" stroke="#63b8ff" points="638.94,-11.54 628.61,-13.9 638.15,-18.5 638.94,-11.54"/>
</g>
<!-- Node19&#45;&gt;Node10 -->
<g id="edge48" class="edge">
<title>Node19&#45;&gt;Node10</title>
<path fill="none" stroke="#63b8ff" d="M1143.97,-112.49C1183.76,-102.46 1234.64,-83.61 1211.5,-56 1183.73,-22.88 1067.57,-28.72 1008.74,-19.61"/>
<polygon fill="#63b8ff" stroke="#63b8ff" points="1009.26,-16.15 998.8,-17.8 1008.01,-23.04 1009.26,-16.15"/>
</g>
<!-- Node19&#45;&gt;Node11 -->
<g id="edge49" class="edge">
<title>Node19&#45;&gt;Node11</title>
<path fill="none" stroke="#63b8ff" d="M1053.96,-118.75C976.85,-114.54 821.62,-103.46 681.12,-75.73"/>
<polygon fill="#63b8ff" stroke="#63b8ff" points="681.52,-72.24 671.03,-73.71 680.15,-79.11 681.52,-72.24"/>
</g>
<!-- Node19&#45;&gt;Node12 -->
<g id="edge52" class="edge">
<title>Node19&#45;&gt;Node12</title>
<path fill="none" stroke="#63b8ff" d="M1053.92,-114.32C971.65,-103.02 807.29,-80.44 739.65,-71.14"/>
<polygon fill="#63b8ff" stroke="#63b8ff" points="740.03,-67.66 729.65,-69.77 739.08,-74.6 740.03,-67.66"/>
</g>
<!-- Node19&#45;&gt;Node13 -->
<g id="edge53" class="edge">
<title>Node19&#45;&gt;Node13</title>
<path fill="none" stroke="#63b8ff" d="M1124.7,-112.36C1152.16,-100.46 1193.05,-77.97 1173.5,-56 1129.57,-6.63 949.17,-29.17 866.11,-19.68"/>
<polygon fill="#63b8ff" stroke="#63b8ff" points="866.39,-16.19 856,-18.28 865.43,-23.12 866.39,-16.19"/>
</g>
<!-- Node19&#45;&gt;Node14 -->
<g id="edge54" class="edge">
<title>Node19&#45;&gt;Node14</title>
<path fill="none" stroke="#63b8ff" d="M1070.65,-112.44C1036.1,-103.16 980.82,-88.31 942.92,-78.13"/>
<polygon fill="#63b8ff" stroke="#63b8ff" points="943.77,-74.73 933.2,-75.52 941.95,-81.49 943.77,-74.73"/>
</g>
<!-- Node19&#45;&gt;Node16 -->
<g id="edge55" class="edge">
<title>Node19&#45;&gt;Node16</title>
<path fill="none" stroke="#63b8ff" d="M1151.19,-116.43C1204.66,-109.49 1279.25,-92.95 1249.5,-56 1228.52,-29.94 1132.45,-18.15 1079.24,-13.54"/>
<polygon fill="#63b8ff" stroke="#63b8ff" points="1079.46,-10.05 1069.2,-12.71 1078.88,-17.02 1079.46,-10.05"/>
</g>
</g>
</svg>
        <g id="navigator" transform="translate(0 0)" fill="#404254">
                <rect fill="#f2f5e9" fill-opacity="0.5" stroke="#606060" stroke-width=".5" x="0" y="0" width="60" height="60"/>
                <use id="zoomplus" xlink:href="#zoomPlus" x="17" y="9" onmousedown="handleZoom(evt,'in')"/>
                <use id="zoomminus" xlink:href="#zoomMin" x="42" y="9" onmousedown="handleZoom(evt,'out')"/>
                <use id="reset" xlink:href="#resetDef" x="30" y="36" onmousedown="handleReset()"/>
                <g id="arrowUp" xlink:href="#dirArrow" transform="translate(30 24)" onmousedown="handlePan(0,-1)">
                  <use xlink:href="#rim" fill="#404040">
                        <set attributeName="fill" to="#808080" begin="arrowUp.mouseover" end="arrowUp.mouseout"/>
                  </use>
                  <path fill="none" stroke="white" stroke-width="1.5" d="M0,-3.0v7 M-2.5,-0.5L0,-3.0L2.5,-0.5"/>
                </g>
                <g id="arrowRight" xlink:href="#dirArrow" transform="rotate(90) translate(36 -43)" onmousedown="handlePan(1,0)">
                  <use xlink:href="#rim" fill="#404040">
                        <set attributeName="fill" to="#808080" begin="arrowRight.mouseover" end="arrowRight.mouseout"/>
                  </use>
                  <path fill="none" stroke="white" stroke-width="1.5" d="M0,-3.0v7 M-2.5,-0.5L0,-3.0L2.5,-0.5"/>
                </g>
                <g id="arrowDown" xlink:href="#dirArrow" transform="rotate(180) translate(-30 -48)" onmousedown="handlePan(0,1)">
                  <use xlink:href="#rim" fill="#404040">
                        <set attributeName="fill" to="#808080" begin="arrowDown.mouseover" end="arrowDown.mouseout"/>
                  </use>
                  <path fill="none" stroke="white" stroke-width="1.5" d="M0,-3.0v7 M-2.5,-0.5L0,-3.0L2.5,-0.5"/>
                </g>
                <g id="arrowLeft" xlink:href="#dirArrow" transform="rotate(270) translate(-36 17)" onmousedown="handlePan(-1,0)">
                  <use xlink:href="#rim" fill="#404040">
                        <set attributeName="fill" to="#808080" begin="arrowLeft.mouseover" end="arrowLeft.mouseout"/>
                  </use>
                  <path fill="none" stroke="white" stroke-width="1.5" d="M0,-3.0v7 M-2.5,-0.5L0,-3.0L2.5,-0.5"/>
                </g>
        </g>
        <svg viewBox="0 0 15 15" width="100%" height="30px" preserveAspectRatio="xMaxYMin meet">
         <g id="arrow_out" transform="scale(0.3 0.3)">
          <a xlink:href="main_8cpp__incl_org.svg" target="_base">
           <rect id="button" ry="5" rx="5" y="6" x="6" height="38" width="38"
                fill="#f2f5e9" fill-opacity="0.5" stroke="#606060" stroke-width="1.0"/>
           <path id="arrow"
             d="M 11.500037,31.436501 C 11.940474,20.09759 22.043105,11.32322 32.158766,21.979434 L 37.068811,17.246167 C 37.068811,17.246167 37.088388,32 37.088388,32 L 22.160133,31.978069 C 22.160133,31.978069 26.997745,27.140456 26.997745,27.140456 C 18.528582,18.264221 13.291696,25.230495 11.500037,31.436501 z"
             style="fill:#404040;"/>
          </a>
         </g>
        </svg>
</svg>
