<?xml version="1.0" encoding="UTF-8" standalone="no"?>
<!DOCTYPE svg PUBLIC "-//W3C//DTD SVG 1.1//EN"
 "http://www.w3.org/Graphics/SVG/1.1/DTD/svg11.dtd">
<!-- Generated by graphviz version 6.0.2 (20221011.1828)
 -->
<!-- Title: CBlock.h Pages: 1 -->
<svg width="990pt" height="196pt"
 viewBox="0.00 0.00 990.27 196.00" xmlns="http://www.w3.org/2000/svg" xmlns:xlink="http://www.w3.org/1999/xlink">
<g id="graph0" class="graph" transform="scale(1 1) rotate(0) translate(4 192)">
<title>CBlock.h</title>
<!-- Node1 -->
<g id="node1" class="node">
<title>Node1</title>
<g id="a_node1"><a xlink:title="General header for CBlock.">
<polygon fill="#999999" stroke="#666666" points="388.77,-168.5 388.77,-187.5 444.77,-187.5 444.77,-168.5 388.77,-168.5"/>
<text text-anchor="middle" x="416.77" y="-175.5" font-family="Helvetica,sans-Serif" font-size="10.00">CBlock.h</text>
</a>
</g>
</g>
<!-- Node2 -->
<g id="node2" class="node">
<title>Node2</title>
<g id="a_node2"><a xlink:href="_c_block__bool_8h.html" target="_top" xlink:title="CBlock_bool class header.">
<polygon fill="white" stroke="#666666" points="225.77,-112.5 225.77,-131.5 305.77,-131.5 305.77,-112.5 225.77,-112.5"/>
<text text-anchor="middle" x="265.77" y="-119.5" font-family="Helvetica,sans-Serif" font-size="10.00">CBlock_bool.h</text>
</a>
</g>
</g>
<!-- Node1&#45;&gt;Node2 -->
<g id="edge1" class="edge">
<title>Node1&#45;&gt;Node2</title>
<path fill="none" stroke="#63b8ff" d="M392.84,-168.44C367.55,-159.4 327.46,-145.06 299.09,-134.92"/>
<polygon fill="#63b8ff" stroke="#63b8ff" points="300.17,-131.59 289.58,-131.52 297.82,-138.18 300.17,-131.59"/>
</g>
<!-- Node14 -->
<g id="node14" class="node">
<title>Node14</title>
<g id="a_node14"><a xlink:href="_c_block__long_8h.html" target="_top" xlink:title="CBlock_long class header.">
<polygon fill="white" stroke="#666666" points="323.77,-112.5 323.77,-131.5 403.77,-131.5 403.77,-112.5 323.77,-112.5"/>
<text text-anchor="middle" x="363.77" y="-119.5" font-family="Helvetica,sans-Serif" font-size="10.00">CBlock_long.h</text>
</a>
</g>
</g>
<!-- Node1&#45;&gt;Node14 -->
<g id="edge19" class="edge">
<title>Node1&#45;&gt;Node14</title>
<path fill="none" stroke="#63b8ff" d="M408.01,-168.08C400.3,-160.22 388.86,-148.57 379.55,-139.08"/>
<polygon fill="#63b8ff" stroke="#63b8ff" points="381.86,-136.44 372.35,-131.75 376.86,-141.34 381.86,-136.44"/>
</g>
<!-- Node15 -->
<g id="node15" class="node">
<title>Node15</title>
<g id="a_node15"><a xlink:href="_c_block___t_week_day_8h.html" target="_top" xlink:title="CBlock_TWeekDay class header.">
<polygon fill="white" stroke="#666666" points="537.77,-112.5 537.77,-131.5 647.77,-131.5 647.77,-112.5 537.77,-112.5"/>
<text text-anchor="middle" x="592.77" y="-119.5" font-family="Helvetica,sans-Serif" font-size="10.00">CBlock_TWeekDay.h</text>
</a>
</g>
</g>
<!-- Node1&#45;&gt;Node15 -->
<g id="edge29" class="edge">
<title>Node1&#45;&gt;Node15</title>
<path fill="none" stroke="#63b8ff" d="M444.65,-168.44C474.52,-159.28 522.08,-144.69 555.22,-134.52"/>
<polygon fill="#63b8ff" stroke="#63b8ff" points="556.47,-137.8 565.01,-131.52 554.42,-131.1 556.47,-137.8"/>
</g>
<!-- Node16 -->
<g id="node16" class="node">
<title>Node16</title>
<g id="a_node16"><a xlink:href="_c_block___t_interval_8h.html" target="_top" xlink:title="CBlock_TInterval class header.">
<polygon fill="white" stroke="#666666" points="422.27,-112.5 422.27,-131.5 519.27,-131.5 519.27,-112.5 422.27,-112.5"/>
<text text-anchor="middle" x="470.77" y="-119.5" font-family="Helvetica,sans-Serif" font-size="10.00">CBlock_TInterval.h</text>
</a>
</g>
</g>
<!-- Node1&#45;&gt;Node16 -->
<g id="edge39" class="edge">
<title>Node1&#45;&gt;Node16</title>
<path fill="none" stroke="#63b8ff" d="M425.68,-168.08C433.55,-160.22 445.2,-148.57 454.68,-139.08"/>
<polygon fill="#63b8ff" stroke="#63b8ff" points="457.42,-141.3 462.01,-131.75 452.47,-136.35 457.42,-141.3"/>
</g>
<!-- Node3 -->
<g id="node3" class="node">
<title>Node3</title>
<g id="a_node3"><a xlink:title=" ">
<polygon fill="#e0e0e0" stroke="#999999" points="441.77,-0.5 441.77,-19.5 495.77,-19.5 495.77,-0.5 441.77,-0.5"/>
<text text-anchor="middle" x="468.77" y="-7.5" font-family="Helvetica,sans-Serif" font-size="10.00">iostream</text>
</a>
</g>
</g>
<!-- Node2&#45;&gt;Node3 -->
<g id="edge2" class="edge">
<title>Node2&#45;&gt;Node3</title>
<path fill="none" stroke="#63b8ff" d="M243.68,-112.46C216.34,-100.66 175.59,-78.3 194.77,-56 227.87,-17.51 365.31,-29.11 431.69,-19.75"/>
<polygon fill="#63b8ff" stroke="#63b8ff" points="432.42,-23.18 441.7,-18.06 431.26,-16.27 432.42,-23.18"/>
</g>
<!-- Node4 -->
<g id="node4" class="node">
<title>Node4</title>
<g id="a_node4"><a xlink:title=" ">
<polygon fill="#e0e0e0" stroke="#999999" points="371.77,-0.5 371.77,-19.5 423.77,-19.5 423.77,-0.5 371.77,-0.5"/>
<text text-anchor="middle" x="397.77" y="-7.5" font-family="Helvetica,sans-Serif" font-size="10.00">sstream</text>
</a>
</g>
</g>
<!-- Node2&#45;&gt;Node4 -->
<g id="edge3" class="edge">
<title>Node2&#45;&gt;Node4</title>
<path fill="none" stroke="#63b8ff" d="M225.53,-117.27C171.63,-110.75 86.29,-94.13 118.77,-56 149.49,-19.92 292.7,-12.67 361.15,-11.28"/>
<polygon fill="#63b8ff" stroke="#63b8ff" points="361.52,-14.78 371.46,-11.11 361.4,-7.78 361.52,-14.78"/>
</g>
<!-- Node5 -->
<g id="node5" class="node">
<title>Node5</title>
<g id="a_node5"><a xlink:title=" ">
<polygon fill="#e0e0e0" stroke="#999999" points="333.27,-56.5 333.27,-75.5 374.27,-75.5 374.27,-56.5 333.27,-56.5"/>
<text text-anchor="middle" x="353.77" y="-63.5" font-family="Helvetica,sans-Serif" font-size="10.00">string</text>
</a>
</g>
</g>
<!-- Node2&#45;&gt;Node5 -->
<g id="edge4" class="edge">
<title>Node2&#45;&gt;Node5</title>
<path fill="none" stroke="#63b8ff" d="M279.9,-112.32C293.63,-103.9 314.7,-90.97 330.83,-81.07"/>
<polygon fill="#63b8ff" stroke="#63b8ff" points="332.97,-83.87 339.66,-75.65 329.31,-77.9 332.97,-83.87"/>
</g>
<!-- Node6 -->
<g id="node6" class="node">
<title>Node6</title>
<g id="a_node6"><a xlink:title=" ">
<polygon fill="#e0e0e0" stroke="#999999" points="27.27,-0.5 27.27,-19.5 86.27,-19.5 86.27,-0.5 27.27,-0.5"/>
<text text-anchor="middle" x="56.77" y="-7.5" font-family="Helvetica,sans-Serif" font-size="10.00">stdexcept</text>
</a>
</g>
</g>
<!-- Node2&#45;&gt;Node6 -->
<g id="edge5" class="edge">
<title>Node2&#45;&gt;Node6</title>
<path fill="none" stroke="#63b8ff" d="M225.67,-120.14C159.64,-117.78 32.54,-108.97 4.77,-76 -9.83,-58.67 12.96,-38.18 32.81,-24.91"/>
<polygon fill="#63b8ff" stroke="#63b8ff" points="34.74,-27.84 41.31,-19.52 30.99,-21.92 34.74,-27.84"/>
</g>
<!-- Node7 -->
<g id="node7" class="node">
<title>Node7</title>
<g id="a_node7"><a xlink:title=" ">
<polygon fill="#e0e0e0" stroke="#999999" points="665.77,-0.5 665.77,-19.5 715.77,-19.5 715.77,-0.5 665.77,-0.5"/>
<text text-anchor="middle" x="690.77" y="-7.5" font-family="Helvetica,sans-Serif" font-size="10.00">typeinfo</text>
</a>
</g>
</g>
<!-- Node2&#45;&gt;Node7 -->
<g id="edge6" class="edge">
<title>Node2&#45;&gt;Node7</title>
<path fill="none" stroke="#63b8ff" d="M262.44,-112.11C257.89,-98.21 251.77,-71.34 265.77,-56 293.62,-25.47 581,-27.3 655.28,-19.55"/>
<polygon fill="#63b8ff" stroke="#63b8ff" points="656.17,-22.96 665.62,-18.16 655.24,-16.02 656.17,-22.96"/>
</g>
<!-- Node8 -->
<g id="node8" class="node">
<title>Node8</title>
<g id="a_node8"><a xlink:title=" ">
<polygon fill="#e0e0e0" stroke="#999999" points="274.77,-56.5 274.77,-75.5 314.77,-75.5 314.77,-56.5 274.77,-56.5"/>
<text text-anchor="middle" x="294.77" y="-63.5" font-family="Helvetica,sans-Serif" font-size="10.00">utility</text>
</a>
</g>
</g>
<!-- Node2&#45;&gt;Node8 -->
<g id="edge7" class="edge">
<title>Node2&#45;&gt;Node8</title>
<path fill="none" stroke="#63b8ff" d="M270.55,-112.08C274.52,-104.69 280.29,-93.95 285.2,-84.81"/>
<polygon fill="#63b8ff" stroke="#63b8ff" points="288.42,-86.22 290.07,-75.75 282.25,-82.91 288.42,-86.22"/>
</g>
<!-- Node9 -->
<g id="node9" class="node">
<title>Node9</title>
<g id="a_node9"><a xlink:title=" ">
<polygon fill="#e0e0e0" stroke="#999999" points="772.27,-0.5 772.27,-19.5 837.27,-19.5 837.27,-0.5 772.27,-0.5"/>
<text text-anchor="middle" x="804.77" y="-7.5" font-family="Helvetica,sans-Serif" font-size="10.00">ClassInfo.h</text>
</a>
</g>
</g>
<!-- Node2&#45;&gt;Node9 -->
<g id="edge8" class="edge">
<title>Node2&#45;&gt;Node9</title>
<path fill="none" stroke="#63b8ff" d="M305.84,-113.41C308.86,-112.91 311.86,-112.43 314.77,-112 455.46,-91.14 494.51,-109.4 632.77,-76 685.58,-63.24 744.19,-38.72 777.55,-23.71"/>
<polygon fill="#63b8ff" stroke="#63b8ff" points="779.01,-26.89 786.66,-19.57 776.11,-20.52 779.01,-26.89"/>
</g>
<!-- Node10 -->
<g id="node10" class="node">
<title>Node10</title>
<g id="a_node10"><a xlink:href="_c_block_base_8h.html" target="_top" xlink:title="CBlockBase class header.">
<polygon fill="white" stroke="#666666" points="545.27,-56.5 545.27,-75.5 624.27,-75.5 624.27,-56.5 545.27,-56.5"/>
<text text-anchor="middle" x="584.77" y="-63.5" font-family="Helvetica,sans-Serif" font-size="10.00">CBlockBase.h</text>
</a>
</g>
</g>
<!-- Node2&#45;&gt;Node10 -->
<g id="edge9" class="edge">
<title>Node2&#45;&gt;Node10</title>
<path fill="none" stroke="#63b8ff" d="M305.87,-113.58C308.88,-113.04 311.87,-112.51 314.77,-112 391.5,-98.56 480.68,-83.88 534.9,-75.06"/>
<polygon fill="#63b8ff" stroke="#63b8ff" points="535.62,-78.49 544.93,-73.43 534.5,-71.58 535.62,-78.49"/>
</g>
<!-- Node13 -->
<g id="node13" class="node">
<title>Node13</title>
<g id="a_node13"><a xlink:title=" ">
<polygon fill="#e0e0e0" stroke="#999999" points="931.27,-0.5 931.27,-19.5 982.27,-19.5 982.27,-0.5 931.27,-0.5"/>
<text text-anchor="middle" x="956.77" y="-7.5" font-family="Helvetica,sans-Serif" font-size="10.00">check.h</text>
</a>
</g>
</g>
<!-- Node2&#45;&gt;Node13 -->
<g id="edge18" class="edge">
<title>Node2&#45;&gt;Node13</title>
<path fill="none" stroke="#63b8ff" d="M305.83,-113.36C308.85,-112.87 311.85,-112.41 314.77,-112 475.74,-89.3 518.38,-102.56 678.77,-76 766.78,-61.42 868.47,-35.21 921.08,-20.93"/>
<polygon fill="#63b8ff" stroke="#63b8ff" points="922.21,-24.25 930.93,-18.24 920.36,-17.5 922.21,-24.25"/>
</g>
<!-- Node10&#45;&gt;Node3 -->
<g id="edge11" class="edge">
<title>Node10&#45;&gt;Node3</title>
<path fill="none" stroke="#63b8ff" d="M566.38,-56.44C547.55,-47.68 518.03,-33.94 496.39,-23.86"/>
<polygon fill="#63b8ff" stroke="#63b8ff" points="497.6,-20.56 487.06,-19.52 494.65,-26.91 497.6,-20.56"/>
</g>
<!-- Node10&#45;&gt;Node4 -->
<g id="edge12" class="edge">
<title>Node10&#45;&gt;Node4</title>
<path fill="none" stroke="#63b8ff" d="M555.13,-56.44C522.23,-46.94 469.12,-31.61 433.83,-21.41"/>
<polygon fill="#63b8ff" stroke="#63b8ff" points="434.52,-17.97 423.94,-18.56 432.57,-24.7 434.52,-17.97"/>
</g>
<!-- Node10&#45;&gt;Node6 -->
<g id="edge13" class="edge">
<title>Node10&#45;&gt;Node6</title>
<path fill="none" stroke="#63b8ff" d="M545.08,-60.94C447.08,-50.92 194.49,-25.09 96.47,-15.06"/>
<polygon fill="#63b8ff" stroke="#63b8ff" points="96.69,-11.57 86.39,-14.03 95.98,-18.53 96.69,-11.57"/>
</g>
<!-- Node10&#45;&gt;Node7 -->
<g id="edge14" class="edge">
<title>Node10&#45;&gt;Node7</title>
<path fill="none" stroke="#63b8ff" d="M601.8,-56.32C618.79,-47.66 645.14,-34.24 664.76,-24.25"/>
<polygon fill="#63b8ff" stroke="#63b8ff" points="666.46,-27.31 673.78,-19.65 663.28,-21.08 666.46,-27.31"/>
</g>
<!-- Node10&#45;&gt;Node9 -->
<g id="edge15" class="edge">
<title>Node10&#45;&gt;Node9</title>
<path fill="none" stroke="#63b8ff" d="M619.62,-56.44C658.35,-46.94 720.88,-31.59 762.4,-21.4"/>
<polygon fill="#63b8ff" stroke="#63b8ff" points="763.34,-24.77 772.22,-18.99 761.67,-17.97 763.34,-24.77"/>
</g>
<!-- Node11 -->
<g id="node11" class="node">
<title>Node11</title>
<g id="a_node11"><a xlink:title=" ">
<polygon fill="#e0e0e0" stroke="#999999" points="513.77,-0.5 513.77,-19.5 567.77,-19.5 567.77,-0.5 513.77,-0.5"/>
<text text-anchor="middle" x="540.77" y="-7.5" font-family="Helvetica,sans-Serif" font-size="10.00">compare</text>
</a>
</g>
</g>
<!-- Node10&#45;&gt;Node11 -->
<g id="edge10" class="edge">
<title>Node10&#45;&gt;Node11</title>
<path fill="none" stroke="#63b8ff" d="M577.5,-56.08C571.22,-48.38 561.98,-37.03 554.33,-27.65"/>
<polygon fill="#63b8ff" stroke="#63b8ff" points="556.93,-25.29 547.9,-19.75 551.5,-29.71 556.93,-25.29"/>
</g>
<!-- Node12 -->
<g id="node12" class="node">
<title>Node12</title>
<g id="a_node12"><a xlink:title=" ">
<polygon fill="#e0e0e0" stroke="#999999" points="585.77,-0.5 585.77,-19.5 647.77,-19.5 647.77,-0.5 585.77,-0.5"/>
<text text-anchor="middle" x="616.77" y="-7.5" font-family="Helvetica,sans-Serif" font-size="10.00">demagle.h</text>
</a>
</g>
</g>
<!-- Node10&#45;&gt;Node12 -->
<g id="edge16" class="edge">
<title>Node10&#45;&gt;Node12</title>
<path fill="none" stroke="#63b8ff" d="M590.05,-56.08C594.48,-48.61 600.93,-37.72 606.38,-28.52"/>
<polygon fill="#63b8ff" stroke="#63b8ff" points="609.49,-30.14 611.58,-19.75 603.47,-26.57 609.49,-30.14"/>
</g>
<!-- Node10&#45;&gt;Node13 -->
<g id="edge17" class="edge">
<title>Node10&#45;&gt;Node13</title>
<path fill="none" stroke="#63b8ff" d="M624.58,-59.22C697.49,-48.64 851.38,-26.3 921.1,-16.18"/>
<polygon fill="#63b8ff" stroke="#63b8ff" points="921.76,-19.62 931.15,-14.72 920.75,-12.69 921.76,-19.62"/>
</g>
<!-- Node14&#45;&gt;Node3 -->
<g id="edge20" class="edge">
<title>Node14&#45;&gt;Node3</title>
<path fill="none" stroke="#63b8ff" d="M328.38,-112.42C292.29,-101.99 244.41,-82.45 265.77,-56 311.51,0.65 355.09,-34.07 431.65,-19.97"/>
<polygon fill="#63b8ff" stroke="#63b8ff" points="432.59,-23.35 441.66,-17.88 431.16,-16.49 432.59,-23.35"/>
</g>
<!-- Node14&#45;&gt;Node4 -->
<g id="edge21" class="edge">
<title>Node14&#45;&gt;Node4</title>
<path fill="none" stroke="#63b8ff" d="M323.74,-112.6C289.33,-104.47 243.59,-91.17 232.77,-76 227.6,-68.77 227.37,-63.06 232.77,-56 248.32,-35.63 317.95,-22.27 361.64,-15.73"/>
<polygon fill="#63b8ff" stroke="#63b8ff" points="362.21,-19.18 371.6,-14.28 361.2,-12.25 362.21,-19.18"/>
</g>
<!-- Node14&#45;&gt;Node5 -->
<g id="edge22" class="edge">
<title>Node14&#45;&gt;Node5</title>
<path fill="none" stroke="#63b8ff" d="M362.11,-112.08C360.79,-104.93 358.88,-94.64 357.23,-85.69"/>
<polygon fill="#63b8ff" stroke="#63b8ff" points="360.65,-84.95 355.39,-75.75 353.77,-86.22 360.65,-84.95"/>
</g>
<!-- Node14&#45;&gt;Node6 -->
<g id="edge23" class="edge">
<title>Node14&#45;&gt;Node6</title>
<path fill="none" stroke="#63b8ff" d="M323.68,-113.47C320.67,-112.95 317.67,-112.46 314.77,-112 254.54,-102.49 82.95,-121.85 42.77,-76 31.39,-63.02 38.08,-43.03 45.61,-28.65"/>
<polygon fill="#63b8ff" stroke="#63b8ff" points="48.78,-30.15 50.74,-19.74 42.72,-26.66 48.78,-30.15"/>
</g>
<!-- Node14&#45;&gt;Node7 -->
<g id="edge24" class="edge">
<title>Node14&#45;&gt;Node7</title>
<path fill="none" stroke="#63b8ff" d="M403.87,-113.57C406.88,-113.03 409.87,-112.5 412.77,-112 510.38,-95.05 545.92,-123.69 632.77,-76 653.18,-64.79 670.03,-43.53 680.21,-28.38"/>
<polygon fill="#63b8ff" stroke="#63b8ff" points="683.21,-30.19 685.66,-19.88 677.31,-26.41 683.21,-30.19"/>
</g>
<!-- Node14&#45;&gt;Node8 -->
<g id="edge25" class="edge">
<title>Node14&#45;&gt;Node8</title>
<path fill="none" stroke="#63b8ff" d="M352.68,-112.32C342.28,-104.18 326.5,-91.84 314.04,-82.09"/>
<polygon fill="#63b8ff" stroke="#63b8ff" points="316.09,-79.24 306.05,-75.83 311.77,-84.75 316.09,-79.24"/>
</g>
<!-- Node14&#45;&gt;Node9 -->
<g id="edge26" class="edge">
<title>Node14&#45;&gt;Node9</title>
<path fill="none" stroke="#63b8ff" d="M403.83,-113.36C406.85,-112.87 409.85,-112.41 412.77,-112 494.13,-100.57 715.72,-126.2 780.77,-76 794.88,-65.11 800.7,-45.04 803.09,-30.07"/>
<polygon fill="#63b8ff" stroke="#63b8ff" points="806.6,-30.21 804.34,-19.86 799.65,-29.36 806.6,-30.21"/>
</g>
<!-- Node14&#45;&gt;Node10 -->
<g id="edge27" class="edge">
<title>Node14&#45;&gt;Node10</title>
<path fill="none" stroke="#63b8ff" d="M398.78,-112.44C437.01,-103.1 498.33,-88.12 540.02,-77.93"/>
<polygon fill="#63b8ff" stroke="#63b8ff" points="541.03,-81.29 549.91,-75.52 539.37,-74.49 541.03,-81.29"/>
</g>
<!-- Node14&#45;&gt;Node13 -->
<g id="edge28" class="edge">
<title>Node14&#45;&gt;Node13</title>
<path fill="none" stroke="#63b8ff" d="M403.82,-113.26C406.84,-112.8 409.85,-112.37 412.77,-112 470.23,-104.76 886.42,-110.73 932.77,-76 947.03,-65.31 952.82,-45.21 955.17,-30.18"/>
<polygon fill="#63b8ff" stroke="#63b8ff" points="958.69,-30.25 956.38,-19.91 951.74,-29.44 958.69,-30.25"/>
</g>
<!-- Node15&#45;&gt;Node3 -->
<g id="edge30" class="edge">
<title>Node15&#45;&gt;Node3</title>
<path fill="none" stroke="#63b8ff" d="M604.8,-112.44C621.29,-99.67 647.31,-75.07 632.77,-56 630.79,-53.4 553.22,-32.9 505.48,-20.49"/>
<polygon fill="#63b8ff" stroke="#63b8ff" points="506.34,-17.1 495.79,-17.97 504.59,-23.87 506.34,-17.1"/>
</g>
<!-- Node15&#45;&gt;Node4 -->
<g id="edge31" class="edge">
<title>Node15&#45;&gt;Node4</title>
<path fill="none" stroke="#63b8ff" d="M577.46,-112.37C543.65,-93.29 462.33,-47.42 421.71,-24.51"/>
<polygon fill="#63b8ff" stroke="#63b8ff" points="423.42,-21.46 413,-19.59 419.99,-27.55 423.42,-21.46"/>
</g>
<!-- Node15&#45;&gt;Node5 -->
<g id="edge32" class="edge">
<title>Node15&#45;&gt;Node5</title>
<path fill="none" stroke="#63b8ff" d="M554.89,-112.44C507.71,-101.78 428.02,-83.78 384.46,-73.93"/>
<polygon fill="#63b8ff" stroke="#63b8ff" points="384.98,-70.46 374.46,-71.67 383.44,-77.29 384.98,-70.46"/>
</g>
<!-- Node15&#45;&gt;Node6 -->
<g id="edge33" class="edge">
<title>Node15&#45;&gt;Node6</title>
<path fill="none" stroke="#63b8ff" d="M569.48,-112.42C531.09,-98.59 451.88,-71.36 382.77,-56 280.75,-33.33 158.08,-20.08 96.36,-14.37"/>
<polygon fill="#63b8ff" stroke="#63b8ff" points="96.55,-10.87 86.27,-13.45 95.91,-17.84 96.55,-10.87"/>
</g>
<!-- Node15&#45;&gt;Node7 -->
<g id="edge34" class="edge">
<title>Node15&#45;&gt;Node7</title>
<path fill="none" stroke="#63b8ff" d="M648.05,-119.95C681.24,-116.11 721.1,-105.12 742.77,-76 756.08,-58.1 734.43,-38.16 715.14,-25.14"/>
<polygon fill="#63b8ff" stroke="#63b8ff" points="716.9,-22.1 706.58,-19.68 713.13,-28.01 716.9,-22.1"/>
</g>
<!-- Node15&#45;&gt;Node8 -->
<g id="edge35" class="edge">
<title>Node15&#45;&gt;Node8</title>
<path fill="none" stroke="#63b8ff" d="M537.68,-112.69C475.35,-103.13 376.7,-87.52 324.7,-75.91"/>
<polygon fill="#63b8ff" stroke="#63b8ff" points="325.48,-72.5 314.95,-73.65 323.9,-79.32 325.48,-72.5"/>
</g>
<!-- Node15&#45;&gt;Node9 -->
<g id="edge36" class="edge">
<title>Node15&#45;&gt;Node9</title>
<path fill="none" stroke="#63b8ff" d="M647.99,-115.88C682.67,-110.43 726.88,-99.19 759.77,-76 776.72,-64.05 789.34,-43.55 796.83,-28.77"/>
<polygon fill="#63b8ff" stroke="#63b8ff" points="800.05,-30.15 801.19,-19.62 793.73,-27.14 800.05,-30.15"/>
</g>
<!-- Node15&#45;&gt;Node10 -->
<g id="edge37" class="edge">
<title>Node15&#45;&gt;Node10</title>
<path fill="none" stroke="#63b8ff" d="M591.44,-112.08C590.38,-104.93 588.86,-94.64 587.53,-85.69"/>
<polygon fill="#63b8ff" stroke="#63b8ff" points="590.99,-85.13 586.06,-75.75 584.06,-86.16 590.99,-85.13"/>
</g>
<!-- Node15&#45;&gt;Node13 -->
<g id="edge38" class="edge">
<title>Node15&#45;&gt;Node13</title>
<path fill="none" stroke="#63b8ff" d="M636.04,-112.46C675.03,-104.37 733.74,-91.22 783.77,-76 835.03,-60.4 893.04,-37.49 927.17,-23.45"/>
<polygon fill="#63b8ff" stroke="#63b8ff" points="928.65,-26.62 936.55,-19.56 925.97,-20.15 928.65,-26.62"/>
</g>
<!-- Node16&#45;&gt;Node3 -->
<g id="edge40" class="edge">
<title>Node16&#45;&gt;Node3</title>
<path fill="none" stroke="#63b8ff" d="M470.61,-112.37C470.29,-94.62 469.54,-53.67 469.1,-29.6"/>
<polygon fill="#63b8ff" stroke="#63b8ff" points="472.6,-29.53 468.92,-19.59 465.6,-29.65 472.6,-29.53"/>
</g>
<!-- Node16&#45;&gt;Node4 -->
<g id="edge41" class="edge">
<title>Node16&#45;&gt;Node4</title>
<path fill="none" stroke="#63b8ff" d="M465.04,-112.37C452.99,-94.22 424.84,-51.8 409.04,-27.99"/>
<polygon fill="#63b8ff" stroke="#63b8ff" points="411.91,-25.99 403.47,-19.59 406.08,-29.86 411.91,-25.99"/>
</g>
<!-- Node16&#45;&gt;Node5 -->
<g id="edge42" class="edge">
<title>Node16&#45;&gt;Node5</title>
<path fill="none" stroke="#63b8ff" d="M452.23,-112.44C433.14,-103.64 403.19,-89.81 381.33,-79.72"/>
<polygon fill="#63b8ff" stroke="#63b8ff" points="382.76,-76.53 372.22,-75.52 379.83,-82.88 382.76,-76.53"/>
</g>
<!-- Node16&#45;&gt;Node6 -->
<g id="edge43" class="edge">
<title>Node16&#45;&gt;Node6</title>
<path fill="none" stroke="#63b8ff" d="M426.52,-112.42C384.82,-104.08 320.71,-90.55 265.77,-76 203.66,-59.56 132.44,-36.49 91.22,-22.71"/>
<polygon fill="#63b8ff" stroke="#63b8ff" points="92.25,-19.36 81.66,-19.5 90.03,-26 92.25,-19.36"/>
</g>
<!-- Node16&#45;&gt;Node7 -->
<g id="edge44" class="edge">
<title>Node16&#45;&gt;Node7</title>
<path fill="none" stroke="#63b8ff" d="M518.49,-112.49C572.85,-102.43 655.62,-85.8 666.77,-76 680.15,-64.22 686.08,-44.3 688.7,-29.6"/>
<polygon fill="#63b8ff" stroke="#63b8ff" points="692.18,-30 690.13,-19.61 685.25,-29.01 692.18,-30"/>
</g>
<!-- Node16&#45;&gt;Node8 -->
<g id="edge45" class="edge">
<title>Node16&#45;&gt;Node8</title>
<path fill="none" stroke="#63b8ff" d="M442.85,-112.49C415.18,-104.05 371.33,-90.65 324.71,-76.28"/>
<polygon fill="#63b8ff" stroke="#63b8ff" points="325.63,-72.9 315.04,-73.3 323.57,-79.59 325.63,-72.9"/>
</g>
<!-- Node16&#45;&gt;Node9 -->
<g id="edge46" class="edge">
<title>Node16&#45;&gt;Node9</title>
<path fill="none" stroke="#63b8ff" d="M519.48,-113.33C522.62,-112.87 525.74,-112.42 528.77,-112 593.08,-103.02 775.77,-124.67 818.77,-76 830.19,-63.07 823.5,-43.07 815.95,-28.67"/>
<polygon fill="#63b8ff" stroke="#63b8ff" points="818.83,-26.67 810.8,-19.76 812.77,-30.17 818.83,-26.67"/>
</g>
<!-- Node16&#45;&gt;Node10 -->
<g id="edge47" class="edge">
<title>Node16&#45;&gt;Node10</title>
<path fill="none" stroke="#63b8ff" d="M488.83,-112.44C507.34,-103.68 536.35,-89.94 557.62,-79.86"/>
<polygon fill="#63b8ff" stroke="#63b8ff" points="559.25,-82.96 566.79,-75.52 556.25,-76.63 559.25,-82.96"/>
</g>
<!-- Node16&#45;&gt;Node13 -->
<g id="edge48" class="edge">
<title>Node16&#45;&gt;Node13</title>
<path fill="none" stroke="#63b8ff" d="M519.46,-113.18C522.61,-112.76 525.73,-112.36 528.77,-112 577.7,-106.22 937.37,-112.23 970.77,-76 982.46,-63.31 975.72,-43.28 968.09,-28.8"/>
<polygon fill="#63b8ff" stroke="#63b8ff" points="970.93,-26.72 962.88,-19.83 964.88,-30.23 970.93,-26.72"/>
</g>
</g>
</svg>
