<?xml version="1.0" encoding="UTF-8" standalone="no"?>
<!DOCTYPE svg PUBLIC "-//W3C//DTD SVG 1.1//EN"
 "http://www.w3.org/Graphics/SVG/1.1/DTD/svg11.dtd">
<!-- Generated by graphviz version 6.0.2 (20221011.1828)
 -->
<!-- Title: CBlockBase.h Pages: 1 -->
<svg width="435pt" height="318pt"
 viewBox="0.00 0.00 434.50 318.00" xmlns="http://www.w3.org/2000/svg" xmlns:xlink="http://www.w3.org/1999/xlink">
<g id="graph0" class="graph" transform="scale(1 1) rotate(0) translate(4 314)">
<title>CBlockBase.h</title>
<!-- Node1 -->
<g id="node1" class="node">
<title>Node1</title>
<g id="a_node1"><a xlink:title="CBlockBase class header.">
<polygon fill="#999999" stroke="#666666" points="165,-290.5 165,-309.5 244,-309.5 244,-290.5 165,-290.5"/>
<text text-anchor="middle" x="204.5" y="-297.5" font-family="Helvetica,sans-Serif" font-size="10.00">CBlockBase.h</text>
</a>
</g>
</g>
<!-- Node2 -->
<g id="node2" class="node">
<title>Node2</title>
<g id="a_node2"><a xlink:href="_c_block___t_interval_8h.html" target="_top" xlink:title="CBlock_TInterval class header.">
<polygon fill="white" stroke="#666666" points="0,-234.5 0,-253.5 97,-253.5 97,-234.5 0,-234.5"/>
<text text-anchor="middle" x="48.5" y="-241.5" font-family="Helvetica,sans-Serif" font-size="10.00">CBlock_TInterval.h</text>
</a>
</g>
</g>
<!-- Node1&#45;&gt;Node2 -->
<g id="edge1" class="edge">
<title>Node1&#45;&gt;Node2</title>
<path fill="none" stroke="#63b8ff" d="M170.33,-287.17C140.96,-277 99.3,-262.59 73.1,-253.52"/>
<polygon fill="#63b8ff" stroke="#63b8ff" points="169.19,-290.48 179.78,-290.44 171.48,-283.86 169.19,-290.48"/>
</g>
<!-- Node7 -->
<g id="node7" class="node">
<title>Node7</title>
<g id="a_node7"><a xlink:href="_c_block___t_week_day_8h.html" target="_top" xlink:title="CBlock_TWeekDay class header.">
<polygon fill="white" stroke="#666666" points="311.5,-234.5 311.5,-253.5 421.5,-253.5 421.5,-234.5 311.5,-234.5"/>
<text text-anchor="middle" x="366.5" y="-241.5" font-family="Helvetica,sans-Serif" font-size="10.00">CBlock_TWeekDay.h</text>
</a>
</g>
</g>
<!-- Node1&#45;&gt;Node7 -->
<g id="edge6" class="edge">
<title>Node1&#45;&gt;Node7</title>
<path fill="none" stroke="#63b8ff" d="M239.98,-287.17C270.49,-277 313.74,-262.59 340.95,-253.52"/>
<polygon fill="#63b8ff" stroke="#63b8ff" points="238.55,-283.96 230.17,-290.44 240.76,-290.6 238.55,-283.96"/>
</g>
<!-- Node9 -->
<g id="node9" class="node">
<title>Node9</title>
<g id="a_node9"><a xlink:href="_c_block__bool_8h.html" target="_top" xlink:title="CBlock_bool class header.">
<polygon fill="white" stroke="#666666" points="115.5,-234.5 115.5,-253.5 195.5,-253.5 195.5,-234.5 115.5,-234.5"/>
<text text-anchor="middle" x="155.5" y="-241.5" font-family="Helvetica,sans-Serif" font-size="10.00">CBlock_bool.h</text>
</a>
</g>
</g>
<!-- Node1&#45;&gt;Node9 -->
<g id="edge9" class="edge">
<title>Node1&#45;&gt;Node9</title>
<path fill="none" stroke="#63b8ff" d="M189.47,-282.43C180.88,-272.97 170.46,-261.48 163.44,-253.75"/>
<polygon fill="#63b8ff" stroke="#63b8ff" points="187.1,-285.03 196.41,-290.08 192.28,-280.33 187.1,-285.03"/>
</g>
<!-- Node10 -->
<g id="node10" class="node">
<title>Node10</title>
<g id="a_node10"><a xlink:href="_c_block__long_8h.html" target="_top" xlink:title="CBlock_long class header.">
<polygon fill="white" stroke="#666666" points="213.5,-234.5 213.5,-253.5 293.5,-253.5 293.5,-234.5 213.5,-234.5"/>
<text text-anchor="middle" x="253.5" y="-241.5" font-family="Helvetica,sans-Serif" font-size="10.00">CBlock_long.h</text>
</a>
</g>
</g>
<!-- Node1&#45;&gt;Node10 -->
<g id="edge11" class="edge">
<title>Node1&#45;&gt;Node10</title>
<path fill="none" stroke="#63b8ff" d="M219.53,-282.43C228.12,-272.97 238.54,-261.48 245.56,-253.75"/>
<polygon fill="#63b8ff" stroke="#63b8ff" points="216.72,-280.33 212.59,-290.08 221.9,-285.03 216.72,-280.33"/>
</g>
<!-- Node3 -->
<g id="node3" class="node">
<title>Node3</title>
<g id="a_node3"><a xlink:href="_c_block_8h.html" target="_top" xlink:title="General header for CBlock.">
<polygon fill="white" stroke="#666666" points="176.5,-178.5 176.5,-197.5 232.5,-197.5 232.5,-178.5 176.5,-178.5"/>
<text text-anchor="middle" x="204.5" y="-185.5" font-family="Helvetica,sans-Serif" font-size="10.00">CBlock.h</text>
</a>
</g>
</g>
<!-- Node2&#45;&gt;Node3 -->
<g id="edge2" class="edge">
<title>Node2&#45;&gt;Node3</title>
<path fill="none" stroke="#63b8ff" d="M82.67,-231.17C112.04,-221 153.7,-206.59 179.9,-197.52"/>
<polygon fill="#63b8ff" stroke="#63b8ff" points="81.52,-227.86 73.22,-234.44 83.81,-234.48 81.52,-227.86"/>
</g>
<!-- Node4 -->
<g id="node4" class="node">
<title>Node4</title>
<g id="a_node4"><a xlink:href="_c_block_unit_tests_8h.html" target="_top" xlink:title="Unit tests parameters and headers include for class CBlock.">
<polygon fill="white" stroke="#666666" points="86,-89.5 86,-141.5 213,-141.5 213,-89.5 86,-89.5"/>
<text text-anchor="start" x="94" y="-129.5" font-family="Helvetica,sans-Serif" font-size="10.00">C:/Users/danie/Desktop</text>
<text text-anchor="start" x="94" y="-118.5" font-family="Helvetica,sans-Serif" font-size="10.00">/ppc_projekt_2022/trunk</text>
<text text-anchor="start" x="94" y="-107.5" font-family="Helvetica,sans-Serif" font-size="10.00">/CBlock/CBlockUnitTests</text>
<text text-anchor="middle" x="149.5" y="-96.5" font-family="Helvetica,sans-Serif" font-size="10.00">/CBlockUnitTests.h</text>
</a>
</g>
</g>
<!-- Node3&#45;&gt;Node4 -->
<g id="edge3" class="edge">
<title>Node3&#45;&gt;Node4</title>
<path fill="none" stroke="#63b8ff" d="M191.47,-170.3C184.79,-161.74 176.52,-151.13 169.08,-141.6"/>
<polygon fill="#63b8ff" stroke="#63b8ff" points="188.85,-172.62 197.76,-178.36 194.36,-168.32 188.85,-172.62"/>
</g>
<!-- Node6 -->
<g id="node6" class="node">
<title>Node6</title>
<g id="a_node6"><a xlink:href="main_8cpp.html" target="_top" xlink:title="Main source.">
<polygon fill="white" stroke="#666666" points="231.5,-106 231.5,-125 287.5,-125 287.5,-106 231.5,-106"/>
<text text-anchor="middle" x="259.5" y="-113" font-family="Helvetica,sans-Serif" font-size="10.00">main.cpp</text>
</a>
</g>
</g>
<!-- Node3&#45;&gt;Node6 -->
<g id="edge5" class="edge">
<title>Node3&#45;&gt;Node6</title>
<path fill="none" stroke="#63b8ff" d="M217.45,-170.4C228.49,-156.24 243.93,-136.46 252.7,-125.22"/>
<polygon fill="#63b8ff" stroke="#63b8ff" points="214.64,-168.32 211.24,-178.36 220.15,-172.62 214.64,-168.32"/>
</g>
<!-- Node5 -->
<g id="node5" class="node">
<title>Node5</title>
<g id="a_node5"><a xlink:href="_c_block_unit_tests_8cpp.html" target="_top" xlink:title="Functionality unit tests for class CBlock.">
<polygon fill="white" stroke="#666666" points="86,-0.5 86,-52.5 213,-52.5 213,-0.5 86,-0.5"/>
<text text-anchor="start" x="94" y="-40.5" font-family="Helvetica,sans-Serif" font-size="10.00">C:/Users/danie/Desktop</text>
<text text-anchor="start" x="94" y="-29.5" font-family="Helvetica,sans-Serif" font-size="10.00">/ppc_projekt_2022/trunk</text>
<text text-anchor="start" x="94" y="-18.5" font-family="Helvetica,sans-Serif" font-size="10.00">/CBlock/CBlockUnitTests</text>
<text text-anchor="middle" x="149.5" y="-7.5" font-family="Helvetica,sans-Serif" font-size="10.00">/CBlockUnitTests.cpp</text>
</a>
</g>
</g>
<!-- Node4&#45;&gt;Node5 -->
<g id="edge4" class="edge">
<title>Node4&#45;&gt;Node5</title>
<path fill="none" stroke="#63b8ff" d="M149.5,-79.19C149.5,-70.28 149.5,-60.9 149.5,-52.61"/>
<polygon fill="#63b8ff" stroke="#63b8ff" points="146,-79.34 149.5,-89.34 153,-79.34 146,-79.34"/>
</g>
<!-- Node7&#45;&gt;Node3 -->
<g id="edge7" class="edge">
<title>Node7&#45;&gt;Node3</title>
<path fill="none" stroke="#63b8ff" d="M331.02,-231.17C300.51,-221 257.26,-206.59 230.05,-197.52"/>
<polygon fill="#63b8ff" stroke="#63b8ff" points="330.24,-234.6 340.83,-234.44 332.45,-227.96 330.24,-234.6"/>
</g>
<!-- Node8 -->
<g id="node8" class="node">
<title>Node8</title>
<g id="a_node8"><a xlink:href="_c_block___t_week_day_8cpp.html" target="_top" xlink:title="CBlock_TWeekDay class source.">
<polygon fill="white" stroke="#666666" points="306.5,-178.5 306.5,-197.5 426.5,-197.5 426.5,-178.5 306.5,-178.5"/>
<text text-anchor="middle" x="366.5" y="-185.5" font-family="Helvetica,sans-Serif" font-size="10.00">CBlock_TWeekDay.cpp</text>
</a>
</g>
</g>
<!-- Node7&#45;&gt;Node8 -->
<g id="edge8" class="edge">
<title>Node7&#45;&gt;Node8</title>
<path fill="none" stroke="#63b8ff" d="M366.5,-223.8C366.5,-214.91 366.5,-204.78 366.5,-197.75"/>
<polygon fill="#63b8ff" stroke="#63b8ff" points="363,-224.08 366.5,-234.08 370,-224.08 363,-224.08"/>
</g>
<!-- Node9&#45;&gt;Node3 -->
<g id="edge10" class="edge">
<title>Node9&#45;&gt;Node3</title>
<path fill="none" stroke="#63b8ff" d="M170.53,-226.43C179.12,-216.97 189.54,-205.48 196.56,-197.75"/>
<polygon fill="#63b8ff" stroke="#63b8ff" points="167.72,-224.33 163.59,-234.08 172.9,-229.03 167.72,-224.33"/>
</g>
<!-- Node10&#45;&gt;Node3 -->
<g id="edge12" class="edge">
<title>Node10&#45;&gt;Node3</title>
<path fill="none" stroke="#63b8ff" d="M238.47,-226.43C229.88,-216.97 219.46,-205.48 212.44,-197.75"/>
<polygon fill="#63b8ff" stroke="#63b8ff" points="236.1,-229.03 245.41,-234.08 241.28,-224.33 236.1,-229.03"/>
</g>
</g>
</svg>
