<?xml version="1.0" encoding="UTF-8" standalone="no"?>
<!DOCTYPE svg PUBLIC "-//W3C//DTD SVG 1.1//EN"
 "http://www.w3.org/Graphics/SVG/1.1/DTD/svg11.dtd">
<!-- Generated by graphviz version 6.0.2 (20221011.1828)
 -->
<!-- Title: CBlockBase.h Pages: 1 -->
<svg width="462pt" height="352pt"
 viewBox="0.00 0.00 461.50 352.00" xmlns="http://www.w3.org/2000/svg" xmlns:xlink="http://www.w3.org/1999/xlink">
<g id="graph0" class="graph" transform="scale(1 1) rotate(0) translate(4 348)">
<title>CBlockBase.h</title>
<!-- Node1 -->
<g id="node1" class="node">
<title>Node1</title>
<g id="a_node1"><a xlink:title="CBlockBase class header.">
<polygon fill="#999999" stroke="#666666" points="192,-324.5 192,-343.5 271,-343.5 271,-324.5 192,-324.5"/>
<text text-anchor="middle" x="231.5" y="-331.5" font-family="Helvetica,sans-Serif" font-size="10.00">CBlockBase.h</text>
</a>
</g>
</g>
<!-- Node2 -->
<g id="node2" class="node">
<title>Node2</title>
<g id="a_node2"><a xlink:href="_c_block___t_interval_8h.html" target="_top" xlink:title="CBlock_TInterval class header.">
<polygon fill="white" stroke="#666666" points="27,-268.5 27,-287.5 124,-287.5 124,-268.5 27,-268.5"/>
<text text-anchor="middle" x="75.5" y="-275.5" font-family="Helvetica,sans-Serif" font-size="10.00">CBlock_TInterval.h</text>
</a>
</g>
</g>
<!-- Node1&#45;&gt;Node2 -->
<g id="edge1" class="edge">
<title>Node1&#45;&gt;Node2</title>
<path fill="none" stroke="#63b8ff" d="M197.33,-321.17C167.96,-311 126.3,-296.59 100.1,-287.52"/>
<polygon fill="#63b8ff" stroke="#63b8ff" points="196.19,-324.48 206.78,-324.44 198.48,-317.86 196.19,-324.48"/>
</g>
<!-- Node9 -->
<g id="node9" class="node">
<title>Node9</title>
<g id="a_node9"><a xlink:href="_c_block___t_week_day_8h.html" target="_top" xlink:title="CBlock_TWeekDay class header.">
<polygon fill="white" stroke="#666666" points="338.5,-268.5 338.5,-287.5 448.5,-287.5 448.5,-268.5 338.5,-268.5"/>
<text text-anchor="middle" x="393.5" y="-275.5" font-family="Helvetica,sans-Serif" font-size="10.00">CBlock_TWeekDay.h</text>
</a>
</g>
</g>
<!-- Node1&#45;&gt;Node9 -->
<g id="edge10" class="edge">
<title>Node1&#45;&gt;Node9</title>
<path fill="none" stroke="#63b8ff" d="M266.98,-321.17C297.49,-311 340.74,-296.59 367.95,-287.52"/>
<polygon fill="#63b8ff" stroke="#63b8ff" points="265.55,-317.96 257.17,-324.44 267.76,-324.6 265.55,-317.96"/>
</g>
<!-- Node11 -->
<g id="node11" class="node">
<title>Node11</title>
<g id="a_node11"><a xlink:href="_c_block__bool_8h.html" target="_top" xlink:title="CBlock_bool class header.">
<polygon fill="white" stroke="#666666" points="142.5,-268.5 142.5,-287.5 222.5,-287.5 222.5,-268.5 142.5,-268.5"/>
<text text-anchor="middle" x="182.5" y="-275.5" font-family="Helvetica,sans-Serif" font-size="10.00">CBlock_bool.h</text>
</a>
</g>
</g>
<!-- Node1&#45;&gt;Node11 -->
<g id="edge13" class="edge">
<title>Node1&#45;&gt;Node11</title>
<path fill="none" stroke="#63b8ff" d="M216.47,-316.43C207.88,-306.97 197.46,-295.48 190.44,-287.75"/>
<polygon fill="#63b8ff" stroke="#63b8ff" points="214.1,-319.03 223.41,-324.08 219.28,-314.33 214.1,-319.03"/>
</g>
<!-- Node12 -->
<g id="node12" class="node">
<title>Node12</title>
<g id="a_node12"><a xlink:href="_c_block__long_8h.html" target="_top" xlink:title="CBlock_long class header.">
<polygon fill="white" stroke="#666666" points="240.5,-268.5 240.5,-287.5 320.5,-287.5 320.5,-268.5 240.5,-268.5"/>
<text text-anchor="middle" x="280.5" y="-275.5" font-family="Helvetica,sans-Serif" font-size="10.00">CBlock_long.h</text>
</a>
</g>
</g>
<!-- Node1&#45;&gt;Node12 -->
<g id="edge15" class="edge">
<title>Node1&#45;&gt;Node12</title>
<path fill="none" stroke="#63b8ff" d="M246.53,-316.43C255.12,-306.97 265.54,-295.48 272.56,-287.75"/>
<polygon fill="#63b8ff" stroke="#63b8ff" points="243.72,-314.33 239.59,-324.08 248.9,-319.03 243.72,-314.33"/>
</g>
<!-- Node3 -->
<g id="node3" class="node">
<title>Node3</title>
<g id="a_node3"><a xlink:href="_c_block_8h.html" target="_top" xlink:title="General header for CBlock.">
<polygon fill="white" stroke="#666666" points="203.5,-212.5 203.5,-231.5 259.5,-231.5 259.5,-212.5 203.5,-212.5"/>
<text text-anchor="middle" x="231.5" y="-219.5" font-family="Helvetica,sans-Serif" font-size="10.00">CBlock.h</text>
</a>
</g>
</g>
<!-- Node2&#45;&gt;Node3 -->
<g id="edge2" class="edge">
<title>Node2&#45;&gt;Node3</title>
<path fill="none" stroke="#63b8ff" d="M109.67,-265.17C139.04,-255 180.7,-240.59 206.9,-231.52"/>
<polygon fill="#63b8ff" stroke="#63b8ff" points="108.52,-261.86 100.22,-268.44 110.81,-268.48 108.52,-261.86"/>
</g>
<!-- Node4 -->
<g id="node4" class="node">
<title>Node4</title>
<g id="a_node4"><a xlink:href="_c_block_unit_tests_8h.html" target="_top" xlink:title="Unit tests parameters and headers include for class CBlock.">
<polygon fill="white" stroke="#666666" points="0,-78.5 0,-119.5 179,-119.5 179,-78.5 0,-78.5"/>
<text text-anchor="start" x="8" y="-107.5" font-family="Helvetica,sans-Serif" font-size="10.00">C:/Users/danie/Desktop</text>
<text text-anchor="start" x="8" y="-96.5" font-family="Helvetica,sans-Serif" font-size="10.00">/ppc_projekt_2022/trunk</text>
<text text-anchor="middle" x="89.5" y="-85.5" font-family="Helvetica,sans-Serif" font-size="10.00">/Project/UnitTests/CBlockUnitTests.h</text>
</a>
</g>
</g>
<!-- Node3&#45;&gt;Node4 -->
<g id="edge3" class="edge">
<title>Node3&#45;&gt;Node4</title>
<path fill="none" stroke="#63b8ff" d="M213.45,-205.62C187.75,-183.72 140.6,-143.54 112.44,-119.55"/>
<polygon fill="#63b8ff" stroke="#63b8ff" points="211.41,-208.48 221.29,-212.3 215.95,-203.15 211.41,-208.48"/>
</g>
<!-- Node6 -->
<g id="node6" class="node">
<title>Node6</title>
<g id="a_node6"><a xlink:href="_c_stack_8h.html" target="_top" xlink:title="CStack class header.">
<polygon fill="white" stroke="#666666" points="203,-156.5 203,-175.5 260,-175.5 260,-156.5 203,-156.5"/>
<text text-anchor="middle" x="231.5" y="-163.5" font-family="Helvetica,sans-Serif" font-size="10.00">CStack.h</text>
</a>
</g>
</g>
<!-- Node3&#45;&gt;Node6 -->
<g id="edge5" class="edge">
<title>Node3&#45;&gt;Node6</title>
<path fill="none" stroke="#63b8ff" d="M231.5,-201.8C231.5,-192.91 231.5,-182.78 231.5,-175.75"/>
<polygon fill="#63b8ff" stroke="#63b8ff" points="228,-202.08 231.5,-212.08 235,-202.08 228,-202.08"/>
</g>
<!-- Node8 -->
<g id="node8" class="node">
<title>Node8</title>
<g id="a_node8"><a xlink:href="main_8cpp.html" target="_top" xlink:title="Main source.">
<polygon fill="white" stroke="#666666" points="283.5,-89.5 283.5,-108.5 339.5,-108.5 339.5,-89.5 283.5,-89.5"/>
<text text-anchor="middle" x="311.5" y="-96.5" font-family="Helvetica,sans-Serif" font-size="10.00">main.cpp</text>
</a>
</g>
</g>
<!-- Node3&#45;&gt;Node8 -->
<g id="edge9" class="edge">
<title>Node3&#45;&gt;Node8</title>
<path fill="none" stroke="#63b8ff" d="M246.14,-204.6C253.25,-196.3 261.7,-185.9 268.5,-176 284.46,-152.75 299.93,-123.17 307.19,-108.72"/>
<polygon fill="#63b8ff" stroke="#63b8ff" points="243.28,-202.56 239.34,-212.39 248.56,-207.16 243.28,-202.56"/>
</g>
<!-- Node5 -->
<g id="node5" class="node">
<title>Node5</title>
<g id="a_node5"><a xlink:href="_unit_tests_8cpp.html" target="_top" xlink:title=" ">
<polygon fill="white" stroke="#666666" points="10.5,-0.5 10.5,-41.5 168.5,-41.5 168.5,-0.5 10.5,-0.5"/>
<text text-anchor="start" x="18.5" y="-29.5" font-family="Helvetica,sans-Serif" font-size="10.00">C:/Users/danie/Desktop</text>
<text text-anchor="start" x="18.5" y="-18.5" font-family="Helvetica,sans-Serif" font-size="10.00">/ppc_projekt_2022/trunk</text>
<text text-anchor="middle" x="89.5" y="-7.5" font-family="Helvetica,sans-Serif" font-size="10.00">/Project/UnitTests/UnitTests.cpp</text>
</a>
</g>
</g>
<!-- Node4&#45;&gt;Node5 -->
<g id="edge4" class="edge">
<title>Node4&#45;&gt;Node5</title>
<path fill="none" stroke="#63b8ff" d="M89.5,-68.3C89.5,-59.3 89.5,-49.65 89.5,-41.51"/>
<polygon fill="#63b8ff" stroke="#63b8ff" points="86,-68.43 89.5,-78.43 93,-68.43 86,-68.43"/>
</g>
<!-- Node6&#45;&gt;Node4 -->
<g id="edge6" class="edge">
<title>Node6&#45;&gt;Node4</title>
<path fill="none" stroke="#63b8ff" d="M203.35,-152.11C183.08,-142.84 155.38,-130.16 132.37,-119.63"/>
<polygon fill="#63b8ff" stroke="#63b8ff" points="202.09,-155.39 212.64,-156.37 205.01,-149.02 202.09,-155.39"/>
</g>
<!-- Node7 -->
<g id="node7" class="node">
<title>Node7</title>
<g id="a_node7"><a xlink:href="_c_stack_8cpp.html" target="_top" xlink:title="CStack class source.">
<polygon fill="white" stroke="#666666" points="197.5,-89.5 197.5,-108.5 265.5,-108.5 265.5,-89.5 197.5,-89.5"/>
<text text-anchor="middle" x="231.5" y="-96.5" font-family="Helvetica,sans-Serif" font-size="10.00">CStack.cpp</text>
</a>
</g>
</g>
<!-- Node6&#45;&gt;Node7 -->
<g id="edge7" class="edge">
<title>Node6&#45;&gt;Node7</title>
<path fill="none" stroke="#63b8ff" d="M231.5,-146.04C231.5,-133.67 231.5,-118.12 231.5,-108.63"/>
<polygon fill="#63b8ff" stroke="#63b8ff" points="228,-146.23 231.5,-156.23 235,-146.23 228,-146.23"/>
</g>
<!-- Node6&#45;&gt;Node8 -->
<g id="edge8" class="edge">
<title>Node6&#45;&gt;Node8</title>
<path fill="none" stroke="#63b8ff" d="M250.31,-149.71C266.08,-136.91 288.01,-119.09 300.88,-108.63"/>
<polygon fill="#63b8ff" stroke="#63b8ff" points="247.84,-147.21 242.29,-156.23 252.26,-152.64 247.84,-147.21"/>
</g>
<!-- Node9&#45;&gt;Node3 -->
<g id="edge11" class="edge">
<title>Node9&#45;&gt;Node3</title>
<path fill="none" stroke="#63b8ff" d="M358.02,-265.17C327.51,-255 284.26,-240.59 257.05,-231.52"/>
<polygon fill="#63b8ff" stroke="#63b8ff" points="357.24,-268.6 367.83,-268.44 359.45,-261.96 357.24,-268.6"/>
</g>
<!-- Node10 -->
<g id="node10" class="node">
<title>Node10</title>
<g id="a_node10"><a xlink:href="_c_block___t_week_day_8cpp.html" target="_top" xlink:title="CBlock_TWeekDay class source.">
<polygon fill="white" stroke="#666666" points="333.5,-212.5 333.5,-231.5 453.5,-231.5 453.5,-212.5 333.5,-212.5"/>
<text text-anchor="middle" x="393.5" y="-219.5" font-family="Helvetica,sans-Serif" font-size="10.00">CBlock_TWeekDay.cpp</text>
</a>
</g>
</g>
<!-- Node9&#45;&gt;Node10 -->
<g id="edge12" class="edge">
<title>Node9&#45;&gt;Node10</title>
<path fill="none" stroke="#63b8ff" d="M393.5,-257.8C393.5,-248.91 393.5,-238.78 393.5,-231.75"/>
<polygon fill="#63b8ff" stroke="#63b8ff" points="390,-258.08 393.5,-268.08 397,-258.08 390,-258.08"/>
</g>
<!-- Node11&#45;&gt;Node3 -->
<g id="edge14" class="edge">
<title>Node11&#45;&gt;Node3</title>
<path fill="none" stroke="#63b8ff" d="M197.53,-260.43C206.12,-250.97 216.54,-239.48 223.56,-231.75"/>
<polygon fill="#63b8ff" stroke="#63b8ff" points="194.72,-258.33 190.59,-268.08 199.9,-263.03 194.72,-258.33"/>
</g>
<!-- Node12&#45;&gt;Node3 -->
<g id="edge16" class="edge">
<title>Node12&#45;&gt;Node3</title>
<path fill="none" stroke="#63b8ff" d="M265.47,-260.43C256.88,-250.97 246.46,-239.48 239.44,-231.75"/>
<polygon fill="#63b8ff" stroke="#63b8ff" points="263.1,-263.03 272.41,-268.08 268.28,-258.33 263.1,-263.03"/>
</g>
</g>
</svg>
