<?xml version="1.0" encoding="UTF-8" standalone="no"?>
<!DOCTYPE svg PUBLIC "-//W3C//DTD SVG 1.1//EN"
 "http://www.w3.org/Graphics/SVG/1.1/DTD/svg11.dtd">
<!-- Generated by graphviz version 6.0.2 (20221011.1828)
 -->
<!-- Title: CStack.h Pages: 1 -->
<svg width="1015pt" height="252pt"
 viewBox="0.00 0.00 1014.64 252.00" xmlns="http://www.w3.org/2000/svg" xmlns:xlink="http://www.w3.org/1999/xlink">
<g id="graph0" class="graph" transform="scale(1 1) rotate(0) translate(4 248)">
<title>CStack.h</title>
<!-- Node1 -->
<g id="node1" class="node">
<title>Node1</title>
<g id="a_node1"><a xlink:title="CStack class header.">
<polygon fill="#999999" stroke="#666666" points="790.91,-224.5 790.91,-243.5 847.91,-243.5 847.91,-224.5 790.91,-224.5"/>
<text text-anchor="middle" x="819.41" y="-231.5" font-family="Helvetica,sans-Serif" font-size="10.00">CStack.h</text>
</a>
</g>
</g>
<!-- Node2 -->
<g id="node2" class="node">
<title>Node2</title>
<g id="a_node2"><a xlink:href="_c_block_8h.html" target="_top" xlink:title="General header for CBlock.">
<polygon fill="white" stroke="#666666" points="571.41,-168.5 571.41,-187.5 627.41,-187.5 627.41,-168.5 571.41,-168.5"/>
<text text-anchor="middle" x="599.41" y="-175.5" font-family="Helvetica,sans-Serif" font-size="10.00">CBlock.h</text>
</a>
</g>
</g>
<!-- Node1&#45;&gt;Node2 -->
<g id="edge1" class="edge">
<title>Node1&#45;&gt;Node2</title>
<path fill="none" stroke="#63b8ff" d="M790.65,-225.94C751.4,-216.31 680.98,-199.02 637.42,-188.33"/>
<polygon fill="#63b8ff" stroke="#63b8ff" points="638.03,-184.88 627.49,-185.89 636.36,-191.67 638.03,-184.88"/>
</g>
<!-- Node14 -->
<g id="node14" class="node">
<title>Node14</title>
<g id="a_node14"><a xlink:title=" ">
<polygon fill="#e0e0e0" stroke="#999999" points="691.91,-0.5 691.91,-19.5 742.91,-19.5 742.91,-0.5 691.91,-0.5"/>
<text text-anchor="middle" x="717.41" y="-7.5" font-family="Helvetica,sans-Serif" font-size="10.00">check.h</text>
</a>
</g>
</g>
<!-- Node1&#45;&gt;Node14 -->
<g id="edge50" class="edge">
<title>Node1&#45;&gt;Node14</title>
<path fill="none" stroke="#63b8ff" d="M840.34,-224.41C898.13,-199.53 1051.89,-124.78 993.41,-56 962.97,-20.19 820.67,-12.81 753.15,-11.33"/>
<polygon fill="#63b8ff" stroke="#63b8ff" points="753.04,-7.83 742.98,-11.15 752.91,-14.83 753.04,-7.83"/>
</g>
<!-- Node3 -->
<g id="node3" class="node">
<title>Node3</title>
<g id="a_node3"><a xlink:href="_c_block__bool_8h.html" target="_top" xlink:title="CBlock_bool class header.">
<polygon fill="white" stroke="#666666" points="559.41,-112.5 559.41,-131.5 639.41,-131.5 639.41,-112.5 559.41,-112.5"/>
<text text-anchor="middle" x="599.41" y="-119.5" font-family="Helvetica,sans-Serif" font-size="10.00">CBlock_bool.h</text>
</a>
</g>
</g>
<!-- Node2&#45;&gt;Node3 -->
<g id="edge2" class="edge">
<title>Node2&#45;&gt;Node3</title>
<path fill="none" stroke="#63b8ff" d="M599.41,-168.08C599.41,-161.01 599.41,-150.86 599.41,-141.99"/>
<polygon fill="#63b8ff" stroke="#63b8ff" points="602.92,-141.75 599.41,-131.75 595.92,-141.75 602.92,-141.75"/>
</g>
<!-- Node15 -->
<g id="node15" class="node">
<title>Node15</title>
<g id="a_node15"><a xlink:href="_c_block__long_8h.html" target="_top" xlink:title="CBlock_long class header.">
<polygon fill="white" stroke="#666666" points="657.41,-112.5 657.41,-131.5 737.41,-131.5 737.41,-112.5 657.41,-112.5"/>
<text text-anchor="middle" x="697.41" y="-119.5" font-family="Helvetica,sans-Serif" font-size="10.00">CBlock_long.h</text>
</a>
</g>
</g>
<!-- Node2&#45;&gt;Node15 -->
<g id="edge20" class="edge">
<title>Node2&#45;&gt;Node15</title>
<path fill="none" stroke="#63b8ff" d="M615.16,-168.32C630.73,-159.74 654.79,-146.49 672.87,-136.52"/>
<polygon fill="#63b8ff" stroke="#63b8ff" points="674.64,-139.55 681.71,-131.65 671.26,-133.42 674.64,-139.55"/>
</g>
<!-- Node16 -->
<g id="node16" class="node">
<title>Node16</title>
<g id="a_node16"><a xlink:href="_c_block___t_week_day_8h.html" target="_top" xlink:title="CBlock_TWeekDay class header.">
<polygon fill="white" stroke="#666666" points="103.41,-112.5 103.41,-131.5 213.41,-131.5 213.41,-112.5 103.41,-112.5"/>
<text text-anchor="middle" x="158.41" y="-119.5" font-family="Helvetica,sans-Serif" font-size="10.00">CBlock_TWeekDay.h</text>
</a>
</g>
</g>
<!-- Node2&#45;&gt;Node16 -->
<g id="edge30" class="edge">
<title>Node2&#45;&gt;Node16</title>
<path fill="none" stroke="#63b8ff" d="M571.16,-173.54C501.75,-165.04 321.47,-142.97 223.72,-131"/>
<polygon fill="#63b8ff" stroke="#63b8ff" points="224.02,-127.51 213.66,-129.77 223.17,-134.45 224.02,-127.51"/>
</g>
<!-- Node17 -->
<g id="node17" class="node">
<title>Node17</title>
<g id="a_node17"><a xlink:href="_c_block___t_interval_8h.html" target="_top" xlink:title="CBlock_TInterval class header.">
<polygon fill="white" stroke="#666666" points="321.91,-112.5 321.91,-131.5 418.91,-131.5 418.91,-112.5 321.91,-112.5"/>
<text text-anchor="middle" x="370.41" y="-119.5" font-family="Helvetica,sans-Serif" font-size="10.00">CBlock_TInterval.h</text>
</a>
</g>
</g>
<!-- Node2&#45;&gt;Node17 -->
<g id="edge40" class="edge">
<title>Node2&#45;&gt;Node17</title>
<path fill="none" stroke="#63b8ff" d="M571.34,-170.38C532.72,-161.27 462.77,-144.78 416.45,-133.85"/>
<polygon fill="#63b8ff" stroke="#63b8ff" points="417.19,-130.43 406.65,-131.55 415.58,-137.25 417.19,-130.43"/>
</g>
<!-- Node4 -->
<g id="node4" class="node">
<title>Node4</title>
<g id="a_node4"><a xlink:title=" ">
<polygon fill="#e0e0e0" stroke="#999999" points="411.41,-0.5 411.41,-19.5 465.41,-19.5 465.41,-0.5 411.41,-0.5"/>
<text text-anchor="middle" x="438.41" y="-7.5" font-family="Helvetica,sans-Serif" font-size="10.00">iostream</text>
</a>
</g>
</g>
<!-- Node3&#45;&gt;Node4 -->
<g id="edge3" class="edge">
<title>Node3&#45;&gt;Node4</title>
<path fill="none" stroke="#63b8ff" d="M635.75,-112.5C677.88,-102.27 742.48,-85.33 749.41,-76 754.72,-68.87 755.28,-62.68 749.41,-56 708.92,-9.83 535.78,-31.27 475.41,-20 475.31,-19.98 475.21,-19.96 475.11,-19.94"/>
<polygon fill="#63b8ff" stroke="#63b8ff" points="475.92,-16.54 465.42,-17.93 474.5,-23.39 475.92,-16.54"/>
</g>
<!-- Node5 -->
<g id="node5" class="node">
<title>Node5</title>
<g id="a_node5"><a xlink:title=" ">
<polygon fill="#e0e0e0" stroke="#999999" points="189.41,-0.5 189.41,-19.5 241.41,-19.5 241.41,-0.5 189.41,-0.5"/>
<text text-anchor="middle" x="215.41" y="-7.5" font-family="Helvetica,sans-Serif" font-size="10.00">sstream</text>
</a>
</g>
</g>
<!-- Node3&#45;&gt;Node5 -->
<g id="edge4" class="edge">
<title>Node3&#45;&gt;Node5</title>
<path fill="none" stroke="#63b8ff" d="M610.41,-112.42C626.08,-99.17 651.31,-73.45 635.41,-56 608.01,-25.91 325.04,-27.14 251.88,-19.58"/>
<polygon fill="#63b8ff" stroke="#63b8ff" points="252.06,-16.08 241.69,-18.23 251.14,-23.02 252.06,-16.08"/>
</g>
<!-- Node6 -->
<g id="node6" class="node">
<title>Node6</title>
<g id="a_node6"><a xlink:title=" ">
<polygon fill="#e0e0e0" stroke="#999999" points="455.91,-56.5 455.91,-75.5 496.91,-75.5 496.91,-56.5 455.91,-56.5"/>
<text text-anchor="middle" x="476.41" y="-63.5" font-family="Helvetica,sans-Serif" font-size="10.00">string</text>
</a>
</g>
</g>
<!-- Node3&#45;&gt;Node6 -->
<g id="edge5" class="edge">
<title>Node3&#45;&gt;Node6</title>
<path fill="none" stroke="#63b8ff" d="M579.93,-112.44C559.77,-103.6 528.09,-89.69 505.08,-79.59"/>
<polygon fill="#63b8ff" stroke="#63b8ff" points="506.38,-76.33 495.81,-75.52 503.56,-82.74 506.38,-76.33"/>
</g>
<!-- Node7 -->
<g id="node7" class="node">
<title>Node7</title>
<g id="a_node7"><a xlink:title=" ">
<polygon fill="#e0e0e0" stroke="#999999" points="483.91,-0.5 483.91,-19.5 542.91,-19.5 542.91,-0.5 483.91,-0.5"/>
<text text-anchor="middle" x="513.41" y="-7.5" font-family="Helvetica,sans-Serif" font-size="10.00">stdexcept</text>
</a>
</g>
</g>
<!-- Node3&#45;&gt;Node7 -->
<g id="edge6" class="edge">
<title>Node3&#45;&gt;Node7</title>
<path fill="none" stroke="#63b8ff" d="M639.85,-112.65C693.71,-101.33 782.79,-81.86 787.41,-76 792.92,-69.02 793.17,-62.78 787.41,-56 757.87,-21.21 622.11,-13.27 553.43,-11.49"/>
<polygon fill="#63b8ff" stroke="#63b8ff" points="553.09,-7.98 543.01,-11.25 552.93,-14.98 553.09,-7.98"/>
</g>
<!-- Node8 -->
<g id="node8" class="node">
<title>Node8</title>
<g id="a_node8"><a xlink:title=" ">
<polygon fill="#e0e0e0" stroke="#999999" points="121.41,-0.5 121.41,-19.5 171.41,-19.5 171.41,-0.5 121.41,-0.5"/>
<text text-anchor="middle" x="146.41" y="-7.5" font-family="Helvetica,sans-Serif" font-size="10.00">typeinfo</text>
</a>
</g>
</g>
<!-- Node3&#45;&gt;Node8 -->
<g id="edge7" class="edge">
<title>Node3&#45;&gt;Node8</title>
<path fill="none" stroke="#63b8ff" d="M602.29,-112.5C606.36,-98.66 611.85,-71.25 597.41,-56 567.01,-23.87 258.63,-27.51 181.53,-19.5"/>
<polygon fill="#63b8ff" stroke="#63b8ff" points="181.93,-16.03 171.56,-18.17 181.01,-22.97 181.93,-16.03"/>
</g>
<!-- Node9 -->
<g id="node9" class="node">
<title>Node9</title>
<g id="a_node9"><a xlink:title=" ">
<polygon fill="#e0e0e0" stroke="#999999" points="515.41,-56.5 515.41,-75.5 555.41,-75.5 555.41,-56.5 515.41,-56.5"/>
<text text-anchor="middle" x="535.41" y="-63.5" font-family="Helvetica,sans-Serif" font-size="10.00">utility</text>
</a>
</g>
</g>
<!-- Node3&#45;&gt;Node9 -->
<g id="edge8" class="edge">
<title>Node3&#45;&gt;Node9</title>
<path fill="none" stroke="#63b8ff" d="M589.13,-112.32C579.58,-104.26 565.14,-92.08 553.63,-82.37"/>
<polygon fill="#63b8ff" stroke="#63b8ff" points="555.78,-79.61 545.88,-75.83 551.27,-84.96 555.78,-79.61"/>
</g>
<!-- Node10 -->
<g id="node10" class="node">
<title>Node10</title>
<g id="a_node10"><a xlink:title=" ">
<polygon fill="#e0e0e0" stroke="#999999" points="37.91,-0.5 37.91,-19.5 102.91,-19.5 102.91,-0.5 37.91,-0.5"/>
<text text-anchor="middle" x="70.41" y="-7.5" font-family="Helvetica,sans-Serif" font-size="10.00">ClassInfo.h</text>
</a>
</g>
</g>
<!-- Node3&#45;&gt;Node10 -->
<g id="edge9" class="edge">
<title>Node3&#45;&gt;Node10</title>
<path fill="none" stroke="#63b8ff" d="M597.59,-112.47C594.01,-98.05 584.59,-69.17 564.41,-56 482.5,-2.55 227.66,-32.69 113.32,-19.78"/>
<polygon fill="#63b8ff" stroke="#63b8ff" points="113.72,-16.3 103.36,-18.49 112.82,-23.24 113.72,-16.3"/>
</g>
<!-- Node11 -->
<g id="node11" class="node">
<title>Node11</title>
<g id="a_node11"><a xlink:href="_c_block_base_8h.html" target="_top" xlink:title="CBlockBase class header.">
<polygon fill="white" stroke="#666666" points="243.91,-56.5 243.91,-75.5 322.91,-75.5 322.91,-56.5 243.91,-56.5"/>
<text text-anchor="middle" x="283.41" y="-63.5" font-family="Helvetica,sans-Serif" font-size="10.00">CBlockBase.h</text>
</a>
</g>
</g>
<!-- Node3&#45;&gt;Node11 -->
<g id="edge10" class="edge">
<title>Node3&#45;&gt;Node11</title>
<path fill="none" stroke="#63b8ff" d="M559.39,-114.16C501.81,-104.32 395.67,-86.18 333.13,-75.5"/>
<polygon fill="#63b8ff" stroke="#63b8ff" points="333.56,-72.02 323.11,-73.78 332.38,-78.92 333.56,-72.02"/>
</g>
<!-- Node3&#45;&gt;Node14 -->
<g id="edge19" class="edge">
<title>Node3&#45;&gt;Node14</title>
<path fill="none" stroke="#63b8ff" d="M639.88,-113.41C697.87,-102.35 798.26,-82.41 803.41,-76 822.08,-52.76 784.24,-33.28 752.97,-21.88"/>
<polygon fill="#63b8ff" stroke="#63b8ff" points="753.73,-18.43 743.13,-18.46 751.43,-25.05 753.73,-18.43"/>
</g>
<!-- Node11&#45;&gt;Node4 -->
<g id="edge12" class="edge">
<title>Node11&#45;&gt;Node4</title>
<path fill="none" stroke="#63b8ff" d="M307.98,-56.44C333.94,-47.4 375.08,-33.06 404.21,-22.92"/>
<polygon fill="#63b8ff" stroke="#63b8ff" points="405.68,-26.11 413.97,-19.52 403.37,-19.5 405.68,-26.11"/>
</g>
<!-- Node11&#45;&gt;Node5 -->
<g id="edge13" class="edge">
<title>Node11&#45;&gt;Node5</title>
<path fill="none" stroke="#63b8ff" d="M272.49,-56.32C262.24,-48.18 246.69,-35.84 234.41,-26.09"/>
<polygon fill="#63b8ff" stroke="#63b8ff" points="236.55,-23.31 226.54,-19.83 232.19,-28.79 236.55,-23.31"/>
</g>
<!-- Node11&#45;&gt;Node7 -->
<g id="edge14" class="edge">
<title>Node11&#45;&gt;Node7</title>
<path fill="none" stroke="#63b8ff" d="M319.86,-56.44C361.84,-46.59 430.58,-30.45 473.84,-20.29"/>
<polygon fill="#63b8ff" stroke="#63b8ff" points="474.79,-23.66 483.72,-17.97 473.19,-16.85 474.79,-23.66"/>
</g>
<!-- Node11&#45;&gt;Node8 -->
<g id="edge15" class="edge">
<title>Node11&#45;&gt;Node8</title>
<path fill="none" stroke="#63b8ff" d="M261.71,-56.44C239.06,-47.52 203.34,-33.44 177.66,-23.32"/>
<polygon fill="#63b8ff" stroke="#63b8ff" points="178.61,-19.93 168.02,-19.52 176.04,-26.44 178.61,-19.93"/>
</g>
<!-- Node11&#45;&gt;Node10 -->
<g id="edge16" class="edge">
<title>Node11&#45;&gt;Node10</title>
<path fill="none" stroke="#63b8ff" d="M249.66,-56.44C212.57,-47.04 152.93,-31.92 112.73,-21.73"/>
<polygon fill="#63b8ff" stroke="#63b8ff" points="113.51,-18.32 102.96,-19.25 111.79,-25.1 113.51,-18.32"/>
</g>
<!-- Node12 -->
<g id="node12" class="node">
<title>Node12</title>
<g id="a_node12"><a xlink:title=" ">
<polygon fill="#e0e0e0" stroke="#999999" points="259.41,-0.5 259.41,-19.5 313.41,-19.5 313.41,-0.5 259.41,-0.5"/>
<text text-anchor="middle" x="286.41" y="-7.5" font-family="Helvetica,sans-Serif" font-size="10.00">compare</text>
</a>
</g>
</g>
<!-- Node11&#45;&gt;Node12 -->
<g id="edge11" class="edge">
<title>Node11&#45;&gt;Node12</title>
<path fill="none" stroke="#63b8ff" d="M283.91,-56.08C284.3,-49.01 284.87,-38.86 285.36,-29.99"/>
<polygon fill="#63b8ff" stroke="#63b8ff" points="288.87,-29.93 285.93,-19.75 281.88,-29.54 288.87,-29.93"/>
</g>
<!-- Node13 -->
<g id="node13" class="node">
<title>Node13</title>
<g id="a_node13"><a xlink:title=" ">
<polygon fill="#e0e0e0" stroke="#999999" points="331.41,-0.5 331.41,-19.5 393.41,-19.5 393.41,-0.5 331.41,-0.5"/>
<text text-anchor="middle" x="362.41" y="-7.5" font-family="Helvetica,sans-Serif" font-size="10.00">demagle.h</text>
</a>
</g>
</g>
<!-- Node11&#45;&gt;Node13 -->
<g id="edge17" class="edge">
<title>Node11&#45;&gt;Node13</title>
<path fill="none" stroke="#63b8ff" d="M296.11,-56.32C308.32,-47.98 326.99,-35.21 341.42,-25.35"/>
<polygon fill="#63b8ff" stroke="#63b8ff" points="343.47,-28.19 349.75,-19.65 339.52,-22.41 343.47,-28.19"/>
</g>
<!-- Node11&#45;&gt;Node14 -->
<g id="edge18" class="edge">
<title>Node11&#45;&gt;Node14</title>
<path fill="none" stroke="#63b8ff" d="M323.08,-60.06C406.99,-49.62 601.35,-25.44 681.68,-15.45"/>
<polygon fill="#63b8ff" stroke="#63b8ff" points="682.3,-18.9 691.79,-14.19 681.43,-11.95 682.3,-18.9"/>
</g>
<!-- Node15&#45;&gt;Node4 -->
<g id="edge21" class="edge">
<title>Node15&#45;&gt;Node4</title>
<path fill="none" stroke="#63b8ff" d="M737.5,-120.72C809.72,-118.92 949.9,-108.75 901.41,-56 870.84,-22.73 555.43,-27.09 476.08,-19.44"/>
<polygon fill="#63b8ff" stroke="#63b8ff" points="476.15,-15.92 465.8,-18.16 475.29,-22.87 476.15,-15.92"/>
</g>
<!-- Node15&#45;&gt;Node5 -->
<g id="edge22" class="edge">
<title>Node15&#45;&gt;Node5</title>
<path fill="none" stroke="#63b8ff" d="M694.17,-112.42C688.19,-97.94 673.94,-68.96 651.41,-56 576.45,-12.85 354.04,-33.68 251.79,-19.8"/>
<polygon fill="#63b8ff" stroke="#63b8ff" points="252.11,-16.31 241.69,-18.24 251.04,-23.23 252.11,-16.31"/>
</g>
<!-- Node15&#45;&gt;Node6 -->
<g id="edge23" class="edge">
<title>Node15&#45;&gt;Node6</title>
<path fill="none" stroke="#63b8ff" d="M658.1,-112.46C621.41,-104.33 564.93,-91.41 506.75,-75.96"/>
<polygon fill="#63b8ff" stroke="#63b8ff" points="507.59,-72.56 497.03,-73.36 505.78,-79.33 507.59,-72.56"/>
</g>
<!-- Node15&#45;&gt;Node7 -->
<g id="edge24" class="edge">
<title>Node15&#45;&gt;Node7</title>
<path fill="none" stroke="#63b8ff" d="M737.61,-119.52C799.64,-116.31 914.22,-106.32 939.41,-76 945.1,-69.16 945.36,-62.61 939.41,-56 926.55,-41.7 656.23,-21.12 553,-13.75"/>
<polygon fill="#63b8ff" stroke="#63b8ff" points="553.2,-10.26 542.98,-13.04 552.7,-17.24 553.2,-10.26"/>
</g>
<!-- Node15&#45;&gt;Node8 -->
<g id="edge25" class="edge">
<title>Node15&#45;&gt;Node8</title>
<path fill="none" stroke="#63b8ff" d="M697.02,-112.1C695.86,-97.67 691.29,-69.45 673.41,-56 631.45,-24.43 268.62,-28.61 181.73,-19.55"/>
<polygon fill="#63b8ff" stroke="#63b8ff" points="181.92,-16.04 171.55,-18.21 181.01,-22.98 181.92,-16.04"/>
</g>
<!-- Node15&#45;&gt;Node9 -->
<g id="edge26" class="edge">
<title>Node15&#45;&gt;Node9</title>
<path fill="none" stroke="#63b8ff" d="M671.75,-112.44C642.89,-102.82 596.09,-87.22 565.53,-77.04"/>
<polygon fill="#63b8ff" stroke="#63b8ff" points="566.43,-73.65 555.83,-73.81 564.21,-80.29 566.43,-73.65"/>
</g>
<!-- Node15&#45;&gt;Node10 -->
<g id="edge27" class="edge">
<title>Node15&#45;&gt;Node10</title>
<path fill="none" stroke="#63b8ff" d="M686.56,-112.33C667.57,-97.71 626.49,-68.52 586.41,-56 387.9,6.01 323.53,-48.44 113.47,-19.92"/>
<polygon fill="#63b8ff" stroke="#63b8ff" points="113.74,-16.43 103.35,-18.5 112.77,-23.36 113.74,-16.43"/>
</g>
<!-- Node15&#45;&gt;Node11 -->
<g id="edge28" class="edge">
<title>Node15&#45;&gt;Node11</title>
<path fill="none" stroke="#63b8ff" d="M657.34,-113.44C654.32,-112.93 651.32,-112.45 648.41,-112 536.16,-94.79 403.69,-79.77 333.29,-72.21"/>
<polygon fill="#63b8ff" stroke="#63b8ff" points="333.26,-68.68 322.95,-71.1 332.52,-75.64 333.26,-68.68"/>
</g>
<!-- Node15&#45;&gt;Node14 -->
<g id="edge29" class="edge">
<title>Node15&#45;&gt;Node14</title>
<path fill="none" stroke="#63b8ff" d="M737.6,-120.67C807.54,-119.14 947.08,-111.6 977.41,-76 983.18,-69.23 983.14,-62.8 977.41,-56 949.19,-22.47 817.9,-13.92 753.39,-11.75"/>
<polygon fill="#63b8ff" stroke="#63b8ff" points="753.36,-8.24 743.26,-11.44 753.15,-15.24 753.36,-8.24"/>
</g>
<!-- Node16&#45;&gt;Node4 -->
<g id="edge31" class="edge">
<title>Node16&#45;&gt;Node4</title>
<path fill="none" stroke="#63b8ff" d="M147.93,-112.18C133.31,-98.86 110.21,-73.3 125.41,-56 164.54,-11.46 325.97,-29.69 401.32,-19.72"/>
<polygon fill="#63b8ff" stroke="#63b8ff" points="402.04,-23.15 411.36,-18.12 400.94,-16.24 402.04,-23.15"/>
</g>
<!-- Node16&#45;&gt;Node5 -->
<g id="edge32" class="edge">
<title>Node16&#45;&gt;Node5</title>
<path fill="none" stroke="#63b8ff" d="M135.59,-112.37C109,-100.98 70.7,-79.59 87.41,-56 92.98,-48.14 143.72,-31.94 179.61,-21.28"/>
<polygon fill="#63b8ff" stroke="#63b8ff" points="180.69,-24.61 189.29,-18.43 178.71,-17.9 180.69,-24.61"/>
</g>
<!-- Node16&#45;&gt;Node6 -->
<g id="edge33" class="edge">
<title>Node16&#45;&gt;Node6</title>
<path fill="none" stroke="#63b8ff" d="M208.8,-112.44C275.46,-101.12 390.91,-81.52 445.77,-72.2"/>
<polygon fill="#63b8ff" stroke="#63b8ff" points="446.62,-75.61 455.9,-70.48 445.45,-68.71 446.62,-75.61"/>
</g>
<!-- Node16&#45;&gt;Node7 -->
<g id="edge34" class="edge">
<title>Node16&#45;&gt;Node7</title>
<path fill="none" stroke="#63b8ff" d="M156.06,-112.48C152.79,-98.61 148.82,-71.17 163.41,-56 209.68,-7.92 390.17,-29.84 473.53,-19.71"/>
<polygon fill="#63b8ff" stroke="#63b8ff" points="474.29,-23.13 483.67,-18.22 473.27,-16.21 474.29,-23.13"/>
</g>
<!-- Node16&#45;&gt;Node8 -->
<g id="edge35" class="edge">
<title>Node16&#45;&gt;Node8</title>
<path fill="none" stroke="#63b8ff" d="M103.11,-119.49C70.79,-115.4 32.37,-104.32 11.41,-76 6.13,-68.85 6.22,-63.21 11.41,-56 17.48,-47.58 73.72,-30.84 111.67,-20.31"/>
<polygon fill="#63b8ff" stroke="#63b8ff" points="112.64,-23.68 121.36,-17.65 110.79,-16.93 112.64,-23.68"/>
</g>
<!-- Node16&#45;&gt;Node9 -->
<g id="edge36" class="edge">
<title>Node16&#45;&gt;Node9</title>
<path fill="none" stroke="#63b8ff" d="M213.46,-116.83C280.47,-111.1 397.1,-99.03 505.47,-75.87"/>
<polygon fill="#63b8ff" stroke="#63b8ff" points="506.22,-79.29 515.25,-73.74 504.74,-72.45 506.22,-79.29"/>
</g>
<!-- Node16&#45;&gt;Node10 -->
<g id="edge37" class="edge">
<title>Node16&#45;&gt;Node10</title>
<path fill="none" stroke="#63b8ff" d="M105.51,-112.46C65.98,-104.87 16.74,-92.44 4.41,-76 -10.49,-56.12 16.63,-36.56 40.48,-24.18"/>
<polygon fill="#63b8ff" stroke="#63b8ff" points="42.28,-27.2 49.7,-19.64 39.19,-20.92 42.28,-27.2"/>
</g>
<!-- Node16&#45;&gt;Node11 -->
<g id="edge38" class="edge">
<title>Node16&#45;&gt;Node11</title>
<path fill="none" stroke="#63b8ff" d="M178.22,-112.44C198.7,-103.6 230.9,-89.69 254.28,-79.59"/>
<polygon fill="#63b8ff" stroke="#63b8ff" points="255.91,-82.7 263.7,-75.52 253.13,-76.27 255.91,-82.7"/>
</g>
<!-- Node16&#45;&gt;Node14 -->
<g id="edge39" class="edge">
<title>Node16&#45;&gt;Node14</title>
<path fill="none" stroke="#63b8ff" d="M165.29,-112.37C177.46,-97.81 204.35,-68.72 234.41,-56 275.33,-38.69 576.93,-19.34 681.69,-13.08"/>
<polygon fill="#63b8ff" stroke="#63b8ff" points="681.99,-16.57 691.77,-12.48 681.58,-9.58 681.99,-16.57"/>
</g>
<!-- Node17&#45;&gt;Node4 -->
<g id="edge41" class="edge">
<title>Node17&#45;&gt;Node4</title>
<path fill="none" stroke="#63b8ff" d="M368.89,-112.34C367.04,-99.23 365.29,-73.94 375.41,-56 383.07,-42.43 396.7,-31.93 409.33,-24.49"/>
<polygon fill="#63b8ff" stroke="#63b8ff" points="411.15,-27.49 418.25,-19.62 407.8,-21.34 411.15,-27.49"/>
</g>
<!-- Node17&#45;&gt;Node5 -->
<g id="edge42" class="edge">
<title>Node17&#45;&gt;Node5</title>
<path fill="none" stroke="#63b8ff" d="M321.65,-116.18C292.66,-110.84 257.22,-99.62 234.41,-76 222.56,-63.72 218.04,-44.46 216.35,-30.09"/>
<polygon fill="#63b8ff" stroke="#63b8ff" points="219.81,-29.52 215.51,-19.84 212.84,-30.09 219.81,-29.52"/>
</g>
<!-- Node17&#45;&gt;Node6 -->
<g id="edge43" class="edge">
<title>Node17&#45;&gt;Node6</title>
<path fill="none" stroke="#63b8ff" d="M387.45,-112.32C404.44,-103.66 430.79,-90.24 450.41,-80.25"/>
<polygon fill="#63b8ff" stroke="#63b8ff" points="452.1,-83.31 459.43,-75.65 448.93,-77.08 452.1,-83.31"/>
</g>
<!-- Node17&#45;&gt;Node7 -->
<g id="edge44" class="edge">
<title>Node17&#45;&gt;Node7</title>
<path fill="none" stroke="#63b8ff" d="M374.2,-112.29C380.53,-98.65 394.45,-72.13 413.41,-56 431.03,-41.02 454.45,-30.12 474.19,-22.81"/>
<polygon fill="#63b8ff" stroke="#63b8ff" points="475.57,-26.03 483.84,-19.41 473.24,-19.43 475.57,-26.03"/>
</g>
<!-- Node17&#45;&gt;Node8 -->
<g id="edge45" class="edge">
<title>Node17&#45;&gt;Node8</title>
<path fill="none" stroke="#63b8ff" d="M323.06,-112.47C292.2,-105.6 251.79,-94.05 219.41,-76 196.62,-63.29 174.86,-42.39 161.13,-27.73"/>
<polygon fill="#63b8ff" stroke="#63b8ff" points="163.34,-24.96 154.02,-19.92 158.17,-29.67 163.34,-24.96"/>
</g>
<!-- Node17&#45;&gt;Node9 -->
<g id="edge46" class="edge">
<title>Node17&#45;&gt;Node9</title>
<path fill="none" stroke="#63b8ff" d="M396.56,-112.44C426.11,-102.77 474.15,-87.05 505.26,-76.87"/>
<polygon fill="#63b8ff" stroke="#63b8ff" points="506.7,-80.08 515.11,-73.64 504.52,-73.43 506.7,-80.08"/>
</g>
<!-- Node17&#45;&gt;Node10 -->
<g id="edge47" class="edge">
<title>Node17&#45;&gt;Node10</title>
<path fill="none" stroke="#63b8ff" d="M321.55,-112.66C284.05,-105.39 231.42,-93.28 187.41,-76 152.25,-62.19 114.55,-39.7 91.73,-25.13"/>
<polygon fill="#63b8ff" stroke="#63b8ff" points="93.48,-22.1 83.19,-19.6 89.68,-27.97 93.48,-22.1"/>
</g>
<!-- Node17&#45;&gt;Node11 -->
<g id="edge48" class="edge">
<title>Node17&#45;&gt;Node11</title>
<path fill="none" stroke="#63b8ff" d="M356.44,-112.32C342.87,-103.9 322.03,-90.97 306.09,-81.07"/>
<polygon fill="#63b8ff" stroke="#63b8ff" points="307.7,-77.95 297.36,-75.65 304.01,-83.9 307.7,-77.95"/>
</g>
<!-- Node17&#45;&gt;Node14 -->
<g id="edge49" class="edge">
<title>Node17&#45;&gt;Node14</title>
<path fill="none" stroke="#63b8ff" d="M377.91,-112.14C390.62,-97.78 417.88,-69.66 447.41,-56 525.46,-19.91 628.06,-12.36 681.52,-11.03"/>
<polygon fill="#63b8ff" stroke="#63b8ff" points="681.6,-14.53 691.53,-10.84 681.47,-7.53 681.6,-14.53"/>
</g>
</g>
</svg>
