<?xml version="1.0" encoding="UTF-8" standalone="no"?>
<!DOCTYPE svg PUBLIC "-//W3C//DTD SVG 1.1//EN"
 "http://www.w3.org/Graphics/SVG/1.1/DTD/svg11.dtd">
<!-- Generated by graphviz version 6.0.2 (20221011.1828)
 -->
<!-- Title: ProjectHierarchy Pages: 1 -->
<!--zoomable 331 -->
<svg id="main" version="1.1" xmlns="http://www.w3.org/2000/svg" xmlns:xlink="http://www.w3.org/1999/xlink" xml:space="preserve" onload="init(evt)">
<style type="text/css"><![CDATA[
.edge:hover path { stroke: red; }
.edge:hover polygon { stroke: red; fill: red; }
]]></style>
<script type="text/javascript"><![CDATA[
var edges = document.getElementsByTagName('g');
if (edges && edges.length) {
  for (var i=0;i<edges.length;i++) {
    if (edges[i].id.substr(0,4)=='edge') {
      edges[i].setAttribute('class','edge');
    }
  }
}
]]></script>
        <defs>
                <circle id="rim" cx="0" cy="0" r="7"/>
                <circle id="rim2" cx="0" cy="0" r="3.5"/>
                <g id="zoomPlus">
                        <use xlink:href="#rim" fill="#404040">
                                <set attributeName="fill" to="#808080" begin="zoomplus.mouseover" end="zoomplus.mouseout"/>
                        </use>
                        <path d="M-4,0h8M0,-4v8" fill="none" stroke="white" stroke-width="1.5" pointer-events="none"/>
                </g>
                <g id="zoomMin">
                        <use xlink:href="#rim" fill="#404040">
                                <set attributeName="fill" to="#808080" begin="zoomminus.mouseover" end="zoomminus.mouseout"/>
                        </use>
                        <path d="M-4,0h8" fill="none" stroke="white" stroke-width="1.5" pointer-events="none"/>
                </g>
                <g id="dirArrow">
                        <path fill="none" stroke="white" stroke-width="1.5" d="M0,-3.0v7 M-2.5,-0.5L0,-3.0L2.5,-0.5"/>
                </g>
               <g id="resetDef">
                       <use xlink:href="#rim2" fill="#404040">
                               <set attributeName="fill" to="#808080" begin="reset.mouseover" end="reset.mouseout"/>
                       </use>
               </g>
        </defs>

<script type="text/javascript">
var viewWidth = 792;
var viewHeight = 331;
</script>
<script xlink:href="svgpan.js"/>
<svg id="graph" class="graph">
<g id="viewport">
<title>ProjectHierarchy</title>
<polygon fill="white" stroke="none" points="-4,4 -4,-432.44 1040,-432.44 1040,4 -4,4"/>
<!-- top -->
<g id="node1" class="node">
<title>top</title>
<g id="a_node1"><a xlink:href="index.html" target="_top" xlink:title="BPC&#45;PPC project 2022">
<path fill="none" stroke="#404040" d="M12,-362.94C12,-362.94 153,-362.94 153,-362.94 159,-362.94 165,-368.94 165,-374.94 165,-374.94 165,-386.94 165,-386.94 165,-392.94 159,-398.94 153,-398.94 153,-398.94 12,-398.94 12,-398.94 6,-398.94 0,-392.94 0,-386.94 0,-386.94 0,-374.94 0,-374.94 0,-368.94 6,-362.94 12,-362.94"/>
<text text-anchor="middle" x="82.5" y="-377.24" font-family="Helvetica,sans-Serif" font-size="14.00">BPC&#45;PPC project 2022</text>
</a>
</g>
</g>
<!-- ClassInfo -->
<g id="node2" class="node">
<title>ClassInfo</title>
<g id="a_node2"><a xlink:title="ClassInfo class template">
<path fill="none" stroke="#b2dfee" d="M824,-222.94C824,-222.94 889,-222.94 889,-222.94 895,-222.94 901,-228.94 901,-234.94 901,-234.94 901,-246.94 901,-246.94 901,-252.94 895,-258.94 889,-258.94 889,-258.94 824,-258.94 824,-258.94 818,-258.94 812,-252.94 812,-246.94 812,-246.94 812,-234.94 812,-234.94 812,-228.94 818,-222.94 824,-222.94"/>
<text text-anchor="middle" x="856.5" y="-237.24" font-family="Helvetica,sans-Serif" font-size="14.00">ClassInfo.h</text>
</a>
</g>
</g>
<!-- CStack -->
<g id="node5" class="node">
<title>CStack</title>
<g id="a_node5"><a xlink:href="_c_stack_8h.html" target="_top" xlink:title="CStack class">
<path fill="none" stroke="#7f7f7f" stroke-dasharray="1,5" d="M359,-212.94C359,-212.94 431,-212.94 431,-212.94 437,-212.94 443,-218.94 443,-224.94 443,-224.94 443,-238.94 443,-238.94 443,-244.94 437,-250.94 431,-250.94 431,-250.94 359,-250.94 359,-250.94 353,-250.94 347,-244.94 347,-238.94 347,-238.94 347,-224.94 347,-224.94 347,-218.94 353,-212.94 359,-212.94"/>
<text text-anchor="start" x="355" y="-235.74" font-family="Helvetica,sans-Serif" font-weight="bold" font-size="14.00">CStack.h</text>
<text text-anchor="middle" x="395" y="-220.74" font-family="Helvetica,sans-Serif" font-weight="bold" font-size="14.00">CStack.cpp</text>
</a>
</g>
</g>
<!-- ClassInfo&#45;&gt;CStack -->
<g id="edge18" class="edge">
<title>ClassInfo&#45;&gt;CStack</title>
<path fill="none" stroke="#9ac0cd" stroke-dasharray="5,2" d="M832.05,-258.95C813.4,-272.08 786.03,-288.78 759,-295.94 649.7,-324.9 518.36,-283.4 447.46,-254.9"/>
<polygon fill="#9ac0cd" stroke="#9ac0cd" points="448.45,-251.52 437.87,-250.97 445.8,-258 448.45,-251.52"/>
</g>
<!-- CBlock_long -->
<g id="node6" class="node">
<title>CBlock_long</title>
<g id="a_node6"><a xlink:href="_c_block__long_8h.html" target="_top" xlink:title="CBlock_long class">
<path fill="none" stroke="#eeb422" stroke-dasharray="1,5" d="M626.5,-139.94C626.5,-139.94 721.5,-139.94 721.5,-139.94 727.5,-139.94 733.5,-145.94 733.5,-151.94 733.5,-151.94 733.5,-163.94 733.5,-163.94 733.5,-169.94 727.5,-175.94 721.5,-175.94 721.5,-175.94 626.5,-175.94 626.5,-175.94 620.5,-175.94 614.5,-169.94 614.5,-163.94 614.5,-163.94 614.5,-151.94 614.5,-151.94 614.5,-145.94 620.5,-139.94 626.5,-139.94"/>
<text text-anchor="middle" x="674" y="-154.24" font-family="Helvetica,sans-Serif" font-weight="bold" font-size="14.00">CBlock_long.h</text>
</a>
</g>
</g>
<!-- ClassInfo&#45;&gt;CBlock_long -->
<g id="edge21" class="edge">
<title>ClassInfo&#45;&gt;CBlock_long</title>
<path fill="none" stroke="#9ac0cd" stroke-dasharray="5,2" d="M827.14,-222.81C808.31,-211.27 782.77,-196.55 759,-185.94 754,-183.71 748.76,-181.55 743.46,-179.5"/>
<polygon fill="#9ac0cd" stroke="#9ac0cd" points="744.45,-176.14 733.86,-175.92 742,-182.69 744.45,-176.14"/>
</g>
<!-- CBlock_TInterval -->
<g id="node7" class="node">
<title>CBlock_TInterval</title>
<g id="a_node7"><a xlink:href="_c_block___t_interval_8h.html" target="_top" xlink:title="CBlock_TInterval class">
<path fill="none" stroke="#eeb422" stroke-dasharray="1,5" d="M611.5,-249.94C611.5,-249.94 736.5,-249.94 736.5,-249.94 742.5,-249.94 748.5,-255.94 748.5,-261.94 748.5,-261.94 748.5,-273.94 748.5,-273.94 748.5,-279.94 742.5,-285.94 736.5,-285.94 736.5,-285.94 611.5,-285.94 611.5,-285.94 605.5,-285.94 599.5,-279.94 599.5,-273.94 599.5,-273.94 599.5,-261.94 599.5,-261.94 599.5,-255.94 605.5,-249.94 611.5,-249.94"/>
<text text-anchor="middle" x="674" y="-264.24" font-family="Helvetica,sans-Serif" font-weight="bold" font-size="14.00">CBlock_TInterval.h</text>
</a>
</g>
</g>
<!-- ClassInfo&#45;&gt;CBlock_TInterval -->
<g id="edge22" class="edge">
<title>ClassInfo&#45;&gt;CBlock_TInterval</title>
<path fill="none" stroke="#9ac0cd" stroke-dasharray="5,2" d="M811.81,-247.48C795.78,-249.87 777.07,-252.67 758.71,-255.42"/>
<polygon fill="#9ac0cd" stroke="#9ac0cd" points="757.94,-251.99 748.57,-256.93 758.98,-258.92 757.94,-251.99"/>
</g>
<!-- main -->
<g id="node8" class="node">
<title>main</title>
<g id="a_node8"><a xlink:href="main_8cpp.html" target="_top" xlink:title="main.cpp">
<path fill="none" stroke="#eeb422" stroke-dasharray="5,2" d="M231,-334.94C231,-334.94 281,-334.94 281,-334.94 287,-334.94 293,-340.94 293,-346.94 293,-346.94 293,-358.94 293,-358.94 293,-364.94 287,-370.94 281,-370.94 281,-370.94 231,-370.94 231,-370.94 225,-370.94 219,-364.94 219,-358.94 219,-358.94 219,-346.94 219,-346.94 219,-340.94 225,-334.94 231,-334.94"/>
<text text-anchor="middle" x="256" y="-349.24" font-family="Helvetica,sans-Serif" font-size="14.00">main.cpp</text>
</a>
</g>
</g>
<!-- ClassInfo&#45;&gt;main -->
<g id="edge17" class="edge">
<title>ClassInfo&#45;&gt;main</title>
<path fill="none" stroke="#9ac0cd" stroke-dasharray="5,2" d="M838.22,-259.01C820.26,-276.48 790.43,-302.02 759,-313.94 600.42,-374.1 393.86,-365.47 303.14,-357.77"/>
<polygon fill="#9ac0cd" stroke="#9ac0cd" points="303.45,-354.28 293.18,-356.88 302.83,-361.25 303.45,-354.28"/>
</g>
<!-- CBlock_bool -->
<g id="node10" class="node">
<title>CBlock_bool</title>
<g id="a_node10"><a xlink:href="_c_block__bool_8h.html" target="_top" xlink:title="CBlock_bool class">
<path fill="none" stroke="#eeb422" d="M631,-194.94C631,-194.94 717,-194.94 717,-194.94 723,-194.94 729,-200.94 729,-206.94 729,-206.94 729,-218.94 729,-218.94 729,-224.94 723,-230.94 717,-230.94 717,-230.94 631,-230.94 631,-230.94 625,-230.94 619,-224.94 619,-218.94 619,-218.94 619,-206.94 619,-206.94 619,-200.94 625,-194.94 631,-194.94"/>
<text text-anchor="middle" x="674" y="-209.24" font-family="Helvetica,sans-Serif" font-size="14.00">CBlock_bool.h</text>
</a>
</g>
</g>
<!-- ClassInfo&#45;&gt;CBlock_bool -->
<g id="edge19" class="edge">
<title>ClassInfo&#45;&gt;CBlock_bool</title>
<path fill="none" stroke="#9ac0cd" stroke-dasharray="5,2" d="M811.81,-234.16C790.08,-230.79 763.39,-226.65 739.38,-222.93"/>
<polygon fill="#9ac0cd" stroke="#9ac0cd" points="739.69,-219.43 729.27,-221.36 738.62,-226.35 739.69,-219.43"/>
</g>
<!-- CBlock_TWeekDay -->
<g id="node11" class="node">
<title>CBlock_TWeekDay</title>
<g id="a_node11"><a xlink:href="_c_block___t_week_day_8h.html" target="_top" xlink:title="CBlock_TWeekDay class">
<path fill="none" stroke="#eeb422" d="M601,-82.94C601,-82.94 747,-82.94 747,-82.94 753,-82.94 759,-88.94 759,-94.94 759,-94.94 759,-108.94 759,-108.94 759,-114.94 753,-120.94 747,-120.94 747,-120.94 601,-120.94 601,-120.94 595,-120.94 589,-114.94 589,-108.94 589,-108.94 589,-94.94 589,-94.94 589,-88.94 595,-82.94 601,-82.94"/>
<text text-anchor="start" x="597" y="-105.74" font-family="Helvetica,sans-Serif" font-size="14.00">CBlock_TWeekDay.h </text>
<text text-anchor="middle" x="674" y="-90.74" font-family="Helvetica,sans-Serif" font-size="14.00">CBlock_TWeekDay.cpp</text>
</a>
</g>
</g>
<!-- ClassInfo&#45;&gt;CBlock_TWeekDay -->
<g id="edge20" class="edge">
<title>ClassInfo&#45;&gt;CBlock_TWeekDay</title>
<path fill="none" stroke="#9ac0cd" stroke-dasharray="5,2" d="M832.29,-222.78C820.42,-212.88 806.15,-200 795,-186.94 775.79,-164.44 782.27,-149.22 759,-130.94 756.93,-129.31 754.76,-127.77 752.52,-126.32"/>
<polygon fill="#9ac0cd" stroke="#9ac0cd" points="753.95,-123.1 743.55,-121.11 750.44,-129.16 753.95,-123.1"/>
</g>
<!-- check -->
<g id="node3" class="node">
<title>check</title>
<g id="a_node3"><a xlink:title="Checker tool">
<path fill="none" stroke="#b2dfee" d="M966,-86.94C966,-86.94 1024,-86.94 1024,-86.94 1030,-86.94 1036,-92.94 1036,-98.94 1036,-98.94 1036,-112.94 1036,-112.94 1036,-118.94 1030,-124.94 1024,-124.94 1024,-124.94 966,-124.94 966,-124.94 960,-124.94 954,-118.94 954,-112.94 954,-112.94 954,-98.94 954,-98.94 954,-92.94 960,-86.94 966,-86.94"/>
<text text-anchor="start" x="962" y="-109.74" font-family="Helvetica,sans-Serif" font-size="14.00">check.h</text>
<text text-anchor="middle" x="995" y="-94.74" font-family="Helvetica,sans-Serif" font-size="14.00">check.cpp</text>
</a>
</g>
</g>
<!-- check&#45;&gt;CStack -->
<g id="edge14" class="edge">
<title>check&#45;&gt;CStack</title>
<path fill="none" stroke="#9ac0cd" stroke-dasharray="5,2" d="M977.42,-86.9C963.29,-72.17 941.58,-52.84 918,-43.94 781.18,7.72 724.04,18.2 589,-37.94 507.33,-71.89 442.37,-159.06 413.01,-204.09"/>
<polygon fill="#9ac0cd" stroke="#9ac0cd" points="409.9,-202.46 407.46,-212.77 415.8,-206.23 409.9,-202.46"/>
</g>
<!-- check&#45;&gt;main -->
<g id="edge13" class="edge">
<title>check&#45;&gt;main</title>
<path fill="none" stroke="#9ac0cd" stroke-dasharray="5,2" d="M989.49,-125.15C980.83,-158.3 959.01,-226.72 918,-268.94 833.8,-355.62 795.85,-390.94 675,-390.94 675,-390.94 675,-390.94 515,-390.94 440.04,-390.94 420.89,-388.59 347,-375.94 332.55,-373.46 317.01,-369.84 302.97,-366.21"/>
<polygon fill="#9ac0cd" stroke="#9ac0cd" points="303.62,-362.76 293.06,-363.57 301.82,-369.52 303.62,-362.76"/>
</g>
<!-- CBlock -->
<g id="node9" class="node">
<title>CBlock</title>
<g id="a_node9"><a xlink:href="_c_block_8h.html" target="_top" xlink:title="CBlock.h">
<path fill="none" stroke="#eeb422" stroke-dasharray="5,2" d="M491,-166.94C491,-166.94 541,-166.94 541,-166.94 547,-166.94 553,-172.94 553,-178.94 553,-178.94 553,-190.94 553,-190.94 553,-196.94 547,-202.94 541,-202.94 541,-202.94 491,-202.94 491,-202.94 485,-202.94 479,-196.94 479,-190.94 479,-190.94 479,-178.94 479,-178.94 479,-172.94 485,-166.94 491,-166.94"/>
<text text-anchor="middle" x="516" y="-181.24" font-family="Helvetica,sans-Serif" font-size="14.00">CBlock.h</text>
</a>
</g>
</g>
<!-- check&#45;&gt;CBlock -->
<g id="edge15" class="edge">
<title>check&#45;&gt;CBlock</title>
<path fill="none" stroke="#9ac0cd" stroke-dasharray="5,2" d="M953.9,-88.96C877.57,-59.45 708.35,-7.78 589,-72.94 556.44,-90.72 536.4,-130.23 525.99,-157.23"/>
<polygon fill="#9ac0cd" stroke="#9ac0cd" points="522.6,-156.3 522.46,-166.9 529.18,-158.7 522.6,-156.3"/>
</g>
<!-- CBlockBase -->
<g id="node12" class="node">
<title>CBlockBase</title>
<g id="a_node12"><a xlink:href="_c_block_base_8h.html" target="_top" xlink:title="CBlockBase class">
<path fill="none" stroke="#eeb422" d="M807,-138.94C807,-138.94 906,-138.94 906,-138.94 912,-138.94 918,-144.94 918,-150.94 918,-150.94 918,-164.94 918,-164.94 918,-170.94 912,-176.94 906,-176.94 906,-176.94 807,-176.94 807,-176.94 801,-176.94 795,-170.94 795,-164.94 795,-164.94 795,-150.94 795,-150.94 795,-144.94 801,-138.94 807,-138.94"/>
<text text-anchor="start" x="803" y="-161.74" font-family="Helvetica,sans-Serif" font-size="14.00">CBlockBase.h </text>
<text text-anchor="middle" x="856.5" y="-146.74" font-family="Helvetica,sans-Serif" font-size="14.00">CBlockBase.cpp</text>
</a>
</g>
</g>
<!-- check&#45;&gt;CBlockBase -->
<g id="edge16" class="edge">
<title>check&#45;&gt;CBlockBase</title>
<path fill="none" stroke="#9ac0cd" stroke-dasharray="5,2" d="M953.78,-121.26C942.25,-125.65 929.43,-130.54 917,-135.27"/>
<polygon fill="#9ac0cd" stroke="#9ac0cd" points="915.7,-132.02 907.6,-138.85 918.19,-138.56 915.7,-132.02"/>
</g>
<!-- Doxygen -->
<g id="node4" class="node">
<title>Doxygen</title>
<g id="a_node4"><a xlink:href="md__documentation.html#doc" target="_top" xlink:title="Doxygen documentation">
<path fill="none" stroke="green" stroke-dasharray="5,2" d="M213,-389.94C213,-389.94 299,-389.94 299,-389.94 305,-389.94 311,-395.94 311,-401.94 311,-401.94 311,-415.94 311,-415.94 311,-421.94 305,-427.94 299,-427.94 299,-427.94 213,-427.94 213,-427.94 207,-427.94 201,-421.94 201,-415.94 201,-415.94 201,-401.94 201,-401.94 201,-395.94 207,-389.94 213,-389.94"/>
<text text-anchor="middle" x="256" y="-412.74" font-family="Helvetica,sans-Serif" font-size="14.00">Doxygen</text>
<text text-anchor="middle" x="256" y="-397.74" font-family="Helvetica,sans-Serif" font-size="14.00">documentation</text>
</a>
</g>
</g>
<!-- Doxygen&#45;&gt;top -->
<g id="edge1" class="edge">
<title>Doxygen&#45;&gt;top</title>
<path fill="none" stroke="green" d="M200.74,-400.08C192.63,-398.76 184.08,-397.36 175.45,-395.95"/>
<polygon fill="green" stroke="green" points="175.73,-392.45 165.29,-394.29 174.6,-399.36 175.73,-392.45"/>
</g>
<!-- CStack&#45;&gt;main -->
<g id="edge3" class="edge">
<title>CStack&#45;&gt;main</title>
<path fill="none" stroke="#eeb422" d="M372.29,-251.11C348.77,-271.89 311.15,-305.11 285.32,-327.93"/>
<polygon fill="#eeb422" stroke="#eeb422" points="282.89,-325.4 277.71,-334.65 287.52,-330.65 282.89,-325.4"/>
</g>
<!-- CBlock_long&#45;&gt;CBlock -->
<g id="edge7" class="edge">
<title>CBlock_long&#45;&gt;CBlock</title>
<path fill="none" stroke="#eeb422" d="M614.47,-168.07C597.59,-170.99 579.41,-174.14 563.38,-176.91"/>
<polygon fill="#eeb422" stroke="#eeb422" points="562.44,-173.52 553.19,-178.68 563.64,-180.42 562.44,-173.52"/>
</g>
<!-- CBlock_TInterval&#45;&gt;CBlock -->
<g id="edge8" class="edge">
<title>CBlock_TInterval&#45;&gt;CBlock</title>
<path fill="none" stroke="#eeb422" d="M608.74,-249.89C601.93,-247.21 595.23,-244.23 589,-240.94 573.15,-232.57 557.24,-220.65 544.42,-209.96"/>
<polygon fill="#eeb422" stroke="#eeb422" points="546.35,-207 536.47,-203.16 541.8,-212.32 546.35,-207"/>
</g>
<!-- main&#45;&gt;top -->
<g id="edge2" class="edge">
<title>main&#45;&gt;top</title>
<path fill="none" stroke="#eeb422" d="M218.63,-358.88C205.8,-360.97 190.75,-363.43 175.42,-365.93"/>
<polygon fill="#eeb422" stroke="#eeb422" points="174.64,-362.51 165.33,-367.58 175.77,-369.42 174.64,-362.51"/>
</g>
<!-- CBlock&#45;&gt;CStack -->
<g id="edge4" class="edge">
<title>CBlock&#45;&gt;CStack</title>
<path fill="none" stroke="#eeb422" d="M478.97,-199.17C470.73,-202.42 461.78,-205.96 452.9,-209.46"/>
<polygon fill="#eeb422" stroke="#eeb422" points="451.35,-206.31 443.34,-213.24 453.93,-212.82 451.35,-206.31"/>
</g>
<!-- CBlock_bool&#45;&gt;CBlock -->
<g id="edge5" class="edge">
<title>CBlock_bool&#45;&gt;CBlock</title>
<path fill="none" stroke="#eeb422" d="M618.88,-203.22C600.78,-199.98 580.79,-196.39 563.34,-193.26"/>
<polygon fill="#eeb422" stroke="#eeb422" points="563.85,-189.79 553.39,-191.47 562.62,-196.68 563.85,-189.79"/>
</g>
<!-- CBlock_TWeekDay&#45;&gt;CBlock -->
<g id="edge6" class="edge">
<title>CBlock_TWeekDay&#45;&gt;CBlock</title>
<path fill="none" stroke="#eeb422" d="M610.6,-121.03C603.17,-124.01 595.81,-127.32 589,-130.94 573.72,-139.05 558.18,-150.25 545.47,-160.35"/>
<polygon fill="#eeb422" stroke="#eeb422" points="543.11,-157.76 537.56,-166.78 547.53,-163.19 543.11,-157.76"/>
</g>
<!-- CBlockBase&#45;&gt;CBlock_long -->
<g id="edge11" class="edge">
<title>CBlockBase&#45;&gt;CBlock_long</title>
<path fill="none" stroke="#eeb422" d="M794.89,-157.94C778.52,-157.94 760.69,-157.94 743.9,-157.94"/>
<polygon fill="#eeb422" stroke="#eeb422" points="743.61,-154.44 733.61,-157.94 743.61,-161.44 743.61,-154.44"/>
</g>
<!-- CBlockBase&#45;&gt;CBlock_TInterval -->
<g id="edge12" class="edge">
<title>CBlockBase&#45;&gt;CBlock_TInterval</title>
<path fill="none" stroke="#eeb422" d="M835.28,-177.02C812.13,-198.56 775.29,-231.81 759,-240.94 755.97,-242.64 752.81,-244.25 749.58,-245.77"/>
<polygon fill="#eeb422" stroke="#eeb422" points="748.06,-242.61 740.31,-249.84 750.87,-249.03 748.06,-242.61"/>
</g>
<!-- CBlockBase&#45;&gt;CBlock_bool -->
<g id="edge9" class="edge">
<title>CBlockBase&#45;&gt;CBlock_bool</title>
<path fill="none" stroke="#eeb422" d="M794.89,-176.41C776.84,-181.91 757,-187.95 738.75,-193.51"/>
<polygon fill="#eeb422" stroke="#eeb422" points="737.63,-190.2 729.08,-196.46 739.67,-196.89 737.63,-190.2"/>
</g>
<!-- CBlockBase&#45;&gt;CBlock_TWeekDay -->
<g id="edge10" class="edge">
<title>CBlockBase&#45;&gt;CBlock_TWeekDay</title>
<path fill="none" stroke="#eeb422" d="M794.89,-139.14C779.29,-134.29 762.35,-129.04 746.26,-124.05"/>
<polygon fill="#eeb422" stroke="#eeb422" points="746.96,-120.6 736.37,-120.98 744.88,-127.28 746.96,-120.6"/>
</g>
</g>
</svg>
        <g id="navigator" transform="translate(0 0)" fill="#404254">
                <rect fill="#f2f5e9" fill-opacity="0.5" stroke="#606060" stroke-width=".5" x="0" y="0" width="60" height="60"/>
                <use id="zoomplus" xlink:href="#zoomPlus" x="17" y="9" onmousedown="handleZoom(evt,'in')"/>
                <use id="zoomminus" xlink:href="#zoomMin" x="42" y="9" onmousedown="handleZoom(evt,'out')"/>
                <use id="reset" xlink:href="#resetDef" x="30" y="36" onmousedown="handleReset()"/>
                <g id="arrowUp" xlink:href="#dirArrow" transform="translate(30 24)" onmousedown="handlePan(0,-1)">
                  <use xlink:href="#rim" fill="#404040">
                        <set attributeName="fill" to="#808080" begin="arrowUp.mouseover" end="arrowUp.mouseout"/>
                  </use>
                  <path fill="none" stroke="white" stroke-width="1.5" d="M0,-3.0v7 M-2.5,-0.5L0,-3.0L2.5,-0.5"/>
                </g>
                <g id="arrowRight" xlink:href="#dirArrow" transform="rotate(90) translate(36 -43)" onmousedown="handlePan(1,0)">
                  <use xlink:href="#rim" fill="#404040">
                        <set attributeName="fill" to="#808080" begin="arrowRight.mouseover" end="arrowRight.mouseout"/>
                  </use>
                  <path fill="none" stroke="white" stroke-width="1.5" d="M0,-3.0v7 M-2.5,-0.5L0,-3.0L2.5,-0.5"/>
                </g>
                <g id="arrowDown" xlink:href="#dirArrow" transform="rotate(180) translate(-30 -48)" onmousedown="handlePan(0,1)">
                  <use xlink:href="#rim" fill="#404040">
                        <set attributeName="fill" to="#808080" begin="arrowDown.mouseover" end="arrowDown.mouseout"/>
                  </use>
                  <path fill="none" stroke="white" stroke-width="1.5" d="M0,-3.0v7 M-2.5,-0.5L0,-3.0L2.5,-0.5"/>
                </g>
                <g id="arrowLeft" xlink:href="#dirArrow" transform="rotate(270) translate(-36 17)" onmousedown="handlePan(-1,0)">
                  <use xlink:href="#rim" fill="#404040">
                        <set attributeName="fill" to="#808080" begin="arrowLeft.mouseover" end="arrowLeft.mouseout"/>
                  </use>
                  <path fill="none" stroke="white" stroke-width="1.5" d="M0,-3.0v7 M-2.5,-0.5L0,-3.0L2.5,-0.5"/>
                </g>
        </g>
        <svg viewBox="0 0 15 15" width="100%" height="30px" preserveAspectRatio="xMaxYMin meet">
         <g id="arrow_out" transform="scale(0.3 0.3)">
          <a xlink:href="dot_project_hierarchy_org.svg" target="_base">
           <rect id="button" ry="5" rx="5" y="6" x="6" height="38" width="38"
                fill="#f2f5e9" fill-opacity="0.5" stroke="#606060" stroke-width="1.0"/>
           <path id="arrow"
             d="M 11.500037,31.436501 C 11.940474,20.09759 22.043105,11.32322 32.158766,21.979434 L 37.068811,17.246167 C 37.068811,17.246167 37.088388,32 37.088388,32 L 22.160133,31.978069 C 22.160133,31.978069 26.997745,27.140456 26.997745,27.140456 C 18.528582,18.264221 13.291696,25.230495 11.500037,31.436501 z"
             style="fill:#404040;"/>
          </a>
         </g>
        </svg>
</svg>
