<?xml version="1.0" encoding="UTF-8" standalone="no"?>
<!DOCTYPE svg PUBLIC "-//W3C//DTD SVG 1.1//EN"
 "http://www.w3.org/Graphics/SVG/1.1/DTD/svg11.dtd">
<!-- Generated by graphviz version 6.0.2 (20221011.1828)
 -->
<!-- Title: main.cpp Pages: 1 -->
<svg width="1486pt" height="308pt"
 viewBox="0.00 0.00 1485.50 308.00" xmlns="http://www.w3.org/2000/svg" xmlns:xlink="http://www.w3.org/1999/xlink">
<g id="graph0" class="graph" transform="scale(1 1) rotate(0) translate(4 304)">
<title>main.cpp</title>
<!-- Node1 -->
<g id="node1" class="node">
<title>Node1</title>
<g id="a_node1"><a xlink:title="Main source.">
<polygon fill="#999999" stroke="#666666" points="641.5,-280.5 641.5,-299.5 697.5,-299.5 697.5,-280.5 641.5,-280.5"/>
<text text-anchor="middle" x="669.5" y="-287.5" font-family="Helvetica,sans-Serif" font-size="10.00">main.cpp</text>
</a>
</g>
</g>
<!-- Node2 -->
<g id="node2" class="node">
<title>Node2</title>
<g id="a_node2"><a xlink:title=" ">
<polygon fill="#e0e0e0" stroke="#999999" points="0,-224.5 0,-243.5 41,-243.5 41,-224.5 0,-224.5"/>
<text text-anchor="middle" x="20.5" y="-231.5" font-family="Helvetica,sans-Serif" font-size="10.00">ctime</text>
</a>
</g>
</g>
<!-- Node1&#45;&gt;Node2 -->
<g id="edge1" class="edge">
<title>Node1&#45;&gt;Node2</title>
<path fill="none" stroke="#63b8ff" d="M641.45,-288.72C554.09,-287.47 279.37,-280.69 55.5,-244 54.03,-243.76 52.53,-243.49 51.02,-243.19"/>
<polygon fill="#63b8ff" stroke="#63b8ff" points="51.62,-239.73 41.1,-240.95 50.08,-246.56 51.62,-239.73"/>
</g>
<!-- Node3 -->
<g id="node3" class="node">
<title>Node3</title>
<g id="a_node3"><a xlink:title=" ">
<polygon fill="#e0e0e0" stroke="#999999" points="410.5,-0.5 410.5,-19.5 464.5,-19.5 464.5,-0.5 410.5,-0.5"/>
<text text-anchor="middle" x="437.5" y="-7.5" font-family="Helvetica,sans-Serif" font-size="10.00">iostream</text>
</a>
</g>
</g>
<!-- Node1&#45;&gt;Node3 -->
<g id="edge2" class="edge">
<title>Node1&#45;&gt;Node3</title>
<path fill="none" stroke="#63b8ff" d="M641.5,-289.28C544.24,-289.83 222.02,-288.23 130.5,-244 94.83,-226.76 69.5,-218.62 69.5,-179 69.5,-179 69.5,-179 69.5,-121 69.5,-83.44 90.72,-74.33 123.5,-56 170.34,-29.8 327.88,-17.41 400.4,-12.99"/>
<polygon fill="#63b8ff" stroke="#63b8ff" points="400.68,-16.48 410.46,-12.39 400.27,-9.49 400.68,-16.48"/>
</g>
<!-- Node4 -->
<g id="node4" class="node">
<title>Node4</title>
<g id="a_node4"><a xlink:title=" ">
<polygon fill="#e0e0e0" stroke="#999999" points="578,-0.5 578,-19.5 637,-19.5 637,-0.5 578,-0.5"/>
<text text-anchor="middle" x="607.5" y="-7.5" font-family="Helvetica,sans-Serif" font-size="10.00">stdexcept</text>
</a>
</g>
</g>
<!-- Node1&#45;&gt;Node4 -->
<g id="edge3" class="edge">
<title>Node1&#45;&gt;Node4</title>
<path fill="none" stroke="#63b8ff" d="M641.21,-288.79C549.48,-287.73 261.41,-281.45 177.5,-244 138.73,-226.7 107.5,-221.46 107.5,-179 107.5,-179 107.5,-179 107.5,-121 107.5,-84 127,-73.67 159.5,-56 177.34,-46.3 461.48,-22.69 567.78,-14.15"/>
<polygon fill="#63b8ff" stroke="#63b8ff" points="568.1,-17.64 577.79,-13.35 567.54,-10.66 568.1,-17.64"/>
</g>
<!-- Node5 -->
<g id="node5" class="node">
<title>Node5</title>
<g id="a_node5"><a xlink:title=" ">
<polygon fill="#e0e0e0" stroke="#999999" points="703.5,-0.5 703.5,-19.5 753.5,-19.5 753.5,-0.5 703.5,-0.5"/>
<text text-anchor="middle" x="728.5" y="-7.5" font-family="Helvetica,sans-Serif" font-size="10.00">typeinfo</text>
</a>
</g>
</g>
<!-- Node1&#45;&gt;Node5 -->
<g id="edge4" class="edge">
<title>Node1&#45;&gt;Node5</title>
<path fill="none" stroke="#63b8ff" d="M641.33,-289.15C532.49,-289 145.5,-281.25 145.5,-179 145.5,-179 145.5,-179 145.5,-121 145.5,8.58 378.48,-47.43 645.5,-20 661.16,-18.39 678.48,-16.53 693.22,-14.91"/>
<polygon fill="#63b8ff" stroke="#63b8ff" points="693.89,-18.36 703.45,-13.79 693.12,-11.4 693.89,-18.36"/>
</g>
<!-- Node6 -->
<g id="node6" class="node">
<title>Node6</title>
<g id="a_node6"><a xlink:title=" ">
<polygon fill="#e0e0e0" stroke="#999999" points="1415.5,-224.5 1415.5,-243.5 1477.5,-243.5 1477.5,-224.5 1415.5,-224.5"/>
<text text-anchor="middle" x="1446.5" y="-231.5" font-family="Helvetica,sans-Serif" font-size="10.00">type_traits</text>
</a>
</g>
</g>
<!-- Node1&#45;&gt;Node6 -->
<g id="edge5" class="edge">
<title>Node1&#45;&gt;Node6</title>
<path fill="none" stroke="#63b8ff" d="M697.55,-288.65C795.15,-287.13 1128.78,-279.49 1401.5,-244 1402.61,-243.86 1403.73,-243.7 1404.85,-243.54"/>
<polygon fill="#63b8ff" stroke="#63b8ff" points="1405.82,-246.92 1415.12,-241.84 1404.68,-240.02 1405.82,-246.92"/>
</g>
<!-- Node7 -->
<g id="node7" class="node">
<title>Node7</title>
<g id="a_node7"><a xlink:title=" ">
<polygon fill="#e0e0e0" stroke="#999999" points="1224.5,-0.5 1224.5,-19.5 1286.5,-19.5 1286.5,-0.5 1224.5,-0.5"/>
<text text-anchor="middle" x="1255.5" y="-7.5" font-family="Helvetica,sans-Serif" font-size="10.00">demagle.h</text>
</a>
</g>
</g>
<!-- Node1&#45;&gt;Node7 -->
<g id="edge6" class="edge">
<title>Node1&#45;&gt;Node7</title>
<path fill="none" stroke="#63b8ff" d="M697.62,-289.62C779.79,-290.83 1026.16,-290.04 1223.5,-244 1299.85,-226.19 1387.5,-257.41 1387.5,-179 1387.5,-179 1387.5,-179 1387.5,-121 1387.5,-70.81 1330.49,-39.08 1291.4,-23.22"/>
<polygon fill="#63b8ff" stroke="#63b8ff" points="1292.48,-19.89 1281.89,-19.53 1289.95,-26.42 1292.48,-19.89"/>
</g>
<!-- Node8 -->
<g id="node8" class="node">
<title>Node8</title>
<g id="a_node8"><a xlink:href="_c_block_8h.html" target="_top" xlink:title="General header for CBlock.">
<polygon fill="white" stroke="#666666" points="670.5,-168.5 670.5,-187.5 726.5,-187.5 726.5,-168.5 670.5,-168.5"/>
<text text-anchor="middle" x="698.5" y="-175.5" font-family="Helvetica,sans-Serif" font-size="10.00">CBlock.h</text>
</a>
</g>
</g>
<!-- Node1&#45;&gt;Node8 -->
<g id="edge7" class="edge">
<title>Node1&#45;&gt;Node8</title>
<path fill="none" stroke="#63b8ff" d="M671.78,-280.37C676.48,-262.54 687.35,-221.3 693.68,-197.27"/>
<polygon fill="#63b8ff" stroke="#63b8ff" points="697.07,-198.15 696.23,-187.59 690.3,-196.37 697.07,-198.15"/>
</g>
<!-- Node16 -->
<g id="node16" class="node">
<title>Node16</title>
<g id="a_node16"><a xlink:title=" ">
<polygon fill="#e0e0e0" stroke="#999999" points="1022,-0.5 1022,-19.5 1073,-19.5 1073,-0.5 1022,-0.5"/>
<text text-anchor="middle" x="1047.5" y="-7.5" font-family="Helvetica,sans-Serif" font-size="10.00">check.h</text>
</a>
</g>
</g>
<!-- Node1&#45;&gt;Node16 -->
<g id="edge56" class="edge">
<title>Node1&#45;&gt;Node16</title>
<path fill="none" stroke="#63b8ff" d="M697.85,-287.46C826.55,-280.11 1349.5,-246.12 1349.5,-179 1349.5,-179 1349.5,-179 1349.5,-121 1349.5,-79.83 1319.96,-75.12 1283.5,-56 1218.6,-21.96 1131.61,-13.45 1083.43,-11.46"/>
<polygon fill="#63b8ff" stroke="#63b8ff" points="1083.3,-7.95 1073.19,-11.11 1083.06,-14.95 1083.3,-7.95"/>
</g>
<!-- Node20 -->
<g id="node20" class="node">
<title>Node20</title>
<g id="a_node20"><a xlink:href="_c_stack_8h.html" target="_top" xlink:title="CStack class header.">
<polygon fill="white" stroke="#666666" points="698,-224.5 698,-243.5 755,-243.5 755,-224.5 698,-224.5"/>
<text text-anchor="middle" x="726.5" y="-231.5" font-family="Helvetica,sans-Serif" font-size="10.00">CStack.h</text>
</a>
</g>
</g>
<!-- Node1&#45;&gt;Node20 -->
<g id="edge57" class="edge">
<title>Node1&#45;&gt;Node20</title>
<path fill="none" stroke="#63b8ff" d="M678.66,-280.32C687,-272.42 699.53,-260.55 709.68,-250.94"/>
<polygon fill="#63b8ff" stroke="#63b8ff" points="712.32,-253.25 717.18,-243.83 707.51,-248.17 712.32,-253.25"/>
</g>
<!-- Node9 -->
<g id="node9" class="node">
<title>Node9</title>
<g id="a_node9"><a xlink:href="_c_block__bool_8h.html" target="_top" xlink:title="CBlock_bool class header.">
<polygon fill="white" stroke="#666666" points="314.5,-112.5 314.5,-131.5 394.5,-131.5 394.5,-112.5 314.5,-112.5"/>
<text text-anchor="middle" x="354.5" y="-119.5" font-family="Helvetica,sans-Serif" font-size="10.00">CBlock_bool.h</text>
</a>
</g>
</g>
<!-- Node8&#45;&gt;Node9 -->
<g id="edge8" class="edge">
<title>Node8&#45;&gt;Node9</title>
<path fill="none" stroke="#63b8ff" d="M670.35,-172.58C612.19,-163.45 478.09,-142.4 404.71,-130.88"/>
<polygon fill="#63b8ff" stroke="#63b8ff" points="405.2,-127.42 394.78,-129.32 404.11,-134.33 405.2,-127.42"/>
</g>
<!-- Node17 -->
<g id="node17" class="node">
<title>Node17</title>
<g id="a_node17"><a xlink:href="_c_block__long_8h.html" target="_top" xlink:title="CBlock_long class header.">
<polygon fill="white" stroke="#666666" points="542.5,-112.5 542.5,-131.5 622.5,-131.5 622.5,-112.5 542.5,-112.5"/>
<text text-anchor="middle" x="582.5" y="-119.5" font-family="Helvetica,sans-Serif" font-size="10.00">CBlock_long.h</text>
</a>
</g>
</g>
<!-- Node8&#45;&gt;Node17 -->
<g id="edge26" class="edge">
<title>Node8&#45;&gt;Node17</title>
<path fill="none" stroke="#63b8ff" d="M680.12,-168.44C661.28,-159.68 631.77,-145.94 610.12,-135.86"/>
<polygon fill="#63b8ff" stroke="#63b8ff" points="611.34,-132.56 600.79,-131.52 608.38,-138.91 611.34,-132.56"/>
</g>
<!-- Node18 -->
<g id="node18" class="node">
<title>Node18</title>
<g id="a_node18"><a xlink:href="_c_block___t_week_day_8h.html" target="_top" xlink:title="CBlock_TWeekDay class header.">
<polygon fill="white" stroke="#666666" points="759.5,-112.5 759.5,-131.5 869.5,-131.5 869.5,-112.5 759.5,-112.5"/>
<text text-anchor="middle" x="814.5" y="-119.5" font-family="Helvetica,sans-Serif" font-size="10.00">CBlock_TWeekDay.h</text>
</a>
</g>
</g>
<!-- Node8&#45;&gt;Node18 -->
<g id="edge36" class="edge">
<title>Node8&#45;&gt;Node18</title>
<path fill="none" stroke="#63b8ff" d="M716.88,-168.44C735.72,-159.68 765.23,-145.94 786.88,-135.86"/>
<polygon fill="#63b8ff" stroke="#63b8ff" points="788.62,-138.91 796.21,-131.52 785.66,-132.56 788.62,-138.91"/>
</g>
<!-- Node19 -->
<g id="node19" class="node">
<title>Node19</title>
<g id="a_node19"><a xlink:href="_c_block___t_interval_8h.html" target="_top" xlink:title="CBlock_TInterval class header.">
<polygon fill="white" stroke="#666666" points="1054,-112.5 1054,-131.5 1151,-131.5 1151,-112.5 1054,-112.5"/>
<text text-anchor="middle" x="1102.5" y="-119.5" font-family="Helvetica,sans-Serif" font-size="10.00">CBlock_TInterval.h</text>
</a>
</g>
</g>
<!-- Node8&#45;&gt;Node19 -->
<g id="edge46" class="edge">
<title>Node8&#45;&gt;Node19</title>
<path fill="none" stroke="#63b8ff" d="M726.59,-173.25C792,-164.5 955.61,-142.63 1043.87,-130.84"/>
<polygon fill="#63b8ff" stroke="#63b8ff" points="1044.54,-134.28 1053.98,-129.48 1043.61,-127.34 1044.54,-134.28"/>
</g>
<!-- Node9&#45;&gt;Node3 -->
<g id="edge9" class="edge">
<title>Node9&#45;&gt;Node3</title>
<path fill="none" stroke="#63b8ff" d="M314.44,-117.42C260.74,-111.07 175.66,-94.67 207.5,-56 231.47,-26.89 341.32,-16.34 400.11,-12.74"/>
<polygon fill="#63b8ff" stroke="#63b8ff" points="400.34,-16.23 410.12,-12.16 399.93,-9.24 400.34,-16.23"/>
</g>
<!-- Node9&#45;&gt;Node4 -->
<g id="edge12" class="edge">
<title>Node9&#45;&gt;Node4</title>
<path fill="none" stroke="#63b8ff" d="M314.21,-112.62C273.99,-102.49 221.36,-83.33 245.5,-56 256.1,-44 475.8,-22.88 567.67,-14.54"/>
<polygon fill="#63b8ff" stroke="#63b8ff" points="568.06,-18.02 577.7,-13.63 567.43,-11.04 568.06,-18.02"/>
</g>
<!-- Node9&#45;&gt;Node5 -->
<g id="edge13" class="edge">
<title>Node9&#45;&gt;Node5</title>
<path fill="none" stroke="#63b8ff" d="M332.25,-112.31C304.72,-100.35 263.76,-77.8 283.5,-56 310.63,-26.04 605.3,-24.18 645.5,-20 661.16,-18.37 678.48,-16.51 693.22,-14.9"/>
<polygon fill="#63b8ff" stroke="#63b8ff" points="693.89,-18.34 703.44,-13.78 693.12,-11.39 693.89,-18.34"/>
</g>
<!-- Node10 -->
<g id="node10" class="node">
<title>Node10</title>
<g id="a_node10"><a xlink:title=" ">
<polygon fill="#e0e0e0" stroke="#999999" points="795.5,-0.5 795.5,-19.5 847.5,-19.5 847.5,-0.5 795.5,-0.5"/>
<text text-anchor="middle" x="821.5" y="-7.5" font-family="Helvetica,sans-Serif" font-size="10.00">sstream</text>
</a>
</g>
</g>
<!-- Node9&#45;&gt;Node10 -->
<g id="edge10" class="edge">
<title>Node9&#45;&gt;Node10</title>
<path fill="none" stroke="#63b8ff" d="M343.91,-112.09C329.15,-98.64 305.89,-72.94 321.5,-56 354.82,-19.85 713.67,-25.71 762.5,-20 769.93,-19.13 777.86,-18.04 785.42,-16.91"/>
<polygon fill="#63b8ff" stroke="#63b8ff" points="786.06,-20.36 795.41,-15.38 785,-13.44 786.06,-20.36"/>
</g>
<!-- Node11 -->
<g id="node11" class="node">
<title>Node11</title>
<g id="a_node11"><a xlink:title=" ">
<polygon fill="#e0e0e0" stroke="#999999" points="630,-56.5 630,-75.5 671,-75.5 671,-56.5 630,-56.5"/>
<text text-anchor="middle" x="650.5" y="-63.5" font-family="Helvetica,sans-Serif" font-size="10.00">string</text>
</a>
</g>
</g>
<!-- Node9&#45;&gt;Node11 -->
<g id="edge11" class="edge">
<title>Node9&#45;&gt;Node11</title>
<path fill="none" stroke="#63b8ff" d="M394.73,-113.66C454.6,-102.74 565.85,-82.44 619.71,-72.62"/>
<polygon fill="#63b8ff" stroke="#63b8ff" points="620.47,-76.04 629.68,-70.8 619.22,-69.15 620.47,-76.04"/>
</g>
<!-- Node12 -->
<g id="node12" class="node">
<title>Node12</title>
<g id="a_node12"><a xlink:title=" ">
<polygon fill="#e0e0e0" stroke="#999999" points="689.5,-56.5 689.5,-75.5 729.5,-75.5 729.5,-56.5 689.5,-56.5"/>
<text text-anchor="middle" x="709.5" y="-63.5" font-family="Helvetica,sans-Serif" font-size="10.00">utility</text>
</a>
</g>
</g>
<!-- Node9&#45;&gt;Node12 -->
<g id="edge14" class="edge">
<title>Node9&#45;&gt;Node12</title>
<path fill="none" stroke="#63b8ff" d="M394.62,-117.45C456.34,-111.54 578.07,-98.1 679.5,-76 679.6,-75.98 679.7,-75.96 679.8,-75.93"/>
<polygon fill="#63b8ff" stroke="#63b8ff" points="680.45,-79.38 689.28,-73.53 678.72,-72.6 680.45,-79.38"/>
</g>
<!-- Node13 -->
<g id="node13" class="node">
<title>Node13</title>
<g id="a_node13"><a xlink:title=" ">
<polygon fill="#e0e0e0" stroke="#999999" points="866,-0.5 866,-19.5 931,-19.5 931,-0.5 866,-0.5"/>
<text text-anchor="middle" x="898.5" y="-7.5" font-family="Helvetica,sans-Serif" font-size="10.00">ClassInfo.h</text>
</a>
</g>
</g>
<!-- Node9&#45;&gt;Node13 -->
<g id="edge15" class="edge">
<title>Node9&#45;&gt;Node13</title>
<path fill="none" stroke="#63b8ff" d="M352.07,-112.41C348.7,-98.44 344.58,-70.85 359.5,-56 397.05,-18.62 767.73,-26.98 855.51,-19.6"/>
<polygon fill="#63b8ff" stroke="#63b8ff" points="856,-23.07 865.56,-18.51 855.24,-16.11 856,-23.07"/>
</g>
<!-- Node14 -->
<g id="node14" class="node">
<title>Node14</title>
<g id="a_node14"><a xlink:href="_c_block_base_8h.html" target="_top" xlink:title="CBlockBase class header.">
<polygon fill="white" stroke="#666666" points="862,-56.5 862,-75.5 941,-75.5 941,-56.5 862,-56.5"/>
<text text-anchor="middle" x="901.5" y="-63.5" font-family="Helvetica,sans-Serif" font-size="10.00">CBlockBase.h</text>
</a>
</g>
</g>
<!-- Node9&#45;&gt;Node14 -->
<g id="edge16" class="edge">
<title>Node9&#45;&gt;Node14</title>
<path fill="none" stroke="#63b8ff" d="M394.72,-117.03C492.86,-107.34 744.37,-82.51 851.72,-71.91"/>
<polygon fill="#63b8ff" stroke="#63b8ff" points="852.35,-75.37 861.96,-70.9 851.66,-68.4 852.35,-75.37"/>
</g>
<!-- Node9&#45;&gt;Node16 -->
<g id="edge25" class="edge">
<title>Node9&#45;&gt;Node16</title>
<path fill="none" stroke="#63b8ff" d="M380.52,-112.46C424.78,-98.31 517.75,-70.16 598.5,-56 777.22,-24.67 828.64,-50.17 1012.02,-19.76"/>
<polygon fill="#63b8ff" stroke="#63b8ff" points="1012.71,-23.2 1021.99,-18.08 1011.55,-16.29 1012.71,-23.2"/>
</g>
<!-- Node14&#45;&gt;Node3 -->
<g id="edge18" class="edge">
<title>Node14&#45;&gt;Node3</title>
<path fill="none" stroke="#63b8ff" d="M861.94,-60.4C773.58,-50.11 561.18,-25.39 474.89,-15.35"/>
<polygon fill="#63b8ff" stroke="#63b8ff" points="475.11,-11.85 464.77,-14.17 474.3,-18.81 475.11,-11.85"/>
</g>
<!-- Node14&#45;&gt;Node4 -->
<g id="edge20" class="edge">
<title>Node14&#45;&gt;Node4</title>
<path fill="none" stroke="#63b8ff" d="M861.85,-57.72C805.63,-47.39 703.36,-28.61 647.14,-18.28"/>
<polygon fill="#63b8ff" stroke="#63b8ff" points="647.67,-14.82 637.2,-16.46 646.41,-21.7 647.67,-14.82"/>
</g>
<!-- Node14&#45;&gt;Node5 -->
<g id="edge21" class="edge">
<title>Node14&#45;&gt;Node5</title>
<path fill="none" stroke="#63b8ff" d="M874.09,-56.44C844.04,-47.06 795.77,-32 763.13,-21.81"/>
<polygon fill="#63b8ff" stroke="#63b8ff" points="764.13,-18.45 753.54,-18.82 762.04,-25.14 764.13,-18.45"/>
</g>
<!-- Node14&#45;&gt;Node7 -->
<g id="edge23" class="edge">
<title>Node14&#45;&gt;Node7</title>
<path fill="none" stroke="#63b8ff" d="M941.08,-58.96C1008.69,-48.65 1145.78,-27.74 1214.41,-17.27"/>
<polygon fill="#63b8ff" stroke="#63b8ff" points="1215.07,-20.71 1224.42,-15.74 1214.01,-13.79 1215.07,-20.71"/>
</g>
<!-- Node14&#45;&gt;Node10 -->
<g id="edge19" class="edge">
<title>Node14&#45;&gt;Node10</title>
<path fill="none" stroke="#63b8ff" d="M888.65,-56.32C876.28,-47.98 857.37,-35.21 842.76,-25.35"/>
<polygon fill="#63b8ff" stroke="#63b8ff" points="844.57,-22.35 834.32,-19.65 840.65,-28.15 844.57,-22.35"/>
</g>
<!-- Node14&#45;&gt;Node13 -->
<g id="edge22" class="edge">
<title>Node14&#45;&gt;Node13</title>
<path fill="none" stroke="#63b8ff" d="M901,-56.08C900.61,-49.01 900.05,-38.86 899.55,-29.99"/>
<polygon fill="#63b8ff" stroke="#63b8ff" points="903.04,-29.54 898.99,-19.75 896.05,-29.93 903.04,-29.54"/>
</g>
<!-- Node15 -->
<g id="node15" class="node">
<title>Node15</title>
<g id="a_node15"><a xlink:title=" ">
<polygon fill="#e0e0e0" stroke="#999999" points="949.5,-0.5 949.5,-19.5 1003.5,-19.5 1003.5,-0.5 949.5,-0.5"/>
<text text-anchor="middle" x="976.5" y="-7.5" font-family="Helvetica,sans-Serif" font-size="10.00">compare</text>
</a>
</g>
</g>
<!-- Node14&#45;&gt;Node15 -->
<g id="edge17" class="edge">
<title>Node14&#45;&gt;Node15</title>
<path fill="none" stroke="#63b8ff" d="M913.55,-56.32C924.96,-48.11 942.33,-35.6 955.93,-25.81"/>
<polygon fill="#63b8ff" stroke="#63b8ff" points="958.16,-28.52 964.23,-19.83 954.07,-22.84 958.16,-28.52"/>
</g>
<!-- Node14&#45;&gt;Node16 -->
<g id="edge24" class="edge">
<title>Node14&#45;&gt;Node16</title>
<path fill="none" stroke="#63b8ff" d="M924.63,-56.44C948.98,-47.44 987.51,-33.19 1014.92,-23.05"/>
<polygon fill="#63b8ff" stroke="#63b8ff" points="1016.31,-26.27 1024.47,-19.52 1013.88,-19.7 1016.31,-26.27"/>
</g>
<!-- Node17&#45;&gt;Node3 -->
<g id="edge27" class="edge">
<title>Node17&#45;&gt;Node3</title>
<path fill="none" stroke="#63b8ff" d="M542.44,-113.85C517.6,-107.59 486.53,-96.21 465.5,-76 452.51,-63.52 445.22,-44.01 441.35,-29.62"/>
<polygon fill="#63b8ff" stroke="#63b8ff" points="444.74,-28.74 439.03,-19.81 437.93,-30.35 444.74,-28.74"/>
</g>
<!-- Node17&#45;&gt;Node4 -->
<g id="edge30" class="edge">
<title>Node17&#45;&gt;Node4</title>
<path fill="none" stroke="#63b8ff" d="M542.21,-113.22C503.07,-103.76 452.4,-85.34 473.5,-56 494.8,-26.37 536.57,-15.98 567.83,-12.48"/>
<polygon fill="#63b8ff" stroke="#63b8ff" points="568.36,-15.94 577.99,-11.53 567.71,-8.97 568.36,-15.94"/>
</g>
<!-- Node17&#45;&gt;Node5 -->
<g id="edge31" class="edge">
<title>Node17&#45;&gt;Node5</title>
<path fill="none" stroke="#63b8ff" d="M560.13,-112.41C533,-100.73 493.04,-78.68 511.5,-56 522.93,-41.96 634.83,-24.24 693.3,-15.84"/>
<polygon fill="#63b8ff" stroke="#63b8ff" points="693.82,-19.31 703.23,-14.43 692.83,-12.37 693.82,-19.31"/>
</g>
<!-- Node17&#45;&gt;Node10 -->
<g id="edge28" class="edge">
<title>Node17&#45;&gt;Node10</title>
<path fill="none" stroke="#63b8ff" d="M572.09,-112.25C557.57,-99.01 534.6,-73.57 549.5,-56 551.4,-53.75 711.16,-28.36 784.92,-16.74"/>
<polygon fill="#63b8ff" stroke="#63b8ff" points="785.81,-20.14 795.15,-15.13 784.73,-13.23 785.81,-20.14"/>
</g>
<!-- Node17&#45;&gt;Node11 -->
<g id="edge29" class="edge">
<title>Node17&#45;&gt;Node11</title>
<path fill="none" stroke="#63b8ff" d="M593.43,-112.32C603.67,-104.18 619.22,-91.84 631.5,-82.09"/>
<polygon fill="#63b8ff" stroke="#63b8ff" points="633.72,-84.79 639.38,-75.83 629.37,-79.31 633.72,-84.79"/>
</g>
<!-- Node17&#45;&gt;Node12 -->
<g id="edge32" class="edge">
<title>Node17&#45;&gt;Node12</title>
<path fill="none" stroke="#63b8ff" d="M602.62,-112.44C623.52,-103.56 656.43,-89.56 680.22,-79.45"/>
<polygon fill="#63b8ff" stroke="#63b8ff" points="681.64,-82.65 689.47,-75.52 678.9,-76.21 681.64,-82.65"/>
</g>
<!-- Node17&#45;&gt;Node13 -->
<g id="edge33" class="edge">
<title>Node17&#45;&gt;Node13</title>
<path fill="none" stroke="#63b8ff" d="M580.07,-112.06C576.87,-98.09 573.19,-71.13 587.5,-56 626.99,-14.23 781.59,-28.76 855.67,-19.74"/>
<polygon fill="#63b8ff" stroke="#63b8ff" points="856.6,-23.14 865.99,-18.23 855.59,-16.21 856.6,-23.14"/>
</g>
<!-- Node17&#45;&gt;Node14 -->
<g id="edge34" class="edge">
<title>Node17&#45;&gt;Node14</title>
<path fill="none" stroke="#63b8ff" d="M622.58,-114.22C680.75,-104.37 788.52,-86.13 851.71,-75.43"/>
<polygon fill="#63b8ff" stroke="#63b8ff" points="852.56,-78.83 861.84,-73.71 851.39,-71.93 852.56,-78.83"/>
</g>
<!-- Node17&#45;&gt;Node16 -->
<g id="edge35" class="edge">
<title>Node17&#45;&gt;Node16</title>
<path fill="none" stroke="#63b8ff" d="M584.73,-112.47C588.99,-98.06 599.77,-69.19 620.5,-56 691.85,-10.6 911.08,-33.3 1012.02,-19.61"/>
<polygon fill="#63b8ff" stroke="#63b8ff" points="1012.64,-23.05 1021.99,-18.06 1011.57,-16.13 1012.64,-23.05"/>
</g>
<!-- Node18&#45;&gt;Node3 -->
<g id="edge37" class="edge">
<title>Node18&#45;&gt;Node3</title>
<path fill="none" stroke="#63b8ff" d="M807.15,-112.08C794.69,-97.64 767.88,-69.4 738.5,-56 692.09,-34.83 544.45,-19.99 474.69,-13.98"/>
<polygon fill="#63b8ff" stroke="#63b8ff" points="474.85,-10.48 464.59,-13.13 474.26,-17.46 474.85,-10.48"/>
</g>
<!-- Node18&#45;&gt;Node4 -->
<g id="edge40" class="edge">
<title>Node18&#45;&gt;Node4</title>
<path fill="none" stroke="#63b8ff" d="M811.18,-112.39C805.34,-98.39 791.88,-70.77 771.5,-56 734.62,-29.27 682.63,-18.42 647.14,-14.01"/>
<polygon fill="#63b8ff" stroke="#63b8ff" points="647.47,-10.52 637.14,-12.88 646.68,-17.48 647.47,-10.52"/>
</g>
<!-- Node18&#45;&gt;Node5 -->
<g id="edge41" class="edge">
<title>Node18&#45;&gt;Node5</title>
<path fill="none" stroke="#63b8ff" d="M816.28,-112.19C818.46,-98.88 820.62,-73.34 809.5,-56 798.97,-39.59 780.26,-28.63 763.46,-21.64"/>
<polygon fill="#63b8ff" stroke="#63b8ff" points="764.47,-18.27 753.88,-17.97 761.97,-24.81 764.47,-18.27"/>
</g>
<!-- Node18&#45;&gt;Node10 -->
<g id="edge38" class="edge">
<title>Node18&#45;&gt;Node10</title>
<path fill="none" stroke="#63b8ff" d="M869.5,-117.51C898.31,-112.55 931.3,-101.25 949.5,-76 954.7,-68.79 954.64,-63.25 949.5,-56 943.93,-48.14 893.19,-31.94 857.3,-21.28"/>
<polygon fill="#63b8ff" stroke="#63b8ff" points="858.2,-17.9 847.62,-18.43 856.22,-24.61 858.2,-17.9"/>
</g>
<!-- Node18&#45;&gt;Node11 -->
<g id="edge39" class="edge">
<title>Node18&#45;&gt;Node11</title>
<path fill="none" stroke="#63b8ff" d="M788.51,-112.44C759.3,-102.82 711.92,-87.22 680.98,-77.04"/>
<polygon fill="#63b8ff" stroke="#63b8ff" points="681.77,-73.61 671.17,-73.81 679.58,-80.26 681.77,-73.61"/>
</g>
<!-- Node18&#45;&gt;Node12 -->
<g id="edge42" class="edge">
<title>Node18&#45;&gt;Node12</title>
<path fill="none" stroke="#63b8ff" d="M797.63,-112.32C780.79,-103.66 754.69,-90.24 735.26,-80.25"/>
<polygon fill="#63b8ff" stroke="#63b8ff" points="736.82,-77.12 726.33,-75.65 733.62,-83.34 736.82,-77.12"/>
</g>
<!-- Node18&#45;&gt;Node13 -->
<g id="edge43" class="edge">
<title>Node18&#45;&gt;Node13</title>
<path fill="none" stroke="#63b8ff" d="M869.77,-120.1C903.25,-116.34 943.59,-105.39 965.5,-76 980.53,-55.84 952.72,-36.24 928.49,-23.92"/>
<polygon fill="#63b8ff" stroke="#63b8ff" points="930,-20.77 919.47,-19.57 926.96,-27.07 930,-20.77"/>
</g>
<!-- Node18&#45;&gt;Node14 -->
<g id="edge44" class="edge">
<title>Node18&#45;&gt;Node14</title>
<path fill="none" stroke="#63b8ff" d="M828.48,-112.32C842.05,-103.9 862.88,-90.97 878.82,-81.07"/>
<polygon fill="#63b8ff" stroke="#63b8ff" points="880.91,-83.9 887.56,-75.65 877.21,-77.95 880.91,-83.9"/>
</g>
<!-- Node18&#45;&gt;Node16 -->
<g id="edge45" class="edge">
<title>Node18&#45;&gt;Node16</title>
<path fill="none" stroke="#63b8ff" d="M869.88,-113.65C904.06,-107.35 947.85,-96 982.5,-76 1003.79,-63.71 1022.99,-42.68 1034.91,-27.87"/>
<polygon fill="#63b8ff" stroke="#63b8ff" points="1037.97,-29.64 1041.34,-19.59 1032.44,-25.34 1037.97,-29.64"/>
</g>
<!-- Node19&#45;&gt;Node3 -->
<g id="edge47" class="edge">
<title>Node19&#45;&gt;Node3</title>
<path fill="none" stroke="#63b8ff" d="M1086.99,-112.46C1059.98,-98.04 1002.14,-69.14 949.5,-56 903.79,-44.59 584.97,-21.37 474.83,-13.6"/>
<polygon fill="#63b8ff" stroke="#63b8ff" points="474.76,-10.09 464.54,-12.88 474.26,-17.07 474.76,-10.09"/>
</g>
<!-- Node19&#45;&gt;Node4 -->
<g id="edge50" class="edge">
<title>Node19&#45;&gt;Node4</title>
<path fill="none" stroke="#63b8ff" d="M1104.9,-112.44C1108.23,-98.5 1112.29,-70.98 1097.5,-56 1065.91,-24.02 739.25,-24.31 694.5,-20 679.18,-18.52 662.34,-16.8 647.6,-15.27"/>
<polygon fill="#63b8ff" stroke="#63b8ff" points="647.6,-11.75 637.29,-14.19 646.87,-18.71 647.6,-11.75"/>
</g>
<!-- Node19&#45;&gt;Node5 -->
<g id="edge51" class="edge">
<title>Node19&#45;&gt;Node5</title>
<path fill="none" stroke="#63b8ff" d="M1113.05,-112.13C1127.74,-98.74 1150.93,-73.1 1135.5,-56 1109.39,-27.05 825.16,-24.99 786.5,-20 779.07,-19.04 771.11,-17.89 763.56,-16.74"/>
<polygon fill="#63b8ff" stroke="#63b8ff" points="764,-13.26 753.58,-15.18 762.92,-20.18 764,-13.26"/>
</g>
<!-- Node19&#45;&gt;Node10 -->
<g id="edge48" class="edge">
<title>Node19&#45;&gt;Node10</title>
<path fill="none" stroke="#63b8ff" d="M1124.71,-112.35C1152.18,-100.44 1193.09,-77.94 1173.5,-56 1128.17,-5.23 942,-30.61 857.78,-19.73"/>
<polygon fill="#63b8ff" stroke="#63b8ff" points="858.21,-16.26 847.79,-18.18 857.13,-23.18 858.21,-16.26"/>
</g>
<!-- Node19&#45;&gt;Node11 -->
<g id="edge49" class="edge">
<title>Node19&#45;&gt;Node11</title>
<path fill="none" stroke="#63b8ff" d="M1053.96,-118.75C976.85,-114.54 821.62,-103.46 681.12,-75.73"/>
<polygon fill="#63b8ff" stroke="#63b8ff" points="681.52,-72.24 671.03,-73.71 680.15,-79.11 681.52,-72.24"/>
</g>
<!-- Node19&#45;&gt;Node12 -->
<g id="edge52" class="edge">
<title>Node19&#45;&gt;Node12</title>
<path fill="none" stroke="#63b8ff" d="M1053.92,-114.32C971.65,-103.02 807.29,-80.44 739.65,-71.14"/>
<polygon fill="#63b8ff" stroke="#63b8ff" points="740.03,-67.66 729.65,-69.77 739.08,-74.6 740.03,-67.66"/>
</g>
<!-- Node19&#45;&gt;Node13 -->
<g id="edge53" class="edge">
<title>Node19&#45;&gt;Node13</title>
<path fill="none" stroke="#63b8ff" d="M1143.47,-112.47C1183.56,-102.33 1235.38,-83.26 1211.5,-56 1173.27,-12.35 1015.47,-28.7 940.95,-19.68"/>
<polygon fill="#63b8ff" stroke="#63b8ff" points="941.41,-16.21 931.01,-18.23 940.4,-23.14 941.41,-16.21"/>
</g>
<!-- Node19&#45;&gt;Node14 -->
<g id="edge54" class="edge">
<title>Node19&#45;&gt;Node14</title>
<path fill="none" stroke="#63b8ff" d="M1070.65,-112.44C1036.1,-103.16 980.82,-88.31 942.92,-78.13"/>
<polygon fill="#63b8ff" stroke="#63b8ff" points="943.77,-74.73 933.2,-75.52 941.95,-81.49 943.77,-74.73"/>
</g>
<!-- Node19&#45;&gt;Node16 -->
<g id="edge55" class="edge">
<title>Node19&#45;&gt;Node16</title>
<path fill="none" stroke="#63b8ff" d="M1151.17,-116.45C1204.61,-109.53 1279.17,-93.01 1249.5,-56 1229.05,-30.5 1135.62,-18.51 1083.28,-13.71"/>
<polygon fill="#63b8ff" stroke="#63b8ff" points="1083.36,-10.21 1073.09,-12.82 1082.75,-17.18 1083.36,-10.21"/>
</g>
<!-- Node20&#45;&gt;Node8 -->
<g id="edge58" class="edge">
<title>Node20&#45;&gt;Node8</title>
<path fill="none" stroke="#63b8ff" d="M721.88,-224.08C718.04,-216.69 712.48,-205.95 707.74,-196.81"/>
<polygon fill="#63b8ff" stroke="#63b8ff" points="710.75,-195.02 703.04,-187.75 704.53,-198.24 710.75,-195.02"/>
</g>
<!-- Node20&#45;&gt;Node16 -->
<g id="edge59" class="edge">
<title>Node20&#45;&gt;Node16</title>
<path fill="none" stroke="#63b8ff" d="M755.06,-229.67C858.75,-216.89 1212.12,-167.09 1267.5,-76 1272.12,-68.4 1273.12,-62.89 1267.5,-56 1244.69,-28.05 1139.88,-16.99 1083.55,-13.01"/>
<polygon fill="#63b8ff" stroke="#63b8ff" points="1083.51,-9.5 1073.3,-12.33 1083.05,-16.49 1083.51,-9.5"/>
</g>
</g>
</svg>
